<svg width="80" height="49" viewBox="0 0 80 49" fill="none" xmlns="http://www.w3.org/2000/svg">
<g clip-path="url(#clip0_12_169)">
<path d="M9.41638 12.1265C9.41638 12.1265 15.402 15.9944 25.896 10.9663C31.6393 8.21442 39.9658 8.72552 36.5454 19.9918C50.6922 5.36072 40.1988 -3.68999 23.3147 7.35297C16.7842 11.624 12.5414 12.491 9.41638 12.1271L9.41638 12.1265Z" fill="#132B58"/>
<path d="M32.8536 34.8343C20.8664 32.6217 15.9948 37.934 15.1311 42.9573C6.03713 35.1821 2.75736 18.6067 5.60805 10.4241C8.95071 0.831037 14.2205 8.16438 19.118 7.00413C14.5707 5.14747 12.6041 -3.03688 5.32261 1.20224C-3.63204 6.41571 -2.46686 36.4688 17.975 48.9996C17.4202 43.3493 20.5051 34.8821 32.8536 34.8343Z" fill="#132B58"/>
<path d="M19.3149 14.525C19.3149 14.525 22.1515 14.5974 25.9485 12.5652C31.5414 9.57164 37.7606 10.9601 34.81 19.9918C34.7545 14.0544 32.4229 13.3837 29.0353 13.5451C26.0033 13.6893 22.9942 15.503 19.3149 14.525Z" fill="#132B58"/>
<path d="M11.5526 22.3633L14.5328 22.3633C17.7244 22.3633 19.3205 23.9051 19.3205 26.9883C19.3205 30.0715 17.7244 31.7152 14.5328 31.7152L11.5526 31.7152L11.5526 22.3633ZM12.7961 30.6047L14.5075 30.6047C15.8706 30.6047 16.7996 30.2887 17.2959 29.6573C17.7916 29.026 18.0394 28.1357 18.0394 26.9877C18.0394 25.8397 17.7928 25.004 17.299 24.3917C16.8058 23.7794 15.8749 23.4732 14.5075 23.4732L12.7961 23.4732L12.7961 30.6047Z" fill="#132B58"/>
<path d="M23.763 31.8741C22.763 31.8741 21.9597 31.5624 21.3531 30.9397C20.7464 30.3169 20.4431 29.4481 20.4431 28.3339C20.4431 27.2196 20.7372 26.3619 21.3247 25.7342C21.9122 25.1071 22.6804 24.793 23.6292 24.793C24.578 24.793 25.3733 25.1016 25.9528 25.7182C26.5317 26.3349 26.8214 27.2067 26.8214 28.3339L26.8214 28.621L21.7002 28.621C21.7513 29.4033 21.9683 29.9844 22.3506 30.3623C22.7328 30.7409 23.2038 30.9299 23.7636 30.9299C24.1865 30.9299 24.5681 30.8225 24.9078 30.6077C25.2475 30.393 25.4257 30.088 25.4429 29.6923L26.6926 29.6923C26.5982 30.3899 26.2814 30.928 25.7407 31.306C25.2 31.6845 24.541 31.8735 23.7636 31.8735L23.763 31.8741ZM25.5446 27.6767C25.446 27.0263 25.2265 26.5392 24.8844 26.2158C24.5422 25.8925 24.1236 25.7311 23.6279 25.7311C23.1323 25.7311 22.7303 25.8919 22.3845 26.2128C22.0386 26.5337 21.8185 27.0221 21.7242 27.6767L25.544 27.6767L25.5446 27.6767Z" fill="#132B58"/>
<path d="M29.3841 25.8078C29.9865 25.1317 30.664 24.7936 31.4161 24.7936C32.95 24.7936 33.7169 25.625 33.7169 27.2877L33.7169 31.7146L32.5055 31.7146L32.5055 27.3387C32.5055 26.7858 32.4062 26.3882 32.2077 26.1459C32.0092 25.9035 31.6831 25.782 31.2299 25.782C30.6147 25.782 29.9994 26.1434 29.3841 26.8662L29.3841 31.714L28.1727 31.714L28.1727 24.9457L29.3841 24.9457L29.3841 25.8072L29.3841 25.8078Z" fill="#132B58"/>
<path d="M38.1138 31.7275C37.8487 31.7784 37.5602 31.8042 37.2488 31.8042C36.7532 31.8042 36.3901 31.7159 36.1595 31.5398C35.9289 31.3631 35.7853 31.1366 35.7298 30.8605C35.6743 30.5838 35.6466 30.2077 35.6466 29.7316L35.6466 25.8913L34.8069 25.8913L34.8069 24.947L35.6466 24.947L35.6466 23.2628L36.8518 23.2628L36.8518 24.947L37.9541 24.947L37.9541 25.8913L36.8518 25.8913L36.8518 29.7954C36.8518 30.2592 36.9104 30.5538 37.0281 30.6789C37.1453 30.8047 37.3068 30.8673 37.5121 30.8673C37.7174 30.8673 37.9221 30.8501 38.1144 30.8164L38.1144 31.7287L38.1138 31.7275Z" fill="#132B58"/>
<path d="M43.4275 31.0194C42.8122 31.5894 42.0194 31.8741 41.0496 31.8741C40.3746 31.8741 39.8191 31.6925 39.3832 31.3287C38.9474 30.9648 38.7297 30.4961 38.7297 29.9224C38.7297 28.3406 40.099 27.5491 42.8381 27.5491L43.4281 27.5491C43.4281 27.0644 43.4022 26.7122 43.351 26.4932C43.2998 26.2741 43.1568 26.0925 42.9213 25.9477C42.6864 25.8029 42.3122 25.7311 41.7999 25.7311C40.7229 25.7311 40.1674 26.114 40.1335 26.8791L38.9283 26.8791C39.0183 25.4881 39.9966 24.793 41.864 24.793C42.7357 24.793 43.4151 24.9654 43.9022 25.3096C44.3892 25.6538 44.6327 26.3306 44.6327 27.338L44.6327 31.714L43.4275 31.714L43.4275 31.0188L43.4275 31.0194ZM43.4275 29.9353L43.4275 28.4363L42.6007 28.4363C40.8486 28.4363 39.9726 28.9106 39.9726 29.8586C39.9726 30.2028 40.1008 30.4678 40.3573 30.6525C40.6138 30.8372 40.9596 30.9299 41.3955 30.9299C41.7925 30.9299 42.1772 30.8403 42.5489 30.6617C42.9207 30.4832 43.2135 30.2408 43.4268 29.9347L43.4275 29.9353Z" fill="#132B58"/>
<path d="M47.632 31.7146L46.4205 31.7146L46.4205 22.3626L47.632 22.3626L47.632 31.7146Z" fill="#132B58"/>
<path d="M56.9966 31.8741C55.6674 31.8741 54.607 31.4391 53.8142 30.5697C53.0214 29.7003 52.625 28.5229 52.625 27.0392C52.625 25.5556 53.0214 24.3782 53.8142 23.5082C54.607 22.6388 55.6674 22.2037 56.9966 22.2037C58.0181 22.2037 58.8874 22.478 59.605 23.0265C60.3226 23.5751 60.7264 24.2978 60.8164 25.1955L59.5347 25.1955C59.4836 24.6046 59.2259 24.1346 58.7622 23.7855C58.2986 23.437 57.7142 23.2628 57.0095 23.2628C56.0564 23.2628 55.3025 23.5892 54.747 24.242C54.1915 24.8948 53.9135 25.8275 53.9135 27.0392C53.9135 28.251 54.1891 29.1781 54.7402 29.8334C55.2914 30.4881 56.0392 30.8157 56.9836 30.8157C57.7185 30.8157 58.3128 30.6372 58.7653 30.2801C59.2178 29.923 59.4743 29.4125 59.5347 28.7493L60.8164 28.7493C60.7264 29.7445 60.3337 30.5145 59.6371 31.0587C58.9404 31.603 58.0601 31.8754 56.9966 31.8754L56.9966 31.8741Z" fill="#132B58"/>
<path d="M66.6873 31.0194C66.0721 31.5894 65.2793 31.8741 64.3095 31.8741C63.6344 31.8741 63.079 31.6925 62.6431 31.3287C62.2072 30.9648 61.9896 30.4961 61.9896 29.9224C61.9896 28.3406 63.3589 27.5491 66.098 27.5491L66.6873 27.5491C66.6873 27.0644 66.6615 26.7122 66.6103 26.4932C66.5591 26.2741 66.4161 26.0925 66.1806 25.9477C65.9457 25.8029 65.5715 25.7311 65.0592 25.7311C63.9822 25.7311 63.4267 26.114 63.3928 26.8791L62.1875 26.8791C62.2775 25.4881 63.2559 24.793 65.1233 24.793C65.995 24.793 66.6744 24.9654 67.1614 25.3096C67.6485 25.6538 67.892 26.3306 67.892 27.338L67.892 31.714L66.6867 31.714L66.6867 31.0188L66.6873 31.0194ZM66.6873 29.9353L66.6873 28.4363L65.8606 28.4363C64.1085 28.4363 63.2325 28.9106 63.2325 29.8586C63.2325 30.2028 63.3607 30.4678 63.6172 30.6525C63.8736 30.8372 64.2195 30.9299 64.6554 30.9299C65.0524 30.9299 65.4371 30.8403 65.8088 30.6617C66.1806 30.4832 66.4734 30.2408 66.6867 29.9347L66.6873 29.9353Z" fill="#132B58"/>
<path d="M73.2123 26.0441C73.0416 25.9931 72.7956 25.9674 72.475 25.9674C71.8597 25.9674 71.332 26.2883 70.8918 26.9307L70.8918 31.7152L69.6804 31.7152L69.6804 24.947L70.8918 24.947L70.8918 25.8913C71.4005 25.1599 71.9898 24.7942 72.6606 24.7942C72.8313 24.7942 73.0151 24.8114 73.2117 24.8451L73.2117 26.0447L73.2123 26.0441Z" fill="#132B58"/>
<path d="M76.9428 31.8741C75.9428 31.8741 75.1395 31.5624 74.5329 30.9397C73.9262 30.3169 73.6229 29.4481 73.6229 28.3339C73.6229 27.2196 73.917 26.3619 74.5045 25.7342C75.092 25.1071 75.8602 24.793 76.809 24.793C77.7578 24.793 78.5531 25.1016 79.1326 25.7182C79.7115 26.3349 80.0012 27.2067 80.0012 28.3339L80.0012 28.621L74.88 28.621C74.9311 29.4033 75.1481 29.9844 75.5304 30.3623C75.9126 30.7409 76.3836 30.9299 76.9434 30.9299C77.3663 30.9299 77.7479 30.8225 78.0876 30.6077C78.4273 30.393 78.6055 30.088 78.6227 29.6923L79.8724 29.6923C79.7781 30.3899 79.4612 30.928 78.9205 31.306C78.3798 31.6845 77.7208 31.8735 76.9434 31.8735L76.9428 31.8741ZM78.7245 27.6767C78.6258 27.0263 78.4063 26.5392 78.0642 26.2158C77.722 25.8925 77.3034 25.7311 76.8078 25.7311C76.3121 25.7311 75.9101 25.8919 75.5643 26.2128C75.2184 26.5337 74.9983 27.0221 74.904 27.6767L78.7238 27.6767L78.7245 27.6767Z" fill="#132B58"/>
<path d="M17.4198 8.12362C17.4198 8.12362 16.6813 8.43286 13.9607 7.50454C11.24 6.57621 8.48059 6.65291 7.00346 11.2178C5.52633 15.7828 6.0707 20.3759 7.00346 24.5003C6.45909 20.0378 6.85488 13.2297 9.41644 10.6767C11.978 8.12362 15.1653 10.9086 17.4192 8.12362L17.4198 8.12362Z" fill="#132B58"/>
<path d="M18.9487 48.0944C18.9487 48.0944 19.2077 36.2317 32.1116 35.7163C28.0692 36.49 22.0584 39.0173 18.9487 48.0944Z" fill="#132B58"/>
<path d="M36.2637 39.6658C36.1595 39.6861 36.0461 39.6959 35.9234 39.6959C35.7286 39.6959 35.5856 39.6609 35.4949 39.5916C35.4043 39.5223 35.3476 39.4333 35.326 39.3241C35.3044 39.2155 35.2933 39.067 35.2933 38.8798L35.2933 37.3686L34.9629 37.3686L34.9629 36.9974L35.2933 36.9974L35.2933 36.3348L35.7674 36.3348L35.7674 36.9974L36.2014 36.9974L36.2014 37.3686L35.7674 37.3686L35.7674 38.905C35.7674 39.0872 35.7902 39.2032 35.8371 39.2529C35.8833 39.3026 35.9468 39.3271 36.0276 39.3271C36.1083 39.3271 36.1891 39.3204 36.2649 39.3069L36.2649 39.6658L36.2637 39.6658Z" fill="#132B58"/>
<path d="M40.0126 39.3873C39.7703 39.6112 39.4583 39.7235 39.0767 39.7235C38.811 39.7235 38.5928 39.6517 38.4208 39.5087C38.2494 39.3658 38.1637 39.1811 38.1637 38.9553C38.1637 38.3332 38.7025 38.0215 39.7802 38.0215L40.012 38.0215C40.012 37.8306 40.0021 37.6926 39.9818 37.6061C39.9614 37.5202 39.9053 37.4484 39.8128 37.3913C39.7204 37.3343 39.573 37.306 39.3714 37.306C38.9479 37.306 38.729 37.4564 38.7155 37.7576L38.2414 37.7576C38.2765 37.2103 38.6618 36.9367 39.3967 36.9367C39.7395 36.9367 40.007 37.0042 40.1988 37.1398C40.3905 37.2754 40.4861 37.5417 40.4861 37.938L40.4861 39.6597L40.012 39.6597L40.012 39.386L40.0126 39.3873ZM40.0126 38.9608L40.0126 38.3712L39.6871 38.3712C38.9978 38.3712 38.6532 38.5577 38.6532 38.9308C38.6532 39.0664 38.7038 39.1707 38.8042 39.2431C38.9053 39.3161 39.0416 39.3523 39.213 39.3523C39.3696 39.3523 39.5206 39.3173 39.6667 39.2468C39.8128 39.1762 39.9281 39.0811 40.012 38.9608L40.0126 38.9608Z" fill="#132B58"/>
<path d="M45.0173 39.4554C45.0173 40.3119 44.6289 40.7402 43.8521 40.7402C43.5161 40.7402 43.2504 40.6671 43.0562 40.5217C42.862 40.3763 42.7653 40.1806 42.7653 39.9346L43.2572 39.9346C43.2572 40.226 43.4539 40.3714 43.8472 40.3714C44.0691 40.3714 44.2405 40.3107 44.362 40.1892C44.4828 40.0677 44.5439 39.8296 44.5439 39.475L44.5439 39.3418C44.3318 39.5965 44.0772 39.7235 43.7794 39.7235C43.4298 39.7235 43.1592 39.5995 42.9675 39.3523C42.7757 39.1044 42.6802 38.7706 42.6802 38.3509C42.6802 37.9313 42.7874 37.5717 43.002 37.3183C43.2165 37.0649 43.4859 36.9379 43.8102 36.9379C44.0994 36.9379 44.3441 37.0269 44.5439 37.2042L44.5439 36.9986L45.0179 36.9986L45.0179 39.456L45.0173 39.4554ZM44.5432 38.8958L44.5432 37.6306C44.3379 37.4146 44.1037 37.3067 43.8398 37.3067C43.6364 37.3067 43.4736 37.3938 43.3515 37.5686C43.2295 37.7435 43.1684 38.0043 43.1684 38.3503C43.1684 38.6786 43.2258 38.9271 43.3411 39.097C43.4563 39.267 43.6154 39.3517 43.8189 39.3517C44.0846 39.3517 44.3256 39.1995 44.5426 38.8946L44.5432 38.8958Z" fill="#132B58"/>
<path d="M47.8557 39.6609L47.3792 39.6609L47.3792 35.9814L47.8557 35.9814L47.8557 39.6609Z" fill="#132B58"/>
<path d="M50.691 36.4931L50.2145 36.4931L50.2145 35.9814L50.691 35.9814L50.691 36.4931ZM50.691 39.6609L50.2145 39.6609L50.2145 36.998L50.691 36.998L50.691 39.6609Z" fill="#132B58"/>
<path d="M53.527 37.3367C53.7643 37.0704 54.0306 36.9379 54.3266 36.9379C54.9301 36.9379 55.2322 37.2649 55.2322 37.919L55.2322 39.6609L54.7556 39.6609L54.7556 37.9392C54.7556 37.7214 54.7168 37.565 54.6385 37.4699C54.5602 37.3748 54.432 37.3269 54.2538 37.3269C54.0115 37.3269 53.7699 37.4692 53.5276 37.7533L53.5276 39.6609L53.051 39.6609L53.051 36.998L53.5276 36.998L53.5276 37.3367L53.527 37.3367Z" fill="#132B58"/>
<path d="M58.7185 39.7235C58.3251 39.7235 58.0089 39.6008 57.7703 39.356C57.5317 39.1111 57.4121 38.7688 57.4121 38.3307C57.4121 37.8926 57.528 37.5545 57.7586 37.3079C57.9898 37.0612 58.2919 36.9379 58.6655 36.9379C59.0391 36.9379 59.3516 37.0594 59.5797 37.3017C59.8078 37.5441 59.9213 37.8877 59.9213 38.3307L59.9213 38.4436L57.9059 38.4436C57.9263 38.7516 58.0113 38.9798 58.1618 39.1289C58.3122 39.278 58.4978 39.3523 58.7179 39.3523C58.8843 39.3523 59.0341 39.3099 59.1679 39.2253C59.3017 39.1406 59.372 39.021 59.3787 38.8651L59.8707 38.8651C59.8337 39.1394 59.7086 39.3511 59.4959 39.5001C59.2832 39.6492 59.0236 39.7235 58.7179 39.7235L58.7185 39.7235ZM59.4194 38.0718C59.3806 37.8159 59.2943 37.6239 59.1599 37.4969C59.0255 37.3698 58.8603 37.306 58.6655 37.306C58.4706 37.306 58.3122 37.3692 58.176 37.4956C58.0397 37.622 57.9534 37.8141 57.9164 38.0718L59.4194 38.0718Z" fill="#132B58"/>
<path d="M65.6183 37.3367C65.8556 37.0704 66.1219 36.9379 66.4179 36.9379C67.0214 36.9379 67.3235 37.2649 67.3235 37.919L67.3235 39.6609L66.847 39.6609L66.847 37.9392C66.847 37.7214 66.8081 37.565 66.7298 37.4699C66.6515 37.3748 66.5233 37.3269 66.3451 37.3269C66.1028 37.3269 65.8612 37.4693 65.6189 37.7533L65.6189 39.6609L65.1423 39.6609L65.1423 35.9814L65.6189 35.9814L65.6189 37.3367L65.6183 37.3367Z" fill="#132B58"/>
<path d="M70.8099 39.7235C70.4166 39.7235 70.1003 39.6008 69.8617 39.356C69.6231 39.1111 69.5035 38.7688 69.5035 38.3307C69.5035 37.8926 69.6194 37.5545 69.85 37.3079C70.0812 37.0612 70.3833 36.9379 70.7569 36.9379C71.1305 36.9379 71.443 37.0594 71.6712 37.3017C71.8993 37.5441 72.0127 37.8877 72.0127 38.3307L72.0127 38.4436L69.9974 38.4436C70.0177 38.7516 70.1028 38.9798 70.2532 39.1289C70.4036 39.278 70.5892 39.3523 70.8093 39.3523C70.9757 39.3523 71.1255 39.3099 71.2593 39.2253C71.3931 39.1406 71.4634 39.021 71.4702 38.8651L71.9621 38.8651C71.9251 39.1394 71.8 39.3511 71.5873 39.5001C71.3746 39.6492 71.1151 39.7235 70.8093 39.7235L70.8099 39.7235ZM71.5109 38.0718C71.472 37.8159 71.3857 37.6239 71.2513 37.4969C71.1169 37.3698 70.9517 37.306 70.7569 37.306C70.5621 37.306 70.4036 37.3692 70.2674 37.4956C70.1311 37.622 70.0448 37.8141 70.0078 38.0718L71.5109 38.0718Z" fill="#132B58"/>
<path d="M75.5927 37.4294C75.5255 37.4091 75.4287 37.3993 75.303 37.3993C75.0607 37.3993 74.8529 37.5257 74.6803 37.7785L74.6803 39.6609L74.2037 39.6609L74.2037 36.998L74.6803 36.998L74.6803 37.3692C74.8807 37.0815 75.1125 36.9373 75.3763 36.9373C75.4435 36.9373 75.5156 36.944 75.5933 36.9575L75.5933 37.4294L75.5927 37.4294Z" fill="#132B58"/>
<path d="M78.7183 39.7235C78.325 39.7235 78.0088 39.6008 77.7702 39.356C77.5316 39.1111 77.412 38.7688 77.412 38.3307C77.412 37.8926 77.5279 37.5545 77.7585 37.3079C77.9896 37.0612 78.2917 36.9379 78.6653 36.9379C79.0389 36.9379 79.3515 37.0594 79.5796 37.3017C79.8077 37.5441 79.9211 37.8877 79.9211 38.3307L79.9211 38.4436L77.9058 38.4436C77.9261 38.7516 78.0112 38.9798 78.1616 39.1289C78.3121 39.278 78.4976 39.3523 78.7177 39.3523C78.8842 39.3523 79.034 39.3099 79.1678 39.2253C79.3016 39.1406 79.3718 39.021 79.3786 38.8651L79.8706 38.8651C79.8336 39.1394 79.7084 39.3511 79.4957 39.5001C79.2831 39.6492 79.0235 39.7235 78.7177 39.7235L78.7183 39.7235ZM79.4193 38.0718C79.3805 37.8159 79.2942 37.6239 79.1598 37.4969C79.0254 37.3698 78.8601 37.306 78.6653 37.306C78.4705 37.306 78.3121 37.3692 78.1758 37.4956C78.0396 37.622 77.9533 37.8141 77.9163 38.0718L79.4193 38.0718Z" fill="#132B58"/>
</g>
<defs>
<clipPath id="clip0_12_169">
<rect width="80" height="49" fill="white"/>
</clipPath>
</defs>
</svg>
