<svg width="70" height="43" viewBox="0 0 70 43" fill="none" xmlns="http://www.w3.org/2000/svg">
<g clip-path="url(#clip0_12_142)">
<path d="M8.23935 10.6416C8.23935 10.6416 13.4767 14.0359 22.659 9.62345C27.6844 7.20856 34.9701 7.65708 31.9773 17.5438C44.3557 4.7043 35.174 -3.23816 20.4004 6.4526C14.6862 10.2006 10.9738 10.9615 8.23935 10.6422L8.23935 10.6416Z" fill="white"/>
<path d="M28.7469 30.5688C18.2581 28.6272 13.9955 33.289 13.2397 37.6971C5.28252 30.8741 2.41272 16.3282 4.90707 9.14766C7.8319 0.729221 12.443 7.1646 16.7283 6.14642C12.7494 4.51712 11.0286 -2.66508 4.65731 1.05497C-3.178 5.63006 -2.15847 32.0032 15.7282 42.9996C15.2427 38.0412 17.942 30.6108 28.7469 30.5688Z" fill="white"/>
<path d="M16.9005 12.7464C16.9005 12.7464 19.3825 12.8099 22.7049 11.0266C27.5987 8.39958 33.0405 9.61806 30.4587 17.5438C30.4102 12.3334 28.37 11.7449 25.4058 11.8865C22.7529 12.013 20.1199 13.6046 16.9005 12.7464Z" fill="white"/>
<path d="M10.1085 19.6249L12.7161 19.6249C15.5088 19.6249 16.9054 20.978 16.9054 23.6836C16.9054 26.3893 15.5088 27.8317 12.7161 27.8317L10.1085 27.8317L10.1085 19.6249ZM11.1965 26.8572L12.694 26.8572C13.8867 26.8572 14.6996 26.5799 15.1339 26.0258C15.5676 25.4718 15.7844 24.6905 15.7844 23.6831C15.7844 22.6757 15.5687 21.9423 15.1366 21.405C14.705 20.8676 13.8905 20.5989 12.694 20.5989L11.1965 20.5989L11.1965 26.8572Z" fill="white"/>
<path d="M20.7926 27.9712C19.9176 27.9712 19.2147 27.6977 18.6839 27.1512C18.1531 26.6046 17.8877 25.8422 17.8877 24.8644C17.8877 23.8866 18.145 23.1339 18.6591 22.5831C19.1732 22.0328 19.8453 21.7571 20.6755 21.7571C21.5057 21.7571 22.2016 22.0279 22.7087 22.5691C23.2152 23.1102 23.4687 23.8753 23.4687 24.8644L23.4687 25.1164L18.9876 25.1164C19.0324 25.8029 19.2223 26.3128 19.5567 26.6445C19.8912 26.9767 20.3033 27.1425 20.7931 27.1425C21.1632 27.1425 21.4971 27.0483 21.7943 26.8599C22.0916 26.6714 22.2475 26.4038 22.2626 26.0565L23.356 26.0565C23.2735 26.6687 22.9962 27.1409 22.5231 27.4726C22.05 27.8048 21.4734 27.9707 20.7931 27.9707L20.7926 27.9712ZM22.3516 24.2878C22.2653 23.717 22.0732 23.2895 21.7738 23.0057C21.4744 22.722 21.1082 22.5804 20.6745 22.5804C20.2407 22.5804 19.889 22.7214 19.5864 23.0031C19.2838 23.2847 19.0912 23.7132 19.0087 24.2878L22.351 24.2878L22.3516 24.2878Z" fill="white"/>
<path d="M25.7112 22.6477C26.2382 22.0543 26.831 21.7576 27.4892 21.7576C28.8313 21.7576 29.5023 22.4872 29.5023 23.9464L29.5023 27.8312L28.4423 27.8312L28.4423 23.9911C28.4423 23.5059 28.3555 23.157 28.1818 22.9443C28.0081 22.7317 27.7227 22.6251 27.3263 22.6251C26.7879 22.625 26.2495 22.9422 25.7112 23.5765L25.7112 27.8306L24.6512 27.8306L24.6512 21.8912L25.7112 21.8912L25.7112 22.6471L25.7112 22.6477Z" fill="white"/>
<path d="M33.3496 27.8425C33.1176 27.8872 32.8652 27.9098 32.5928 27.9098C32.1591 27.9098 31.8413 27.8323 31.6396 27.6777C31.4378 27.5227 31.3121 27.324 31.2636 27.0817C31.215 26.8389 31.1908 26.5088 31.1908 26.091L31.1908 22.7209L30.4561 22.7209L30.4561 21.8922L31.1908 21.8923L31.1908 20.4142L32.2454 20.4142L32.2454 21.8923L33.2099 21.8923L33.2099 22.7209L32.2454 22.7209L32.2454 26.147C32.2454 26.554 32.2966 26.8125 32.3996 26.9223C32.5021 27.0327 32.6435 27.0876 32.8231 27.0876C33.0027 27.0876 33.1818 27.0725 33.3501 27.0429L33.3501 27.8436L33.3496 27.8425Z" fill="white"/>
<path d="M37.999 27.2212C37.4606 27.7214 36.7669 27.9712 35.9184 27.9712C35.3277 27.9712 34.8417 27.8118 34.4603 27.4925C34.0789 27.1732 33.8885 26.7619 33.8885 26.2584C33.8885 24.8703 35.0866 24.1758 37.4833 24.1758L37.9995 24.1758C37.9995 23.7504 37.9769 23.4413 37.9321 23.2491C37.8873 23.0569 37.7622 22.8975 37.5561 22.7704C37.3506 22.6434 37.0232 22.5804 36.5749 22.5804C35.6325 22.5804 35.1465 22.9164 35.1168 23.5878L34.0622 23.5878C34.1409 22.3672 34.997 21.7571 36.631 21.7571C37.3937 21.7571 37.9882 21.9084 38.4144 22.2105C38.8405 22.5125 39.0536 23.1064 39.0536 23.9905L39.0536 27.8307L37.999 27.8307L37.999 27.2206L37.999 27.2212ZM37.999 26.2697L37.999 24.9543L37.2756 24.9543C35.7425 24.9543 34.976 25.3706 34.976 26.2024C34.976 26.5045 35.0882 26.7371 35.3126 26.8992C35.537 27.0612 35.8396 27.1425 36.221 27.1425C36.5684 27.1425 36.905 27.0639 37.2303 26.9072C37.5556 26.7506 37.8118 26.5379 37.9985 26.2692L37.999 26.2697Z" fill="white"/>
<path d="M41.6779 27.8312L40.6179 27.8312L40.618 19.6244L41.6779 19.6244L41.6779 27.8312Z" fill="white"/>
<path d="M49.872 27.9712C48.709 27.9712 47.7811 27.5894 47.0874 26.8265C46.3937 26.0635 46.0468 25.0302 46.0468 23.7283C46.0468 22.4264 46.3937 21.3931 47.0874 20.6296C47.7811 19.8666 48.709 19.4849 49.872 19.4849C50.7658 19.4849 51.5264 19.7256 52.1543 20.2069C52.7823 20.6883 53.1356 21.3226 53.2143 22.1103L52.0929 22.1103C52.0481 21.5918 51.8226 21.1794 51.4169 20.873C51.0113 20.5671 50.4999 20.4142 49.8833 20.4142C49.0493 20.4142 48.3896 20.7007 47.9036 21.2736C47.4176 21.8465 47.1743 22.6649 47.1743 23.7283C47.1743 24.7917 47.4154 25.6053 47.8977 26.1803C48.3799 26.7548 49.0342 27.0424 49.8607 27.0424C50.5037 27.0424 51.0237 26.8857 51.4196 26.5723C51.8156 26.259 52.04 25.811 52.0929 25.2289L53.2143 25.2289C53.1356 26.1023 52.792 26.778 52.1824 27.2556C51.5728 27.7332 50.8025 27.9723 49.872 27.9723L49.872 27.9712Z" fill="white"/>
<path d="M58.3514 27.2212C57.813 27.7214 57.1193 27.9712 56.2708 27.9712C55.6801 27.9712 55.1941 27.8118 54.8127 27.4925C54.4313 27.1732 54.2409 26.7619 54.2409 26.2584C54.2409 24.8703 55.439 24.1758 57.8357 24.1758L58.3514 24.1758C58.3514 23.7504 58.3287 23.4413 58.284 23.2491C58.2392 23.0569 58.114 22.8975 57.908 22.7704C57.7024 22.6434 57.375 22.5804 56.9267 22.5804C55.9843 22.5804 55.4983 22.9164 55.4686 23.5878L54.414 23.5878C54.4928 22.3672 55.3489 21.7571 56.9828 21.7571C57.7456 21.7571 58.3401 21.9084 58.7662 22.2105C59.1924 22.5125 59.4054 23.1064 59.4054 23.9905L59.4054 27.8307L58.3508 27.8307L58.3508 27.2206L58.3514 27.2212ZM58.3514 26.2697L58.3514 24.9543L57.628 24.9543C56.0949 24.9543 55.3284 25.3706 55.3284 26.2024C55.3284 26.5045 55.4406 26.7371 55.665 26.8992C55.8894 27.0612 56.192 27.1425 56.5734 27.1425C56.9208 27.1425 57.2574 27.0639 57.5827 26.9072C57.908 26.7506 58.1642 26.5379 58.3508 26.2692L58.3514 26.2697Z" fill="white"/>
<path d="M64.0608 22.855C63.9114 22.8103 63.6961 22.7877 63.4156 22.7877C62.8773 22.7877 62.4155 23.0693 62.0304 23.633L62.0304 27.8317L60.9704 27.8317L60.9704 21.8922L62.0304 21.8922L62.0304 22.7209C62.4754 22.0791 62.9911 21.7582 63.578 21.7582C63.7274 21.7582 63.8882 21.7733 64.0603 21.8029L64.0603 22.8555L64.0608 22.855Z" fill="white"/>
<path d="M67.3249 27.9712C66.4499 27.9712 65.7471 27.6977 65.2163 27.1512C64.6854 26.6046 64.42 25.8422 64.42 24.8644C64.42 23.8866 64.6774 23.1339 65.1914 22.5831C65.7055 22.0328 66.3777 21.7571 67.2079 21.7571C68.038 21.7571 68.7339 22.0279 69.241 22.5691C69.7475 23.1102 70.0011 23.8753 70.0011 24.8644L70.0011 25.1164L65.52 25.1164C65.5647 25.8029 65.7546 26.3128 66.0891 26.6445C66.4235 26.9767 66.8356 27.1425 67.3254 27.1425C67.6955 27.1425 68.0294 27.0483 68.3266 26.8599C68.6239 26.6714 68.7798 26.4038 68.7949 26.0565L69.8883 26.0565C69.8058 26.6687 69.5285 27.1409 69.0554 27.4726C68.5823 27.8048 68.0057 27.9707 67.3254 27.9707L67.3249 27.9712ZM68.8839 24.2878C68.7976 23.717 68.6055 23.2895 68.3061 23.0057C68.0068 22.722 67.6405 22.5804 67.2068 22.5804C66.7731 22.5804 66.4214 22.7214 66.1187 23.0031C65.8161 23.2847 65.6235 23.7132 65.541 24.2878L68.8833 24.2878L68.8839 24.2878Z" fill="white"/>
<path d="M15.2423 7.12889C15.2423 7.12889 14.5961 7.40026 12.2156 6.58561C9.83502 5.77096 7.4205 5.83826 6.12801 9.84422C4.83552 13.8502 5.31184 17.8809 6.12801 21.5003C5.65169 17.5842 5.99801 11.6097 8.23937 9.36932C10.4807 7.12889 13.2696 9.57285 15.2418 7.12889L15.2423 7.12889Z" fill="white"/>
<path d="M16.5801 42.2053C16.5801 42.2053 16.8067 31.7952 28.0976 31.3429C24.5605 32.0218 19.301 34.2396 16.5801 42.2053Z" fill="white"/>
<path d="M31.7307 34.8088C31.6396 34.8266 31.5403 34.8352 31.433 34.8352C31.2625 34.8352 31.1374 34.8045 31.0581 34.7436C30.9788 34.6828 30.9291 34.6047 30.9103 34.5089C30.8914 34.4136 30.8817 34.2833 30.8817 34.119L30.8817 32.7929L30.5925 32.7929L30.5925 32.4671L30.8817 32.4671L30.8817 31.8856L31.2965 31.8856L31.2965 32.4671L31.6763 32.4671L31.6763 32.7929L31.2965 32.7929L31.2965 34.1411C31.2965 34.301 31.3165 34.4028 31.3574 34.4464C31.3979 34.49 31.4535 34.5116 31.5241 34.5116C31.5948 34.5116 31.6655 34.5056 31.7318 34.4938L31.7318 34.8088L31.7307 34.8088Z" fill="white"/>
<path d="M35.0111 34.5643C34.7991 34.7609 34.5261 34.8594 34.1922 34.8594C33.9597 34.8594 33.7687 34.7964 33.6182 34.6709C33.4683 34.5455 33.3933 34.3834 33.3933 34.1853C33.3933 33.6393 33.8647 33.3658 34.8077 33.3658L35.0105 33.3658C35.0105 33.1983 35.0019 33.0772 34.9841 33.0013C34.9663 32.9259 34.9172 32.8629 34.8363 32.8128C34.7554 32.7627 34.6264 32.738 34.45 32.738C34.0794 32.738 33.8879 32.8699 33.8761 33.1342L33.4612 33.1342C33.492 32.654 33.8291 32.4138 34.4722 32.4138C34.7721 32.4138 35.0062 32.473 35.174 32.592C35.3417 32.711 35.4253 32.9447 35.4253 33.2925L35.4253 34.8034L35.0105 34.8034L35.0105 34.5633L35.0111 34.5643ZM35.0111 34.1901L35.0111 33.6727L34.7262 33.6727C34.1231 33.6727 33.8216 33.8364 33.8216 34.1637C33.8216 34.2827 33.8658 34.3743 33.9538 34.4378C34.0422 34.5019 34.1614 34.5336 34.3114 34.5336C34.4484 34.5336 34.5806 34.5029 34.7084 34.441C34.8363 34.3791 34.9371 34.2956 35.0105 34.1901L35.0111 34.1901Z" fill="white"/>
<path d="M39.3902 34.6241C39.3902 35.3757 39.0503 35.7516 38.3707 35.7516C38.0767 35.7516 37.8442 35.6875 37.6742 35.5599C37.5043 35.4323 37.4196 35.2605 37.4196 35.0446L37.8501 35.0446C37.8501 35.3004 38.0222 35.428 38.3663 35.428C38.5605 35.428 38.7105 35.3747 38.8168 35.2681C38.9225 35.1614 38.9759 34.9525 38.9759 34.6413L38.9759 34.5245C38.7903 34.7479 38.5675 34.8594 38.307 34.8594C38.0011 34.8594 37.7643 34.7506 37.5966 34.5336C37.4288 34.3161 37.3452 34.0232 37.3452 33.6549C37.3452 33.2866 37.439 32.9711 37.6268 32.7487C37.8145 32.5263 38.0502 32.4149 38.334 32.4149C38.587 32.4149 38.8011 32.493 38.9759 32.6486L38.9759 32.4682L39.3907 32.4682L39.3907 34.6246L39.3902 34.6241ZM38.9754 34.133L38.9754 33.0228C38.7957 32.8332 38.5907 32.7385 38.3599 32.7385C38.1819 32.7385 38.0394 32.8149 37.9326 32.9684C37.8258 33.1219 37.7724 33.3507 37.7724 33.6544C37.7724 33.9424 37.8226 34.1605 37.9235 34.3096C38.0243 34.4588 38.1635 34.5331 38.3415 34.5331C38.574 34.5331 38.7849 34.3996 38.9748 34.132L38.9754 34.133Z" fill="white"/>
<path d="M41.8738 34.8045L41.4568 34.8045L41.4568 31.5755L41.8738 31.5755L41.8738 34.8045Z" fill="white"/>
<path d="M44.3546 32.0245L43.9377 32.0245L43.9377 31.5755L44.3546 31.5755L44.3546 32.0245ZM44.3546 34.8045L43.9377 34.8045L43.9377 32.4677L44.3546 32.4677L44.3546 34.8045Z" fill="white"/>
<path d="M46.836 32.7649C47.0437 32.5312 47.2768 32.4149 47.5357 32.4149C48.0638 32.4149 48.3281 32.7019 48.3281 33.2758L48.3281 34.8045L47.9111 34.8045L47.9111 33.2936C47.9111 33.1025 47.8771 32.9652 47.8086 32.8817C47.7401 32.7983 47.6279 32.7563 47.472 32.7563C47.26 32.7563 47.0486 32.8812 46.8366 33.1305L46.8366 34.8045L46.4196 34.8045L46.4196 32.4677L46.8366 32.4677L46.8366 32.7649L46.836 32.7649Z" fill="white"/>
<path d="M51.3786 34.8594C51.0345 34.8594 50.7577 34.7517 50.549 34.5369C50.3402 34.322 50.2356 34.0216 50.2356 33.6371C50.2356 33.2527 50.337 32.956 50.5387 32.7396C50.741 32.5231 51.0053 32.4149 51.3322 32.4149C51.6591 32.4149 51.9326 32.5215 52.1322 32.7342C52.3318 32.9469 52.4311 33.2484 52.4311 33.6371L52.4311 33.7362L50.6677 33.7362C50.6855 34.0065 50.7599 34.2068 50.8915 34.3376C51.0231 34.4685 51.1855 34.5336 51.3781 34.5336C51.5237 34.5336 51.6548 34.4965 51.7719 34.4222C51.8889 34.3479 51.9504 34.2429 51.9564 34.1061L52.3868 34.1061C52.3545 34.3468 52.245 34.5326 52.0589 34.6634C51.8728 34.7942 51.6457 34.8594 51.3781 34.8594L51.3786 34.8594ZM51.992 33.4099C51.958 33.1854 51.8825 33.0169 51.7649 32.9054C51.6473 32.7939 51.5027 32.7379 51.3322 32.7379C51.1618 32.7379 51.0231 32.7934 50.9039 32.9043C50.7847 33.0152 50.7092 33.1838 50.6768 33.4099L51.992 33.4099Z" fill="white"/>
<path d="M57.416 32.7649C57.6237 32.5312 57.8567 32.4149 58.1157 32.4149C58.6438 32.4149 58.9081 32.7019 58.9081 33.2759L58.9081 34.8045L58.4911 34.8045L58.4911 33.2936C58.4911 33.1025 58.4571 32.9652 58.3886 32.8817C58.3201 32.7983 58.2079 32.7563 58.052 32.7563C57.84 32.7563 57.6286 32.8812 57.4166 33.1305L57.4166 34.8045L56.9996 34.8045L56.9996 31.5755L57.4166 31.5755L57.4166 32.7649L57.416 32.7649Z" fill="white"/>
<path d="M61.9586 34.8594C61.6145 34.8594 61.3377 34.7517 61.129 34.5369C60.9202 34.322 60.8156 34.0216 60.8156 33.6371C60.8156 33.2527 60.917 32.956 61.1187 32.7396C61.321 32.5231 61.5853 32.4149 61.9122 32.4149C62.2391 32.4149 62.5126 32.5215 62.7122 32.7342C62.9118 32.9469 63.0111 33.2484 63.0111 33.6371L63.0111 33.7362L61.2476 33.7362C61.2654 34.0065 61.3399 34.2068 61.4715 34.3376C61.6031 34.4685 61.7655 34.5336 61.9581 34.5336C62.1037 34.5336 62.2348 34.4965 62.3519 34.4222C62.4689 34.3479 62.5304 34.2429 62.5364 34.1061L62.9668 34.1061C62.9345 34.3468 62.8249 34.5326 62.6388 34.6634C62.4527 34.7942 62.2256 34.8594 61.9581 34.8594L61.9586 34.8594ZM62.572 33.4099C62.538 33.1854 62.4625 33.0169 62.3449 32.9054C62.2273 32.7939 62.0827 32.7379 61.9122 32.7379C61.7418 32.7379 61.6031 32.7934 61.4839 32.9043C61.3647 33.0152 61.2892 33.1838 61.2568 33.4099L62.572 33.4099Z" fill="white"/>
<path d="M66.1435 32.8462C66.0847 32.8284 66.0001 32.8198 65.89 32.8198C65.678 32.8198 65.4962 32.9307 65.3452 33.1526L65.3452 34.8045L64.9282 34.8045L64.9282 32.4677L65.3452 32.4677L65.3452 32.7934C65.5205 32.5409 65.7233 32.4144 65.9542 32.4144C66.013 32.4144 66.0761 32.4203 66.1441 32.4321L66.1441 32.8462L66.1435 32.8462Z" fill="white"/>
<path d="M68.8785 34.8594C68.5343 34.8594 68.2576 34.7517 68.0489 34.5369C67.8401 34.322 67.7354 34.0216 67.7354 33.6371C67.7354 33.2527 67.8369 32.956 68.0386 32.7396C68.2409 32.5231 68.5052 32.4149 68.8321 32.4149C69.159 32.4149 69.4325 32.5215 69.6321 32.7342C69.8317 32.9469 69.9309 33.2484 69.9309 33.6371L69.9309 33.7362L68.1675 33.7362C68.1853 34.0065 68.2598 34.2068 68.3914 34.3376C68.523 34.4685 68.6854 34.5336 68.878 34.5336C69.0236 34.5336 69.1547 34.4965 69.2718 34.4222C69.3888 34.3479 69.4503 34.2429 69.4562 34.1061L69.8867 34.1061C69.8544 34.3468 69.7448 34.5326 69.5587 34.6634C69.3726 34.7942 69.1455 34.8594 68.878 34.8594L68.8785 34.8594ZM69.4918 33.4099C69.4579 33.1854 69.3823 33.0169 69.2647 32.9054C69.1471 32.7939 69.0026 32.7379 68.8321 32.7379C68.6617 32.7379 68.523 32.7934 68.4038 32.9043C68.2846 33.0152 68.2091 33.1838 68.1767 33.4099L69.4918 33.4099Z" fill="white"/>
</g>
<defs>
<clipPath id="clip0_12_142">
<rect width="70" height="43" fill="white"/>
</clipPath>
</defs>
</svg>
