<svg width="24" height="24" viewBox="0 0 24 24" fill="none" xmlns="http://www.w3.org/2000/svg">
<g clip-path="url(#clip0_1_1580)">
<path d="M17 2.04004C18.3261 2.04004 19.5979 2.56682 20.5355 3.50451C21.4732 4.44219 22 5.71396 22 7.04004V17.04C22 18.3661 21.4732 19.6379 20.5355 20.5756C19.5979 21.5133 18.3261 22.04 17 22.04H7C5.67392 22.04 4.40215 21.5133 3.46447 20.5756C2.52678 19.6379 2 18.3661 2 17.04V7.04004C2 5.71396 2.52678 4.44219 3.46447 3.50451C4.40215 2.56682 5.67392 2.04004 7 2.04004H17ZM8 10.04C7.73478 10.04 7.48043 10.1454 7.29289 10.3329C7.10536 10.5205 7 10.7748 7 11.04V16.04C7 16.3053 7.10536 16.5596 7.29289 16.7471C7.48043 16.9347 7.73478 17.04 8 17.04C8.26522 17.04 8.51957 16.9347 8.70711 16.7471C8.89464 16.5596 9 16.3053 9 16.04V11.04C9 10.7748 8.89464 10.5205 8.70711 10.3329C8.51957 10.1454 8.26522 10.04 8 10.04ZM14 10.04C13.5988 10.0398 13.2016 10.1201 12.832 10.276L12.707 10.333C12.5671 10.1932 12.389 10.098 12.195 10.0595C12.0011 10.0209 11.8 10.0407 11.6173 10.1164C11.4346 10.192 11.2785 10.3202 11.1686 10.4846C11.0587 10.649 11 10.8423 11 11.04V16.04C11 16.3053 11.1054 16.5596 11.2929 16.7471C11.4804 16.9347 11.7348 17.04 12 17.04C12.2652 17.04 12.5196 16.9347 12.7071 16.7471C12.8946 16.5596 13 16.3053 13 16.04V13.04C13 12.7748 13.1054 12.5205 13.2929 12.3329C13.4804 12.1454 13.7348 12.04 14 12.04C14.2652 12.04 14.5196 12.1454 14.7071 12.3329C14.8946 12.5205 15 12.7748 15 13.04V16.04C15 16.3053 15.1054 16.5596 15.2929 16.7471C15.4804 16.9347 15.7348 17.04 16 17.04C16.2652 17.04 16.5196 16.9347 16.7071 16.7471C16.8946 16.5596 17 16.3053 17 16.04V13.04C17 12.2444 16.6839 11.4813 16.1213 10.9187C15.5587 10.3561 14.7956 10.04 14 10.04ZM8 7.04004C7.75507 7.04007 7.51866 7.12999 7.33563 7.29275C7.15259 7.45551 7.03566 7.67979 7.007 7.92304L7 8.05004C7.00028 8.30492 7.09788 8.55007 7.27285 8.73541C7.44782 8.92074 7.68695 9.03227 7.94139 9.04721C8.19584 9.06215 8.44638 8.97936 8.64183 8.81577C8.83729 8.65218 8.9629 8.42013 8.993 8.16704L9 8.04004C9 7.77482 8.89464 7.52047 8.70711 7.33293C8.51957 7.1454 8.26522 7.04004 8 7.04004Z" fill="#151515"/>
</g>
<defs>
<clipPath id="clip0_1_1580">
<rect width="24" height="24" fill="white"/>
</clipPath>
</defs>
</svg>
