<svg width="24" height="24" viewBox="0 0 24 24" fill="none" xmlns="http://www.w3.org/2000/svg">
<g clip-path="url(#clip0_1_1574)">
<path d="M8.26635 3.04004C8.40325 3.0401 8.53868 3.06826 8.66424 3.12279C8.78981 3.17732 8.90285 3.25705 8.99635 3.35704L9.07235 3.44904L13.3464 9.27704L19.2924 3.33304C19.4723 3.15369 19.7138 3.04957 19.9677 3.04181C20.2217 3.03406 20.4691 3.12325 20.6596 3.29129C20.8502 3.45932 20.9697 3.69359 20.9937 3.94651C21.0178 4.19944 20.9448 4.45205 20.7894 4.65304L20.7064 4.74704L14.5434 10.909L20.8054 19.449C20.909 19.5906 20.9737 19.7569 20.9928 19.9313C21.0119 20.1057 20.9847 20.282 20.9141 20.4426C20.8435 20.6032 20.7318 20.7424 20.5904 20.8462C20.449 20.95 20.2827 21.0148 20.1084 21.034L19.9994 21.04H15.7324C15.5955 21.04 15.46 21.0118 15.3345 20.9573C15.2089 20.9028 15.0959 20.823 15.0024 20.723L14.9264 20.631L10.6504 14.802L4.70635 20.747C4.52639 20.9264 4.28492 21.0305 4.03097 21.0383C3.77702 21.046 3.52964 20.9568 3.33907 20.7888C3.14851 20.6208 3.02905 20.3865 3.00495 20.1336C2.98086 19.8806 3.05394 19.628 3.20935 19.427L3.29235 19.333L9.45335 13.17L3.19335 4.63104C3.08966 4.48952 3.02503 4.32321 3.00594 4.14881C2.98685 3.97441 3.01398 3.79806 3.0846 3.63746C3.15522 3.47687 3.26685 3.33767 3.40828 3.23386C3.54972 3.13005 3.71597 3.06528 3.89035 3.04604L3.99935 3.04004H8.26635Z" fill="#151515"/>
</g>
<defs>
<clipPath id="clip0_1_1574">
<rect width="24" height="24" fill="white"/>
</clipPath>
</defs>
</svg>
