<svg width="16" height="16" viewBox="0 0 16 16" fill="none" xmlns="http://www.w3.org/2000/svg">
<path fill-rule="evenodd" clip-rule="evenodd" d="M4.945 2.04883C4.54393 2.04875 4.1534 2.17728 3.83077 2.41554C3.50814 2.6538 3.27041 2.98923 3.1525 3.37258L1.64563 8.27133C1.5906 8.44991 1.56258 8.63571 1.5625 8.82258V11.4238C1.5625 11.9211 1.76004 12.398 2.11167 12.7497C2.46331 13.1013 2.94022 13.2988 3.4375 13.2988H12.8125C13.3098 13.2988 13.7867 13.1013 14.1383 12.7497C14.49 12.398 14.6875 11.9211 14.6875 11.4238V8.82258C14.6875 8.6357 14.6594 8.45008 14.6044 8.27133L13.0969 3.37258C12.979 2.98933 12.7414 2.65397 12.4189 2.41572C12.0963 2.17747 11.706 2.04888 11.305 2.04883H4.945ZM13.5844 8.14258L12.2013 3.6482C12.1423 3.45653 12.0234 3.28881 11.8621 3.16968C11.7008 3.05055 11.5055 2.98629 11.305 2.98633H4.945C4.74446 2.98629 4.5492 3.05055 4.38789 3.16968C4.22657 3.28881 4.10771 3.45653 4.04875 3.6482L2.66563 8.14258H4.44375C4.79201 8.14247 5.13342 8.23937 5.42971 8.42239C5.726 8.60542 5.96546 8.86735 6.12125 9.17883L6.28125 9.49945C6.35914 9.65519 6.47887 9.78616 6.62702 9.87767C6.77516 9.96918 6.94587 10.0176 7.12 10.0176H9.13125C9.30545 10.0176 9.4762 9.96903 9.62435 9.8774C9.7725 9.78578 9.89219 9.65468 9.97 9.49883L10.13 9.17883C10.2858 8.86735 10.5252 8.60542 10.8215 8.42239C11.1178 8.23937 11.4592 8.14247 11.8075 8.14258H13.5844Z" fill="white"/>
</svg>
