<svg width="30" height="26" viewBox="0 0 30 26" fill="none" xmlns="http://www.w3.org/2000/svg">
<path d="M17.1211 26L15.4609 24.3398L21.125 18.6953C21.8411 17.9792 22.5833 17.2565 23.3516 16.5273C24.1328 15.7852 24.8945 15.069 25.6367 14.3789C25.0508 14.4049 24.4648 14.4245 23.8789 14.4375C23.293 14.4505 22.7135 14.457 22.1406 14.457H0.636719V12.0742H22.1406C22.7135 12.0742 23.293 12.0807 23.8789 12.0938C24.4648 12.1068 25.0508 12.1263 25.6367 12.1523C24.8945 11.4622 24.1328 10.7526 23.3516 10.0234C22.5833 9.28125 21.8411 8.55208 21.125 7.83594L15.4609 2.19141L17.1211 0.53125L29.8555 13.2656L17.1211 26Z" fill="#151515"/>
</svg>
