<svg width="19" height="17" viewBox="0 0 19 17" fill="none" xmlns="http://www.w3.org/2000/svg">
<path d="M10.9998 16.292L9.63257 14.9248L12.2083 12.3613C12.7209 11.8486 13.2581 11.3278 13.8196 10.7988C14.3811 10.2617 14.9304 9.74495 15.4675 9.24854C15.0932 9.26481 14.7188 9.28109 14.3445 9.29736C13.9701 9.3055 13.5958 9.30957 13.2214 9.30957H0.697021V7.35645H13.2214C13.5958 7.35645 13.9701 7.36458 14.3445 7.38086C14.7188 7.389 15.0932 7.4012 15.4675 7.41748C14.9304 6.92106 14.3811 6.40837 13.8196 5.87939C13.2581 5.34229 12.7209 4.81738 12.2083 4.30469L9.63257 1.74121L10.9998 0.374023L18.9587 8.33301L10.9998 16.292Z" fill="#151515"/>
</svg>
