<svg width="70" height="76" viewBox="0 0 70 76" fill="none" xmlns="http://www.w3.org/2000/svg">
<path d="M52.5 37.6254C44.295 37.6254 37.4075 43.7956 35.525 52.0794C34.8775 51.7945 34.205 51.591 33.5175 51.4445L34.4075 45.6569C35.23 44.8592 35.9675 43.9421 36.575 42.8947C38.47 39.6442 39.615 35.9866 40.0175 32.1933C42.0775 32.1825 43.75 30.3618 43.75 28.126C43.75 25.9581 42.1775 24.1971 40.2075 24.0777V24.0587H41.25C43.3175 24.0587 45 22.2327 45 19.9887C45 18.7135 44.4475 17.5901 43.6 16.8412C44.25 10.9587 40.0725 5.84408 39.9025 5.646C37.0475 2.05897 33.7525 0.162342 30.1025 0.0103944C24.3875 -0.233806 19.685 3.89318 18.35 5.19287C13.6425 5.47778 9.895 9.72958 9.905 15.0721C9.905 15.0721 9.96 15.509 10.0575 16.1466C8.5775 16.692 7.5 18.1979 7.5 19.9887C7.5 22.2327 9.1825 24.0587 11.25 24.0587H12.5C10.4325 24.0587 8.75 25.8848 8.75 28.1287C8.75 30.3727 10.4325 32.1988 12.5 32.1988H12.8775C13.27 35.9079 14.3675 39.4949 16.1675 42.7075C16.6975 43.6518 17.325 44.5038 18.03 45.2554L18.1925 46.3054C15.93 47.2307 14.15 49.1436 13.22 51.5123C5.7025 53.0589 0 60.2303 0 68.8289V74.2555C0 75.0044 0.56 75.6122 1.25 75.6122C1.94 75.6122 2.5 75.0044 2.5 74.2555V68.8289C2.5 61.9912 6.7675 56.2254 12.5575 54.4671C12.54 54.7059 12.5 54.9366 12.5 55.178V62.2951C11.0475 62.8568 10 64.3491 10 66.1155C10 68.3595 11.6825 70.1855 13.75 70.1855C15.8175 70.1855 17.5 68.3595 17.5 66.1155C17.5 64.3491 16.4525 62.8568 15 62.2951V55.178C15 54.7683 15.0375 54.364 15.105 53.9679C15.485 53.9353 15.865 53.9055 16.25 53.9055H17.78L25.0675 74.8877C25.25 75.4168 25.7175 75.7669 26.2375 75.7669H26.2525C26.7775 75.7614 27.2425 75.3979 27.4175 74.8606L34.0425 54.3857C34.4 54.5106 34.745 54.6625 35.085 54.8362C35.0325 55.4222 35 56.0165 35 56.6188C35 67.0923 42.8525 75.6122 52.5 75.6122C62.1475 75.6122 70 67.0923 70 56.6188C70 46.1453 62.1475 37.6254 52.5 37.6254ZM13.75 67.4722C13.0625 67.4722 12.5 66.8644 12.5 66.1155C12.5 65.3666 13.0625 64.7588 13.75 64.7588C14.4375 64.7588 15 65.3666 15 66.1155C15 66.8644 14.4375 67.4722 13.75 67.4722ZM41.25 28.1287C41.25 28.8017 40.7875 29.3362 40.1975 29.442C40.1975 29.3904 40.2075 29.3389 40.2075 29.2846V26.8182C40.795 26.9294 41.25 27.4613 41.25 28.1287ZM42.5 19.9887C42.5 20.7376 41.9375 21.3454 41.25 21.3454H37.3725C37.4425 20.9031 37.5 20.4527 37.5 19.9887C37.5 19.5247 37.4425 19.0743 37.3725 18.6321H41.25C41.9375 18.6321 42.5 19.2398 42.5 19.9887ZM18.855 7.89265C19.185 7.89265 19.5 7.75155 19.735 7.49921C19.785 7.44766 24.3825 2.51752 30.0075 2.72374C32.935 2.84584 35.6275 4.42771 38.035 7.45038C38.0725 7.49379 41.35 11.4905 41.18 15.9187H36.4575C35.155 13.4984 32.7625 11.8487 30 11.8487C27.255 11.8487 24.875 13.474 23.5675 15.8672C21.3525 14.3368 20.215 11.6778 20.205 11.6479C19.9375 11.0021 19.2575 10.6847 18.635 10.9235C16.35 11.8243 14.675 13.5635 13.665 15.9187H12.5575C12.46 15.3109 12.4025 14.8876 12.395 14.8849C12.4025 11.0266 15.2975 7.89265 18.855 7.89265ZM35 19.9887C35 22.9815 32.7575 25.4154 30 25.4154C27.2425 25.4154 25 22.9815 25 19.9887C25 16.9959 27.2425 14.562 30 14.562C32.7575 14.562 35 16.9959 35 19.9887ZM19.8575 15.9187H16.5075C17.04 15.1074 17.6975 14.4372 18.515 13.9488C18.8275 14.5078 19.29 15.2078 19.8575 15.9187ZM12.5 29.4854C11.8125 29.4854 11.25 28.8776 11.25 28.1287C11.25 27.3799 11.8125 26.7721 12.5 26.7721H12.68L12.6875 29.3172C12.6875 29.3742 12.6975 29.4284 12.6975 29.4854H12.5ZM11.25 21.3454C10.5625 21.3454 10 20.7376 10 19.9887C10 19.2398 10.5625 18.6321 11.25 18.6321H22.6275C22.5575 19.0743 22.5 19.5247 22.5 19.9887C22.5 20.4527 22.5575 20.9031 22.6275 21.3454H11.25ZM16.25 51.1921C16.2425 51.1921 16.2325 51.1921 16.225 51.1921C16.84 50.2805 17.655 49.537 18.6125 49.0486L18.94 51.1921H16.25ZM26.1975 70.4433L20.4525 53.9055H22.59C23.8125 54.2067 25.0825 54.3803 26.43 54.3939C27.735 54.3939 29.015 54.2175 30.265 53.9055C30.69 53.9055 31.115 53.9082 31.54 53.919L26.1975 70.4433ZM31.0825 50.8041C29.5875 51.3522 28.025 51.6778 26.31 51.6778C26.305 51.6778 26.3025 51.6778 26.2975 51.6778C24.5975 51.6616 22.9575 51.2844 21.3925 50.6576L20.9075 47.4966C22.5525 48.4191 24.39 48.9455 26.3225 48.9645H26.4275C28.245 48.9645 29.9825 48.5059 31.56 47.6974L31.0825 50.8041ZM26.4275 46.2539C26.4 46.2539 26.3725 46.2539 26.3425 46.2539C23.03 46.2213 20.025 44.3708 18.3 41.2966C16.275 37.6824 15.2 33.5364 15.1875 29.3118L15.1725 24.0587H23.545C24.845 26.479 27.2375 28.1287 30.0025 28.1287C32.7675 28.1287 35.1575 26.479 36.46 24.0587H37.71V29.2846C37.71 33.5961 36.59 37.8018 34.465 41.4458C32.7075 44.4631 29.71 46.2539 26.4275 46.2539ZM52.5 72.8989C44.2275 72.8989 37.5 65.5973 37.5 56.6188C37.5 47.6404 44.2275 40.3388 52.5 40.3388C60.7725 40.3388 67.5 47.6404 67.5 56.6188C67.5 65.5973 60.7725 72.8989 52.5 72.8989Z" fill="#EEF8FF"/>
<path d="M61.0938 46.6638C60.5738 46.2188 59.9938 45.8579 59.3738 45.6028C56.9888 44.6315 54.1338 45.2637 52.2338 47.1087C50.3138 45.242 47.4138 44.6206 45.0113 45.6381C42.6113 46.6556 40.8513 49.3038 40.8013 52.1013C40.7713 53.7727 41.2988 55.3926 41.8188 56.9663C42.8313 60.027 43.8413 63.0849 44.8538 66.1455C45.1713 67.1061 45.5013 68.0883 46.1088 68.8643C47.5888 70.7555 50.2713 70.1694 51.3263 68.1046C51.8788 67.0247 52.0413 65.7657 52.1963 64.542C52.6238 65.8498 52.6213 67.3394 53.3263 68.498C54.3838 70.2346 56.7038 70.5439 58.1138 69.1302C58.8588 68.3841 59.2263 67.3041 59.5688 66.2704C60.5813 63.2124 61.5913 60.1518 62.6038 57.0938C63.1588 55.4197 63.7188 53.6913 63.6488 51.9141C63.5688 49.8709 62.5713 47.9282 61.0938 46.6638ZM60.9488 53.9654L56.7413 66.7506C56.5638 67.2879 56.1613 67.3041 55.9588 67.315C55.7838 67.3041 55.3638 67.2173 55.2438 66.6557L53.8413 60.027C53.6688 59.2075 53.0088 58.6323 52.2338 58.6323C51.4588 58.6323 50.7988 59.2048 50.6238 60.0242L49.2213 66.6557C49.1038 67.2092 48.6813 67.296 48.5063 67.3069C48.3413 67.3204 47.9013 67.2879 47.7238 66.7479L43.5188 53.9654C42.7638 51.6672 43.7438 49.7977 44.9113 48.8154C46.4438 47.5266 48.4613 47.5782 50.0338 48.7313C49.0013 49.4178 47.9538 49.9252 46.8188 50.0147C46.1313 50.069 45.6138 50.7175 45.6613 51.4664C45.7138 52.2153 46.3213 52.7688 46.9988 52.7199C49.9363 52.492 52.2288 50.3512 54.5588 48.6391C56.4513 47.2498 58.3763 47.8251 59.5588 48.8127C60.7238 49.7977 61.7038 51.6672 60.9488 53.9654Z" fill="#EEF8FF"/>
</svg>
