<svg width="20" height="21" viewBox="0 0 20 21" fill="none" xmlns="http://www.w3.org/2000/svg">
<path fill-rule="evenodd" clip-rule="evenodd" d="M10 1.72998C5.313 1.72998 1.5 5.54298 1.5 10.23C1.5 14.917 5.313 18.73 10 18.73C14.687 18.73 18.5 14.917 18.5 10.23C18.5 5.54298 14.687 1.72998 10 1.72998ZM10 20.23C4.486 20.23 0 15.744 0 10.23C0 4.71598 4.486 0.22998 10 0.22998C15.514 0.22998 20 4.71598 20 10.23C20 15.744 15.514 20.23 10 20.23Z" fill="#011632"/>
<path fill-rule="evenodd" clip-rule="evenodd" d="M8.55846 14.451C8.36646 14.451 8.17346 14.378 8.02746 14.23C7.73546 13.936 7.73646 13.462 8.02946 13.17L10.9815 10.23L8.02946 7.29103C7.73646 6.99903 7.73546 6.52403 8.02746 6.23003C8.31946 5.93503 8.79346 5.93703 9.08746 6.22803L12.5735 9.69903C12.7145 9.84003 12.7935 10.031 12.7935 10.23C12.7935 10.43 12.7145 10.621 12.5735 10.762L9.08746 14.232C8.94146 14.378 8.74946 14.451 8.55846 14.451Z" fill="#011632"/>
</svg>
