<svg width="80" height="80" viewBox="0 0 80 80" fill="none" xmlns="http://www.w3.org/2000/svg">
<path d="M18.0645 25.5935V25.1613H15.4839V25.5935C15.4839 26.3329 15.5032 27.0722 15.5407 27.8077L18.1187 27.6761C18.0839 26.9832 18.0645 26.2903 18.0645 25.5935Z" fill="#EEF8FF"/>
<path d="M18.3239 30.1755L15.76 30.4684C16.4981 36.9678 18.7639 43.3201 22.311 48.8362L24.4813 47.4401C21.1471 42.2542 19.0194 36.2839 18.3239 30.1755Z" fill="#EEF8FF"/>
<path d="M47.5626 12.5316C45.3278 14.0413 42.7123 14.8387 40 14.8387C37.2878 14.8387 34.6736 14.0413 32.4387 12.5329L30.9949 14.6723C33.6581 16.4697 36.7716 17.4194 40 17.4194C43.2284 17.4194 46.342 16.4697 49.0065 14.671L47.5626 12.5316Z" fill="#EEF8FF"/>
<path d="M11.6129 49.6774H9.03226C9.03226 54.6567 4.97935 58.7096 0 58.7096V61.2903C4.97935 61.2903 9.03226 65.3432 9.03226 70.3225H11.6129C11.6129 65.3432 15.6658 61.2903 20.6452 61.2903V58.7096C15.6658 58.7096 11.6129 54.6567 11.6129 49.6774ZM10.3226 65.0258C9.2129 62.8709 7.45161 61.1096 5.29677 59.9999C7.45161 58.8903 9.2129 57.129 10.3226 54.9741C11.4323 57.129 13.1935 58.8903 15.3484 59.9999C13.1935 61.1096 11.4323 62.8709 10.3226 65.0258Z" fill="#EEF8FF"/>
<path d="M70.9678 16.129H68.4968C66.0529 10.0503 60.071 5.8064 53.2929 5.8064C50.0929 5.8064 47.0839 6.6722 44.591 8.30833C41.831 10.1251 38.1704 10.1251 35.4091 8.30833C32.9175 6.6722 29.9084 5.8064 26.7071 5.8064C17.6723 5.8064 10.3226 13.1561 10.3226 22.1909V25.5935C10.3226 34.8451 12.9678 43.8464 17.9704 51.6283C20.662 55.8154 22.6388 60.387 23.8465 65.2154L25.2504 70.8335C25.7433 72.8129 27.5123 74.1935 29.551 74.1935C31.7639 74.1935 33.6091 72.6051 33.9355 70.4167L36.8297 51.1161C37.0684 49.5354 38.4013 48.387 40 48.387C41.5988 48.387 42.9317 49.5354 43.1691 51.1161L46.0633 70.4167C46.391 72.6051 48.2362 74.1935 50.4491 74.1935C52.4878 74.1935 54.2568 72.8129 54.7497 70.8335L56.1549 65.2154C57.3626 60.3858 59.3407 55.8141 62.0323 51.6283C64.9729 47.0529 67.1239 41.9432 68.382 36.6399C68.3807 36.6851 68.3871 36.729 68.3871 36.7741H70.9678C70.9678 31.7948 75.0207 27.7419 80 27.7419V25.1612C75.0207 25.1612 70.9678 21.1083 70.9678 16.129ZM59.8607 50.2322C57.0155 54.658 54.9278 59.489 53.6517 64.5909L52.2452 70.209C52.04 71.0361 51.3007 71.6129 50.4491 71.6129C49.5239 71.6129 48.7536 70.9483 48.6168 70.0335L45.7226 50.7329C45.2942 47.8774 42.8865 45.8064 40 45.8064C37.1136 45.8064 34.7059 47.8774 34.2775 50.7329L31.3833 70.0335C31.2478 70.9483 30.4762 71.6129 29.551 71.6129C28.6994 71.6129 27.96 71.0361 27.7523 70.209L26.3471 64.5909C25.0723 59.4877 22.9833 54.6567 20.1381 50.2322C15.4052 42.8683 12.9033 34.3483 12.9033 25.5935V22.1909C12.9033 14.5793 19.0955 8.38704 26.7071 8.38704C29.4026 8.38704 31.9213 9.10575 33.991 10.4658C35.7988 11.6541 37.822 12.258 40 12.258C42.1781 12.258 44.2013 11.6541 46.0078 10.4658C48.0788 9.10575 50.5975 8.38704 53.2929 8.38704C60.1007 8.38704 65.9742 13.4593 66.942 20.0825L66.9962 20.9225C65.3962 23.4632 62.5729 25.1612 59.3549 25.1612V27.7419C62.3846 27.7419 65.0646 29.2464 66.7033 31.5419C65.8323 38.1587 63.4684 44.6193 59.8607 50.2322ZM69.6775 31.4774C68.5678 29.3225 66.8065 27.5612 64.6517 26.4516C66.8065 25.3419 68.5678 23.5806 69.6775 21.4258C70.7871 23.5806 72.5484 25.3419 74.7033 26.4516C72.5484 27.5612 70.7871 29.3225 69.6775 31.4774Z" fill="#EEF8FF"/>
</svg>
