<svg width="105" height="17" viewBox="0 0 105 17" fill="none" xmlns="http://www.w3.org/2000/svg">
<path d="M10.5485 0.318359H11.3813C12.7723 0.589337 13.9098 1.18645 14.7941 2.10972C15.1817 2.51424 15.1433 2.87812 14.679 3.20136C14.2349 3.51105 13.7685 3.78105 13.28 4.01139C12.0021 4.61335 10.7969 5.52015 9.66432 6.73181C9.6274 6.77144 9.5803 6.80114 9.52772 6.81795C9.47512 6.83474 9.41888 6.83808 9.36452 6.82762C8.60748 6.68826 8.07754 6.77534 7.77473 7.08891C7.74484 7.12025 7.70722 7.14382 7.66529 7.15753C7.62337 7.17125 7.57842 7.17467 7.53454 7.16746C7.49068 7.16025 7.44924 7.14267 7.41398 7.11629C7.37871 7.08989 7.35076 7.05555 7.33261 7.01633C6.97529 6.24598 6.83902 5.43886 6.9238 4.59495C7.14789 2.36908 8.35613 0.943542 10.5485 0.318359Z" fill="#5F646E"/>
<path d="M1.89732 5.01214C1.8622 4.98906 1.8372 4.95437 1.82716 4.91473C1.81709 4.87506 1.82267 4.83325 1.84282 4.79729C3.08034 2.55206 4.97397 1.23007 7.52369 0.831348C7.62665 0.813928 7.65795 0.850703 7.61757 0.941674C7.36119 1.5146 7.04524 1.863 6.66975 1.98687C4.92147 2.56173 3.6254 3.62628 2.78154 5.18053C2.76025 5.21933 2.7277 5.25089 2.68856 5.27069C2.64943 5.2905 2.60567 5.29755 2.56352 5.29086C2.34145 5.25601 2.11939 5.16311 1.89732 5.01214Z" fill="#5F646E"/>
<path d="M15.2996 8.90579C15.4207 7.51026 15.0987 6.13408 14.3336 4.77726C14.3005 4.71805 14.2896 4.64979 14.3029 4.58413C14.3161 4.51848 14.3527 4.4595 14.4063 4.41725C14.8363 4.08047 15.1472 4.08627 15.339 4.43467C16.419 6.40699 16.5886 8.52836 15.8477 10.7987C15.8174 10.8936 15.772 10.9004 15.7114 10.8191C15.3178 10.281 15.1623 9.75937 15.2451 9.2542C15.2794 9.0374 15.2976 8.92127 15.2996 8.90579Z" fill="#5F646E"/>
<path d="M5.02477 6.72226C4.37069 6.47451 4.22532 6.12321 4.58872 5.66835C4.93999 5.22899 5.33869 4.8293 5.78485 4.46929C5.96452 4.32413 6.0584 4.36381 6.06647 4.58833C6.09473 5.37416 5.8111 6.07193 5.21555 6.68162C5.19153 6.70633 5.16038 6.72347 5.12628 6.73074C5.09218 6.73801 5.05674 6.73505 5.02477 6.72226Z" fill="#5F646E"/>
<path d="M12.4282 7.23057C12.1415 6.88023 11.9315 6.49119 11.7983 6.06344C11.7852 6.01905 11.7861 5.9726 11.8008 5.9312C11.8156 5.88978 11.8434 5.85568 11.8801 5.83407L12.3403 5.55246C12.3761 5.53096 12.4199 5.52411 12.463 5.53323C12.5061 5.54237 12.5455 5.56682 12.5735 5.60181C12.9874 6.12441 13.2478 6.76797 13.3548 7.53252C13.3952 7.82866 13.3023 7.87414 13.0762 7.66898C13.0136 7.61285 12.9006 7.54412 12.737 7.46283C12.6038 7.39703 12.5008 7.3196 12.4282 7.23057Z" fill="#5F646E"/>
<path d="M5.48253 7.83744C5.90041 8.02711 6.40613 8.12872 6.99965 8.14228C7.04792 8.14393 7.09396 8.16181 7.12948 8.19266C7.165 8.22353 7.1877 8.26538 7.19345 8.31067C7.26613 8.93004 7.59722 9.36554 8.1867 9.61716C8.23451 9.63769 8.27678 9.66847 8.3102 9.7071C8.3436 9.74575 8.36725 9.79118 8.37929 9.83984C8.39131 9.8885 8.3914 9.93906 8.37952 9.98758C8.36764 10.0361 8.34414 10.0812 8.31086 10.1194C7.02489 11.604 5.31093 12.2137 3.16899 11.9485C2.36146 11.8498 1.68013 11.5189 1.12496 10.9556C0.6566 10.4775 0.332583 9.85524 0.152911 9.08876C-0.0711748 8.14034 -0.048968 7.19871 0.219531 6.26382C0.42141 5.55929 0.848385 5.39766 1.50046 5.77898C2.79047 6.53384 4.11781 7.21999 5.48253 7.83744Z" fill="#5F646E"/>
<path d="M8.72549 8.92892C9.12185 8.92892 9.44318 8.62085 9.44318 8.24083C9.44318 7.86081 9.12185 7.55273 8.72549 7.55273C8.32912 7.55273 8.00781 7.86081 8.00781 8.24083C8.00781 8.62085 8.32912 8.92892 8.72549 8.92892Z" fill="#5F646E"/>
<path d="M11.6382 16.2808L10.4693 16.2954C10.1988 15.3586 10.0726 14.4053 10.0908 13.4356C10.111 12.3575 10.11 11.743 10.0878 11.592C9.99892 10.9939 9.81925 10.3968 9.54875 9.80063C9.51951 9.73489 9.51403 9.66159 9.53323 9.59221C9.55241 9.52285 9.59514 9.46135 9.65472 9.41739C10.1614 9.04382 10.3522 8.50381 10.2271 7.79733C10.2225 7.77226 10.2245 7.74652 10.2329 7.72234C10.2413 7.69816 10.2558 7.67628 10.2751 7.65855C10.2945 7.64083 10.3182 7.62782 10.3441 7.62065C10.37 7.61345 10.3974 7.61232 10.4239 7.61732C11.7886 7.89797 12.8777 8.45929 13.6913 9.30126C14.519 10.1587 14.9389 11.1903 14.951 12.3962C14.9692 14.2505 13.8649 15.5453 11.6382 16.2808Z" fill="#5F646E"/>
<path d="M9.03785 12.7156C8.29493 12.8956 7.58231 12.8211 6.89995 12.4921C6.88321 12.4839 6.86859 12.4722 6.85727 12.4579C6.84595 12.4436 6.83822 12.4271 6.83468 12.4096C6.83117 12.3922 6.83194 12.3743 6.83696 12.3573C6.84199 12.3404 6.8511 12.3249 6.8636 12.3121C7.18865 11.9753 7.58231 11.8108 8.04461 11.8185C8.12737 11.8204 8.37064 11.8185 8.7744 11.8127C9.21248 11.8049 9.36388 12.0469 9.22863 12.5385C9.21778 12.5807 9.19429 12.6195 9.16069 12.6507C9.12707 12.6819 9.08461 12.7043 9.03785 12.7156Z" fill="#5F646E"/>
<path d="M4.91307 14.7009C4.15199 14.2905 3.48176 13.7718 2.90236 13.1447C2.57734 12.7943 2.64901 12.685 3.11736 12.8166C3.27685 12.8611 3.52112 12.8863 3.85018 12.8921C3.94787 12.8939 4.04105 12.9278 4.11363 12.9879C5.41172 14.0505 6.92076 14.6389 8.64078 14.7531C8.69529 14.757 8.8523 14.7695 8.98468 14.7736C9.24356 14.7815 9.26559 14.8664 9.21916 15.4296C9.21229 15.5055 9.17599 15.5762 9.11758 15.6273C9.05917 15.6785 8.98296 15.7064 8.90424 15.7054C7.46685 15.6938 6.13647 15.3589 4.91307 14.7009Z" fill="#5F646E"/>
<path d="M23.1854 8.96344C23.4714 8.96344 23.7262 8.91772 23.9497 8.82632C24.177 8.7349 24.3677 8.60657 24.5216 8.44131C24.6756 8.27607 24.7929 8.07565 24.8734 7.84007C24.9578 7.6045 24.9999 7.3408 24.9999 7.04897V2.48168H26.4791V7.04897C26.4791 7.50253 26.4021 7.9227 26.2482 8.30947C26.0979 8.69271 25.8797 9.02498 25.5937 9.30625C25.3115 9.58402 24.9669 9.802 24.56 9.96022C24.1531 10.1149 23.6949 10.1923 23.1854 10.1923C22.6722 10.1923 22.2122 10.1149 21.8053 9.96022C21.3984 9.802 21.052 9.58402 20.766 9.30625C20.4836 9.02498 20.2657 8.69271 20.1116 8.30947C19.9614 7.9227 19.8862 7.50253 19.8862 7.04897V2.48168H21.3654V7.0437C21.3654 7.33552 21.4056 7.59922 21.4863 7.83481C21.5706 8.07037 21.6898 8.27254 21.8437 8.44131C22.0014 8.60657 22.1919 8.7349 22.4156 8.82632C22.6429 8.91772 22.8995 8.96344 23.1854 8.96344ZM25.4949 0.292969L23.7132 1.80133C23.64 1.86462 23.5703 1.9033 23.5042 1.91736C23.4384 1.93143 23.3541 1.93846 23.2515 1.93846H22.2671L23.4163 0.509203C23.4529 0.459979 23.4897 0.421303 23.5263 0.393175C23.5629 0.361531 23.6033 0.338677 23.6472 0.324612C23.6914 0.310549 23.7389 0.301759 23.7902 0.298242C23.8453 0.294727 23.9093 0.292969 23.9827 0.292969H25.4949ZM32.1613 3.86875C32.1174 3.94259 32.0696 3.99708 32.0183 4.03224C31.9708 4.06388 31.9101 4.07971 31.8369 4.07971C31.76 4.07971 31.6757 4.05333 31.584 4.00059C31.4959 3.94434 31.3897 3.88281 31.265 3.81601C31.1403 3.7492 30.9938 3.68944 30.8251 3.63669C30.6602 3.58043 30.464 3.55231 30.2369 3.55231C30.0314 3.55231 29.8519 3.57692 29.6979 3.62615C29.544 3.67185 29.4138 3.73689 29.3076 3.82128C29.2049 3.90566 29.1278 4.00763 29.0765 4.12717C29.0252 4.2432 28.9995 4.37153 28.9995 4.51218C28.9995 4.6915 29.0508 4.84092 29.1536 4.96046C29.2598 5.08002 29.3992 5.18197 29.5715 5.26635C29.7437 5.35074 29.9398 5.42633 30.1597 5.49315C30.3797 5.55994 30.6052 5.63203 30.8361 5.70937C31.0671 5.78321 31.2925 5.87112 31.5124 5.97307C31.7324 6.07153 31.9286 6.19811 32.1008 6.3528C32.2731 6.504 32.4107 6.69034 32.5133 6.91185C32.6195 7.13335 32.6728 7.40234 32.6728 7.71878C32.6728 8.06333 32.6104 8.38681 32.4857 8.68919C32.3647 8.98805 32.1852 9.25 31.9469 9.47501C31.7123 9.69652 31.4245 9.87233 31.0836 10.0024C30.7426 10.129 30.3522 10.1923 29.9123 10.1923C29.6594 10.1923 29.4102 10.1677 29.1646 10.1184C28.919 10.0727 28.6825 10.0059 28.4552 9.91803C28.2317 9.83014 28.0209 9.72466 27.8228 9.60159C27.6249 9.47854 27.4489 9.34142 27.295 9.19022L27.7293 8.50988C27.7659 8.46065 27.8137 8.42021 27.8723 8.38857C27.931 8.35341 27.9932 8.33583 28.0593 8.33583C28.1509 8.33583 28.25 8.37275 28.3562 8.44659C28.4626 8.5169 28.589 8.59602 28.7356 8.68391C28.8822 8.77182 29.0528 8.85268 29.2471 8.92652C29.445 8.99684 29.6814 9.032 29.9563 9.032C30.3779 9.032 30.7042 8.93707 30.9351 8.7472C31.166 8.55383 31.2815 8.27782 31.2815 7.91919C31.2815 7.71878 31.2284 7.55527 31.122 7.4287C31.0194 7.30212 30.882 7.19664 30.7096 7.11226C30.5374 7.02436 30.3413 6.95053 30.1213 6.89075C29.9014 6.83099 29.6777 6.76593 29.4505 6.69562C29.2232 6.62529 28.9995 6.54091 28.7796 6.44247C28.5596 6.34401 28.3635 6.21568 28.1913 6.05746C28.0189 5.89924 27.8797 5.70235 27.7733 5.46677C27.6707 5.22769 27.6194 4.9341 27.6194 4.58602C27.6194 4.30824 27.6762 4.03752 27.7898 3.77382C27.9071 3.51012 28.0758 3.27631 28.2957 3.07237C28.5157 2.86844 28.7869 2.70494 29.1095 2.58189C29.4321 2.45883 29.8023 2.39729 30.2204 2.39729C30.6895 2.39729 31.122 2.46762 31.518 2.60825C31.9139 2.74891 32.2512 2.94579 32.5298 3.19894L32.1613 3.86875ZM36.3274 6.31589C36.5986 6.31589 36.8351 6.28425 37.0367 6.22096C37.2384 6.15414 37.4052 6.06098 37.5371 5.94143C37.6727 5.81838 37.7736 5.67071 37.8396 5.49841C37.9056 5.32262 37.9386 5.12748 37.9386 4.913C37.9386 4.70906 37.9056 4.52448 37.8396 4.35923C37.7736 4.19398 37.6745 4.05333 37.5427 3.9373C37.4106 3.82128 37.244 3.73338 37.0423 3.6736C36.8407 3.61032 36.6024 3.57867 36.3274 3.57867H35.2223V6.31589H36.3274ZM36.3274 2.48168C36.859 2.48168 37.3189 2.54146 37.7075 2.66099C38.0961 2.78055 38.4169 2.94755 38.6698 3.16203C38.9228 3.3765 39.1097 3.63317 39.2307 3.93204C39.3553 4.23089 39.4178 4.55788 39.4178 4.913C39.4178 5.28219 39.3535 5.62148 39.2253 5.93088C39.097 6.23677 38.9045 6.50047 38.648 6.72198C38.3912 6.94349 38.0687 7.11579 37.6801 7.23883C37.2953 7.3619 36.8442 7.42343 36.3274 7.42343H35.2223V10.1079H33.7431V2.48168H36.3274ZM47.9146 6.2948C47.9146 6.85384 47.8176 7.37245 47.6233 7.85062C47.4326 8.32528 47.1613 8.73665 46.8095 9.08474C46.4575 9.43282 46.0341 9.70532 45.5393 9.90222C45.0444 10.0956 44.4945 10.1923 43.8897 10.1923C43.2886 10.1923 42.7405 10.0956 42.2455 9.90222C41.7507 9.70532 41.3254 9.43282 40.9698 9.08474C40.618 8.73665 40.3449 8.32528 40.1506 7.85062C39.9563 7.37245 39.8591 6.85384 39.8591 6.2948C39.8591 5.73575 39.9563 5.2189 40.1506 4.74424C40.3449 4.26605 40.618 3.85292 40.9698 3.50484C41.3254 3.15675 41.7507 2.88603 42.2455 2.69264C42.7405 2.49575 43.2886 2.39729 43.8897 2.39729C44.2929 2.39729 44.6723 2.44301 45.0279 2.53442C45.3834 2.62233 45.7098 2.74891 46.0067 2.91415C46.3036 3.07589 46.5693 3.27453 46.804 3.51012C47.0422 3.74217 47.2439 4.00235 47.4089 4.29067C47.5738 4.57898 47.6985 4.89191 47.7828 5.22945C47.8707 5.56698 47.9146 5.92209 47.9146 6.2948ZM46.4026 6.2948C46.4026 5.87638 46.344 5.50194 46.2266 5.17142C46.1093 4.83741 45.9425 4.55437 45.7263 4.32232C45.5099 4.09026 45.246 3.9127 44.9344 3.78963C44.6265 3.66658 44.2783 3.60505 43.8897 3.60505C43.5012 3.60505 43.151 3.66658 42.8393 3.78963C42.5315 3.9127 42.2676 4.09026 42.0476 4.32232C41.8313 4.55437 41.6646 4.83741 41.5473 5.17142C41.43 5.50194 41.3713 5.87638 41.3713 6.2948C41.3713 6.71319 41.43 7.08941 41.5473 7.42343C41.6646 7.75393 41.8313 8.03522 42.0476 8.26727C42.2676 8.4958 42.5315 8.67161 42.8393 8.79467C43.151 8.91772 43.5012 8.97926 43.8897 8.97926C44.2783 8.97926 44.6265 8.91772 44.9344 8.79467C45.246 8.67161 45.5099 8.4958 45.7263 8.26727C45.9425 8.03522 46.1093 7.75393 46.2266 7.42343C46.344 7.08941 46.4026 6.71319 46.4026 6.2948ZM51.3967 6.1102C51.6753 6.1102 51.9173 6.0768 52.1225 6.01C52.3315 5.94318 52.502 5.85178 52.6338 5.73575C52.7694 5.61619 52.8703 5.47556 52.9363 5.31383C53.0023 5.15208 53.0353 4.97454 53.0353 4.78115C53.0353 4.3944 52.9015 4.09728 52.6338 3.88985C52.3699 3.6824 51.9648 3.57867 51.4187 3.57867H50.4729V6.1102H51.3967ZM55.2018 10.1079H53.8656C53.6126 10.1079 53.4293 10.013 53.3157 9.8231L51.6441 7.38124C51.5818 7.28982 51.5122 7.22478 51.4352 7.18609C51.3619 7.14743 51.2519 7.12809 51.1053 7.12809H50.4729V10.1079H48.9937V2.48168H51.4187C51.9575 2.48168 52.4194 2.53617 52.8043 2.64518C53.1928 2.75066 53.51 2.90009 53.7556 3.09346C54.0048 3.28685 54.1882 3.51891 54.3055 3.78963C54.4228 4.05686 54.4815 4.3522 54.4815 4.67567C54.4815 4.93235 54.4411 5.17495 54.3604 5.40348C54.2834 5.63202 54.1699 5.83948 54.0195 6.02581C53.873 6.21217 53.6896 6.37565 53.4697 6.5163C53.2535 6.65694 53.0059 6.7677 52.7273 6.84856C52.8227 6.9013 52.9106 6.96459 52.9914 7.03842C53.0719 7.10875 53.1453 7.19313 53.2113 7.29157L55.2018 10.1079ZM62.5433 2.48168V10.1079H61.7846C61.6673 10.1079 61.5682 10.0903 61.4877 10.0552C61.4105 10.0165 61.3356 9.9532 61.2622 9.86529L57.1106 4.78115C57.1327 5.0132 57.1436 5.22769 57.1436 5.42457V10.1079H55.8405V2.48168H56.6158C56.6781 2.48168 56.7312 2.48521 56.7753 2.49223C56.8229 2.49575 56.8632 2.5063 56.8962 2.52387C56.9328 2.53795 56.9676 2.5608 57.0007 2.59244C57.0337 2.62056 57.0703 2.65924 57.1106 2.70847L61.2787 7.81371C61.2677 7.69064 61.2584 7.56935 61.2512 7.44979C61.2439 7.33026 61.2401 7.21949 61.2401 7.11754V2.48168H62.5433ZM65.5788 3.61032V5.7252H68.3611V6.81691H65.5788V8.97399H69.1089V10.1079H64.094V2.48168H69.1089V3.61032H65.5788ZM68.9933 0.292969L67.2119 1.80133C67.1385 1.86462 67.0689 1.9033 67.0029 1.91736C66.9369 1.93143 66.8525 1.93846 66.7499 1.93846H65.7657L66.915 0.509203C66.9516 0.459979 66.9882 0.421303 67.0249 0.393175C67.0615 0.361531 67.1019 0.338677 67.1459 0.324612C67.1898 0.310549 67.2375 0.301759 67.2888 0.298242C67.3437 0.294727 67.408 0.292969 67.4813 0.292969H68.9933ZM74.1331 5.67773H74.4795C74.6189 5.67773 74.7342 5.66016 74.8259 5.62499C74.9176 5.58632 74.9963 5.52655 75.0624 5.44567L77.2564 2.78231C77.3479 2.66979 77.4434 2.59244 77.5422 2.55025C77.645 2.50453 77.7733 2.48168 77.9272 2.48168H79.203L76.525 5.65137C76.3675 5.84474 76.2043 5.98186 76.0356 6.06274C76.1567 6.10493 76.2647 6.16469 76.3601 6.24205C76.459 6.31589 76.5525 6.41433 76.6406 6.5374L79.4008 10.1079H78.0977C77.9217 10.1079 77.7898 10.085 77.7017 10.0393C77.6174 9.99011 77.546 9.91979 77.4873 9.82838L75.2383 7.01206C75.1687 6.91713 75.088 6.85031 74.9963 6.81165C74.9048 6.77297 74.7728 6.75363 74.6006 6.75363H74.1331V10.1079H72.6541V2.48168H74.1331V5.67773ZM84.6306 8.93706V10.1079H79.9733V2.48168H81.4523V8.93706H84.6306ZM86.9514 10.1079H85.4668V2.48168H86.9514V10.1079ZM88.5405 0.292969L86.759 1.80133C86.6857 1.86462 86.6161 1.9033 86.55 1.91736C86.484 1.93143 86.3997 1.93846 86.2971 1.93846H85.3129L86.4621 0.509203C86.4987 0.459979 86.5353 0.421303 86.5721 0.393175C86.6087 0.361531 86.6491 0.338677 86.693 0.324612C86.737 0.310549 86.7847 0.301759 86.836 0.298242C86.8909 0.294727 86.9551 0.292969 87.0283 0.292969H88.5405ZM97.1335 2.48168V10.1079H95.8303V5.18197C95.8303 4.98509 95.8415 4.77235 95.8633 4.54382L93.4604 8.87378C93.3469 9.08123 93.1727 9.18495 92.9382 9.18495H92.7292C92.4945 9.18495 92.3205 9.08123 92.2068 8.87378L89.7764 4.52799C89.7873 4.64402 89.7965 4.75829 89.8039 4.87081C89.8112 4.98331 89.8148 5.08704 89.8148 5.18197V10.1079H88.5116V2.48168H89.6279C89.6939 2.48168 89.7508 2.48343 89.7983 2.48696C89.846 2.49047 89.8882 2.49926 89.9248 2.51332C89.9651 2.5274 89.9999 2.55025 90.0294 2.58189C90.0624 2.61354 90.0934 2.65573 90.1228 2.70847L92.5037 6.94349C92.5661 7.05601 92.6228 7.17204 92.6741 7.29157C92.7292 7.41113 92.7823 7.53418 92.8336 7.66075C92.8849 7.53067 92.9382 7.40585 92.9931 7.28631C93.0482 7.16324 93.1067 7.04546 93.1691 6.93294L95.5169 2.70847C95.5463 2.65573 95.5776 2.61354 95.6104 2.58189C95.6434 2.55025 95.6782 2.5274 95.715 2.51332C95.7554 2.49926 95.7993 2.49047 95.8468 2.48696C95.8946 2.48343 95.9514 2.48168 96.0174 2.48168H97.1335ZM102.102 7.15445V10.1079H100.629V7.15445L97.7309 2.48168H99.0341C99.1624 2.48168 99.2632 2.51157 99.3366 2.57135C99.4136 2.63111 99.4776 2.70671 99.5289 2.79812L100.981 5.34547C101.065 5.49666 101.138 5.63906 101.201 5.77266C101.267 5.90627 101.325 6.03989 101.377 6.17348C101.424 6.03989 101.479 5.90627 101.541 5.77266C101.604 5.63906 101.675 5.49666 101.756 5.34547L103.202 2.79812C103.242 2.72077 103.303 2.64869 103.384 2.58189C103.464 2.51508 103.567 2.48168 103.691 2.48168H105L102.102 7.15445Z" fill="#5F646E"/>
<path d="M21.0159 14.0677C21.1191 14.0677 21.209 14.0557 21.2856 14.0316C21.3622 14.0062 21.4257 13.9708 21.4757 13.9254C21.5274 13.8786 21.5656 13.8225 21.5907 13.757C21.6158 13.6902 21.6284 13.616 21.6284 13.5345C21.6284 13.457 21.6158 13.3868 21.5907 13.324C21.5656 13.2612 21.5281 13.2077 21.4779 13.1636C21.4276 13.1195 21.3643 13.0861 21.2877 13.0634C21.2111 13.0393 21.1205 13.0273 21.0159 13.0273H20.5959V14.0677H21.0159ZM21.0159 12.6104C21.2179 12.6104 21.3928 12.6331 21.5405 12.6785C21.6883 12.7239 21.8101 12.7874 21.9063 12.8689C22.0025 12.9505 22.0735 13.048 22.1196 13.1616C22.167 13.2752 22.1906 13.3995 22.1906 13.5345C22.1906 13.6748 22.1662 13.8038 22.1175 13.9214C22.0687 14.0377 21.9955 14.1379 21.898 14.2221C21.8004 14.3063 21.6777 14.3717 21.5301 14.4185C21.3839 14.4653 21.2124 14.4887 21.0159 14.4887H20.5959V15.5091H20.0337V12.6104H21.0159ZM24.0157 13.9895C24.1217 13.9895 24.2136 13.9768 24.2916 13.9514C24.3711 13.926 24.4359 13.8913 24.4861 13.8472C24.5376 13.8018 24.576 13.7483 24.6009 13.6868C24.626 13.6254 24.6386 13.5579 24.6386 13.4844C24.6386 13.3374 24.5878 13.2244 24.4861 13.1456C24.3856 13.0667 24.2317 13.0273 24.0241 13.0273H23.6646V13.9895H24.0157ZM25.4621 15.5091H24.9542C24.858 15.5091 24.7884 15.473 24.7452 15.4008L24.1099 14.4727C24.0862 14.4379 24.0597 14.4132 24.0304 14.3985C24.0026 14.3838 23.9608 14.3764 23.905 14.3764H23.6646V15.5091H23.1024V12.6104H24.0241C24.229 12.6104 24.4045 12.6311 24.5509 12.6725C24.6985 12.7126 24.8191 12.7694 24.9124 12.8429C25.0071 12.9164 25.0769 13.0046 25.1214 13.1075C25.166 13.2091 25.1883 13.3213 25.1883 13.4443C25.1883 13.5418 25.173 13.634 25.1424 13.7209C25.1131 13.8078 25.0699 13.8866 25.0126 13.9575C24.957 14.0283 24.8872 14.0904 24.8036 14.1439C24.7215 14.1974 24.6275 14.2394 24.5216 14.2702C24.5579 14.2902 24.5912 14.3143 24.6219 14.3424C24.6526 14.3691 24.6804 14.4012 24.7055 14.4386L25.4621 15.5091ZM26.8334 13.0393V13.8432H27.891V14.2582H26.8334V15.0781H28.1753V15.5091H26.2692V12.6104H28.1753V13.0393H26.8334ZM31.8378 14.0597C31.8378 14.2722 31.8009 14.4673 31.7271 14.6451C31.6532 14.8228 31.5494 14.9758 31.4157 15.1041C31.2819 15.2324 31.1209 15.332 30.9329 15.4028C30.7447 15.4736 30.5357 15.5091 30.3059 15.5091H29.1542V12.6104H30.3059C30.5357 12.6104 30.7447 12.6464 30.9329 12.7186C31.1209 12.7894 31.2819 12.889 31.4157 13.0173C31.5494 13.1442 31.6532 13.2966 31.7271 13.4743C31.8009 13.6521 31.8378 13.8472 31.8378 14.0597ZM31.2611 14.0597C31.2611 13.9007 31.2386 13.7583 31.1941 13.6327C31.1509 13.5057 31.0876 13.3988 31.004 13.312C30.9216 13.2238 30.8213 13.1563 30.7029 13.1095C30.586 13.0627 30.4536 13.0393 30.3059 13.0393H29.7186V15.0801H30.3059C30.4536 15.0801 30.586 15.0567 30.7029 15.0099C30.8213 14.9631 30.9216 14.8963 31.004 14.8094C31.0876 14.7212 31.1509 14.6143 31.1941 14.4887C31.2386 14.3617 31.2611 14.2187 31.2611 14.0597ZM34.3177 14.4145L33.9499 13.4503C33.9318 13.4075 33.913 13.3567 33.8936 13.2979C33.8741 13.2391 33.8545 13.1757 33.8349 13.1075C33.8168 13.1757 33.7982 13.2398 33.7786 13.2999C33.7591 13.3587 33.7402 13.4102 33.7221 13.4543L33.3563 14.4145H34.3177ZM35.3105 15.5091H34.8758C34.827 15.5091 34.7874 15.4977 34.7567 15.475C34.726 15.4509 34.7031 15.4215 34.6878 15.3868L34.462 14.7954H33.2101L32.9844 15.3868C32.9733 15.4175 32.9516 15.4456 32.9196 15.471C32.8875 15.4964 32.8479 15.5091 32.8005 15.5091H32.3615L33.5508 12.6104H34.1234L35.3105 15.5091ZM37.2558 14.4787C37.2558 14.6417 37.2348 14.7887 37.193 14.9197C37.1512 15.0507 37.0886 15.1622 37.005 15.2545C36.9226 15.3467 36.8197 15.4175 36.6955 15.467C36.5715 15.5164 36.4273 15.5411 36.263 15.5411C36.1876 15.5411 36.1139 15.5365 36.0414 15.5271C35.9689 15.5191 35.893 15.5057 35.8136 15.487C35.8177 15.4335 35.8227 15.3801 35.8283 15.3266C35.8338 15.2732 35.8387 15.2197 35.8428 15.1663C35.8469 15.1369 35.8588 15.1135 35.8783 15.0961C35.8993 15.0774 35.9286 15.068 35.9661 15.068C35.9899 15.068 36.0204 15.0727 36.0581 15.0821C36.0972 15.0914 36.1458 15.0961 36.2045 15.0961C36.2838 15.0961 36.3543 15.0854 36.4155 15.064C36.4768 15.0413 36.5276 15.0059 36.5681 14.9578C36.6099 14.9097 36.6412 14.8475 36.6621 14.7714C36.683 14.6938 36.6935 14.6003 36.6935 14.4907V12.6104H37.2558V14.4787Z" fill="#5F646E"/>
<path d="M54.1076 13.1374C54.0908 13.1655 54.0726 13.1862 54.0533 13.1996C54.0352 13.2116 54.0122 13.2176 53.9842 13.2176C53.955 13.2176 53.9228 13.2076 53.888 13.1875C53.8547 13.1661 53.8143 13.1428 53.7669 13.1174C53.7196 13.092 53.6638 13.0693 53.5997 13.0492C53.537 13.0278 53.4625 13.0171 53.376 13.0171C53.298 13.0171 53.2298 13.0265 53.1712 13.0452C53.1127 13.0626 53.0632 13.0873 53.0228 13.1194C52.9839 13.1515 52.9546 13.1902 52.9351 13.2356C52.9155 13.2797 52.9058 13.3285 52.9058 13.382C52.9058 13.4501 52.9254 13.5069 52.9643 13.5524C53.0047 13.5978 53.0576 13.6366 53.1231 13.6686C53.1886 13.7007 53.2632 13.7294 53.3468 13.7548C53.4304 13.7802 53.5161 13.8076 53.6039 13.837C53.6916 13.8651 53.7774 13.8985 53.861 13.9373C53.9446 13.9747 54.019 14.0228 54.0845 14.0816C54.15 14.1391 54.2024 14.2099 54.2413 14.2941C54.2817 14.3783 54.3019 14.4805 54.3019 14.6008C54.3019 14.7318 54.2782 14.8547 54.2309 14.9697C54.185 15.0833 54.1166 15.1828 54.026 15.2684C53.9368 15.3525 53.8274 15.4194 53.6979 15.4688C53.5683 15.5169 53.42 15.541 53.2528 15.541C53.1566 15.541 53.0619 15.5316 52.9684 15.5129C52.8751 15.4955 52.7853 15.4701 52.6988 15.4367C52.6139 15.4033 52.5337 15.3632 52.4586 15.3165C52.3832 15.2697 52.3165 15.2176 52.2578 15.1601L52.423 14.9015C52.4369 14.8828 52.455 14.8674 52.4774 14.8554C52.4996 14.842 52.5233 14.8353 52.5484 14.8353C52.5832 14.8353 52.6209 14.8494 52.6613 14.8774C52.7017 14.9042 52.7497 14.9342 52.8055 14.9677C52.8611 15.0011 52.9259 15.0318 52.9998 15.0599C53.075 15.0866 53.1649 15.1 53.2695 15.1C53.4297 15.1 53.5536 15.0639 53.6415 14.9917C53.7293 14.9182 53.7732 14.8133 53.7732 14.677C53.7732 14.6008 53.753 14.5387 53.7126 14.4906C53.6735 14.4424 53.6213 14.4023 53.5558 14.3703C53.4903 14.3369 53.4157 14.3088 53.3321 14.2861C53.2485 14.2633 53.1636 14.2386 53.0771 14.2119C52.9909 14.1852 52.9058 14.1531 52.8222 14.1157C52.7386 14.0782 52.664 14.0295 52.5985 13.9693C52.533 13.9092 52.4801 13.8344 52.4397 13.7448C52.4006 13.6539 52.3812 13.5423 52.3812 13.41C52.3812 13.3045 52.4028 13.2016 52.446 13.1013C52.4905 13.0011 52.5547 12.9122 52.6383 12.8347C52.7219 12.7572 52.8249 12.695 52.9476 12.6483C53.0701 12.6015 53.211 12.5781 53.3697 12.5781C53.5481 12.5781 53.7126 12.6048 53.8631 12.6583C54.0134 12.7118 54.1417 12.7866 54.2476 12.8828L54.1076 13.1374ZM55.8374 13.0392V13.843H56.895V14.258H55.8374V15.0779H57.1792V15.5089H55.273V12.6102H57.1792V13.0392H55.8374ZM59.0715 13.9894C59.1774 13.9894 59.2694 13.9767 59.3474 13.9513C59.4267 13.9259 59.4917 13.8912 59.5417 13.8471C59.5932 13.8016 59.6316 13.7482 59.6567 13.6867C59.6818 13.6252 59.6944 13.5577 59.6944 13.4842C59.6944 13.3372 59.6435 13.2243 59.5417 13.1454C59.4414 13.0666 59.2875 13.0272 59.0798 13.0272H58.7204V13.9894H59.0715ZM60.5179 15.5089H60.01C59.9138 15.5089 59.844 15.4728 59.801 15.4007L59.1655 14.4725C59.1418 14.4378 59.1155 14.413 59.0861 14.3983C59.0582 14.3836 59.0164 14.3763 58.9606 14.3763H58.7204V15.5089H58.1582V12.6102H59.0798C59.2846 12.6102 59.4603 12.6309 59.6065 12.6723C59.7543 12.7124 59.8747 12.7692 59.9682 12.8427C60.0629 12.9162 60.1325 13.0044 60.1772 13.1073C60.2217 13.2089 60.2441 13.3212 60.2441 13.4441C60.2441 13.5417 60.2287 13.6339 60.198 13.7208C60.1687 13.8076 60.1255 13.8865 60.0685 13.9573C60.0127 14.0281 59.9431 14.0903 59.8595 14.1437C59.7773 14.1972 59.6831 14.2393 59.5773 14.27C59.6135 14.2901 59.647 14.3141 59.6775 14.3422C59.7082 14.3689 59.7362 14.401 59.7611 14.4384L60.5179 15.5089ZM63.8205 12.6102L62.6 15.5089H62.0921L60.8715 12.6102H61.323C61.3716 12.6102 61.4115 12.6216 61.4421 12.6443C61.4728 12.667 61.4958 12.6964 61.511 12.7325L62.2238 14.5006C62.2475 14.558 62.2697 14.6215 62.2907 14.691C62.313 14.7592 62.3338 14.8307 62.3533 14.9055C62.37 14.8307 62.3881 14.7592 62.4077 14.691C62.4272 14.6215 62.4488 14.558 62.4725 14.5006L63.1811 12.7325C63.1922 12.7017 63.2137 12.6737 63.2459 12.6483C63.2792 12.6229 63.3196 12.6102 63.3669 12.6102H63.8205ZM65.1784 15.5089H64.6142V12.6102H65.1784V15.5089ZM67.9451 13.1374C67.9284 13.1655 67.9103 13.1862 67.8908 13.1996C67.8726 13.2116 67.8497 13.2176 67.8217 13.2176C67.7924 13.2176 67.7605 13.2076 67.7257 13.1875C67.6922 13.1661 67.6518 13.1428 67.6044 13.1174C67.5571 13.092 67.5013 13.0693 67.4372 13.0492C67.3744 13.0278 67.3 13.0171 67.2135 13.0171C67.1355 13.0171 67.0673 13.0265 67.0088 13.0452C66.9502 13.0626 66.9008 13.0873 66.8603 13.1194C66.8213 13.1515 66.7921 13.1902 66.7725 13.2356C66.753 13.2797 66.7433 13.3285 66.7433 13.382C66.7433 13.4501 66.7629 13.5069 66.8018 13.5524C66.8422 13.5978 66.8953 13.6366 66.9607 13.6686C67.0262 13.7007 67.1007 13.7294 67.1843 13.7548C67.2679 13.7802 67.3536 13.8076 67.4414 13.837C67.5291 13.8651 67.6148 13.8985 67.6984 13.9373C67.782 13.9747 67.8567 14.0228 67.9222 14.0816C67.9876 14.1391 68.0398 14.2099 68.0788 14.2941C68.1193 14.3783 68.1394 14.4805 68.1394 14.6008C68.1394 14.7318 68.1157 14.8547 68.0684 14.9697C68.0224 15.0833 67.9541 15.1828 67.8635 15.2684C67.7743 15.3525 67.6651 15.4194 67.5354 15.4688C67.4058 15.5169 67.2575 15.541 67.0903 15.541C66.9941 15.541 66.8994 15.5316 66.8061 15.5129C66.7126 15.4955 66.6227 15.4701 66.5365 15.4367C66.4514 15.4033 66.3712 15.3632 66.2961 15.3165C66.2209 15.2697 66.154 15.2176 66.0955 15.1601L66.2605 14.9015C66.2745 14.8828 66.2925 14.8674 66.3149 14.8554C66.3371 14.842 66.3608 14.8353 66.3859 14.8353C66.4207 14.8353 66.4584 14.8494 66.4988 14.8774C66.5391 14.9042 66.5872 14.9342 66.643 14.9677C66.6986 15.0011 66.7636 15.0318 66.8373 15.0599C66.9127 15.0866 67.0025 15.1 67.107 15.1C67.2672 15.1 67.3913 15.0639 67.479 14.9917C67.5668 14.9182 67.6107 14.8133 67.6107 14.677C67.6107 14.6008 67.5904 14.5387 67.5501 14.4906C67.511 14.4424 67.4588 14.4023 67.3933 14.3703C67.3278 14.3369 67.2533 14.3088 67.1697 14.2861C67.0861 14.2633 67.0011 14.2386 66.9146 14.2119C66.8283 14.1852 66.7433 14.1531 66.6597 14.1157C66.5761 14.0782 66.5015 14.0295 66.436 13.9693C66.3705 13.9092 66.3176 13.8344 66.2772 13.7448C66.2383 13.6539 66.2187 13.5423 66.2187 13.41C66.2187 13.3045 66.2403 13.2016 66.2835 13.1013C66.3282 13.0011 66.3922 12.9122 66.4758 12.8347C66.5594 12.7572 66.6626 12.695 66.7851 12.6483C66.9076 12.6015 67.0485 12.5781 67.2072 12.5781C67.3856 12.5781 67.5501 12.6048 67.7006 12.6583C67.8511 12.7118 67.9792 12.7866 68.0851 12.8828L67.9451 13.1374Z" fill="#5F646E"/>
<path d="M85.5227 12.6103V15.509H85.0274V13.6366C85.0274 13.5618 85.0317 13.4809 85.04 13.3941L84.1266 15.0399C84.0834 15.1187 84.0172 15.1581 83.928 15.1581H83.8487C83.7596 15.1581 83.6934 15.1187 83.6501 15.0399L82.7264 13.3881C82.7305 13.4322 82.7339 13.4756 82.7368 13.5183C82.7395 13.5611 82.7409 13.6005 82.7409 13.6366V15.509H82.2456V12.6103H82.6699C82.695 12.6103 82.7165 12.6109 82.7347 12.6123C82.7528 12.6136 82.7687 12.6169 82.7827 12.6223C82.7982 12.6276 82.8113 12.6363 82.8226 12.6483C82.8349 12.6604 82.8468 12.6764 82.8581 12.6964L83.763 14.3062C83.7867 14.3489 83.8082 14.393 83.8278 14.4385C83.8487 14.4839 83.8688 14.5307 83.8884 14.5788C83.908 14.5294 83.928 14.4819 83.949 14.4365C83.9698 14.3897 83.9923 14.3449 84.016 14.3022L84.9083 12.6964C84.9194 12.6764 84.9313 12.6604 84.9438 12.6483C84.9564 12.6363 84.9697 12.6276 84.9836 12.6223C84.9989 12.6169 85.0156 12.6136 85.0337 12.6123C85.0518 12.6109 85.0735 12.6103 85.0985 12.6103H85.5227ZM89.56 14.0596C89.56 14.2721 89.5231 14.4692 89.4492 14.651C89.3767 14.8314 89.2737 14.9878 89.1399 15.1201C89.006 15.2524 88.8451 15.3559 88.6571 15.4308C88.4689 15.5043 88.2599 15.541 88.0301 15.541C87.8015 15.541 87.5932 15.5043 87.4052 15.4308C87.217 15.3559 87.0554 15.2524 86.9203 15.1201C86.7865 14.9878 86.6828 14.8314 86.6089 14.651C86.5349 14.4692 86.498 14.2721 86.498 14.0596C86.498 13.8471 86.5349 13.6507 86.6089 13.4702C86.6828 13.2885 86.7865 13.1315 86.9203 12.9992C87.0554 12.8668 87.217 12.7639 87.4052 12.6904C87.5932 12.6156 87.8015 12.5782 88.0301 12.5782C88.1833 12.5782 88.3275 12.5955 88.4626 12.6303C88.5979 12.6637 88.7219 12.7118 88.8347 12.7746C88.9475 12.8361 89.0485 12.9116 89.1377 13.0012C89.2283 13.0894 89.3049 13.1882 89.3677 13.2978C89.4303 13.4074 89.4779 13.5264 89.5098 13.6547C89.5433 13.783 89.56 13.9179 89.56 14.0596ZM88.9852 14.0596C88.9852 13.9006 88.963 13.7582 88.9183 13.6326C88.8738 13.5056 88.8103 13.3981 88.7281 13.3099C88.646 13.2217 88.5457 13.1542 88.4271 13.1074C88.3101 13.0606 88.1777 13.0372 88.0301 13.0372C87.8824 13.0372 87.7493 13.0606 87.6309 13.1074C87.5138 13.1542 87.4135 13.2217 87.3299 13.3099C87.2477 13.3981 87.1844 13.5056 87.1397 13.6326C87.0952 13.7582 87.0728 13.9006 87.0728 14.0596C87.0728 14.2186 87.0952 14.3616 87.1397 14.4886C87.1844 14.6142 87.2477 14.7211 87.3299 14.8093C87.4135 14.8962 87.5138 14.963 87.6309 15.0098C87.7493 15.0566 87.8824 15.08 88.0301 15.08C88.1777 15.08 88.3101 15.0566 88.4271 15.0098C88.5457 14.963 88.646 14.8962 88.7281 14.8093C88.8103 14.7211 88.8738 14.6142 88.9183 14.4886C88.963 14.3616 88.9852 14.2186 88.9852 14.0596ZM93.0822 12.6103V15.509H92.7938C92.7491 15.509 92.7116 15.5023 92.6809 15.4889C92.6517 15.4742 92.6231 15.4501 92.5952 15.4167L91.0173 13.4843C91.0256 13.5725 91.0297 13.654 91.0297 13.7288V15.509H90.5344V12.6103H90.8291C90.8528 12.6103 90.8731 12.6116 90.8898 12.6143C90.9079 12.6156 90.9231 12.6196 90.9357 12.6263C90.9497 12.6316 90.9629 12.6403 90.9755 12.6523C90.9879 12.663 91.0019 12.6777 91.0173 12.6964L92.6014 14.6369C92.5973 14.5902 92.5937 14.5441 92.591 14.4986C92.5882 14.4532 92.5869 14.4111 92.5869 14.3723V12.6103H93.0822ZM96.3468 13.0533H95.4356V15.509H94.8734V13.0533H93.9622V12.6103H96.3468V13.0533ZM98.5258 14.4144L98.1581 13.4502C98.1399 13.4074 98.1211 13.3566 98.1016 13.2978C98.0822 13.239 98.0626 13.1756 98.0431 13.1074C98.0249 13.1756 98.0061 13.2397 97.9867 13.2999C97.9672 13.3586 97.9483 13.4101 97.9302 13.4542L97.5644 14.4144H98.5258ZM99.5187 15.509H99.084C99.0352 15.509 98.9955 15.4976 98.9648 15.4749C98.9342 15.4508 98.9112 15.4214 98.8958 15.3867L98.6701 14.7953H97.4182L97.1925 15.3867C97.1814 15.4174 97.1597 15.4455 97.1278 15.4709C97.0956 15.4963 97.056 15.509 97.0086 15.509H96.5696L97.7589 12.6103H98.3315L99.5187 15.509ZM98.9209 11.7783L98.2438 12.3516C98.2158 12.3757 98.1895 12.3904 98.1643 12.3957C98.1392 12.4011 98.1073 12.4038 98.0682 12.4038H97.6941L98.131 11.8605C98.1448 11.8418 98.1588 11.8271 98.1728 11.8164C98.1866 11.8044 98.202 11.7957 98.2187 11.7903C98.2354 11.785 98.2535 11.7817 98.2731 11.7803C98.2939 11.779 98.3183 11.7783 98.3463 11.7783H98.9209ZM102.394 12.8087C102.394 12.8702 102.376 12.9263 102.34 12.9771L100.789 15.078H102.358V15.509H100.059V15.2965C100.059 15.2697 100.064 15.2444 100.074 15.2203C100.084 15.1949 100.096 15.1715 100.112 15.1501L101.667 13.0392H100.158V12.6103H102.394V12.8087ZM102.03 11.8525L101.527 12.4038H101.042L100.538 11.8525H100.912C100.933 11.8525 100.958 11.8552 100.987 11.8605C101.016 11.8659 101.043 11.8832 101.067 11.9126L101.253 12.1472C101.26 12.1538 101.265 12.1612 101.269 12.1692C101.275 12.1773 101.28 12.1846 101.284 12.1913C101.288 12.1846 101.292 12.1773 101.297 12.1692C101.302 12.1612 101.309 12.1538 101.315 12.1472L101.499 11.9146C101.523 11.8839 101.549 11.8659 101.579 11.8605C101.609 11.8552 101.635 11.8525 101.656 11.8525H102.03Z" fill="#5F646E"/>
<path d="M44.7758 14.3201C45.0072 14.3201 45.1947 14.1403 45.1947 13.9184C45.1947 13.6965 45.0072 13.5166 44.7758 13.5166C44.5445 13.5166 44.3569 13.6965 44.3569 13.9184C44.3569 14.1403 44.5445 14.3201 44.7758 14.3201Z" fill="#5F646E"/>
<path d="M75.6083 14.3201C75.8397 14.3201 76.0272 14.1403 76.0272 13.9184C76.0272 13.6965 75.8397 13.5166 75.6083 13.5166C75.377 13.5166 75.1895 13.6965 75.1895 13.9184C75.1895 14.1403 75.377 14.3201 75.6083 14.3201Z" fill="#5F646E"/>
</svg>
