<svg width="167" height="27" viewBox="0 0 167 27" fill="none" xmlns="http://www.w3.org/2000/svg">
<path d="M55.6475 14.5555V19.6357H54.0023V14.5555L49.0125 6.69106H51.0373L54.852 13.0007L58.5401 6.69106H60.5108L55.6475 14.5555Z" fill="#5F646E"/>
<path d="M69.8084 6.49219C71.8091 6.49219 73.3881 7.18522 74.5451 8.57129C75.5455 9.77656 76.0457 11.3073 76.0457 13.1634C76.0457 15.2967 75.4009 16.9841 74.1112 18.2255C72.9783 19.2982 71.544 19.8346 69.8084 19.8346C67.7956 19.8346 66.2106 19.1416 65.0536 17.7555C64.0532 16.5502 63.553 15.0195 63.553 13.1634C63.553 11.03 64.2039 9.34266 65.5056 8.10123C66.6265 7.02854 68.0607 6.49219 69.8084 6.49219ZM69.7903 7.9566C68.3199 7.9566 67.1568 8.49294 66.301 9.56564C65.5658 10.5058 65.1982 11.705 65.1982 13.1634C65.1982 14.8387 65.6743 16.1585 66.6265 17.1227C67.4581 17.9544 68.5127 18.3702 69.7903 18.3702C71.2728 18.3702 72.4419 17.8338 73.2977 16.7611C74.0329 15.821 74.4005 14.6218 74.4005 13.1634C74.4005 11.4881 73.9244 10.1683 72.9722 9.20406C72.1406 8.37242 71.08 7.9566 69.7903 7.9566Z" fill="#5F646E"/>
<path d="M90.7989 12.8199L90.7938 13.382L90.771 13.9458L90.7318 14.4338L90.6644 14.8858L90.622 15.1277L90.5744 15.3598L90.4826 15.7447L90.3782 16.0976L90.2769 16.3821L90.16 16.6724L90.0158 16.988C89.9002 17.1945 89.7901 17.405 89.6559 17.6C89.6456 17.615 89.6367 17.6271 89.6301 17.6349C89.5848 17.688 89.3963 17.9486 89.3963 17.9486C88.3622 19.2025 86.8203 19.8522 84.9232 19.8346C83.026 19.817 81.5484 19.1416 80.4396 17.7555C79.4753 16.5382 78.9932 15.0195 78.9932 13.1995C78.9932 10.8252 79.7706 8.99916 81.3254 7.72157C82.3379 6.90198 83.6335 6.49219 85.2124 6.49219C87.0806 6.49219 88.5149 7.05867 89.5153 8.19163C90.0576 8.80632 90.4253 9.6018 90.6181 10.5781H88.9367C88.756 9.75848 88.3341 9.11969 87.6712 8.66168C87.0083 8.19163 86.1767 7.9566 85.1763 7.9566C83.7179 7.9566 82.5669 8.48692 81.7232 9.54756C81 10.4756 80.6384 11.6628 80.6384 13.1091C80.6384 14.7965 81.0964 16.1284 82.0124 17.1046C82.8079 17.9483 83.8987 18.3702 85.2848 18.3702C86.5382 18.3702 87.5507 17.9604 88.3221 17.1408C88.997 16.4176 89.3345 15.5378 89.3345 14.5012V14.2843H85.3932V12.8199H90.7989Z" fill="#5F646E"/>
<path d="M101.874 15.7487L97.2999 14.3566L96.8841 15.7487L95.5101 19.6357H93.7564L98.3666 6.69106H100.5L105.038 19.6357H103.212L101.874 15.7487ZM101.404 14.3566L99.4151 8.48089L97.2999 14.3566L101.874 15.7487L101.404 14.3566Z" fill="#5F646E"/>
<path d="M114.62 14.5555V19.6357H112.975V14.5555L107.985 6.69106H110.01L113.825 13.0007L117.513 6.69106H119.484L114.62 14.5555Z" fill="#5F646E"/>
<path d="M132.569 6.69106V19.6357H130.725L124.017 9.13174V19.6357H122.462V6.69106H124.252L131.014 17.2673V6.69106H132.569Z" fill="#5F646E"/>
<path d="M140.219 15.4961C140.378 15.4961 140.523 15.4512 140.654 15.3613C140.786 15.2714 140.907 15.1607 141.018 15.0293C141.128 14.9048 141.225 14.7664 141.308 14.6143C141.398 14.469 141.474 14.3376 141.536 14.22C141.502 14.2339 141.443 14.2581 141.36 14.2927C141.277 14.3342 141.187 14.3791 141.09 14.4275C141 14.4829 140.914 14.5347 140.831 14.5832C140.748 14.6316 140.689 14.6662 140.654 14.6869C140.565 14.7422 140.464 14.8149 140.354 14.9048C140.25 15.0016 140.163 15.0915 140.094 15.1745C140.032 15.2644 140.004 15.3405 140.011 15.4028C140.018 15.465 140.087 15.4961 140.219 15.4961ZM139.887 13.5664C139.887 13.3036 139.897 12.9785 139.918 12.5912C139.939 12.1969 139.97 11.7923 140.011 11.3773C140.053 10.9623 140.108 10.5646 140.177 10.1842C140.246 9.79687 140.329 9.48217 140.426 9.24009C140.482 9.10176 140.533 9.00838 140.582 8.95997C140.63 8.90463 140.675 8.87697 140.717 8.87697C140.765 8.87697 140.803 8.90118 140.831 8.94959C140.858 8.99801 140.869 9.03951 140.862 9.07409C140.862 9.08792 140.852 9.12597 140.831 9.18821C140.817 9.24355 140.807 9.29542 140.8 9.34384C140.744 9.55825 140.686 9.84529 140.623 10.205C140.561 10.5577 140.502 10.9277 140.447 11.3151C140.399 11.6955 140.357 12.0655 140.322 12.4252C140.295 12.7779 140.281 13.058 140.281 13.2655L140.509 12.892C140.565 12.7745 140.644 12.6569 140.748 12.5393C140.858 12.3871 140.98 12.2696 141.111 12.1866C141.249 12.0966 141.388 12.0517 141.526 12.0517C141.747 12.0517 141.924 12.1693 142.055 12.4044C142.173 12.6327 142.221 12.8367 142.2 13.0165C142.18 13.1964 142.169 13.3658 142.169 13.5249C142.266 13.4696 142.346 13.4281 142.408 13.4004C142.477 13.3658 142.539 13.3313 142.595 13.2967C142.657 13.2621 142.719 13.224 142.781 13.1825C142.85 13.141 142.93 13.0857 143.02 13.0165C143.068 12.982 143.131 12.9335 143.207 12.8713C143.283 12.8021 143.359 12.7364 143.435 12.6742C143.511 12.6119 143.577 12.5566 143.632 12.5082C143.694 12.4598 143.736 12.4356 143.757 12.4356C143.86 12.4356 143.916 12.4598 143.923 12.5082C143.929 12.5497 143.912 12.5981 143.871 12.6534C143.836 12.7088 143.791 12.7606 143.736 12.809C143.687 12.8575 143.656 12.8851 143.642 12.892C143.566 12.975 143.487 13.0477 143.404 13.1099C143.321 13.1722 143.238 13.2413 143.155 13.3174C143.072 13.3797 142.968 13.4454 142.844 13.5145C142.726 13.5837 142.608 13.6529 142.491 13.722C142.38 13.7912 142.28 13.8535 142.19 13.9088C142.107 13.9572 142.059 13.9918 142.045 14.0125C142.024 14.0471 141.989 14.1267 141.941 14.2512C141.899 14.3757 141.837 14.5174 141.754 14.6765C141.671 14.8356 141.564 14.9947 141.433 15.1538C141.301 15.3198 141.139 15.4616 140.945 15.5791C140.703 15.7313 140.457 15.8074 140.208 15.8074C140.063 15.8074 139.939 15.7694 139.835 15.6933C139.731 15.6241 139.679 15.51 139.679 15.3509C139.679 15.1987 139.748 15.0466 139.887 14.8944C140.032 14.7492 140.201 14.6108 140.395 14.4794C140.589 14.348 140.786 14.2304 140.986 14.1267C141.194 14.016 141.36 13.9295 141.484 13.8673C141.581 13.8189 141.64 13.7877 141.661 13.7739C141.688 13.7601 141.716 13.6944 141.744 13.5768C141.778 13.4315 141.799 13.2898 141.806 13.1514C141.813 13.0062 141.806 12.8782 141.785 12.7675C141.765 12.6569 141.727 12.567 141.671 12.4978C141.623 12.4286 141.561 12.3941 141.484 12.3941C141.353 12.3941 141.187 12.5082 140.986 12.7364C140.855 12.8955 140.744 13.065 140.654 13.2448C140.571 13.4246 140.495 13.5941 140.426 13.7532C140.364 13.9053 140.309 14.0333 140.26 14.137C140.212 14.2408 140.163 14.2927 140.115 14.2927C140.046 14.2927 139.994 14.2684 139.959 14.22C139.925 14.1716 139.901 14.1128 139.887 14.0437C139.88 13.9676 139.876 13.888 139.876 13.805C139.883 13.7151 139.887 13.6356 139.887 13.5664Z" fill="#5F646E"/>
<path d="M143.667 18.3804C143.812 18.3804 143.947 18.3458 144.072 18.2766C144.203 18.2074 144.321 18.1175 144.424 18.0069C144.535 17.9031 144.632 17.789 144.715 17.6645C144.798 17.54 144.871 17.4224 144.933 17.3117C145.009 17.1665 145.092 16.9555 145.182 16.6789C145.279 16.4091 145.369 16.1186 145.452 15.8074C145.535 15.5031 145.604 15.2091 145.659 14.9255C145.721 14.6419 145.759 14.4206 145.773 14.2615C145.69 14.3169 145.614 14.3687 145.545 14.4172L144.528 15.3198C144.494 15.3474 144.462 15.3786 144.435 15.4131C144.414 15.4546 144.383 15.4927 144.341 15.5273C144.175 15.6933 144.027 15.8593 143.895 16.0253C143.764 16.1913 143.633 16.3746 143.501 16.5751C143.439 16.665 143.373 16.7792 143.304 16.9175C143.228 17.0558 143.169 17.2011 143.128 17.3532C143.086 17.5123 143.072 17.668 143.086 17.8201C143.093 17.9723 143.148 18.1037 143.252 18.2144C143.342 18.325 143.48 18.3804 143.667 18.3804ZM143.906 13.307C144.037 13.2379 144.193 13.0857 144.373 12.8505C144.559 12.6085 144.746 12.3422 144.933 12.0517C145.12 11.7612 145.292 11.4776 145.452 11.2009C145.618 10.9174 145.746 10.6995 145.835 10.5473C145.918 10.409 145.974 10.3191 146.001 10.2776C146.036 10.2292 146.109 10.205 146.219 10.205C146.275 10.205 146.316 10.2465 146.344 10.3295C146.371 10.4125 146.392 10.5093 146.406 10.6199C146.42 10.7237 146.427 10.8309 146.427 10.9416C146.427 11.0453 146.427 11.1249 146.427 11.1802V11.9791C146.427 12.1105 146.42 12.2488 146.406 12.3941C146.399 12.5324 146.389 12.6707 146.375 12.809C146.368 12.9405 146.358 13.065 146.344 13.1825C146.337 13.2932 146.333 13.3866 146.333 13.4627L147.817 12.6016C147.831 12.5877 147.859 12.567 147.9 12.5393C147.942 12.5116 147.986 12.484 148.035 12.4563C148.083 12.4286 148.132 12.4044 148.18 12.3837C148.229 12.356 148.274 12.3422 148.315 12.3422C148.377 12.3422 148.408 12.3802 148.408 12.4563C148.408 12.4978 148.374 12.5462 148.305 12.6016C148.235 12.6569 148.152 12.7157 148.056 12.7779C147.966 12.8333 147.879 12.8851 147.796 12.9335C147.713 12.975 147.655 13.0062 147.62 13.0269C147.406 13.1445 147.191 13.2725 146.977 13.4108C146.769 13.5422 146.565 13.6771 146.365 13.8154C146.309 13.85 146.282 13.8811 146.282 13.9088C146.282 13.9295 146.275 13.978 146.261 14.054C146.226 14.3099 146.178 14.5935 146.116 14.9048C146.053 15.216 145.981 15.5273 145.898 15.8385C145.815 16.1567 145.718 16.4576 145.607 16.7411C145.503 17.0316 145.389 17.2806 145.265 17.4881C145.189 17.6334 145.095 17.7752 144.985 17.9135C144.874 18.0587 144.75 18.1867 144.611 18.2974C144.48 18.4149 144.335 18.5083 144.175 18.5775C144.023 18.6467 143.861 18.6812 143.688 18.6812C143.432 18.6812 143.218 18.5948 143.045 18.4219C142.872 18.2489 142.785 18.0069 142.785 17.6956C142.785 17.412 142.879 17.0973 143.065 16.7515C143.245 16.4126 143.467 16.0806 143.729 15.7555C143.999 15.4304 144.283 15.1261 144.58 14.8425C144.877 14.5659 145.14 14.348 145.369 14.1889C145.403 14.1543 145.434 14.1301 145.462 14.1163C145.49 14.1025 145.524 14.0782 145.566 14.0437C145.663 13.9607 145.732 13.9053 145.773 13.8777C145.822 13.85 145.849 13.7877 145.856 13.6909C145.891 13.4281 145.918 13.1825 145.939 12.9543C145.967 12.7191 145.991 12.4874 146.012 12.2592C146.033 12.0309 146.046 11.7958 146.053 11.5537C146.067 11.3047 146.074 11.0315 146.074 10.7341C146.053 10.7479 145.995 10.8309 145.898 10.9831C145.801 11.1352 145.694 11.3081 145.576 11.5018C145.465 11.6886 145.358 11.8684 145.254 12.0413C145.151 12.2142 145.078 12.3318 145.037 12.3941C144.933 12.5601 144.805 12.7572 144.653 12.9854C144.507 13.2068 144.366 13.3831 144.227 13.5145C144.096 13.6321 143.975 13.6909 143.864 13.6909C143.747 13.6909 143.65 13.639 143.574 13.5353C143.505 13.4246 143.47 13.2794 143.47 13.0995C143.47 12.9889 143.484 12.8505 143.511 12.6846C143.546 12.5116 143.588 12.3491 143.636 12.1969C143.691 12.0378 143.754 11.903 143.823 11.7923C143.899 11.6747 143.978 11.6159 144.061 11.6159C144.179 11.6159 144.234 11.6574 144.227 11.7404C144.227 11.8234 144.203 11.941 144.155 12.0932C144.106 12.2384 144.051 12.4148 143.989 12.6223C143.933 12.8298 143.906 13.058 143.906 13.307Z" fill="#5F646E"/>
<path d="M153.366 15.2471C153.711 15.2471 154.047 15.1849 154.372 15.0604C154.704 14.9428 155.015 14.7837 155.306 14.5832C155.596 14.3895 155.862 14.1716 156.105 13.9295C156.354 13.6875 156.568 13.4419 156.748 13.1929C156.962 12.9232 157.156 12.6258 157.329 12.3007C157.509 11.9756 157.661 11.6401 157.785 11.2943C157.91 10.9416 158.007 10.5854 158.076 10.2257C158.145 9.86604 158.18 9.51675 158.18 9.17784C158.18 8.89426 158.148 8.62451 158.086 8.3686C158.024 8.11268 157.934 7.8879 157.816 7.69423C157.706 7.50057 157.564 7.3484 157.391 7.23774C157.225 7.12015 157.031 7.06136 156.81 7.06136C156.492 7.06136 156.194 7.16165 155.918 7.36223C155.641 7.5559 155.389 7.79452 155.16 8.0781C154.932 8.36168 154.732 8.66601 154.559 8.99109C154.386 9.31617 154.251 9.60321 154.154 9.85221L153.749 10.9312C153.625 11.3047 153.504 11.6955 153.386 12.1036C153.269 12.5047 153.172 12.892 153.096 13.2655C153.082 13.3555 153.058 13.4903 153.023 13.6702C152.989 13.85 152.954 14.0367 152.919 14.2304C152.885 14.4241 152.854 14.6039 152.826 14.7699C152.798 14.9428 152.785 15.0673 152.785 15.1434C152.84 15.178 152.926 15.2022 153.044 15.216C153.162 15.2368 153.269 15.2471 153.366 15.2471ZM152.785 13.0788C152.785 13.0719 152.785 13.0684 152.785 13.0684C152.792 13.0684 152.795 13.065 152.795 13.058L152.919 12.5601C153.002 12.1935 153.117 11.7785 153.262 11.3151C153.407 10.8517 153.573 10.3882 153.76 9.92483C153.947 9.4545 154.154 9.0153 154.382 8.60722C154.617 8.19223 154.866 7.85331 155.129 7.59048C155.378 7.34148 155.631 7.13053 155.887 6.95761C156.143 6.7847 156.457 6.69824 156.831 6.69824C157.114 6.69824 157.37 6.77087 157.599 6.91611C157.827 7.05445 158.02 7.24811 158.18 7.49711C158.366 7.79452 158.487 8.12306 158.543 8.48272C158.605 8.84238 158.622 9.20896 158.595 9.58246C158.567 9.95596 158.505 10.3225 158.408 10.6822C158.318 11.0419 158.218 11.3669 158.107 11.6574C157.872 12.2938 157.526 12.9024 157.069 13.4834C156.62 14.0575 156.115 14.5347 155.555 14.9152C155.43 14.9912 155.285 15.0708 155.119 15.1538C154.953 15.2437 154.773 15.3232 154.579 15.3924C154.393 15.4685 154.199 15.5273 153.998 15.5688C153.798 15.6172 153.597 15.6414 153.397 15.6414C153.231 15.6414 153.096 15.6241 152.992 15.5895C152.895 15.5619 152.798 15.5446 152.702 15.5376L152.556 17.2288C152.549 17.291 152.539 17.3844 152.525 17.5089C152.518 17.6403 152.511 17.7786 152.504 17.9239C152.504 18.0691 152.501 18.2074 152.494 18.3389C152.487 18.4703 152.48 18.574 152.473 18.6501C152.46 18.7746 152.449 18.8956 152.442 19.0132C152.442 19.1377 152.435 19.2449 152.421 19.3349C152.415 19.4317 152.394 19.5078 152.359 19.5631C152.332 19.6184 152.287 19.6461 152.224 19.6461C152.169 19.6461 152.114 19.6323 152.058 19.6046C152.031 19.5009 152.013 19.321 152.006 19.0651C152.006 18.8092 152.01 18.536 152.017 18.2455C152.024 17.955 152.031 17.6749 152.038 17.4051C152.051 17.1423 152.058 16.9452 152.058 16.8138C152.058 16.6616 152.062 16.5267 152.069 16.4091C152.083 16.2985 152.089 16.174 152.089 16.0356C152.089 15.8766 152.093 15.7451 152.1 15.6414C152.107 15.5376 152.11 15.4166 152.11 15.2783C152.076 15.2437 152.034 15.2126 151.986 15.1849C151.944 15.1641 151.903 15.1365 151.861 15.1019C151.737 15.012 151.678 14.9221 151.685 14.8322C151.692 14.7422 151.733 14.6973 151.809 14.6973C151.858 14.6973 151.899 14.7111 151.934 14.7388C151.982 14.7664 152.02 14.7907 152.048 14.8114C152.076 14.8322 152.096 14.8425 152.11 14.8425C152.138 14.8425 152.148 14.8045 152.141 14.7284C152.141 14.6592 152.145 14.5244 152.152 14.3238C152.152 14.2339 152.155 14.1716 152.162 14.137C152.176 14.1025 152.183 14.0437 152.183 13.9607C152.19 13.8915 152.19 13.8223 152.183 13.7532C152.176 13.6771 152.179 13.6045 152.193 13.5353C152.2 13.4592 152.207 13.4004 152.214 13.3589C152.221 13.3105 152.224 13.2379 152.224 13.141C152.224 12.982 152.228 12.7987 152.235 12.5912C152.242 12.3837 152.252 12.1727 152.266 11.9583C152.28 11.737 152.29 11.5226 152.297 11.3151C152.311 11.1007 152.318 10.9104 152.318 10.7444C152.318 10.6061 152.321 10.4194 152.328 10.1842C152.342 9.94904 152.349 9.70696 152.349 9.45796C152.349 9.20205 152.342 8.95997 152.328 8.73172C152.314 8.50347 152.28 8.33402 152.224 8.22335C152.169 8.25793 152.114 8.31672 152.058 8.39972C152.003 8.48272 151.951 8.57264 151.903 8.66947C151.854 8.7663 151.809 8.86659 151.768 8.97034C151.733 9.06717 151.699 9.15363 151.664 9.22971C151.602 9.40263 151.547 9.61013 151.498 9.85221C151.45 10.0874 151.408 10.2949 151.374 10.4747C151.339 10.7099 151.329 10.9519 151.342 11.2009C151.356 11.443 151.381 11.6678 151.415 11.8753C151.45 12.0482 151.488 12.1831 151.529 12.2799C151.571 12.3698 151.609 12.439 151.643 12.4874C151.685 12.5358 151.719 12.5704 151.747 12.5912C151.782 12.605 151.806 12.6258 151.82 12.6534C151.854 12.7088 151.858 12.7572 151.83 12.7987C151.802 12.8333 151.761 12.8505 151.706 12.8505C151.643 12.8505 151.567 12.8194 151.477 12.7572C151.394 12.688 151.315 12.5635 151.239 12.3837C151.163 12.1762 151.114 11.9964 151.093 11.8442C151.073 11.6851 151.049 11.4984 151.021 11.2839C151.007 11.2148 151.007 11.1594 151.021 11.1179C151.035 11.0695 151.042 11.0004 151.042 10.9104C151.042 10.53 151.08 10.16 151.156 9.80033C151.239 9.44067 151.346 9.09484 151.477 8.76284C151.505 8.68676 151.543 8.59685 151.591 8.4931C151.647 8.38243 151.706 8.27522 151.768 8.17148C151.837 8.06773 151.91 7.98127 151.986 7.9121C152.062 7.83602 152.141 7.79798 152.224 7.79798C152.37 7.79798 152.484 7.86023 152.567 7.98473C152.65 8.10923 152.712 8.26485 152.753 8.4516C152.795 8.63835 152.819 8.83893 152.826 9.05334C152.833 9.26776 152.836 9.46142 152.836 9.63433C152.836 10.2361 152.826 10.8205 152.805 11.3877C152.792 11.9549 152.785 12.5186 152.785 13.0788Z" fill="#5F646E"/>
<path d="M159.054 12.3422C159.116 12.3076 159.186 12.2661 159.262 12.2177C159.345 12.1693 159.421 12.1174 159.49 12.0621C159.559 11.9998 159.618 11.9341 159.666 11.8649C159.715 11.7889 159.742 11.7093 159.749 11.6263C159.68 11.6401 159.607 11.6747 159.531 11.7301C159.455 11.7785 159.386 11.8373 159.324 11.9064C159.262 11.9756 159.206 12.0517 159.158 12.1347C159.109 12.2108 159.075 12.2799 159.054 12.3422ZM158.587 12.5912C158.587 12.4598 158.622 12.3214 158.691 12.1762C158.76 12.024 158.847 11.8857 158.95 11.7612C159.054 11.6298 159.172 11.5226 159.303 11.4396C159.435 11.3496 159.563 11.3047 159.687 11.3047C159.915 11.3047 160.033 11.3911 160.04 11.5641C160.054 11.737 159.981 11.9237 159.822 12.1243C159.739 12.2211 159.614 12.3283 159.448 12.4459C159.282 12.5566 159.12 12.6188 158.961 12.6327C158.961 12.7433 158.964 12.8436 158.971 12.9335C158.978 13.0165 159.026 13.103 159.116 13.1929C159.206 13.2828 159.32 13.3278 159.459 13.3278C159.549 13.3278 159.642 13.3105 159.739 13.2759C159.836 13.2413 159.929 13.2033 160.019 13.1618C160.109 13.1134 160.192 13.065 160.268 13.0165C160.351 12.9612 160.417 12.9128 160.465 12.8713C160.507 12.8367 160.538 12.809 160.559 12.7883C160.586 12.7675 160.617 12.7433 160.652 12.7157C160.756 12.6327 160.828 12.567 160.87 12.5186C160.918 12.4701 160.953 12.4321 160.973 12.4044C161.001 12.3768 161.029 12.3595 161.056 12.3526C161.091 12.3456 161.146 12.3422 161.222 12.3422C161.236 12.4183 161.24 12.4701 161.233 12.4978C161.233 12.5255 161.209 12.567 161.16 12.6223C161.063 12.7191 160.949 12.8263 160.818 12.9439C160.686 13.0615 160.541 13.1722 160.382 13.2759C160.23 13.3797 160.071 13.4661 159.905 13.5353C159.746 13.6045 159.587 13.639 159.428 13.639C159.192 13.639 158.992 13.556 158.826 13.39C158.701 13.2655 158.629 13.1376 158.608 13.0062C158.594 12.8748 158.587 12.7364 158.587 12.5912Z" fill="#5F646E"/>
<path d="M157.848 9.59284C157.848 9.51675 157.91 9.43721 158.034 9.35421C158.152 9.27121 158.304 9.18821 158.491 9.10522C158.678 9.02222 158.885 8.94268 159.113 8.86659C159.342 8.79051 159.566 8.72134 159.788 8.6591C160.009 8.58993 160.213 8.53114 160.4 8.48272C160.587 8.43431 160.728 8.39627 160.825 8.3686C160.936 8.34093 161.019 8.32364 161.074 8.31672C161.13 8.30289 161.171 8.28906 161.199 8.27522C161.226 8.25447 161.244 8.22681 161.251 8.19223C161.264 8.15073 161.282 8.08502 161.302 7.9951C161.358 7.71152 161.42 7.51786 161.489 7.41411C161.565 7.30344 161.638 7.24811 161.707 7.24811C161.762 7.24811 161.807 7.27924 161.842 7.34148C161.883 7.39682 161.904 7.46598 161.904 7.54898C161.904 7.61123 161.901 7.6389 161.894 7.63198C161.887 7.61815 161.887 7.6389 161.894 7.69423C161.894 7.70806 161.894 7.72536 161.894 7.74611C161.901 7.76686 161.904 7.79452 161.904 7.8291C161.904 7.89827 161.894 7.93977 161.873 7.9536C161.852 7.96052 161.828 7.96744 161.8 7.97435C161.773 7.97435 161.749 7.98473 161.728 8.00548C161.707 8.02623 161.697 8.0781 161.697 8.1611C161.78 8.1611 161.87 8.15073 161.966 8.12998C162.07 8.10923 162.16 8.09194 162.236 8.0781C162.541 8.02277 162.845 7.97435 163.149 7.93285C163.454 7.88444 163.765 7.86023 164.083 7.86023C164.207 7.86023 164.304 7.88098 164.373 7.92248C164.45 7.96398 164.498 8.01239 164.519 8.06773C164.539 8.11614 164.533 8.16456 164.498 8.21298C164.463 8.25447 164.398 8.27522 164.301 8.27522C164.287 8.21989 164.277 8.19568 164.27 8.2026C164.27 8.2026 164.239 8.19568 164.176 8.18185C164.149 8.17493 164.093 8.17148 164.01 8.17148C163.865 8.17148 163.671 8.18877 163.429 8.22335C163.187 8.25102 162.942 8.2856 162.693 8.3271C162.444 8.3686 162.215 8.4101 162.008 8.4516C161.807 8.48618 161.676 8.51039 161.614 8.52422L161.406 10.6511C161.399 10.6995 161.396 10.7514 161.396 10.8067C161.403 10.862 161.406 10.9174 161.406 10.9727C161.406 11.0419 161.399 11.0868 161.385 11.1076C161.379 11.1283 161.375 11.1767 161.375 11.2528C161.375 11.405 161.379 11.5814 161.385 11.7819C161.392 11.9756 161.389 12.1278 161.375 12.2384C161.368 12.3145 161.361 12.484 161.354 12.7468C161.347 13.0096 161.344 13.2967 161.344 13.6079C161.344 13.9122 161.344 14.2062 161.344 14.4898C161.344 14.7734 161.347 14.9705 161.354 15.0811C161.354 15.1434 161.361 15.2264 161.375 15.3301C161.389 15.4408 161.396 15.548 161.396 15.6518C161.403 15.7555 161.396 15.8454 161.375 15.9215C161.354 15.9976 161.309 16.0356 161.24 16.0356C161.171 16.0356 161.116 16.0149 161.074 15.9734C161.04 15.9319 161.012 15.88 160.991 15.8178C160.977 15.7555 160.967 15.6864 160.96 15.6103C160.96 15.5411 160.96 15.4754 160.96 15.4131C160.946 15.2264 160.936 15.012 160.929 14.7699C160.922 14.5347 160.919 14.2927 160.919 14.0437C160.919 13.7947 160.919 13.5526 160.919 13.3174C160.926 13.0753 160.929 12.8609 160.929 12.6742L160.96 12.1866C160.96 12.0897 160.96 11.941 160.96 11.7404C160.96 11.5329 160.964 11.322 160.97 11.1076C160.977 10.8862 160.984 10.6822 160.991 10.4954C160.998 10.3018 161.009 10.1669 161.022 10.0908C161.036 10.0217 161.043 9.93866 161.043 9.84183C161.05 9.745 161.057 9.662 161.064 9.59284L161.157 8.62797C161.123 8.6418 161.06 8.6591 160.97 8.67984C160.881 8.69368 160.808 8.70751 160.753 8.72134C160.407 8.80434 160.082 8.89426 159.777 8.99109C159.473 9.08101 159.158 9.18821 158.833 9.31271C158.771 9.34038 158.716 9.3715 158.667 9.40609C158.612 9.43375 158.553 9.46142 158.491 9.48909C158.429 9.51675 158.384 9.5375 158.356 9.55134C158.328 9.55825 158.311 9.56863 158.304 9.58246C158.297 9.59629 158.29 9.61704 158.283 9.64471C158.276 9.66546 158.263 9.70004 158.242 9.74846C158.173 9.76229 158.114 9.76921 158.065 9.76921C158.01 9.76921 157.962 9.75883 157.92 9.73808C157.872 9.71733 157.848 9.66892 157.848 9.59284Z" fill="#5F646E"/>
<path d="M162.051 14.1785C162.002 14.1785 161.968 14.1509 161.947 14.0955C161.926 14.0402 161.912 13.9814 161.905 13.9192C161.905 13.85 161.909 13.7843 161.916 13.722C161.923 13.6598 161.926 13.6183 161.926 13.5975C161.919 13.473 161.916 13.3485 161.916 13.224C161.923 13.0926 161.923 12.9612 161.916 12.8298C161.916 12.7814 161.916 12.688 161.916 12.5497C161.923 12.4113 161.933 12.2696 161.947 12.1243C161.968 11.9791 161.995 11.8511 162.03 11.7404C162.065 11.6229 162.11 11.5641 162.165 11.5641C162.303 11.5641 162.372 11.609 162.372 11.6989C162.379 11.7889 162.376 11.9064 162.362 12.0517C162.355 12.107 162.352 12.1623 162.352 12.2177C162.352 12.273 162.352 12.3283 162.352 12.3837C162.352 12.4598 162.348 12.5082 162.341 12.5289C162.334 12.5428 162.331 12.5843 162.331 12.6534C162.407 12.5981 162.476 12.5358 162.538 12.4667C162.601 12.3906 162.711 12.3526 162.87 12.3526C162.919 12.3526 162.981 12.3526 163.057 12.3526C163.14 12.3456 163.227 12.3422 163.316 12.3422C163.469 12.3422 163.61 12.3526 163.742 12.3733C163.873 12.3871 163.939 12.4286 163.939 12.4978C163.939 12.5739 163.901 12.6223 163.825 12.6431C163.756 12.6569 163.669 12.6638 163.565 12.6638C163.496 12.6638 163.424 12.6638 163.348 12.6638C163.278 12.6569 163.216 12.6534 163.161 12.6534C163.064 12.6534 162.984 12.6569 162.922 12.6638C162.86 12.6638 162.808 12.6742 162.767 12.6949C162.725 12.7088 162.687 12.733 162.652 12.7675C162.625 12.8021 162.59 12.854 162.549 12.9232C162.493 13.0131 162.445 13.1099 162.403 13.2137C162.362 13.3174 162.331 13.4315 162.31 13.556C162.296 13.6252 162.289 13.6978 162.289 13.7739C162.289 13.8431 162.286 13.9088 162.279 13.971C162.272 14.0333 162.251 14.0852 162.217 14.1267C162.189 14.1612 162.134 14.1785 162.051 14.1785Z" fill="#5F646E"/>
<path d="M163.534 13.1722C163.534 13.0269 163.569 12.8471 163.638 12.6327C163.714 12.4113 163.811 12.2004 163.929 11.9998C164.053 11.7923 164.195 11.6194 164.354 11.4811C164.52 11.3358 164.693 11.2632 164.873 11.2632C164.997 11.2632 165.104 11.2943 165.194 11.3566C165.284 11.4188 165.353 11.488 165.402 11.5641C165.45 11.6332 165.471 11.6989 165.464 11.7612C165.464 11.8234 165.429 11.8546 165.36 11.8546C165.284 11.8546 165.212 11.8165 165.142 11.7404C165.073 11.6574 164.99 11.6159 164.893 11.6159C164.817 11.6159 164.724 11.6609 164.613 11.7508C164.51 11.8407 164.382 12.0171 164.229 12.2799C164.16 12.3906 164.095 12.5358 164.032 12.7157C163.977 12.8886 163.949 13.0615 163.949 13.2344C163.963 13.2206 163.967 13.2171 163.96 13.224C163.96 13.231 163.973 13.2171 164.001 13.1825L164.084 13.058C164.139 12.975 164.202 12.8678 164.271 12.7364C164.347 12.5981 164.42 12.4667 164.489 12.3422C164.565 12.2108 164.634 12.0966 164.696 11.9998C164.765 11.903 164.817 11.8546 164.852 11.8546C164.942 11.8546 165.001 11.8822 165.028 11.9376C165.063 11.986 165.084 12.0517 165.091 12.1347C165.097 12.2177 165.101 12.3111 165.101 12.4148C165.101 12.5186 165.111 12.6188 165.132 12.7157C165.174 12.9024 165.236 13.0408 165.319 13.1307C165.409 13.2137 165.509 13.2552 165.62 13.2552C165.813 13.2552 166.028 13.1376 166.263 12.9024C166.36 12.8125 166.425 12.7399 166.46 12.6846C166.501 12.6223 166.56 12.5531 166.636 12.4771C166.685 12.4079 166.747 12.3733 166.823 12.3733C166.865 12.3733 166.896 12.3906 166.916 12.4252C166.937 12.4528 166.941 12.5013 166.927 12.5704C166.913 12.6327 166.872 12.7122 166.802 12.809C166.74 12.9059 166.643 13.0165 166.512 13.141L166.201 13.39C166 13.5284 165.806 13.5975 165.62 13.5975C165.488 13.5975 165.371 13.5664 165.267 13.5042C165.163 13.4419 165.073 13.3658 164.997 13.2759C164.928 13.1791 164.873 13.0719 164.831 12.9543C164.79 12.8367 164.769 12.7226 164.769 12.6119C164.72 12.6465 164.665 12.7261 164.603 12.8505C164.541 12.9681 164.471 13.0926 164.395 13.224C164.326 13.3485 164.254 13.4627 164.178 13.5664C164.101 13.6702 164.025 13.722 163.949 13.722C163.756 13.722 163.638 13.6771 163.597 13.5872C163.555 13.4973 163.534 13.3589 163.534 13.1722Z" fill="#5F646E"/>
<path d="M0.0654297 12.6317V11.8164L41.8707 11.8176V12.6317H0.0654297Z" fill="#5F646E"/>
<path d="M33.727 12.8058C33.8431 16.2684 32.6631 19.2667 30.4386 21.8975C29.278 23.2902 27.8272 24.3928 26.1829 25.1666C24.5387 25.921 22.7591 26.3272 20.9601 26.3272C19.1611 26.3272 17.3621 25.9403 15.7372 25.1666C14.093 24.4122 12.6422 23.2902 11.4816 21.8975C9.25703 19.2474 8.07706 16.2684 8.19312 12.8058C8.19312 9.42066 9.54719 6.17089 11.9265 3.77225C14.3251 1.3736 17.5749 0.0195312 20.9601 0.0195312C24.3453 0.0195312 27.595 1.3736 29.9937 3.7529C32.3923 6.17089 33.727 9.42066 33.727 12.8058ZM33.2821 12.8058C33.2628 10.3685 32.5277 7.98921 31.1737 5.9581C29.8196 3.927 27.8852 2.3408 25.6413 1.41229C23.3974 0.483784 20.9021 0.21297 18.5228 0.677224C16.1241 1.14148 13.9189 2.30211 12.178 4.00437C11.0367 5.165 10.1275 6.53842 9.52785 8.04724C8.92819 9.55607 8.61869 11.181 8.63803 12.8058C8.71541 14.4114 9.14097 15.9782 9.87604 17.4097C10.6111 18.8411 11.617 20.0985 12.8743 21.1044C15.215 23.0388 18.1552 24.0833 21.1729 24.0446C24.1905 24.0833 27.1114 23.0388 29.4327 21.1044C30.6127 20.0598 31.5605 18.7831 32.2376 17.3517C32.8759 15.9396 33.2435 14.3727 33.2821 12.8058Z" fill="#5F646E"/>
<path d="M4.11385 11.2311C4.81023 11.2311 5.39055 10.6508 5.39055 9.95443C5.39055 9.25805 4.81023 8.67773 4.11385 8.67773C3.41747 8.67773 2.83716 9.25805 2.83716 9.95443C2.83716 10.6508 3.39813 11.2311 4.11385 11.2311Z" fill="#5F646E"/>
<path d="M37.7516 15.7731C38.4479 15.7731 39.0282 15.1928 39.0282 14.4964C39.0282 13.8 38.4479 13.2197 37.7516 13.2197C37.0552 13.2197 36.4749 13.8 36.4749 14.4964C36.4749 15.2121 37.0552 15.7731 37.7516 15.7731Z" fill="#5F646E"/>
</svg>
