<svg width="24" height="25" viewBox="0 0 24 25" fill="none" xmlns="http://www.w3.org/2000/svg">
<g clip-path="url(#clip0_454_7)">
<path d="M8.26635 3.08008C8.40325 3.08014 8.53868 3.1083 8.66424 3.16283C8.78981 3.21736 8.90285 3.29709 8.99635 3.39708L9.07235 3.48908L13.3464 9.31708L19.2924 3.37308C19.4723 3.19373 19.7138 3.0896 19.9677 3.08185C20.2217 3.0741 20.4691 3.16329 20.6596 3.33133C20.8502 3.49936 20.9697 3.73363 20.9937 3.98655C21.0178 4.23948 20.9448 4.49209 20.7894 4.69308L20.7064 4.78708L14.5434 10.9491L20.8054 19.4891C20.909 19.6306 20.9737 19.7969 20.9928 19.9713C21.0119 20.1457 20.9847 20.3221 20.9141 20.4827C20.8435 20.6433 20.7318 20.7824 20.5904 20.8863C20.449 20.9901 20.2827 21.0548 20.1084 21.0741L19.9994 21.0801H15.7324C15.5955 21.08 15.46 21.0519 15.3345 20.9973C15.2089 20.9428 15.0959 20.8631 15.0024 20.7631L14.9264 20.6711L10.6504 14.8421L4.70635 20.7871C4.52639 20.9664 4.28492 21.0706 4.03097 21.0783C3.77702 21.0861 3.52964 20.9969 3.33907 20.8288C3.14851 20.6608 3.02905 20.4265 3.00495 20.1736C2.98086 19.9207 3.05394 19.6681 3.20935 19.4671L3.29235 19.3731L9.45335 13.2101L3.19335 4.67108C3.08966 4.52956 3.02503 4.36325 3.00594 4.18885C2.98685 4.01445 3.01398 3.8381 3.0846 3.6775C3.15522 3.51691 3.26685 3.37771 3.40828 3.2739C3.54972 3.17009 3.71597 3.10532 3.89035 3.08608L3.99935 3.08008H8.26635Z" fill="white"/>
</g>
<defs>
<clipPath id="clip0_454_7">
<rect width="24" height="24" fill="white" transform="translate(0 0.0400391)"/>
</clipPath>
</defs>
</svg>
