<svg width="45" height="45" viewBox="0 0 45 45" fill="none" xmlns="http://www.w3.org/2000/svg">
<rect width="45" height="45" rx="22.5" fill="#169813" fill-opacity="0.1"/>
<rect x="3" y="3" width="39" height="39" rx="19.5" fill="#169813" fill-opacity="0.05"/>
<path d="M19.125 23.3438L21.6562 25.875L25.875 19.9688M32.625 22.5C32.625 23.8296 32.3631 25.1462 31.8543 26.3747C31.3455 27.6031 30.5996 28.7193 29.6595 29.6595C28.7193 30.5996 27.6031 31.3455 26.3747 31.8543C25.1462 32.3631 23.8296 32.625 22.5 32.625C21.1704 32.625 19.8538 32.3631 18.6253 31.8543C17.3969 31.3455 16.2807 30.5996 15.3405 29.6595C14.4004 28.7193 13.6545 27.6031 13.1457 26.3747C12.6369 25.1462 12.375 23.8296 12.375 22.5C12.375 19.8147 13.4417 17.2393 15.3405 15.3405C17.2393 13.4417 19.8147 12.375 22.5 12.375C25.1853 12.375 27.7606 13.4417 29.6595 15.3405C31.5583 17.2393 32.625 19.8147 32.625 22.5Z" stroke="#148A11" stroke-width="2" stroke-linecap="round" stroke-linejoin="round"/>
</svg>
