<svg width="49" height="18" viewBox="0 0 49 18" fill="none" xmlns="http://www.w3.org/2000/svg">
<path d="M0.51416 17.6765V0H4.26739V17.6765H0.51416Z" fill="#4D3EE2"/>
<path d="M11.9401 17.6794C10.6648 17.6794 9.55906 17.4372 8.62277 16.9529C7.70262 16.4525 6.99234 15.7826 6.49191 14.9432C5.99147 14.0876 5.74126 13.1432 5.74126 12.1101V5.25452H9.49449V12.0132C9.49449 12.4491 9.59942 12.8526 9.80928 13.2239C10.0191 13.5791 10.3016 13.8697 10.6568 14.0957C11.0281 14.3055 11.4478 14.4104 11.9159 14.4104C12.3679 14.4104 12.7715 14.3055 13.1266 14.0957C13.4979 13.8697 13.7885 13.5791 13.9984 13.2239C14.2082 12.8526 14.3132 12.4491 14.3132 12.0132V5.25452H18.0664V12.1101C18.0664 13.1432 17.8242 14.0876 17.3399 14.9432C16.8557 15.7826 16.1534 16.4525 15.2333 16.9529C14.3293 17.4372 13.2316 17.6794 11.9401 17.6794Z" fill="#4D3EE2"/>
<path d="M25.2261 17.6765C24.08 17.6765 23.184 17.3536 22.5383 16.7079C21.8926 16.0461 21.5697 15.1582 21.5697 14.0443V2.22772H25.3472V13.8264C25.3472 14.0201 25.4118 14.1896 25.5409 14.3349C25.6862 14.4641 25.8557 14.5286 26.0494 14.5286H28.7614V17.6765H25.2261ZM19.5357 8.32975V5.25452H28.7614V8.32975H19.5357Z" fill="#4D3EE2"/>
<path d="M30.2338 17.6765V5.25452H34.0112V17.6765H30.2338ZM32.1225 4.43477C31.5252 4.43477 31.0086 4.21684 30.5728 3.78098C30.1369 3.34512 29.919 2.82855 29.919 2.23126C29.919 1.63397 30.1369 1.1174 30.5728 0.681541C31.0086 0.229539 31.5252 0.0035382 32.1225 0.0035382C32.7198 0.0035382 33.2364 0.229539 33.6722 0.681541C34.1081 1.1174 34.326 1.63397 34.326 2.23126C34.326 2.82855 34.1081 3.34512 33.6722 3.78098C33.2364 4.21684 32.7198 4.43477 32.1225 4.43477Z" fill="#4D3EE2"/>
<path d="M42.2081 17.6762C40.9329 17.6762 39.7867 17.3937 38.7697 16.8287C37.7527 16.2637 36.9455 15.4888 36.3483 14.5041C35.7671 13.5194 35.4765 12.4136 35.4765 11.1867C35.4765 9.94374 35.7671 8.83795 36.3483 7.86938C36.9455 6.88466 37.7527 6.1098 38.7697 5.54479C39.7867 4.96365 40.9329 4.67308 42.2081 4.67308C43.4834 4.67308 44.6215 4.96365 45.6224 5.54479C46.6394 6.1098 47.4384 6.88466 48.0196 7.86938C48.6169 8.83795 48.9155 9.94374 48.9155 11.1867C48.9155 12.4136 48.6169 13.5194 48.0196 14.5041C47.4384 15.4888 46.6394 16.2637 45.6224 16.8287C44.6054 17.3937 43.4673 17.6762 42.2081 17.6762ZM42.2081 14.4073C42.8054 14.4073 43.322 14.262 43.7579 13.9714C44.1937 13.6808 44.5327 13.2934 44.7749 12.8091C45.017 12.3248 45.1381 11.776 45.1381 11.1625C45.1381 10.5652 45.017 10.0245 44.7749 9.54017C44.5327 9.05588 44.1937 8.66845 43.7579 8.37788C43.322 8.08731 42.8054 7.94202 42.2081 7.94202C41.6109 7.94202 41.0862 8.08731 40.6342 8.37788C40.1983 8.66845 39.8593 9.05588 39.6172 9.54017C39.3751 10.0245 39.254 10.5652 39.254 11.1625C39.254 11.776 39.3751 12.3248 39.6172 12.8091C39.8593 13.2934 40.1983 13.6808 40.6342 13.9714C41.0862 14.262 41.6109 14.4073 42.2081 14.4073Z" fill="#4D3EE2"/>
</svg>
