<svg width="25" height="25" viewBox="0 0 25 25" fill="none" xmlns="http://www.w3.org/2000/svg">
<path d="M2.8457 19.6973C8.18131 19.6929 13.4937 20.3995 18.6427 21.7983C19.3697 21.9963 20.0957 21.4563 20.0957 20.7023V19.6973M4.3457 5.44727V6.19727C4.3457 6.39618 4.26669 6.58694 4.12603 6.7276C3.98538 6.86825 3.79462 6.94727 3.5957 6.94727H2.8457M2.8457 6.94727V6.57227C2.8457 5.95127 3.3497 5.44727 3.9707 5.44727H20.8457M2.8457 6.94727V15.9473M20.8457 5.44727V6.19727C20.8457 6.61127 21.1817 6.94727 21.5957 6.94727H22.3457M20.8457 5.44727H21.2207C21.8417 5.44727 22.3457 5.95127 22.3457 6.57227V16.3223C22.3457 16.9433 21.8417 17.4473 21.2207 17.4473H20.8457M2.8457 15.9473V16.3223C2.8457 16.6206 2.96423 16.9068 3.17521 17.1178C3.38619 17.3287 3.67233 17.4473 3.9707 17.4473H4.3457M2.8457 15.9473H3.5957C3.79462 15.9473 3.98538 16.0263 4.12603 16.1669C4.26669 16.3076 4.3457 16.4984 4.3457 16.6973V17.4473M20.8457 17.4473V16.6973C20.8457 16.4984 20.9247 16.3076 21.0654 16.1669C21.206 16.0263 21.3968 15.9473 21.5957 15.9473H22.3457M20.8457 17.4473H4.3457M15.5957 11.4473C15.5957 12.2429 15.2796 13.006 14.717 13.5686C14.1544 14.1312 13.3914 14.4473 12.5957 14.4473C11.8001 14.4473 11.037 14.1312 10.4744 13.5686C9.91177 13.006 9.5957 12.2429 9.5957 11.4473C9.5957 10.6516 9.91177 9.88855 10.4744 9.32594C11.037 8.76334 11.8001 8.44727 12.5957 8.44727C13.3914 8.44727 14.1544 8.76334 14.717 9.32594C15.2796 9.88855 15.5957 10.6516 15.5957 11.4473ZM18.5957 11.4473H18.6037V11.4553H18.5957V11.4473ZM6.5957 11.4473H6.6037V11.4553H6.5957V11.4473Z" stroke="#4D3EE2" stroke-width="1.5" stroke-linecap="round" stroke-linejoin="round"/>
</svg>
