<svg width="37" height="9" viewBox="0 0 37 9" fill="none" xmlns="http://www.w3.org/2000/svg">
<path d="M0.197266 1.91795C0.197266 1.91795 6.6991 -0.461645 10.0968 0.128503C12.7996 0.597939 15.3872 1.64582 18.3226 3.90513C19.0024 4.42855 20.39 5.743 21.1631 5.97854C22.772 6.46845 25.394 4.9598 26.9416 4.4546C28.0868 4.08085 29.7703 3.84896 30.9562 3.90513C35.9114 4.40679 36.8965 6.19702 36.8965 6.19702C32.6403 4.01836 27.6327 5.10634 23.4424 7.40921C22.2502 8.06443 21.0825 8.50041 20.1363 8.44982C17.597 6.47315 16.1884 4.68287 13.4112 3.12171C10.0301 1.2212 7.61817 0.98767 3.7404 1.58965C2.67521 1.97487 0.197266 1.91795 0.197266 1.91795Z" fill="#09001D"/>
</svg>
