<svg width="65" height="16" viewBox="0 0 65 16" fill="none" xmlns="http://www.w3.org/2000/svg">
<path d="M3.69299 2.72804C6.9793 1.10444 10.6728 0.546819 14.3265 0.840938C20.3701 1.32745 25.7974 2.9574 32.1634 7.85715C33.3479 8.76922 35.7658 11.0596 37.113 11.4701C39.9165 12.3237 44.4852 9.69492 47.182 8.81462C49.1775 8.16336 52.111 7.75929 54.1774 7.85715C62.8118 8.73131 64.5283 11.8508 64.5283 11.8508C57.112 8.05446 48.3862 9.95026 41.0847 13.963C39.0072 15.1047 36.9725 15.8644 35.3237 15.7763C30.8991 12.3319 28.4446 9.21237 23.6053 6.49204C17.7137 3.18041 13.511 2.7735 6.75398 3.82245C4.89788 4.49369 0.580078 4.3945 0.580078 4.3945C0.580078 4.3945 1.90463 3.61157 3.69299 2.72804Z" fill="#09001D"/>
</svg>
