<svg width="24" height="25" viewBox="0 0 24 25" fill="none" xmlns="http://www.w3.org/2000/svg">
<g clip-path="url(#clip0_454_15)">
<path d="M16 3.08008C17.3261 3.08008 18.5979 3.60686 19.5355 4.54454C20.4732 5.48223 21 6.754 21 8.08008V16.0801C21 17.4062 20.4732 18.6779 19.5355 19.6156C18.5979 20.5533 17.3261 21.0801 16 21.0801H8C6.67392 21.0801 5.40215 20.5533 4.46447 19.6156C3.52678 18.6779 3 17.4062 3 16.0801V8.08008C3 6.754 3.52678 5.48223 4.46447 4.54454C5.40215 3.60686 6.67392 3.08008 8 3.08008H16ZM12 8.08008C10.9738 8.08008 9.98677 8.47451 9.24319 9.1818C8.4996 9.88909 8.05631 10.8551 8.005 11.8801L8 12.0801C8 12.8712 8.2346 13.6446 8.67412 14.3024C9.11365 14.9602 9.73836 15.4728 10.4693 15.7756C11.2002 16.0783 12.0044 16.1576 12.7804 16.0032C13.5563 15.8489 14.269 15.4679 14.8284 14.9085C15.3878 14.3491 15.7688 13.6364 15.9231 12.8604C16.0775 12.0845 15.9983 11.2802 15.6955 10.5493C15.3928 9.81844 14.8801 9.19373 14.2223 8.7542C13.5645 8.31467 12.7911 8.08008 12 8.08008ZM16.5 6.58008C16.2551 6.58011 16.0187 6.67003 15.8356 6.83279C15.6526 6.99555 15.5357 7.21983 15.507 7.46308L15.5 7.59008C15.5003 7.84496 15.5979 8.09011 15.7728 8.27545C15.9478 8.46078 16.187 8.57231 16.4414 8.58725C16.6958 8.60219 16.9464 8.5194 17.1418 8.35581C17.3373 8.19222 17.4629 7.96017 17.493 7.70708L17.5 7.58008C17.5 7.31486 17.3946 7.06051 17.2071 6.87297C17.0196 6.68544 16.7652 6.58008 16.5 6.58008Z" fill="white"/>
</g>
<defs>
<clipPath id="clip0_454_15">
<rect width="24" height="24" fill="white" transform="translate(0 0.0400391)"/>
</clipPath>
</defs>
</svg>
