<svg width="24" height="25" viewBox="0 0 24 25" fill="none" xmlns="http://www.w3.org/2000/svg">
<g clip-path="url(#clip0_454_19)">
<path d="M17 2.08008C18.3261 2.08008 19.5979 2.60686 20.5355 3.54454C21.4732 4.48223 22 5.754 22 7.08008V17.0801C22 18.4062 21.4732 19.6779 20.5355 20.6156C19.5979 21.5533 18.3261 22.0801 17 22.0801H7C5.67392 22.0801 4.40215 21.5533 3.46447 20.6156C2.52678 19.6779 2 18.4062 2 17.0801V7.08008C2 5.754 2.52678 4.48223 3.46447 3.54454C4.40215 2.60686 5.67392 2.08008 7 2.08008H17ZM8 10.0801C7.73478 10.0801 7.48043 10.1854 7.29289 10.373C7.10536 10.5605 7 10.8149 7 11.0801V16.0801C7 16.3453 7.10536 16.5996 7.29289 16.7872C7.48043 16.9747 7.73478 17.0801 8 17.0801C8.26522 17.0801 8.51957 16.9747 8.70711 16.7872C8.89464 16.5996 9 16.3453 9 16.0801V11.0801C9 10.8149 8.89464 10.5605 8.70711 10.373C8.51957 10.1854 8.26522 10.0801 8 10.0801ZM14 10.0801C13.5988 10.0799 13.2016 10.1601 12.832 10.3161L12.707 10.3731C12.5671 10.2333 12.389 10.1381 12.195 10.0995C12.0011 10.0609 11.8 10.0807 11.6173 10.1564C11.4346 10.2321 11.2785 10.3602 11.1686 10.5246C11.0587 10.689 11 10.8823 11 11.0801V16.0801C11 16.3453 11.1054 16.5996 11.2929 16.7872C11.4804 16.9747 11.7348 17.0801 12 17.0801C12.2652 17.0801 12.5196 16.9747 12.7071 16.7872C12.8946 16.5996 13 16.3453 13 16.0801V13.0801C13 12.8149 13.1054 12.5605 13.2929 12.373C13.4804 12.1854 13.7348 12.0801 14 12.0801C14.2652 12.0801 14.5196 12.1854 14.7071 12.373C14.8946 12.5605 15 12.8149 15 13.0801V16.0801C15 16.3453 15.1054 16.5996 15.2929 16.7872C15.4804 16.9747 15.7348 17.0801 16 17.0801C16.2652 17.0801 16.5196 16.9747 16.7071 16.7872C16.8946 16.5996 17 16.3453 17 16.0801V13.0801C17 12.2844 16.6839 11.5214 16.1213 10.9588C15.5587 10.3961 14.7956 10.0801 14 10.0801ZM8 7.08008C7.75507 7.08011 7.51866 7.17003 7.33563 7.33279C7.15259 7.49555 7.03566 7.71983 7.007 7.96308L7 8.09008C7.00028 8.34496 7.09788 8.59011 7.27285 8.77545C7.44782 8.96078 7.68695 9.07231 7.94139 9.08725C8.19584 9.10219 8.44638 9.0194 8.64183 8.85581C8.83729 8.69222 8.9629 8.46017 8.993 8.20708L9 8.08008C9 7.81486 8.89464 7.56051 8.70711 7.37297C8.51957 7.18544 8.26522 7.08008 8 7.08008Z" fill="white"/>
</g>
<defs>
<clipPath id="clip0_454_19">
<rect width="24" height="24" fill="white" transform="translate(0 0.0400391)"/>
</clipPath>
</defs>
</svg>
