<svg width="30" height="31" viewBox="0 0 30 31" fill="none" xmlns="http://www.w3.org/2000/svg">
<path d="M27.1641 3.81584C26.5487 3.20061 25.7142 2.85498 24.8441 2.85498C23.9739 2.85498 23.1394 3.20061 22.5241 3.81584L21.0778 5.26209L25.7178 9.90209L27.1641 8.45584C27.7793 7.8405 28.1249 7.00599 28.1249 6.13584C28.1249 5.2657 27.7793 4.43118 27.1641 3.81584ZM24.3916 11.2283L19.7516 6.58834L9.25157 17.0883C8.48013 17.8594 7.91304 18.8106 7.60157 19.8558L6.60157 23.2121C6.55329 23.3741 6.54969 23.5461 6.59115 23.7099C6.63261 23.8737 6.71758 24.0233 6.83709 24.1428C6.95659 24.2623 7.10618 24.3473 7.27002 24.3888C7.43386 24.4302 7.60586 24.4266 7.76782 24.3783L11.1241 23.3783C12.1694 23.0669 13.1205 22.4998 13.8916 21.7283L24.3916 11.2283Z" fill="#151515"/>
<path d="M6.5625 7.54199C5.56794 7.54199 4.61411 7.93708 3.91085 8.64034C3.20759 9.3436 2.8125 10.2974 2.8125 11.292V24.417C2.8125 25.4116 3.20759 26.3654 3.91085 27.0686C4.61411 27.7719 5.56794 28.167 6.5625 28.167H19.6875C20.6821 28.167 21.6359 27.7719 22.3392 27.0686C23.0424 26.3654 23.4375 25.4116 23.4375 24.417V17.8545C23.4375 17.6059 23.3387 17.3674 23.1629 17.1916C22.9871 17.0158 22.7486 16.917 22.5 16.917C22.2514 16.917 22.0129 17.0158 21.8371 17.1916C21.6613 17.3674 21.5625 17.6059 21.5625 17.8545V24.417C21.5625 24.9143 21.365 25.3912 21.0133 25.7428C20.6617 26.0944 20.1848 26.292 19.6875 26.292H6.5625C6.06522 26.292 5.58831 26.0944 5.23667 25.7428C4.88504 25.3912 4.6875 24.9143 4.6875 24.417V11.292C4.6875 10.7947 4.88504 10.3178 5.23667 9.96617C5.58831 9.61454 6.06522 9.41699 6.5625 9.41699H13.125C13.3736 9.41699 13.6121 9.31822 13.7879 9.1424C13.9637 8.96659 14.0625 8.72813 14.0625 8.47949C14.0625 8.23085 13.9637 7.99239 13.7879 7.81658C13.6121 7.64076 13.3736 7.54199 13.125 7.54199H6.5625Z" fill="#151515"/>
</svg>
