<svg width="30" height="31" viewBox="0 0 30 31" fill="none" xmlns="http://www.w3.org/2000/svg">
<path d="M20.625 10.3545H9.375V21.6045H20.625V10.3545Z" fill="#151515"/>
<path fill-rule="evenodd" clip-rule="evenodd" d="M10.3125 3.79199C10.5611 3.79199 10.7996 3.89076 10.9754 4.06658C11.1512 4.24239 11.25 4.48085 11.25 4.72949V5.66699H14.0625V4.72949C14.0625 4.48085 14.1613 4.24239 14.3371 4.06658C14.5129 3.89076 14.7514 3.79199 15 3.79199C15.2486 3.79199 15.4871 3.89076 15.6629 4.06658C15.8387 4.24239 15.9375 4.48085 15.9375 4.72949V5.66699H18.75V4.72949C18.75 4.48085 18.8488 4.24239 19.0246 4.06658C19.2004 3.89076 19.4389 3.79199 19.6875 3.79199C19.9361 3.79199 20.1746 3.89076 20.3504 4.06658C20.5262 4.24239 20.625 4.48085 20.625 4.72949V5.66699H21.5625C22.5571 5.66699 23.5109 6.06208 24.2142 6.76534C24.9174 7.4686 25.3125 8.42243 25.3125 9.41699V10.3545H26.25C26.4986 10.3545 26.7371 10.4533 26.9129 10.6291C27.0887 10.8049 27.1875 11.0434 27.1875 11.292C27.1875 11.5406 27.0887 11.7791 26.9129 11.9549C26.7371 12.1307 26.4986 12.2295 26.25 12.2295H25.3125V15.042H26.25C26.4986 15.042 26.7371 15.1408 26.9129 15.3166C27.0887 15.4924 27.1875 15.7309 27.1875 15.9795C27.1875 16.2281 27.0887 16.4666 26.9129 16.6424C26.7371 16.8182 26.4986 16.917 26.25 16.917H25.3125V19.7295H26.25C26.4986 19.7295 26.7371 19.8283 26.9129 20.0041C27.0887 20.1799 27.1875 20.4184 27.1875 20.667C27.1875 20.9156 27.0887 21.1541 26.9129 21.3299C26.7371 21.5057 26.4986 21.6045 26.25 21.6045H25.3125V22.542C25.3125 23.5366 24.9174 24.4904 24.2142 25.1936C23.5109 25.8969 22.5571 26.292 21.5625 26.292H20.625V27.2295C20.625 27.4781 20.5262 27.7166 20.3504 27.8924C20.1746 28.0682 19.9361 28.167 19.6875 28.167C19.4389 28.167 19.2004 28.0682 19.0246 27.8924C18.8488 27.7166 18.75 27.4781 18.75 27.2295V26.292H15.9375V27.2295C15.9375 27.4781 15.8387 27.7166 15.6629 27.8924C15.4871 28.0682 15.2486 28.167 15 28.167C14.7514 28.167 14.5129 28.0682 14.3371 27.8924C14.1613 27.7166 14.0625 27.4781 14.0625 27.2295V26.292H11.25V27.2295C11.25 27.4781 11.1512 27.7166 10.9754 27.8924C10.7996 28.0682 10.5611 28.167 10.3125 28.167C10.0639 28.167 9.8254 28.0682 9.64959 27.8924C9.47377 27.7166 9.375 27.4781 9.375 27.2295V26.292H8.4375C7.44294 26.292 6.48911 25.8969 5.78585 25.1936C5.08259 24.4904 4.6875 23.5366 4.6875 22.542V21.6045H3.75C3.50136 21.6045 3.2629 21.5057 3.08709 21.3299C2.91127 21.1541 2.8125 20.9156 2.8125 20.667C2.8125 20.4184 2.91127 20.1799 3.08709 20.0041C3.2629 19.8283 3.50136 19.7295 3.75 19.7295H4.6875V16.917H3.75C3.50136 16.917 3.2629 16.8182 3.08709 16.6424C2.91127 16.4666 2.8125 16.2281 2.8125 15.9795C2.8125 15.7309 2.91127 15.4924 3.08709 15.3166C3.2629 15.1408 3.50136 15.042 3.75 15.042H4.6875V12.2295H3.75C3.50136 12.2295 3.2629 12.1307 3.08709 11.9549C2.91127 11.7791 2.8125 11.5406 2.8125 11.292C2.8125 11.0434 2.91127 10.8049 3.08709 10.6291C3.2629 10.4533 3.50136 10.3545 3.75 10.3545H4.6875V9.41699C4.6875 8.42243 5.08259 7.4686 5.78585 6.76534C6.48911 6.06208 7.44294 5.66699 8.4375 5.66699H9.375V4.72949C9.375 4.48085 9.47377 4.24239 9.64959 4.06658C9.8254 3.89076 10.0639 3.79199 10.3125 3.79199ZM7.5 9.41699C7.5 9.16835 7.59877 8.92989 7.77459 8.75408C7.9504 8.57826 8.18886 8.47949 8.4375 8.47949H21.5625C21.8111 8.47949 22.0496 8.57826 22.2254 8.75408C22.4012 8.92989 22.5 9.16835 22.5 9.41699V22.542C22.5 22.7906 22.4012 23.0291 22.2254 23.2049C22.0496 23.3807 21.8111 23.4795 21.5625 23.4795H8.4375C8.18886 23.4795 7.9504 23.3807 7.77459 23.2049C7.59877 23.0291 7.5 22.7906 7.5 22.542V9.41699Z" fill="#151515"/>
</svg>
