<svg width="80" height="80" viewBox="0 0 80 80" fill="none" xmlns="http://www.w3.org/2000/svg">
<path d="M32.9938 23.5112C35.1888 25.7062 36.67 28.4762 37.28 31.5212C37.5375 32.8125 38.6825 33.75 40 33.75C41.3175 33.75 42.4625 32.8125 42.7212 31.5187L43.48 27.7213C43.5313 27.465 43.9687 27.4663 44.02 27.72L44.7788 31.52C45.0375 32.8125 46.1825 33.75 47.5 33.75C48.8175 33.75 49.9625 32.8125 50.2212 31.52C50.83 28.475 52.3125 25.7063 54.5075 23.51L55.0625 22.955C56.635 21.3838 57.5 19.2937 57.5 17.07C57.5 12.4825 53.7675 8.75 49.1787 8.75H48.2325L47.1338 9.84875C46.2425 10.7388 45.01 11.25 43.75 11.25C42.49 11.25 41.2575 10.7388 40.3662 9.84875L39.2675 8.75H38.3212C33.7325 8.75 30 12.4825 30 17.0712C30 19.295 30.865 21.385 32.4375 22.955L32.9938 23.5112ZM38.2325 11.25L38.5987 11.615C39.955 12.9725 41.8325 13.75 43.75 13.75C45.6675 13.75 47.545 12.9725 48.9012 11.6163L49.2675 11.25C52.4363 11.2987 55 13.8912 55 17.0712C55 18.6275 54.395 20.0888 53.295 21.1875L52.74 21.7425C50.195 24.2887 48.4762 27.4988 47.77 31.0275C47.7188 31.2838 47.2812 31.2825 47.23 31.0287L46.4712 27.2288C46.2125 25.9375 45.0675 25 43.75 25C42.4325 25 41.2875 25.9375 41.0288 27.2313L40.27 31.0287C40.2187 31.285 39.7813 31.285 39.73 31.0287C39.025 27.5 37.3063 24.2888 34.76 21.7438L34.205 21.1862C33.105 20.0875 32.5 18.6262 32.5 17.0712C32.5 13.8912 35.0638 11.2987 38.2325 11.25Z" fill="#EEF8FF"/>
<path d="M76.2838 48.19C75.5163 47.7387 74.64 47.5 73.7513 47.5C71.9887 47.5 70.3375 48.4437 69.44 49.965L67.1813 53.805C66.5737 51.3925 65.125 49.315 63.04 47.9263C62.7475 47.7313 62.4375 47.5725 62.1287 47.4113C64.5987 45.8638 66.25 43.125 66.25 40C66.25 35.565 62.93 31.8987 58.6462 31.3337C61.1362 28.0887 62.5 24.165 62.5 20C62.5 9.66125 54.0887 1.25 43.75 1.25C33.4113 1.25 25 9.66125 25 20C25 20.9662 25.0825 21.9313 25.2325 22.8888C24.3625 22.6413 23.4487 22.5 22.5 22.5C16.9862 22.5 12.5 26.9862 12.5 32.5C12.5 36.0412 14.355 39.15 17.1388 40.9275C10.8088 43.15 6.25 49.17 6.25 56.25V66.25C6.25 67.165 6.515 68.0113 6.945 68.75H6.25C3.4925 68.75 1.25 70.9925 1.25 73.75C1.25 76.5075 3.4925 78.75 6.25 78.75H54.8162C60.55 78.75 65.9162 75.68 68.8237 70.7387L78.0625 55.0312C79.4563 52.6538 78.6588 49.5837 76.2838 48.19ZM64.8512 54.78C65.0363 55.7013 65.0487 56.6325 64.8812 57.5975L64.8613 57.7488L60.2025 65.6687C59.0863 67.57 57.02 68.75 54.8162 68.75H43.75C42.7163 68.75 41.875 67.9088 41.875 66.875C41.875 65.8412 42.7163 65 43.75 65H53.2312C54.7587 65 56.195 64.1862 56.9825 62.8762L59.8212 58.1437L57.6775 56.8575L54.8387 61.59C54.5025 62.1512 53.885 62.5 53.2312 62.5H44.3175L51.2575 52.0888C52.6463 49.9988 54.9788 48.75 57.4963 48.75C58.98 48.75 60.4175 49.185 61.6538 50.0088C63.3213 51.1188 64.4575 52.8125 64.8512 54.78ZM32.2325 34.7638C35.5137 37.3375 39.515 38.75 43.75 38.75C45.5425 38.75 47.295 38.4663 49 37.9625C48.8425 38.6175 48.75 39.2975 48.75 40C48.75 43.1138 50.39 45.8462 52.8475 47.3975C51.3887 48.1637 50.1187 49.2863 49.1763 50.7038L42.1462 61.25H41.6288L38.75 59.3312V56.25C38.75 49.17 34.1912 43.15 27.8612 40.9275C30.0325 39.5413 31.6312 37.345 32.2325 34.7638ZM37.1213 61.25H16.2487L20.105 58.3587C21.9187 56.9987 24.165 56.25 26.4313 56.25C28.5188 56.25 30.54 56.8625 32.2775 58.02L37.1213 61.25ZM63.75 40C63.75 43.4463 60.9463 46.25 57.5 46.25C54.0537 46.25 51.25 43.4463 51.25 40C51.25 36.5537 54.0537 33.75 57.5 33.75C60.9463 33.75 63.75 36.5537 63.75 40ZM27.5 20C27.5 11.04 34.79 3.75 43.75 3.75C52.71 3.75 60 11.04 60 20C60 24.4037 58.2537 28.505 55.0962 31.5938C53.25 32.1225 51.6562 33.2438 50.5263 34.7375C48.3713 35.7337 46.095 36.25 43.75 36.25C39.495 36.25 35.5088 34.6112 32.4575 31.6512C32.195 28.55 30.5175 25.8463 28.0675 24.1975C27.6975 22.82 27.5 21.4112 27.5 20ZM15 32.5C15 28.3638 18.3638 25 22.5 25C26.6362 25 30 28.3638 30 32.5C30 36.6362 26.6362 40 22.5 40C18.3638 40 15 36.6362 15 32.5ZM22.5 42.5C30.0812 42.5 36.25 48.6688 36.25 56.25V57.665L33.6637 55.94C31.515 54.5075 29.0138 53.75 26.4313 53.75C23.6287 53.75 20.8488 54.6762 18.6063 56.3575L12.0837 61.25H11.25C10.335 61.25 9.48875 61.515 8.75 61.945V56.25C8.75 48.6688 14.9187 42.5 22.5 42.5ZM8.75 66.25C8.75 64.8713 9.87125 63.75 11.25 63.75H40.6975C39.8837 64.545 39.375 65.65 39.375 66.875C39.375 67.5488 39.5412 68.18 39.8138 68.75H11.2437C9.86875 68.7462 8.75 67.6263 8.75 66.25ZM75.9062 53.765L66.6675 69.4713C64.2075 73.6525 59.6663 76.25 54.8162 76.25H6.25C4.87125 76.25 3.75 75.1288 3.75 73.75C3.75 72.3712 4.87125 71.25 6.25 71.25H11.2437H11.25H38.75H43.75H54.8162H54.9412V71.2412C57.9812 71.1975 60.815 69.56 62.36 66.9362L71.5963 51.2337C72.2688 50.0887 73.8675 49.6712 75.02 50.3463C76.205 51.0425 76.6025 52.5775 75.9062 53.765Z" fill="#EEF8FF"/>
</svg>
