<svg width="790" height="477" viewBox="0 0 790 477" fill="none" xmlns="http://www.w3.org/2000/svg">
<path d="M536.426 0.864685H789.05V176.969C789.05 376.884 690.465 476.842 493.295 476.842C296.126 476.842 197.541 376.884 197.541 176.969V0.83252H450.165V174.915C450.165 191.346 454.272 203.67 462.488 211.885C472.072 220.101 482.342 224.209 493.295 224.209C500.142 224.209 506.303 222.84 511.78 220.101C518.626 215.993 524.103 210.516 528.211 203.67C533.688 195.454 536.426 185.869 536.426 174.915V0.864685Z" fill="white"/>
<path d="M116.558 176.969V0.83252H0V435.295C77.7056 388.58 116.558 302.471 116.558 176.969Z" fill="white"/>
</svg>
