<svg width="93" height="32" viewBox="0 0 93 32" fill="none" xmlns="http://www.w3.org/2000/svg">
<path d="M7.88978 24.4784V7.52157C7.88978 7.13945 7.7782 6.85285 7.55506 6.66179C7.36379 6.47072 7.14065 6.37519 6.88562 6.37519C6.72623 6.37519 6.56684 6.42296 6.40745 6.51849C6.27994 6.58218 6.15243 6.70955 6.02492 6.90062C5.92929 7.05984 5.88147 7.26682 5.88147 7.52157V24.4784C5.88147 24.8606 5.9771 25.1471 6.16837 25.3382C6.39152 25.5293 6.6306 25.6248 6.88562 25.6248C7.04501 25.6248 7.18846 25.593 7.31598 25.5293C7.47537 25.4337 7.60288 25.3064 7.69851 25.1471C7.82602 24.9561 7.88978 24.7332 7.88978 24.4784ZM0 7.47381C0 2.8246 2.29521 0.5 6.88562 0.5C11.476 0.5 13.7712 2.8246 13.7712 7.47381V24.5262C13.7712 29.1754 11.476 31.5 6.88562 31.5C2.29521 31.5 0 29.1754 0 24.5262V7.47381Z" fill="white"/>
<path d="M23.5464 0.97766H29.4279V24.5262C29.4279 29.1754 27.1327 31.5 22.5423 31.5C17.9519 31.5 15.6567 29.1754 15.6567 24.5262V0.97766H21.5381V24.4784C21.5381 24.8606 21.6338 25.1471 21.825 25.3382C22.0482 25.5293 22.2873 25.6248 22.5423 25.6248C22.7017 25.6248 22.8451 25.593 22.9726 25.5293C23.132 25.4337 23.2595 25.3064 23.3552 25.1471C23.4827 24.9561 23.5464 24.7332 23.5464 24.4784V0.97766Z" fill="white"/>
<path d="M43.3108 15.6895V16.4538L45.367 31.0223H39.3899L38.2901 18.7465H37.3816V31.0223H31.5001V0.97766H37.3816V13.2535H38.2901L39.3899 0.97766H45.367L43.3108 15.6895Z" fill="white"/>
<path d="M52.7558 25.5293H56.9637V31.0223H46.8743V0.97766H52.7558V25.5293Z" fill="white"/>
<path d="M63.834 31.0223H57.9525V0.97766H63.834V31.0223Z" fill="white"/>
<path d="M74.8905 0.97766H80.772V31.0223H73.8863L71.2086 11.7727H70.6348L71.8302 31.0223H65.9487V0.97766H72.6909L75.5599 20.2273H76.1337L74.8905 0.97766Z" fill="white"/>
<path d="M93 6.47073H88.7921V13.2535H93V18.7465H88.7921V25.5293H93V31.0223H82.9106V0.97766H93V6.47073Z" fill="white"/>
</svg>
