<svg width="84" height="29" viewBox="0 0 84 29" fill="none" xmlns="http://www.w3.org/2000/svg">
<path d="M7.10421 22.1424V6.85753C7.10421 6.51308 7.00375 6.25475 6.80282 6.08252C6.6306 5.9103 6.42967 5.82419 6.20004 5.82419C6.05652 5.82419 5.913 5.86725 5.76948 5.95336C5.65467 6.01076 5.53985 6.12558 5.42504 6.2978C5.33892 6.44132 5.29587 6.6279 5.29587 6.85753V22.1424C5.29587 22.4868 5.38198 22.7451 5.5542 22.9174C5.75513 23.0896 5.97041 23.1757 6.20004 23.1757C6.34356 23.1757 6.47273 23.147 6.58754 23.0896C6.73106 23.0035 6.84588 22.8887 6.93199 22.7451C7.0468 22.5729 7.10421 22.372 7.10421 22.1424ZM0 6.81447C0 2.6237 2.06668 0.52832 6.20004 0.52832C10.3334 0.52832 12.4001 2.6237 12.4001 6.81447V22.1854C12.4001 26.3762 10.3334 28.4716 6.20004 28.4716C2.06668 28.4716 0 26.3762 0 22.1854V6.81447Z" fill="#151515"/>
<path d="M21.202 0.958881H26.4978V22.1854C26.4978 26.3762 24.4312 28.4716 20.2978 28.4716C16.1644 28.4716 14.0978 26.3762 14.0978 22.1854V0.958881H19.3936V22.1424C19.3936 22.4868 19.4797 22.7451 19.652 22.9174C19.8529 23.0896 20.0682 23.1757 20.2978 23.1757C20.4413 23.1757 20.5705 23.147 20.6853 23.0896C20.8288 23.0035 20.9436 22.8887 21.0297 22.7451C21.1446 22.5729 21.202 22.372 21.202 22.1424V0.958881Z" fill="#151515"/>
<path d="M38.9985 14.2201V14.909L40.8499 28.041H35.4679L34.4776 16.9757H33.6596V28.041H28.3637V0.958881H33.6596V12.0242H34.4776L35.4679 0.958881H40.8499L38.9985 14.2201Z" fill="#151515"/>
<path d="M47.503 23.0896H51.2919V28.041H42.2072V0.958881H47.503V23.0896Z" fill="#151515"/>
<path d="M57.4782 28.041H52.1823V0.958881H57.4782V28.041Z" fill="#151515"/>
<path d="M67.4339 0.958881H72.7297V28.041H66.5297L64.1185 10.6895H63.6019L64.6783 28.041H59.3824V0.958881H65.4533L68.0366 18.3104H68.5533L67.4339 0.958881Z" fill="#151515"/>
<path d="M83.7402 5.9103H79.9513V12.0242H83.7402V16.9757H79.9513V23.0896H83.7402V28.041H74.6554V0.958881H83.7402V5.9103Z" fill="#151515"/>
</svg>
