<svg width="48" height="50" viewBox="0 0 48 50" fill="none" xmlns="http://www.w3.org/2000/svg">
<rect width="48" height="50" rx="8" fill="#132B58"/>
<path fill-rule="evenodd" clip-rule="evenodd" d="M18.25 16.5001C15.5 16.5001 15.5 16.7081 15.5 19.2501V19.2751C15.5 20.3821 15.5 21.1821 15.771 21.5201C16.036 21.8481 16.823 22.0001 18.25 22.0001C19.677 22.0001 20.464 21.8471 20.729 21.5191C21 21.1821 21 20.3821 21 19.2741C21 16.7081 21 16.5001 18.25 16.5001ZM18.25 23.5001C16.564 23.5001 15.299 23.3231 14.604 22.4601C14 21.7111 14 20.6891 14 19.2751L14.75 19.2501H14C14 16.3801 14.181 15.0001 18.25 15.0001C22.319 15.0001 22.5 16.3801 22.5 19.2501C22.5 20.6881 22.5 21.7111 21.896 22.4601C21.201 23.3231 19.936 23.5001 18.25 23.5001Z" fill="white"/>
<path fill-rule="evenodd" clip-rule="evenodd" d="M29.25 16.5001C26.5 16.5001 26.5 16.7081 26.5 19.2501V19.2751C26.5 20.3821 26.5 21.1821 26.771 21.5201C27.036 21.8481 27.823 22.0001 29.25 22.0001C30.677 22.0001 31.464 21.8471 31.729 21.5191C32 21.1821 32 20.3821 32 19.2741C32 16.7081 32 16.5001 29.25 16.5001ZM29.25 23.5001C27.564 23.5001 26.299 23.3231 25.604 22.4601C25 21.7111 25 20.6891 25 19.2751L25.75 19.2501H25C25 16.3801 25.181 15.0001 29.25 15.0001C33.319 15.0001 33.5 16.3801 33.5 19.2501C33.5 20.6881 33.5 21.7111 32.896 22.4601C32.201 23.3231 30.936 23.5001 29.25 23.5001Z" fill="white"/>
<path fill-rule="evenodd" clip-rule="evenodd" d="M18.25 27.5001C15.5 27.5001 15.5 27.7081 15.5 30.2501V30.2751C15.5 31.3821 15.5 32.1821 15.771 32.5201C16.036 32.8481 16.823 33.0001 18.25 33.0001C19.677 33.0001 20.464 32.8471 20.729 32.5191C21 32.1821 21 31.3821 21 30.2741C21 27.7081 21 27.5001 18.25 27.5001ZM18.25 34.5001C16.564 34.5001 15.299 34.3231 14.604 33.4601C14 32.7111 14 31.6891 14 30.2751L14.75 30.2501H14C14 27.3801 14.181 26.0001 18.25 26.0001C22.319 26.0001 22.5 27.3801 22.5 30.2501C22.5 31.6881 22.5 32.7111 21.896 33.4601C21.201 34.3231 19.936 34.5001 18.25 34.5001Z" fill="white"/>
<path fill-rule="evenodd" clip-rule="evenodd" d="M29.25 27.5001C26.5 27.5001 26.5 27.7081 26.5 30.2501V30.2751C26.5 31.3821 26.5 32.1821 26.771 32.5201C27.036 32.8481 27.823 33.0001 29.25 33.0001C30.677 33.0001 31.464 32.8471 31.729 32.5191C32 32.1821 32 31.3821 32 30.2741C32 27.7081 32 27.5001 29.25 27.5001ZM29.25 34.5001C27.564 34.5001 26.299 34.3231 25.604 33.4601C25 32.7111 25 31.6891 25 30.2751L25.75 30.2501H25C25 27.3801 25.181 26.0001 29.25 26.0001C33.319 26.0001 33.5 27.3801 33.5 30.2501C33.5 31.6881 33.5 32.7111 32.896 33.4601C32.201 34.3231 30.936 34.5001 29.25 34.5001Z" fill="white"/>
</svg>
