<svg width="30" height="31" viewBox="0 0 30 31" fill="none" xmlns="http://www.w3.org/2000/svg">
<path fill-rule="evenodd" clip-rule="evenodd" d="M2.8125 6.13574C2.8125 4.84074 3.8625 3.79199 5.15625 3.79199H11.7188C13.0138 3.79199 14.0625 4.84199 14.0625 6.13574V22.542C14.0625 24.0338 13.4699 25.4646 12.415 26.5195C11.3601 27.5744 9.92934 28.167 8.4375 28.167C6.94566 28.167 5.51492 27.5744 4.46002 26.5195C3.40513 25.4646 2.8125 24.0338 2.8125 22.542V6.13574ZM8.4375 23.9482C8.81046 23.9482 9.16815 23.8001 9.43187 23.5364C9.69559 23.2726 9.84375 22.915 9.84375 22.542C9.84375 22.169 9.69559 21.8113 9.43187 21.5476C9.16815 21.2839 8.81046 21.1357 8.4375 21.1357C8.06454 21.1357 7.70685 21.2839 7.44313 21.5476C7.17941 21.8113 7.03125 22.169 7.03125 22.542C7.03125 22.915 7.17941 23.2726 7.44313 23.5364C7.70685 23.8001 8.06454 23.9482 8.4375 23.9482Z" fill="#151515"/>
<path d="M14.375 27.2443H25.82C27.115 27.2443 28.1637 26.1943 28.1637 24.9006V18.3381C28.1637 17.0431 27.1138 15.9943 25.82 15.9943H25.645L14.7175 26.9231C14.605 27.0343 14.4925 27.1418 14.375 27.2443ZM16.8988 22.0881L24.9913 13.9956C25.4305 13.556 25.6773 12.9601 25.6773 12.3387C25.6773 11.7173 25.4305 11.1213 24.9913 10.6818L20.3513 6.04055C19.9117 5.60126 19.3158 5.35449 18.6944 5.35449C18.073 5.35449 17.477 5.60126 17.0375 6.04055L16.9125 6.1643V21.6193C16.9125 21.7768 16.9088 21.9331 16.9 22.0881H16.8988Z" fill="#151515"/>
</svg>
