<svg width="97" height="21" viewBox="0 0 97 21" fill="none" xmlns="http://www.w3.org/2000/svg">
<path d="M0.568237 19.9855L7.20682 0.666138H13.3527L20.0302 19.9855H14.8179L13.6768 16.2642H6.81784L5.63794 19.9855H0.568237ZM7.98478 12.6208H12.5488L12.1987 11.4927C11.8789 10.4122 11.5591 9.33174 11.2392 8.25124C10.9281 7.17074 10.6126 6.03838 10.2927 4.85415C9.96426 6.03838 9.64011 7.17074 9.32028 8.25124C9.00045 9.33174 8.67198 10.4122 8.33486 11.4927L7.98478 12.6208Z" fill="#575C64"/>
<path d="M25.4221 20.2837C23.9353 20.2837 22.777 19.8083 21.9472 18.8574C21.126 17.9066 20.7154 16.5884 20.7154 14.9028V6.29338H25.1757V13.9692C25.1757 14.7818 25.3702 15.4041 25.7592 15.8363C26.1482 16.2599 26.697 16.4717 27.4059 16.4717C28.106 16.4717 28.6679 16.2513 29.0914 15.8104C29.515 15.3609 29.7268 14.6694 29.7268 13.7359V6.29338H34.1871V19.9855H29.7786V17.7683C29.3205 18.5462 28.737 19.16 28.0282 19.6094C27.3194 20.0589 26.4507 20.2837 25.4221 20.2837Z" fill="#575C64"/>
<path d="M44.6746 6.29338V9.74233H41.861V15.3825C41.861 15.8234 41.9474 16.1259 42.1203 16.2901C42.2932 16.4544 42.6303 16.5365 43.1316 16.5365H44.6746V19.9855H42.1462C40.5039 19.9855 39.298 19.6786 38.5287 19.0649C37.768 18.4425 37.3877 17.4657 37.3877 16.1346V9.74233H35.0538V6.29338H37.3877V2.55917H41.861V6.29338H44.6746Z" fill="#575C64"/>
<path d="M52.3225 20.2966C50.8876 20.2966 49.6299 20.0027 48.5494 19.415C47.4689 18.8272 46.6262 17.9973 46.0211 16.9255C45.416 15.8536 45.1135 14.5916 45.1135 13.1394C45.1135 11.7045 45.416 10.4511 46.0211 9.37928C46.6262 8.29878 47.4689 7.46464 48.5494 6.87684C49.6299 6.28041 50.8876 5.98219 52.3225 5.98219C53.7488 5.98219 55.0022 6.28041 56.0827 6.87684C57.1718 7.46464 58.0146 8.29878 58.611 9.37928C59.2161 10.4511 59.5187 11.7045 59.5187 13.1394C59.5187 14.5916 59.2161 15.8536 58.611 16.9255C58.0146 17.9887 57.1718 18.8185 56.0827 19.415C55.0022 20.0027 53.7488 20.2966 52.3225 20.2966ZM52.3225 16.744C53.1005 16.744 53.7402 16.4328 54.2415 15.8104C54.7515 15.188 55.0065 14.2977 55.0065 13.1394C55.0065 11.9811 54.7515 11.0908 54.2415 10.4684C53.7402 9.84606 53.1005 9.53487 52.3225 9.53487C51.5446 9.53487 50.9006 9.84606 50.3906 10.4684C49.8893 11.0908 49.6386 11.9811 49.6386 13.1394C49.6386 14.2977 49.8893 15.188 50.3906 15.8104C50.892 16.4328 51.5359 16.744 52.3225 16.744Z" fill="#575C64"/>
<path d="M60.8133 19.9855V0.666138H65.481V9.28852C65.9219 8.7353 66.3671 8.18209 66.8165 7.62887C67.266 7.06701 67.7155 6.50947 68.165 5.95626L72.4827 0.666138H77.9673L70.9786 8.9903L78.2396 19.9855H72.8976L67.9316 12.141L65.481 15.0713V19.9855H60.8133Z" fill="#575C64"/>
<path d="M78.9248 19.9855V0.666138H83.5926V9.28852C84.0334 8.7353 84.4786 8.18209 84.9281 7.62887C85.3775 7.06701 85.827 6.50947 86.2765 5.95626L90.5942 0.666138H96.0788L89.0901 8.9903L96.3511 19.9855H91.0091L86.0431 12.141L83.5926 15.0713V19.9855H78.9248Z" fill="#575C64"/>
</svg>
