<svg width="72" height="24" viewBox="0 0 72 24" fill="none" xmlns="http://www.w3.org/2000/svg">
<path d="M6.77087 18.4505V5.61236C6.77087 5.32305 6.68649 5.10606 6.51773 4.96141C6.37307 4.81675 6.20431 4.74442 6.01143 4.74442C5.89089 4.74442 5.77034 4.78059 5.64979 4.85292C5.55336 4.90113 5.45692 4.99757 5.36048 5.14223C5.28816 5.26277 5.25199 5.41948 5.25199 5.61236V18.4505C5.25199 18.7399 5.32432 18.9568 5.46897 19.1015C5.63774 19.2461 5.81856 19.3185 6.01143 19.3185C6.13198 19.3185 6.24047 19.2944 6.33691 19.2461C6.45745 19.1738 6.55389 19.0774 6.62622 18.9568C6.72266 18.8122 6.77087 18.6434 6.77087 18.4505ZM0.803833 5.57619C0.803833 2.05624 2.5397 0.296265 6.01143 0.296265C9.48317 0.296265 11.219 2.05624 11.219 5.57619V18.4867C11.219 22.0067 9.48317 23.7666 6.01143 23.7666C2.5397 23.7666 0.803833 22.0067 0.803833 18.4867V5.57619Z" fill="#5F646E"/>
<path d="M18.612 0.657905H23.0602V18.4867C23.0602 22.0067 21.3243 23.7666 17.8526 23.7666C14.3808 23.7666 12.645 22.0067 12.645 18.4867V0.657905H17.0931V18.4505C17.0931 18.7399 17.1655 18.9568 17.3101 19.1015C17.4789 19.2461 17.6597 19.3185 17.8526 19.3185C17.9731 19.3185 18.0816 19.2944 18.178 19.2461C18.2986 19.1738 18.395 19.0774 18.4674 18.9568C18.5638 18.8122 18.612 18.6434 18.612 18.4505V0.657905Z" fill="#5F646E"/>
<path d="M33.5598 11.7964V12.375L35.1149 23.405H30.5944L29.7626 14.1109H29.0755V23.405H24.6274V0.657905H29.0755V9.95203H29.7626L30.5944 0.657905H35.1149L33.5598 11.7964Z" fill="#5F646E"/>
<path d="M40.7031 19.2461H43.8855V23.405H36.2549V0.657905H40.7031V19.2461Z" fill="#5F646E"/>
<path d="M49.0815 23.405H44.6333V0.657905H49.0815V23.405Z" fill="#5F646E"/>
<path d="M57.4435 0.657905H61.8917V23.405H56.6841L54.6589 8.83094H54.225L55.1291 23.405H50.6809V0.657905H55.78L57.9498 15.232H58.3838L57.4435 0.657905Z" fill="#5F646E"/>
<path d="M71.1398 4.81675H67.9573V9.95203H71.1398V14.1109H67.9573V19.2461H71.1398V23.405H63.5092V0.657905H71.1398V4.81675Z" fill="#5F646E"/>
</svg>
