<svg width="135" height="22" viewBox="0 0 135 22" fill="none" xmlns="http://www.w3.org/2000/svg">
<path d="M13.6992 0.809082H14.7666C16.5495 1.15641 18.0076 1.92177 19.141 3.10517C19.6378 3.62368 19.5887 4.09008 18.9935 4.5044C18.4242 4.90135 17.8265 5.24743 17.2003 5.54266C15.5623 6.31423 14.0175 7.47653 12.5659 9.0296C12.5186 9.08039 12.4582 9.11846 12.3908 9.14001C12.3234 9.16153 12.2513 9.16581 12.1816 9.1524C11.2113 8.97377 10.532 9.0854 10.1439 9.48731C10.1056 9.52748 10.0573 9.55769 10.0036 9.57527C9.94986 9.59285 9.89226 9.59724 9.83601 9.588C9.77979 9.57876 9.72667 9.55622 9.68148 9.5224C9.63628 9.48857 9.60045 9.44455 9.57718 9.39428C9.11918 8.40688 8.94451 7.37234 9.05319 6.29065C9.34042 3.43762 10.8891 1.61042 13.6992 0.809082Z" fill="#5F646E"/>
<path d="M2.60919 6.82656C2.56417 6.79698 2.53213 6.75252 2.51926 6.7017C2.50636 6.65086 2.51351 6.59727 2.53933 6.55117C4.12553 3.67332 6.55271 1.97885 9.82085 1.46779C9.95282 1.44546 9.99294 1.49259 9.94118 1.6092C9.61256 2.34355 9.20759 2.79011 8.7263 2.94889C6.48543 3.68572 4.82417 5.05023 3.74255 7.04239C3.71526 7.09213 3.67354 7.13258 3.62337 7.15796C3.57321 7.18335 3.51713 7.19239 3.46309 7.18381C3.17846 7.13915 2.89382 7.02007 2.60919 6.82656Z" fill="#5F646E"/>
<path d="M19.7871 11.8173C19.9424 10.0286 19.5297 8.26469 18.5489 6.52557C18.5065 6.44967 18.4925 6.36218 18.5095 6.27801C18.5265 6.19387 18.5734 6.11827 18.6421 6.06412C19.1933 5.63245 19.5917 5.63988 19.8376 6.08644C21.2219 8.61449 21.4393 11.3336 20.4897 14.2437C20.4508 14.3652 20.3926 14.3739 20.315 14.2697C19.8104 13.58 19.6112 12.9114 19.7173 12.2639C19.7612 11.9861 19.7845 11.8372 19.7871 11.8173Z" fill="#5F646E"/>
<path d="M6.61846 9.0186C5.78008 8.70105 5.59375 8.25076 6.05954 7.66775C6.50978 7.10458 7.02083 6.59227 7.59269 6.13083C7.82299 5.94477 7.94332 5.99563 7.95367 6.28341C7.98989 7.29066 7.62634 8.18504 6.86299 8.96651C6.8322 8.99818 6.79228 9.02015 6.74857 9.02948C6.70485 9.03878 6.65944 9.03499 6.61846 9.0186Z" fill="#5F646E"/>
<path d="M16.1072 9.66879C15.7398 9.21973 15.4707 8.72108 15.2999 8.1728C15.283 8.1159 15.2842 8.05637 15.3031 8.00331C15.322 7.95022 15.3577 7.90651 15.4047 7.8788L15.9947 7.51784C16.0405 7.4903 16.0966 7.48152 16.1519 7.49321C16.2072 7.50492 16.2577 7.53626 16.2935 7.5811C16.824 8.25095 17.1578 9.07584 17.2949 10.0558C17.3467 10.4354 17.2277 10.4937 16.9378 10.2307C16.8576 10.1588 16.7127 10.0707 16.5031 9.96649C16.3323 9.88215 16.2004 9.7829 16.1072 9.66879Z" fill="#5F646E"/>
<path d="M7.20457 10.4467C7.74019 10.6898 8.3884 10.82 9.14915 10.8374C9.21103 10.8395 9.27004 10.8625 9.31557 10.902C9.3611 10.9416 9.39019 10.9952 9.39757 11.0533C9.49072 11.8471 9.9151 12.4053 10.6707 12.7279C10.732 12.7542 10.7861 12.7936 10.829 12.8431C10.8718 12.8927 10.9021 12.9509 10.9175 13.0133C10.9329 13.0757 10.933 13.1405 10.9178 13.2027C10.9026 13.2648 10.8725 13.3227 10.8298 13.3717C9.18151 15.2745 6.98462 16.056 4.23917 15.7161C3.20411 15.5896 2.3308 15.1654 1.61921 14.4434C1.01888 13.8306 0.603569 13.033 0.373272 12.0506C0.0860475 10.8349 0.114511 9.62798 0.458663 8.42968C0.717424 7.52664 1.2647 7.31947 2.1005 7.80822C3.75399 8.77578 5.45533 9.65526 7.20457 10.4467Z" fill="#5F646E"/>
<path d="M11.3613 11.8457C11.8693 11.8457 12.2812 11.4509 12.2812 10.9638C12.2812 10.4767 11.8693 10.0818 11.3613 10.0818C10.8532 10.0818 10.4414 10.4767 10.4414 10.9638C10.4414 11.4509 10.8532 11.8457 11.3613 11.8457Z" fill="#5F646E"/>
<path d="M15.094 21.2679L13.5958 21.2865C13.2491 20.0858 13.0873 18.8639 13.1106 17.621C13.1365 16.2391 13.1352 15.4514 13.1068 15.2579C12.9929 14.4913 12.7626 13.7259 12.4159 12.9618C12.3784 12.8776 12.3714 12.7836 12.396 12.6947C12.4206 12.6058 12.4753 12.527 12.5517 12.4706C13.2012 11.9918 13.4457 11.2996 13.2853 10.3941C13.2795 10.3619 13.282 10.3289 13.2928 10.298C13.3035 10.267 13.3221 10.2389 13.3469 10.2162C13.3717 10.1935 13.4021 10.1768 13.4353 10.1676C13.4685 10.1584 13.5036 10.1569 13.5376 10.1634C15.2868 10.5231 16.6828 11.2426 17.7256 12.3218C18.7865 13.4208 19.3248 14.7431 19.3403 16.2887C19.3636 18.6655 17.9482 20.3252 15.094 21.2679Z" fill="#5F646E"/>
<path d="M11.761 16.6993C10.8088 16.9301 9.89536 16.8345 9.02074 16.4128C8.99929 16.4023 8.98055 16.3874 8.96604 16.369C8.95153 16.3507 8.94162 16.3295 8.93709 16.3071C8.93258 16.2847 8.93357 16.2618 8.94001 16.2401C8.94644 16.2184 8.95813 16.1985 8.97415 16.1821C9.39078 15.7504 9.89536 15.5395 10.4879 15.5494C10.594 15.5519 10.9058 15.5494 11.4233 15.542C11.9849 15.5321 12.1789 15.8422 12.0056 16.4723C11.9916 16.5264 11.9615 16.5761 11.9185 16.6161C11.8754 16.6561 11.8209 16.6849 11.761 16.6993Z" fill="#5F646E"/>
<path d="M6.47529 19.2453C5.49977 18.7193 4.6407 18.0544 3.89805 17.2506C3.48144 16.8016 3.57331 16.6614 4.17362 16.8301C4.37805 16.8872 4.69115 16.9194 5.11292 16.9269C5.23813 16.9292 5.35757 16.9726 5.45061 17.0497C7.11444 18.4117 9.04867 19.1659 11.2533 19.3122C11.3232 19.3172 11.5244 19.3333 11.6941 19.3384C12.0259 19.3486 12.0542 19.4574 11.9947 20.1793C11.9859 20.2766 11.9393 20.3672 11.8645 20.4328C11.7896 20.4983 11.6919 20.5341 11.591 20.5328C9.74862 20.518 8.0434 20.0888 6.47529 19.2453Z" fill="#5F646E"/>
<path d="M29.8961 11.89C30.2626 11.89 30.5892 11.8314 30.8757 11.7142C31.167 11.597 31.4115 11.4325 31.6088 11.2207C31.8061 11.0089 31.9565 10.752 32.0597 10.4501C32.1678 10.1481 32.2218 9.81013 32.2218 9.43607V3.58189H34.1178V9.43607C34.1178 10.0174 34.0191 10.556 33.8218 11.0517C33.6291 11.5429 33.3495 11.9688 32.983 12.3294C32.6213 12.6854 32.1795 12.9648 31.658 13.1676C31.1365 13.3659 30.5492 13.465 29.8961 13.465C29.2382 13.465 28.6486 13.3659 28.1271 13.1676C27.6056 12.9648 27.1615 12.6854 26.795 12.3294C26.433 11.9688 26.1536 11.5429 25.9561 11.0517C25.7636 10.556 25.6673 10.0174 25.6673 9.43607V3.58189H27.5632V9.42932C27.5632 9.80336 27.6148 10.1414 27.7182 10.4433C27.8263 10.7453 27.979 11.0044 28.1763 11.2207C28.3784 11.4325 28.6226 11.597 28.9094 11.7142C29.2007 11.8314 29.5296 11.89 29.8961 11.89ZM32.8563 0.776489L30.5726 2.70985C30.4788 2.79097 30.3893 2.84055 30.3047 2.85857C30.2203 2.8766 30.1123 2.88562 29.9807 2.88562H28.719L30.192 1.05365C30.239 0.990556 30.2861 0.940983 30.333 0.904929C30.3799 0.864369 30.4317 0.835076 30.488 0.817049C30.5446 0.799022 30.6055 0.787756 30.6713 0.783249C30.7419 0.778742 30.824 0.776489 30.918 0.776489H32.8563ZM41.401 5.35979C41.3447 5.45443 41.2835 5.52428 41.2177 5.56934C41.1568 5.6099 41.0791 5.63019 40.9853 5.63019C40.8866 5.63019 40.7785 5.59638 40.661 5.52878C40.5481 5.45668 40.412 5.37781 40.2522 5.29219C40.0924 5.20655 39.9045 5.12995 39.6883 5.06235C39.477 4.99023 39.2254 4.95419 38.9343 4.95419C38.671 4.95419 38.4409 4.98573 38.2436 5.04883C38.0463 5.10741 37.8793 5.19078 37.7432 5.29894C37.6117 5.4071 37.5128 5.5378 37.447 5.69102C37.3812 5.83974 37.3484 6.00423 37.3484 6.18451C37.3484 6.41435 37.4141 6.60588 37.5459 6.7591C37.682 6.91234 37.8607 7.04302 38.0814 7.15118C38.3022 7.25934 38.5535 7.35623 38.8355 7.44187C39.1174 7.52749 39.4064 7.61988 39.7024 7.71902C39.9985 7.81366 40.2874 7.92635 40.5693 8.05703C40.8512 8.18323 41.1028 8.34547 41.3235 8.54375C41.5443 8.73755 41.7206 8.97639 41.8522 9.26031C41.9883 9.54423 42.0566 9.889 42.0566 10.2946C42.0566 10.7362 41.9766 11.1509 41.8168 11.5384C41.6618 11.9215 41.4316 12.2573 41.1262 12.5457C40.8254 12.8296 40.4566 13.0549 40.0197 13.2217C39.5826 13.3839 39.0822 13.465 38.5183 13.465C38.1941 13.465 37.8747 13.4335 37.5599 13.3704C37.2451 13.3118 36.942 13.2262 36.6507 13.1135C36.3642 13.0009 36.094 12.8657 35.8401 12.7079C35.5865 12.5502 35.3609 12.3744 35.1636 12.1806L35.7203 11.3086C35.7672 11.2455 35.8284 11.1937 35.9036 11.1531C35.9788 11.1081 36.0586 11.0855 36.1432 11.0855C36.2607 11.0855 36.3876 11.1328 36.5238 11.2275C36.6601 11.3176 36.8222 11.419 37.0101 11.5317C37.198 11.6444 37.4167 11.748 37.6657 11.8426C37.9193 11.9328 38.2224 11.9778 38.5747 11.9778C39.1151 11.9778 39.5334 11.8562 39.8293 11.6128C40.1252 11.3649 40.2733 11.0112 40.2733 10.5515C40.2733 10.2946 40.2053 10.085 40.0689 9.92279C39.9374 9.76055 39.7612 9.62535 39.5403 9.51719C39.3195 9.40453 39.0682 9.30989 38.7862 9.23327C38.5043 9.15667 38.2176 9.07328 37.9265 8.98316C37.6351 8.89302 37.3484 8.78486 37.0664 8.65868C36.7845 8.53248 36.5332 8.36799 36.3124 8.16519C36.0914 7.96239 35.913 7.71003 35.7766 7.40806C35.6451 7.10162 35.5793 6.72531 35.5793 6.27915C35.5793 5.92311 35.6522 5.57611 35.7978 5.23811C35.9482 4.90011 36.1643 4.60042 36.4463 4.33901C36.7282 4.07763 37.0759 3.86806 37.4893 3.71034C37.9028 3.5526 38.3774 3.47373 38.9132 3.47373C39.5145 3.47373 40.0689 3.56387 40.5764 3.74413C41.0839 3.92441 41.5162 4.17677 41.8733 4.50126L41.401 5.35979ZM46.7409 8.49644C47.0886 8.49644 47.3917 8.45588 47.6502 8.37476C47.9086 8.28912 48.1225 8.16971 48.2915 8.01647C48.4653 7.85875 48.5946 7.66947 48.6792 7.44862C48.7638 7.2233 48.8061 6.97317 48.8061 6.69827C48.8061 6.43687 48.7638 6.20028 48.6792 5.98846C48.5946 5.77666 48.4676 5.59638 48.2986 5.44766C48.1294 5.29894 47.9158 5.18628 47.6573 5.10966C47.3988 5.02854 47.0935 4.98798 46.7409 4.98798H45.3244V8.49644H46.7409ZM46.7409 3.58189C47.4223 3.58189 48.0119 3.65851 48.51 3.81173C49.008 3.96497 49.4192 4.17902 49.7434 4.45395C50.0676 4.72885 50.3073 5.05783 50.4622 5.44091C50.6221 5.82397 50.7021 6.24309 50.7021 6.69827C50.7021 7.17147 50.6198 7.60637 50.4553 8.00295C50.2909 8.39503 50.0442 8.73303 49.7154 9.01695C49.3863 9.30087 48.9728 9.52171 48.4748 9.67943C47.9815 9.83717 47.4034 9.91604 46.7409 9.91604H45.3244V13.3569H43.4285V3.58189H46.7409ZM61.593 8.4694C61.593 9.18596 61.4686 9.85069 61.2196 10.4636C60.9751 11.072 60.6275 11.5993 60.1765 12.0454C59.7254 12.4916 59.1827 12.8409 58.5485 13.0933C57.914 13.3411 57.2092 13.465 56.4341 13.465C55.6635 13.465 54.961 13.3411 54.3266 13.0933C53.6924 12.8409 53.1471 12.4916 52.6914 12.0454C52.2404 11.5993 51.8905 11.072 51.6414 10.4636C51.3924 9.85069 51.2678 9.18596 51.2678 8.4694C51.2678 7.75284 51.3924 7.09035 51.6414 6.48195C51.8905 5.86903 52.2404 5.3395 52.6914 4.89334C53.1471 4.44718 53.6924 4.10018 54.3266 3.85229C54.961 3.59993 55.6635 3.47373 56.4341 3.47373C56.9508 3.47373 57.4371 3.53233 57.8929 3.64949C58.3486 3.76217 58.7669 3.92441 59.1475 4.13621C59.5281 4.34354 59.8686 4.59815 60.1694 4.90011C60.4748 5.19755 60.7332 5.53103 60.9448 5.90059C61.1561 6.27013 61.3159 6.67123 61.424 7.10387C61.5367 7.53652 61.593 7.99167 61.593 8.4694ZM59.655 8.4694C59.655 7.9331 59.5798 7.45315 59.4294 7.0295C59.279 6.60138 59.0652 6.23859 58.7881 5.94115C58.5108 5.64371 58.1725 5.41612 57.7731 5.25838C57.3785 5.10066 56.9321 5.02179 56.4341 5.02179C55.936 5.02179 55.4871 5.10066 55.0877 5.25838C54.6931 5.41612 54.3549 5.64371 54.0729 5.94115C53.7956 6.23859 53.582 6.60138 53.4316 7.0295C53.2812 7.45315 53.206 7.9331 53.206 8.4694C53.206 9.00568 53.2812 9.4879 53.4316 9.91604C53.582 10.3397 53.7956 10.7002 54.0729 10.9976C54.3549 11.2906 54.6931 11.5159 55.0877 11.6736C55.4871 11.8314 55.936 11.9102 56.4341 11.9102C56.9321 11.9102 57.3785 11.8314 57.7731 11.6736C58.1725 11.5159 58.5108 11.2906 58.7881 10.9976C59.0652 10.7002 59.279 10.3397 59.4294 9.91604C59.5798 9.4879 59.655 9.00568 59.655 8.4694ZM66.0561 8.23279C66.4133 8.23279 66.7235 8.18998 66.9865 8.10436C67.2544 8.01871 67.4729 7.90156 67.6419 7.75284C67.8157 7.59959 67.945 7.41933 68.0296 7.21203C68.1142 7.00471 68.1565 6.77714 68.1565 6.52926C68.1565 6.03354 67.985 5.65271 67.6419 5.38683C67.3036 5.12093 66.7844 4.98798 66.0844 4.98798H64.8721V8.23279H66.0561ZM70.9334 13.3569H69.2207C68.8965 13.3569 68.6615 13.2352 68.5159 12.9918L66.3732 9.86196C66.2935 9.74478 66.2042 9.66141 66.1056 9.61183C66.0115 9.56227 65.8706 9.53748 65.6827 9.53748H64.8721V13.3569H62.9762V3.58189H66.0844C66.775 3.58189 67.3671 3.65174 67.8603 3.79146C68.3584 3.92666 68.765 4.11819 69.0798 4.36605C69.3992 4.61394 69.6342 4.91138 69.7846 5.25838C69.935 5.6009 70.0102 5.97946 70.0102 6.39406C70.0102 6.72306 69.9584 7.03402 69.8549 7.32694C69.7563 7.61988 69.6107 7.88579 69.418 8.12463C69.2302 8.36349 68.9952 8.57304 68.7132 8.75332C68.4361 8.93358 68.1188 9.07555 67.7617 9.17919C67.884 9.24679 67.9967 9.32791 68.1002 9.42255C68.2034 9.51269 68.2975 9.62085 68.3821 9.74703L70.9334 13.3569ZM80.3435 3.58189V13.3569H79.371C79.2206 13.3569 79.0937 13.3344 78.9904 13.2893C78.8916 13.2397 78.7954 13.1586 78.7014 13.0459L73.3801 6.52926C73.4084 6.8267 73.4224 7.10162 73.4224 7.35398V13.3569H71.752V3.58189H72.7459C72.8257 3.58189 72.8937 3.58641 72.9503 3.59541C73.0112 3.59993 73.063 3.61345 73.1053 3.63597C73.1522 3.65401 73.1968 3.6833 73.2391 3.72386C73.2814 3.7599 73.3284 3.80948 73.3801 3.87258L78.7225 10.4163C78.7085 10.2585 78.6966 10.1031 78.6874 9.94983C78.6779 9.79661 78.6731 9.65464 78.6731 9.52396V3.58189H80.3435ZM84.2342 5.02854V7.73932H87.8006V9.13863H84.2342V11.9035H88.759V13.3569H82.3312V3.58189H88.759V5.02854H84.2342ZM88.6109 0.776489L86.3275 2.70985C86.2334 2.79097 86.1442 2.84055 86.0596 2.85857C85.975 2.8766 85.8669 2.88562 85.7354 2.88562H84.4739L85.9469 1.05365C85.9938 0.990556 86.0407 0.940983 86.0879 0.904929C86.1348 0.864369 86.1865 0.835076 86.2429 0.817049C86.2992 0.799022 86.3604 0.787756 86.4261 0.783249C86.4965 0.778742 86.5788 0.776489 86.6729 0.776489H88.6109ZM95.1988 7.67846H95.6428C95.8215 7.67846 95.9693 7.65595 96.0868 7.61086C96.2043 7.56131 96.3053 7.48468 96.3899 7.38102L99.2022 3.96722C99.3195 3.823 99.4418 3.72386 99.5685 3.66978C99.7003 3.61118 99.8647 3.58189 100.062 3.58189H101.697L98.2647 7.64468C98.0628 7.89254 97.8536 8.0683 97.6374 8.17196C97.7926 8.22604 97.9311 8.30264 98.0534 8.4018C98.1801 8.49644 98.2999 8.62262 98.4128 8.78036L101.951 13.3569H100.28C100.055 13.3569 99.8859 13.3276 99.773 13.269C99.6649 13.2059 99.5734 13.1158 99.4982 12.9986L96.6155 9.38876C96.5263 9.26708 96.4228 9.18144 96.3053 9.13188C96.188 9.0823 96.0188 9.05751 95.798 9.05751H95.1988V13.3569H93.3031V3.58189H95.1988V7.67846ZM108.654 11.8562V13.3569H102.685V3.58189H104.58V11.8562H108.654ZM111.629 13.3569H109.726V3.58189H111.629V13.3569ZM113.666 0.776489L111.382 2.70985C111.288 2.79097 111.199 2.84055 111.114 2.85857C111.03 2.8766 110.922 2.88562 110.79 2.88562H109.529L111.002 1.05365C111.049 0.990556 111.096 0.940983 111.143 0.904929C111.19 0.864369 111.241 0.835076 111.298 0.817049C111.354 0.799022 111.415 0.787756 111.481 0.783249C111.551 0.778742 111.634 0.776489 111.727 0.776489H113.666ZM124.68 3.58189V13.3569H123.01V7.04302C123.01 6.79066 123.024 6.51799 123.052 6.22507L119.972 11.775C119.826 12.0409 119.603 12.1739 119.302 12.1739H119.035C118.734 12.1739 118.511 12.0409 118.365 11.775L115.25 6.20478C115.264 6.3535 115.276 6.49997 115.285 6.64419C115.294 6.78839 115.299 6.92134 115.299 7.04302V13.3569H113.629V3.58189H115.059C115.144 3.58189 115.217 3.58414 115.278 3.58866C115.339 3.59316 115.393 3.60443 115.44 3.62245C115.492 3.64049 115.536 3.66978 115.574 3.71034C115.616 3.7509 115.656 3.80498 115.694 3.87258L118.746 9.30087C118.826 9.44509 118.898 9.59381 118.964 9.74703C119.035 9.90027 119.103 10.058 119.168 10.2202C119.234 10.0535 119.302 9.8935 119.373 9.74028C119.443 9.58254 119.518 9.43157 119.598 9.28735L122.608 3.87258C122.646 3.80498 122.686 3.7509 122.728 3.71034C122.77 3.66978 122.815 3.64049 122.862 3.62245C122.913 3.60443 122.97 3.59316 123.031 3.58866C123.092 3.58414 123.165 3.58189 123.249 3.58189H124.68ZM131.049 9.57127V13.3569H129.16V9.57127L125.446 3.58189H127.116C127.28 3.58189 127.41 3.6202 127.504 3.69682C127.602 3.77342 127.684 3.87033 127.75 3.98749L129.611 7.25259C129.719 7.44637 129.813 7.62891 129.893 7.80014C129.978 7.97141 130.053 8.14267 130.118 8.31391C130.179 8.14267 130.25 7.97141 130.33 7.80014C130.41 7.62891 130.501 7.44637 130.605 7.25259L132.458 3.98749C132.51 3.88835 132.588 3.79596 132.691 3.71034C132.794 3.6247 132.926 3.58189 133.086 3.58189H134.763L131.049 9.57127Z" fill="#5F646E"/>
<path d="M27.1141 18.4337C27.2463 18.4337 27.3615 18.4182 27.4597 18.3874C27.5579 18.3549 27.6393 18.3095 27.7034 18.2512C27.7696 18.1913 27.8186 18.1193 27.8508 18.0354C27.883 17.9497 27.8991 17.8547 27.8991 17.7502C27.8991 17.6508 27.883 17.5609 27.8508 17.4804C27.8186 17.3999 27.7706 17.3314 27.7062 17.2748C27.6418 17.2183 27.5606 17.1755 27.4624 17.1464C27.3642 17.1155 27.2481 17.1001 27.1141 17.1001H26.5757V18.4337H27.1141ZM27.1141 16.5657C27.373 16.5657 27.5972 16.5948 27.7864 16.653C27.9759 16.7113 28.132 16.7926 28.2553 16.8971C28.3786 17.0016 28.4696 17.1267 28.5287 17.2723C28.5894 17.4179 28.6198 17.5772 28.6198 17.7502C28.6198 17.9301 28.5885 18.0954 28.526 18.2461C28.4634 18.3951 28.3696 18.5236 28.2447 18.6315C28.1196 18.7394 27.9623 18.8234 27.7731 18.8833C27.5857 18.9433 27.3659 18.9733 27.1141 18.9733H26.5757V20.2811H25.8551V16.5657H27.1141ZM30.9591 18.3335C31.095 18.3335 31.2127 18.3172 31.3127 18.2846C31.4146 18.2521 31.4976 18.2076 31.562 18.151C31.628 18.0928 31.6772 18.0243 31.7092 17.9455C31.7414 17.8667 31.7575 17.7802 31.7575 17.686C31.7575 17.4975 31.6924 17.3528 31.562 17.2517C31.4332 17.1507 31.2359 17.1001 30.9699 17.1001H30.5091V18.3335H30.9591ZM32.8129 20.2811H32.1619C32.0387 20.2811 31.9495 20.2349 31.894 20.1424L31.0798 18.9527C31.0494 18.9082 31.0154 18.8765 30.9779 18.8576C30.9423 18.8388 30.8887 18.8294 30.8172 18.8294H30.5091V20.2811H29.7884V16.5657H30.9699C31.2325 16.5657 31.4574 16.5922 31.645 16.6453C31.8343 16.6967 31.9888 16.7695 32.1084 16.8637C32.2298 16.9579 32.3192 17.071 32.3763 17.2029C32.4335 17.3331 32.462 17.477 32.462 17.6346C32.462 17.7596 32.4425 17.8778 32.4032 17.9892C32.3657 18.1005 32.3103 18.2016 32.2369 18.2924C32.1656 18.3831 32.0762 18.4628 31.969 18.5313C31.8637 18.5998 31.7432 18.6538 31.6075 18.6932C31.654 18.7189 31.6967 18.7497 31.7361 18.7857C31.7754 18.8199 31.811 18.8611 31.8432 18.909L32.8129 20.2811ZM34.5707 17.1155V18.1459H35.9262V18.6778H34.5707V19.7287H36.2907V20.2811H33.8475V16.5657H36.2907V17.1155H34.5707ZM40.9852 18.4234C40.9852 18.6958 40.9378 18.9458 40.8433 19.1737C40.7485 19.4015 40.6154 19.5976 40.4441 19.7621C40.2725 19.9265 40.0663 20.0542 39.8253 20.1449C39.5841 20.2357 39.3162 20.2811 39.0216 20.2811H37.5453V16.5657H39.0216C39.3162 16.5657 39.5841 16.6119 39.8253 16.7044C40.0663 16.7952 40.2725 16.9228 40.4441 17.0873C40.6154 17.25 40.7485 17.4453 40.8433 17.6731C40.9378 17.9009 40.9852 18.151 40.9852 18.4234ZM40.2459 18.4234C40.2459 18.2196 40.2171 18.0371 40.1601 17.8761C40.1047 17.7134 40.0235 17.5763 39.9164 17.465C39.8108 17.3519 39.6823 17.2654 39.5305 17.2055C39.3806 17.1455 39.2109 17.1155 39.0216 17.1155H38.2688V19.7313H39.0216C39.2109 19.7313 39.3806 19.7013 39.5305 19.6413C39.6823 19.5814 39.8108 19.4957 39.9164 19.3844C40.0235 19.2713 40.1047 19.1343 40.1601 18.9733C40.2171 18.8105 40.2459 18.6272 40.2459 18.4234ZM44.1638 18.8782L43.6924 17.6423C43.6692 17.5875 43.645 17.5224 43.6202 17.447C43.5951 17.3716 43.57 17.2903 43.545 17.2029C43.5218 17.2903 43.4978 17.3725 43.4728 17.4496C43.4477 17.5249 43.4236 17.5909 43.4003 17.6474L42.9315 18.8782H44.1638ZM45.4363 20.2811H44.8792C44.8166 20.2811 44.7658 20.2665 44.7265 20.2374C44.6871 20.2066 44.6577 20.1689 44.6382 20.1244L44.3487 19.3664H42.7441L42.4548 20.1244C42.4405 20.1638 42.4127 20.1997 42.3718 20.2323C42.3306 20.2648 42.2798 20.2811 42.2191 20.2811H41.6564L43.1807 16.5657H43.9147L45.4363 20.2811ZM47.9297 18.9604C47.9297 19.1694 47.9028 19.3578 47.8492 19.5257C47.7956 19.6936 47.7154 19.8366 47.6082 19.9548C47.5027 20.073 47.3707 20.1638 47.2116 20.2272C47.0527 20.2905 46.8678 20.3222 46.6571 20.3222C46.5606 20.3222 46.4661 20.3162 46.3731 20.3042C46.2803 20.294 46.183 20.2768 46.0811 20.2529C46.0864 20.1843 46.0928 20.1158 46.1 20.0473C46.1071 19.9788 46.1133 19.9103 46.1186 19.8417C46.1239 19.804 46.1391 19.7741 46.1641 19.7518C46.191 19.7278 46.2285 19.7158 46.2766 19.7158C46.3072 19.7158 46.3462 19.7218 46.3945 19.7338C46.4447 19.7458 46.507 19.7518 46.5822 19.7518C46.6838 19.7518 46.7742 19.7381 46.8526 19.7107C46.9312 19.6816 46.9963 19.6362 47.0483 19.5745C47.1019 19.5128 47.1419 19.4332 47.1688 19.3356C47.1955 19.2362 47.209 19.1163 47.209 18.9758V16.5657H47.9297V18.9604Z" fill="#5F646E"/>
<path d="M69.5303 17.2399C69.5087 17.2759 69.4855 17.3025 69.4607 17.3196C69.4374 17.335 69.408 17.3427 69.3721 17.3427C69.3346 17.3427 69.2935 17.3299 69.2489 17.3042C69.2061 17.2768 69.1544 17.2468 69.0937 17.2142C69.0329 17.1817 68.9614 17.1526 68.8793 17.1269C68.7989 17.0995 68.7034 17.0858 68.5926 17.0858C68.4926 17.0858 68.4052 17.0978 68.33 17.1217C68.255 17.144 68.1916 17.1757 68.1398 17.2168C68.0899 17.2579 68.0524 17.3076 68.0274 17.3659C68.0023 17.4224 67.9899 17.4849 67.9899 17.5534C67.9899 17.6408 68.015 17.7136 68.0649 17.7718C68.1166 17.8301 68.1844 17.8798 68.2684 17.9209C68.3523 17.962 68.4479 17.9988 68.5551 18.0313C68.6623 18.0639 68.7722 18.099 68.8846 18.1367C68.9971 18.1727 69.107 18.2155 69.2141 18.2652C69.3213 18.3131 69.4167 18.3748 69.5007 18.4502C69.5846 18.5238 69.6517 18.6146 69.7016 18.7225C69.7534 18.8305 69.7794 18.9615 69.7794 19.1157C69.7794 19.2835 69.749 19.4411 69.6883 19.5884C69.6294 19.734 69.5418 19.8617 69.4257 19.9713C69.3114 20.0792 69.1711 20.1649 69.0051 20.2282C68.8391 20.2899 68.6489 20.3207 68.4346 20.3207C68.3114 20.3207 68.1899 20.3087 68.0701 20.2848C67.9506 20.2625 67.8354 20.2299 67.7245 20.1871C67.6158 20.1443 67.513 20.0929 67.4166 20.033C67.32 19.973 67.2345 19.9062 67.1593 19.8325L67.3711 19.5011C67.3888 19.4771 67.412 19.4574 67.4408 19.442C67.4693 19.4249 67.4996 19.4163 67.5318 19.4163C67.5764 19.4163 67.6247 19.4343 67.6765 19.4702C67.7282 19.5045 67.7898 19.543 67.8613 19.5859C67.9326 19.6287 68.0156 19.6681 68.1104 19.7041C68.2067 19.7383 68.3219 19.7555 68.456 19.7555C68.6613 19.7555 68.8202 19.7092 68.9329 19.6167C69.0454 19.5225 69.1017 19.388 69.1017 19.2133C69.1017 19.1157 69.0757 19.036 69.024 18.9743C68.9738 18.9127 68.9069 18.8613 68.823 18.8202C68.7391 18.7773 68.6434 18.7414 68.5363 18.7123C68.4291 18.6831 68.3203 18.6514 68.2095 18.6172C68.0989 18.5829 67.9899 18.5418 67.8827 18.4938C67.7756 18.4459 67.6799 18.3834 67.596 18.3063C67.512 18.2292 67.4442 18.1333 67.3925 18.0185C67.3423 17.902 67.3175 17.759 67.3175 17.5894C67.3175 17.4541 67.3451 17.3222 67.4005 17.1937C67.4575 17.0652 67.5399 16.9513 67.647 16.852C67.7542 16.7526 67.8862 16.6729 68.0435 16.613C68.2005 16.553 68.381 16.5231 68.5845 16.5231C68.8131 16.5231 69.024 16.5573 69.2169 16.6258C69.4096 16.6944 69.574 16.7903 69.7097 16.9136L69.5303 17.2399ZM71.7475 17.114V18.1444H73.1031V18.6763H71.7475V19.7272H73.4673V20.2796H71.0241V16.5642H73.4673V17.114H71.7475ZM75.8928 18.332C76.0285 18.332 76.1465 18.3157 76.2465 18.2831C76.3482 18.2506 76.4314 18.2061 76.4955 18.1495C76.5615 18.0913 76.6108 18.0228 76.6429 17.944C76.6751 17.8652 76.6912 17.7787 76.6912 17.6845C76.6912 17.496 76.6259 17.3513 76.4955 17.2502C76.367 17.1492 76.1697 17.0986 75.9034 17.0986H75.4428V18.332H75.8928ZM77.7467 20.2796H77.0957C76.9725 20.2796 76.883 20.2334 76.8278 20.1409L76.0133 18.9512C75.983 18.9067 75.9492 18.875 75.9115 18.8561C75.8758 18.8373 75.8223 18.8279 75.7507 18.8279H75.4428V20.2796H74.7222V16.5642H75.9034C76.166 16.5642 76.3912 16.5907 76.5786 16.6438C76.768 16.6952 76.9223 16.768 77.0421 16.8622C77.1636 16.9564 77.2528 17.0695 77.31 17.2014C77.3671 17.3316 77.3958 17.4755 77.3958 17.6331C77.3958 17.7581 77.376 17.8763 77.3367 17.9877C77.2992 18.099 77.2438 18.2001 77.1707 18.2909C77.0992 18.3816 77.0099 18.4613 76.9028 18.5298C76.7975 18.5983 76.6767 18.6523 76.5411 18.6917C76.5875 18.7174 76.6305 18.7482 76.6696 18.7842C76.7089 18.8185 76.7448 18.8596 76.7768 18.9075L77.7467 20.2796ZM81.9799 16.5642L80.4155 20.2796H79.7645L78.1999 16.5642H78.7787C78.841 16.5642 78.8921 16.5787 78.9314 16.6079C78.9707 16.637 79.0002 16.6747 79.0197 16.7209L79.9333 18.9872C79.9637 19.0608 79.9922 19.1422 80.0191 19.2313C80.0476 19.3187 80.0743 19.4103 80.0993 19.5062C80.1207 19.4103 80.144 19.3187 80.169 19.2313C80.1941 19.1422 80.2217 19.0608 80.252 18.9872L81.1603 16.7209C81.1746 16.6815 81.2022 16.6455 81.2433 16.613C81.2861 16.5804 81.3379 16.5642 81.3986 16.5642H81.9799ZM83.7204 20.2796H82.9972V16.5642H83.7204V20.2796ZM87.2667 17.2399C87.2453 17.2759 87.2221 17.3025 87.197 17.3196C87.1738 17.335 87.1444 17.3427 87.1085 17.3427C87.071 17.3427 87.0301 17.3299 86.9855 17.3042C86.9425 17.2768 86.8907 17.2468 86.83 17.2142C86.7693 17.1817 86.6978 17.1526 86.6157 17.1269C86.5352 17.0995 86.4398 17.0858 86.3289 17.0858C86.2289 17.0858 86.1415 17.0978 86.0666 17.1217C85.9914 17.144 85.9281 17.1757 85.8762 17.2168C85.8263 17.2579 85.7888 17.3076 85.7637 17.3659C85.7387 17.4224 85.7262 17.4849 85.7262 17.5534C85.7262 17.6408 85.7513 17.7136 85.8012 17.7718C85.8529 17.8301 85.921 17.8798 86.0049 17.9209C86.0889 17.962 86.1843 17.9988 86.2915 18.0313C86.3986 18.0639 86.5085 18.099 86.621 18.1367C86.7334 18.1727 86.8433 18.2155 86.9505 18.2652C87.0577 18.3131 87.1533 18.3748 87.2373 18.4502C87.3212 18.5238 87.3881 18.6146 87.438 18.7225C87.49 18.8305 87.5157 18.9615 87.5157 19.1157C87.5157 19.2835 87.4854 19.4411 87.4247 19.5884C87.3658 19.734 87.2782 19.8617 87.1621 19.9713C87.0478 20.0792 86.9077 20.1649 86.7415 20.2282C86.5755 20.2899 86.3853 20.3207 86.171 20.3207C86.0477 20.3207 85.9263 20.3087 85.8067 20.2848C85.6869 20.2625 85.5717 20.2299 85.4611 20.1871C85.3521 20.1443 85.2493 20.0929 85.153 20.033C85.0566 19.973 84.9709 19.9062 84.8959 19.8325L85.1074 19.5011C85.1254 19.4771 85.1484 19.4574 85.1771 19.442C85.2056 19.4249 85.236 19.4163 85.2682 19.4163C85.3128 19.4163 85.3611 19.4343 85.4128 19.4702C85.4646 19.5045 85.5262 19.543 85.5977 19.5859C85.669 19.6287 85.7522 19.6681 85.8467 19.7041C85.9433 19.7383 86.0585 19.7555 86.1924 19.7555C86.3977 19.7555 86.5568 19.7092 86.6693 19.6167C86.7817 19.5225 86.8381 19.388 86.8381 19.2133C86.8381 19.1157 86.8121 19.036 86.7603 18.9743C86.7102 18.9127 86.6433 18.8613 86.5594 18.8202C86.4754 18.7773 86.38 18.7414 86.2728 18.7123C86.1657 18.6831 86.0567 18.6514 85.9458 18.6172C85.8352 18.5829 85.7262 18.5418 85.6191 18.4938C85.5119 18.4459 85.4163 18.3834 85.3323 18.3063C85.2484 18.2292 85.1806 18.1333 85.1288 18.0185C85.0789 17.902 85.0539 17.759 85.0539 17.5894C85.0539 17.4541 85.0815 17.3222 85.1369 17.1937C85.1941 17.0652 85.2762 16.9513 85.3834 16.852C85.4905 16.7526 85.6228 16.6729 85.7798 16.613C85.9369 16.553 86.1174 16.5231 86.3209 16.5231C86.5495 16.5231 86.7603 16.5573 86.9533 16.6258C87.1462 16.6944 87.3104 16.7903 87.446 16.9136L87.2667 17.2399Z" fill="#5F646E"/>
<path d="M109.798 16.5656V20.2811H109.163V17.8812C109.163 17.7852 109.168 17.6816 109.179 17.5703L108.008 19.6798C107.953 19.7809 107.868 19.8314 107.754 19.8314H107.652C107.538 19.8314 107.453 19.7809 107.397 19.6798L106.213 17.5626C106.219 17.6191 106.223 17.6748 106.227 17.7296C106.23 17.7844 106.232 17.8349 106.232 17.8812V20.2811H105.597V16.5656H106.141C106.173 16.5656 106.201 16.5664 106.224 16.5682C106.247 16.5699 106.268 16.5742 106.286 16.581C106.305 16.5879 106.322 16.599 106.337 16.6144C106.353 16.6298 106.368 16.6504 106.382 16.6761L107.542 18.7394C107.572 18.7942 107.6 18.8507 107.625 18.909C107.652 18.9672 107.678 19.0272 107.703 19.0888C107.728 19.0254 107.754 18.9646 107.781 18.9064C107.807 18.8464 107.836 18.789 107.866 18.7342L109.01 16.6761C109.024 16.6504 109.04 16.6298 109.056 16.6144C109.072 16.599 109.089 16.5879 109.107 16.581C109.126 16.5742 109.148 16.5699 109.171 16.5682C109.194 16.5664 109.222 16.5656 109.254 16.5656H109.798ZM114.972 18.4233C114.972 18.6957 114.925 18.9484 114.83 19.1813C114.737 19.4126 114.605 19.613 114.434 19.7826C114.262 19.9522 114.056 20.0849 113.815 20.1808C113.574 20.2751 113.306 20.3222 113.011 20.3222C112.718 20.3222 112.452 20.2751 112.211 20.1808C111.969 20.0849 111.762 19.9522 111.589 19.7826C111.417 19.613 111.285 19.4126 111.19 19.1813C111.095 18.9484 111.048 18.6957 111.048 18.4233C111.048 18.151 111.095 17.8992 111.19 17.6679C111.285 17.4349 111.417 17.2337 111.589 17.0641C111.762 16.8945 111.969 16.7626 112.211 16.6684C112.452 16.5724 112.718 16.5245 113.011 16.5245C113.208 16.5245 113.393 16.5468 113.566 16.5913C113.739 16.6341 113.898 16.6958 114.043 16.7763C114.187 16.8551 114.317 16.9519 114.431 17.0666C114.547 17.1797 114.645 17.3065 114.726 17.4469C114.806 17.5874 114.867 17.7398 114.908 17.9043C114.951 18.0687 114.972 18.2417 114.972 18.4233ZM114.236 18.4233C114.236 18.2195 114.207 18.037 114.15 17.876C114.093 17.7133 114.012 17.5754 113.906 17.4623C113.801 17.3493 113.672 17.2628 113.52 17.2028C113.37 17.1429 113.201 17.1129 113.011 17.1129C112.822 17.1129 112.652 17.1429 112.5 17.2028C112.35 17.2628 112.221 17.3493 112.114 17.4623C112.009 17.5754 111.927 17.7133 111.87 17.876C111.813 18.037 111.784 18.2195 111.784 18.4233C111.784 18.6272 111.813 18.8105 111.87 18.9732C111.927 19.1342 112.009 19.2712 112.114 19.3843C112.221 19.4956 112.35 19.5813 112.5 19.6413C112.652 19.7012 112.822 19.7312 113.011 19.7312C113.201 19.7312 113.37 19.7012 113.52 19.6413C113.672 19.5813 113.801 19.4956 113.906 19.3843C114.012 19.2712 114.093 19.1342 114.15 18.9732C114.207 18.8105 114.236 18.6272 114.236 18.4233ZM119.487 16.5656V20.2811H119.117C119.06 20.2811 119.012 20.2725 118.973 20.2554C118.935 20.2365 118.899 20.2057 118.863 20.1629L116.84 17.6859C116.851 17.799 116.856 17.9034 116.856 17.9994V20.2811H116.221V16.5656H116.599C116.63 16.5656 116.655 16.5673 116.677 16.5707C116.7 16.5724 116.72 16.5776 116.736 16.5862C116.754 16.593 116.771 16.6041 116.787 16.6196C116.803 16.6333 116.821 16.6521 116.84 16.6761L118.871 19.1633C118.866 19.1034 118.861 19.0443 118.858 18.986C118.854 18.9278 118.852 18.8738 118.852 18.8242V16.5656H119.487ZM123.672 17.1334H122.504V20.2811H121.783V17.1334H120.615V16.5656H123.672V17.1334ZM126.465 18.8781L125.993 17.6422C125.97 17.5874 125.946 17.5223 125.921 17.4469C125.896 17.3716 125.871 17.2902 125.846 17.2028C125.822 17.2902 125.798 17.3724 125.774 17.4495C125.748 17.5249 125.724 17.5908 125.701 17.6473L125.232 18.8781H126.465ZM127.737 20.2811H127.18C127.117 20.2811 127.067 20.2665 127.027 20.2374C126.988 20.2065 126.958 20.1688 126.939 20.1243L126.649 19.3663H125.045L124.756 20.1243C124.741 20.1637 124.713 20.1997 124.673 20.2322C124.631 20.2648 124.581 20.2811 124.52 20.2811H123.957L125.481 16.5656H126.215L127.737 20.2811ZM126.971 15.4993L126.103 16.2341C126.067 16.265 126.033 16.2838 126.001 16.2907C125.969 16.2975 125.928 16.3009 125.878 16.3009H125.398L125.958 15.6046C125.976 15.5806 125.994 15.5618 126.012 15.5481C126.03 15.5327 126.049 15.5215 126.071 15.5147C126.092 15.5078 126.115 15.5035 126.141 15.5018C126.167 15.5001 126.198 15.4993 126.234 15.4993H126.971ZM131.422 16.82C131.422 16.8988 131.399 16.9707 131.353 17.0358L129.365 19.7286H131.377V20.2811H128.43V20.0087C128.43 19.9744 128.436 19.9419 128.449 19.9111C128.461 19.8785 128.478 19.8485 128.497 19.8211L130.49 17.1155H128.556V16.5656H131.422V16.82ZM130.956 15.5943L130.311 16.3009H129.689L129.044 15.5943H129.523C129.55 15.5943 129.582 15.5978 129.619 15.6046C129.657 15.6115 129.691 15.6337 129.721 15.6714L129.96 15.972C129.969 15.9806 129.976 15.99 129.981 16.0003C129.988 16.0106 129.994 16.02 130 16.0286C130.005 16.02 130.011 16.0106 130.016 16.0003C130.023 15.99 130.031 15.9806 130.04 15.972L130.276 15.674C130.306 15.6346 130.34 15.6115 130.378 15.6046C130.417 15.5978 130.45 15.5943 130.477 15.5943H130.956Z" fill="#5F646E"/>
<path d="M57.5698 18.7572C57.8663 18.7572 58.1067 18.5267 58.1067 18.2423C58.1067 17.9579 57.8663 17.7273 57.5698 17.7273C57.2733 17.7273 57.0329 17.9579 57.0329 18.2423C57.0329 18.5267 57.2733 18.7572 57.5698 18.7572Z" fill="#5F646E"/>
<path d="M97.0891 18.7572C97.3857 18.7572 97.626 18.5267 97.626 18.2423C97.626 17.9579 97.3857 17.7273 97.0891 17.7273C96.7926 17.7273 96.5522 17.9579 96.5522 18.2423C96.5522 18.5267 96.7926 18.7572 97.0891 18.7572Z" fill="#5F646E"/>
</svg>
