<svg width="163" height="20" viewBox="0 0 163 20" fill="none" xmlns="http://www.w3.org/2000/svg">
<path d="M7.86732 19.2619C6.42439 19.2619 5.0918 19.0837 3.86955 18.7272C2.66428 18.3537 1.62876 17.8445 0.763 17.1994L1.78154 14.6276C2.35871 15.035 2.96135 15.383 3.58945 15.6716C4.21755 15.9432 4.88809 16.1554 5.60107 16.3082C6.31404 16.444 7.06946 16.5119 7.86732 16.5119C9.20839 16.5119 10.176 16.2912 10.7702 15.8498C11.3643 15.4085 11.6614 14.8313 11.6614 14.1183C11.6614 13.4902 11.4577 13.0149 11.0503 12.6924C10.6428 12.3528 9.91288 12.0727 8.86039 11.8521L5.98302 11.2664C4.33638 10.9269 3.10564 10.3582 2.29081 9.56035C1.47598 8.76249 1.06856 7.69302 1.06856 6.35195C1.06856 5.23155 1.36564 4.25545 1.95978 3.42364C2.55393 2.59184 3.38574 1.94676 4.45521 1.48842C5.52468 1.03007 6.77239 0.800903 8.19834 0.800903C9.47152 0.800903 10.6513 0.987636 11.7378 1.3611C12.8242 1.71759 13.7324 2.23535 14.4624 2.91437L13.4438 5.35887C12.7139 4.74775 11.916 4.29789 11.0503 4.0093C10.1845 3.70374 9.21688 3.55096 8.14742 3.55096C6.94214 3.55096 5.99999 3.78862 5.32097 4.26394C4.65892 4.72228 4.32789 5.35887 4.32789 6.1737C4.32789 6.8018 4.5316 7.30258 4.93901 7.67605C5.36341 8.04951 6.07638 8.3381 7.07795 8.54181L9.92986 9.102C11.6274 9.44152 12.8836 10.0017 13.6985 10.7826C14.5133 11.5465 14.9207 12.582 14.9207 13.8891C14.9207 14.9586 14.6321 15.9008 14.0549 16.7156C13.4778 17.5134 12.6629 18.1415 11.6105 18.5999C10.558 19.0413 9.31025 19.2619 7.86732 19.2619Z" fill="#5F646E"/>
<path d="M21.8693 19.0073V3.75467H15.9363V1.05554H31.087V3.75467H25.154V19.0073H21.8693Z" fill="#5F646E"/>
<path d="M29.4323 19.0073L37.5552 1.05554H40.3052L48.5299 19.0073H45.1942L43.0044 13.9655L44.3285 14.8568H33.5574L34.9324 13.9655L32.7426 19.0073H29.4323ZM38.9047 4.5695L35.3144 13.0743L34.6523 12.2849H43.2081L42.6733 13.0743L39.0066 4.5695H38.9047Z" fill="#5F646E"/>
<path d="M54.8049 19.0073L46.8094 1.05554H50.3488L56.7911 16.1299H55.7216L62.1639 1.05554H65.576L57.5804 19.0073H54.8049Z" fill="#5F646E"/>
<path d="M67.3508 19.0073V1.05554H75.2191C77.1713 1.05554 78.6736 1.47144 79.7261 2.30325C80.7786 3.11808 81.3048 4.25545 81.3048 5.71536C81.3048 6.8018 80.9823 7.71849 80.3372 8.46542C79.6922 9.21235 78.8009 9.71313 77.6636 9.96776V9.58581C78.9707 9.77254 79.9807 10.2479 80.6937 11.0118C81.4237 11.7587 81.7887 12.7518 81.7887 13.991C81.7887 15.5867 81.2369 16.8259 80.1335 17.7087C79.0301 18.5744 77.4938 19.0073 75.5246 19.0073H67.3508ZM70.5083 16.5119H75.1427C76.2461 16.5119 77.1034 16.3082 77.7145 15.9008C78.3256 15.4764 78.6312 14.7889 78.6312 13.8382C78.6312 12.8706 78.3256 12.1831 77.7145 11.7757C77.1034 11.3513 76.2461 11.1391 75.1427 11.1391H70.5083V16.5119ZM70.5083 8.66912H74.6589C75.8302 8.66912 76.696 8.45693 77.2561 8.03254C77.8333 7.59117 78.1219 6.94609 78.1219 6.09731C78.1219 5.24853 77.8333 4.61194 77.2561 4.18755C76.696 3.74618 75.8302 3.5255 74.6589 3.5255H70.5083V8.66912Z" fill="#5F646E"/>
<path d="M88.988 19.0073V10.528L89.6756 12.4886L81.9601 1.05554H85.7542L91.0506 9.20386H90.3376L95.634 1.05554H99.3008L91.6108 12.4886L92.2728 10.528V19.0073H88.988Z" fill="#5F646E"/>
<path d="M130.108 19.0073V1.05554H133.393V9.00015H133.444L141.261 1.05554H145.234L135.863 10.4006L135.889 8.97469L145.845 19.0073H141.745L133.444 10.7062H133.393V19.0073H130.108Z" fill="#5F646E"/>
<path d="M147.067 19.0073V1.05554H150.352V9.00015H150.403L158.22 1.05554H162.193L152.822 10.4006L152.848 8.97469L162.804 19.0073H158.704L150.403 10.7062H150.352V19.0073H147.067Z" fill="#5F646E"/>
<path d="M111.345 14.1843C111.897 14.1843 112.345 13.7366 112.345 13.1843V8.39367C112.345 7.6903 113.052 7.20673 113.707 7.46167L121.9 10.6479C122.285 10.7974 122.538 11.1675 122.538 11.5799V18.0075C122.538 18.5597 122.09 19.0075 121.538 19.0075H105.274C104.722 19.0075 104.274 18.5597 104.274 18.0075V15.1843C104.274 14.632 104.722 14.1843 105.274 14.1843H111.345Z" fill="#5F646E"/>
<path d="M122.54 1.88767C122.54 1.33539 122.092 0.887671 121.54 0.887671H113.349C112.797 0.887671 112.349 1.33539 112.349 1.88767V4.91011C112.349 5.32293 112.603 5.69332 112.988 5.84252L121.179 9.01746C121.834 9.27149 122.54 8.78794 122.54 8.08505V1.88767Z" fill="#5F646E"/>
<path d="M104.274 1.88767C104.274 1.33539 104.722 0.887671 105.274 0.887671H110.104C110.657 0.887671 111.104 1.33539 111.104 1.88767V11.9397C111.104 12.492 110.657 12.9397 110.104 12.9397H105.274C104.722 12.9397 104.274 12.492 104.274 11.9397V1.88767Z" fill="#5F646E"/>
</svg>
