<svg width="173" height="28" viewBox="0 0 173 28" fill="none" xmlns="http://www.w3.org/2000/svg">
<path d="M57.5577 15.4819V20.8134H55.8611V15.4819L50.7155 7.2286H52.8035L56.7373 13.8502L60.5406 7.2286H62.5728L57.5577 15.4819Z" fill="#5F646E"/>
<path d="M72.1607 7.0199C74.2239 7.0199 75.8522 7.7472 77.0453 9.20181C78.077 10.4667 78.5928 12.0731 78.5928 14.021C78.5928 16.2598 77.9278 18.0307 76.5979 19.3335C75.4296 20.4592 73.9505 21.0221 72.1607 21.0221C70.0851 21.0221 68.4506 20.2948 67.2574 18.8402C66.2258 17.5753 65.71 15.9689 65.71 14.021C65.71 11.7822 66.3812 10.0113 67.7235 8.70851C68.8794 7.58277 70.3585 7.0199 72.1607 7.0199ZM72.1421 8.55673C70.6257 8.55673 69.4263 9.1196 68.5439 10.2453C67.7857 11.2319 67.4066 12.4905 67.4066 14.021C67.4066 15.7792 67.8975 17.1642 68.8794 18.1761C69.737 19.0489 70.8246 19.4853 72.1421 19.4853C73.6708 19.4853 74.8765 18.9224 75.7589 17.7967C76.5171 16.8101 76.8962 15.5515 76.8962 14.021C76.8962 12.2628 76.4052 10.8778 75.4233 9.86588C74.5657 8.99311 73.472 8.55673 72.1421 8.55673Z" fill="#5F646E"/>
<path d="M93.8066 13.6605L93.8013 14.2504L93.7778 14.8421L93.7374 15.3543L93.6679 15.8286L93.6242 16.0824L93.5751 16.3261L93.4804 16.73L93.3728 17.1003L93.2684 17.3988L93.1478 17.7035L92.9991 18.0348C92.8799 18.2515 92.7664 18.4723 92.6278 18.6772C92.6172 18.6929 92.6081 18.7055 92.6013 18.7136C92.5546 18.7694 92.3602 19.0428 92.3602 19.0428C91.2938 20.3587 89.7038 21.0406 87.7474 21.0221C85.791 21.0036 84.2673 20.2948 83.1238 18.8402C82.1295 17.5627 81.6323 15.9689 81.6323 14.0589C81.6323 11.5671 82.434 9.65085 84.0374 8.31007C85.0814 7.44996 86.4175 7.0199 88.0457 7.0199C89.9722 7.0199 91.4513 7.61439 92.4829 8.80338C93.0422 9.44847 93.4213 10.2833 93.6202 11.3078H91.8863C91.6999 10.4477 91.2649 9.77733 90.5813 9.29668C89.8977 8.80338 89.0401 8.55673 88.0085 8.55673C86.5045 8.55673 85.3176 9.11327 84.4475 10.2264C83.7018 11.2003 83.3289 12.4462 83.3289 13.9641C83.3289 15.7349 83.8012 17.1326 84.7458 18.1572C85.5661 19.0426 86.691 19.4853 88.1203 19.4853C89.4129 19.4853 90.457 19.0552 91.2524 18.1951C91.9485 17.4362 92.2965 16.5128 92.2965 15.425V15.1973H88.2322V13.6605H93.8066Z" fill="#5F646E"/>
<path d="M105.227 16.7342L100.511 15.2732L100.082 16.7342L98.6649 20.8134H96.8565L101.611 7.2286H103.811L108.49 20.8134H106.607L105.227 16.7342ZM104.743 15.2732L102.692 9.10695L100.511 15.2732L105.227 16.7342L104.743 15.2732Z" fill="#5F646E"/>
<path d="M118.372 15.4819V20.8134H116.675V15.4819L111.53 7.2286H113.618L117.552 13.8502L121.355 7.2286H123.387L118.372 15.4819Z" fill="#5F646E"/>
<path d="M136.881 7.2286V20.8134H134.979L128.062 9.78998V20.8134H126.459V7.2286H128.305L135.277 18.3279V7.2286H136.881Z" fill="#5F646E"/>
<path d="M144.769 16.4691C144.933 16.4691 145.083 16.4219 145.218 16.3275C145.354 16.2332 145.479 16.117 145.593 15.9791C145.707 15.8484 145.807 15.7033 145.892 15.5436C145.985 15.3912 146.064 15.2532 146.128 15.1298C146.092 15.1444 146.032 15.1698 145.946 15.2061C145.86 15.2496 145.768 15.2968 145.668 15.3476C145.575 15.4057 145.486 15.4601 145.4 15.5109C145.315 15.5617 145.254 15.598 145.218 15.6198C145.126 15.6779 145.022 15.7541 144.908 15.8484C144.801 15.9501 144.712 16.0444 144.641 16.1315C144.577 16.2259 144.548 16.3057 144.555 16.3711C144.562 16.4364 144.634 16.4691 144.769 16.4691ZM144.427 14.4439C144.427 14.1681 144.437 13.8269 144.459 13.4204C144.48 13.0067 144.512 12.5821 144.555 12.1465C144.598 11.711 144.655 11.2937 144.726 10.8944C144.798 10.488 144.883 10.1577 144.983 9.90363C145.04 9.75846 145.094 9.66047 145.144 9.60966C145.193 9.55159 145.24 9.52255 145.283 9.52255C145.333 9.52255 145.372 9.54796 145.4 9.59877C145.429 9.64958 145.44 9.69313 145.432 9.72942C145.432 9.74394 145.422 9.78386 145.4 9.84919C145.386 9.90726 145.375 9.9617 145.368 10.0125C145.311 10.2375 145.251 10.5388 145.186 10.9162C145.122 11.2864 145.062 11.6747 145.004 12.0812C144.955 12.4804 144.912 12.8688 144.876 13.2462C144.848 13.6164 144.833 13.9104 144.833 14.1282L145.069 13.7362C145.126 13.6128 145.208 13.4894 145.315 13.366C145.429 13.2063 145.554 13.0829 145.689 12.9958C145.832 12.9014 145.975 12.8543 146.117 12.8543C146.345 12.8543 146.527 12.9777 146.663 13.2245C146.784 13.464 146.834 13.6781 146.813 13.8668C146.791 14.0556 146.78 14.2334 146.78 14.4004C146.88 14.3423 146.962 14.2987 147.027 14.2697C147.098 14.2334 147.162 14.1971 147.219 14.1608C147.283 14.1245 147.348 14.0846 147.412 14.0411C147.483 13.9975 147.565 13.9394 147.658 13.8668C147.708 13.8306 147.772 13.7797 147.85 13.7144C147.929 13.6418 148.007 13.5729 148.086 13.5075C148.164 13.4422 148.232 13.3841 148.289 13.3333C148.353 13.2825 148.396 13.2571 148.417 13.2571C148.524 13.2571 148.581 13.2825 148.589 13.3333C148.596 13.3769 148.578 13.4277 148.535 13.4858C148.499 13.5438 148.453 13.5983 148.396 13.6491C148.346 13.6999 148.314 13.7289 148.3 13.7362C148.221 13.8233 148.139 13.8995 148.054 13.9648C147.968 14.0302 147.882 14.1027 147.797 14.1826C147.711 14.2479 147.604 14.3169 147.476 14.3895C147.355 14.4621 147.233 14.5346 147.112 14.6072C146.998 14.6798 146.895 14.7451 146.802 14.8032C146.716 14.854 146.666 14.8903 146.652 14.9121C146.631 14.9484 146.595 15.0319 146.545 15.1625C146.502 15.2932 146.438 15.442 146.353 15.6089C146.267 15.7759 146.156 15.9428 146.021 16.1098C145.885 16.284 145.718 16.4328 145.518 16.5562C145.268 16.7159 145.015 16.7957 144.758 16.7957C144.609 16.7957 144.48 16.7558 144.373 16.6759C144.266 16.6033 144.213 16.4836 144.213 16.3166C144.213 16.1569 144.284 15.9973 144.427 15.8376C144.577 15.6851 144.751 15.54 144.951 15.402C145.151 15.2641 145.354 15.1407 145.561 15.0319C145.775 14.9157 145.946 14.825 146.074 14.7597C146.174 14.7088 146.235 14.6762 146.256 14.6617C146.285 14.6471 146.313 14.5782 146.342 14.4548C146.377 14.3024 146.399 14.1536 146.406 14.0084C146.413 13.856 146.406 13.7217 146.385 13.6055C146.363 13.4894 146.324 13.395 146.267 13.3224C146.217 13.2499 146.153 13.2136 146.074 13.2136C145.939 13.2136 145.768 13.3333 145.561 13.5729C145.425 13.7398 145.311 13.9177 145.218 14.1064C145.133 14.2951 145.054 14.4729 144.983 14.6399C144.919 14.7996 144.862 14.9339 144.812 15.0427C144.762 15.1516 144.712 15.2061 144.662 15.2061C144.591 15.2061 144.537 15.1807 144.502 15.1298C144.466 15.079 144.441 15.0173 144.427 14.9448C144.42 14.8649 144.416 14.7814 144.416 14.6943C144.423 14.6 144.427 14.5165 144.427 14.4439Z" fill="#5F646E"/>
<path d="M148.325 19.4959C148.475 19.4959 148.614 19.4596 148.742 19.387C148.878 19.3144 148.999 19.2201 149.106 19.1039C149.22 18.9951 149.32 18.8753 149.406 18.7446C149.491 18.614 149.566 18.4906 149.63 18.3745C149.709 18.222 149.794 18.0006 149.887 17.7103C149.987 17.4272 150.08 17.1223 150.165 16.7957C150.251 16.4763 150.322 16.1678 150.379 15.8702C150.444 15.5726 150.483 15.3403 150.497 15.1734C150.411 15.2315 150.333 15.2859 150.262 15.3367L149.213 16.284C149.178 16.313 149.145 16.3457 149.117 16.382C149.095 16.4255 149.063 16.4654 149.021 16.5017C148.849 16.6759 148.696 16.8501 148.561 17.0243C148.425 17.1986 148.29 17.3909 148.154 17.6014C148.09 17.6958 148.022 17.8155 147.951 17.9607C147.872 18.1059 147.812 18.2583 147.769 18.418C147.726 18.585 147.712 18.7483 147.726 18.908C147.733 19.0677 147.79 19.2056 147.897 19.3217C147.99 19.4378 148.133 19.4959 148.325 19.4959ZM148.571 14.1717C148.707 14.0991 148.867 13.9394 149.053 13.6926C149.245 13.4386 149.438 13.1591 149.63 12.8543C149.823 12.5494 150.001 12.2518 150.165 11.9615C150.337 11.6638 150.469 11.4352 150.561 11.2755C150.647 11.1303 150.704 11.036 150.732 10.9924C150.768 10.9416 150.843 10.9162 150.957 10.9162C151.014 10.9162 151.057 10.9598 151.085 11.0469C151.114 11.134 151.135 11.2356 151.15 11.3517C151.164 11.4606 151.171 11.5731 151.171 11.6893C151.171 11.7981 151.171 11.8816 151.171 11.9397V12.778C151.171 12.916 151.164 13.0611 151.15 13.2136C151.143 13.3587 151.132 13.5039 151.118 13.6491C151.11 13.787 151.1 13.9177 151.085 14.0411C151.078 14.1572 151.075 14.2552 151.075 14.335L152.605 13.4313C152.619 13.4168 152.648 13.395 152.69 13.366C152.733 13.337 152.779 13.3079 152.829 13.2789C152.879 13.2499 152.929 13.2245 152.979 13.2027C153.029 13.1736 153.075 13.1591 153.118 13.1591C153.182 13.1591 153.215 13.199 153.215 13.2789C153.215 13.3224 153.179 13.3733 153.108 13.4313C153.036 13.4894 152.951 13.5511 152.851 13.6164C152.758 13.6745 152.669 13.7289 152.583 13.7797C152.498 13.8233 152.437 13.856 152.401 13.8777C152.18 14.0011 151.959 14.1354 151.738 14.2806C151.524 14.4185 151.314 14.56 151.107 14.7052C151.05 14.7415 151.021 14.7742 151.021 14.8032C151.021 14.825 151.014 14.8758 151 14.9556C150.964 15.2242 150.914 15.5218 150.85 15.8484C150.786 16.1751 150.711 16.5017 150.625 16.8284C150.54 17.1623 150.44 17.478 150.326 17.7756C150.219 18.0805 150.101 18.3418 149.973 18.5595C149.894 18.712 149.798 18.8608 149.684 19.006C149.57 19.1584 149.441 19.2927 149.299 19.4088C149.163 19.5322 149.013 19.6302 148.849 19.7028C148.693 19.7754 148.525 19.8117 148.347 19.8117C148.083 19.8117 147.862 19.7209 147.683 19.5395C147.505 19.358 147.416 19.1039 147.416 18.7773C147.416 18.4797 147.512 18.1494 147.705 17.7865C147.89 17.4308 148.118 17.0824 148.389 16.7413C148.668 16.4001 148.96 16.0807 149.267 15.7831C149.573 15.4928 149.844 15.2641 150.08 15.0972C150.115 15.0609 150.148 15.0355 150.176 15.021C150.205 15.0064 150.24 14.981 150.283 14.9448C150.383 14.8576 150.454 14.7996 150.497 14.7705C150.547 14.7415 150.575 14.6762 150.583 14.5746C150.618 14.2987 150.647 14.0411 150.668 13.8015C150.697 13.5547 150.722 13.3116 150.743 13.072C150.765 12.8325 150.779 12.5857 150.786 12.3316C150.8 12.0703 150.807 11.7836 150.807 11.4715C150.786 11.486 150.725 11.5731 150.625 11.7328C150.526 11.8925 150.415 12.074 150.294 12.2772C150.18 12.4732 150.069 12.6619 149.962 12.8434C149.855 13.0248 149.78 13.1482 149.737 13.2136C149.63 13.3878 149.498 13.5946 149.342 13.8342C149.192 14.0665 149.046 14.2516 148.903 14.3895C148.767 14.5129 148.643 14.5746 148.528 14.5746C148.407 14.5746 148.307 14.5201 148.229 14.4112C148.158 14.2951 148.122 14.1427 148.122 13.9539C148.122 13.8378 148.136 13.6926 148.165 13.5184C148.2 13.337 148.243 13.1664 148.293 13.0067C148.35 12.8397 148.414 12.6982 148.486 12.5821C148.564 12.4587 148.646 12.397 148.732 12.397C148.853 12.397 148.91 12.4405 148.903 12.5276C148.903 12.6147 148.878 12.7381 148.828 12.8978C148.778 13.0502 148.721 13.2353 148.657 13.4531C148.6 13.6709 148.571 13.9104 148.571 14.1717Z" fill="#5F646E"/>
<path d="M158.326 16.2078C158.683 16.2078 159.029 16.1424 159.364 16.0118C159.707 15.8884 160.028 15.7214 160.327 15.5109C160.627 15.3077 160.901 15.079 161.151 14.825C161.408 14.5709 161.629 14.3132 161.814 14.0519C162.035 13.7689 162.235 13.4567 162.413 13.1156C162.599 12.7744 162.756 12.4224 162.884 12.0594C163.013 11.6893 163.112 11.3154 163.184 10.938C163.255 10.5605 163.291 10.194 163.291 9.8383C163.291 9.5407 163.259 9.25761 163.194 8.98904C163.13 8.72047 163.038 8.48457 162.916 8.28133C162.802 8.07809 162.656 7.9184 162.478 7.80226C162.306 7.67886 162.107 7.61716 161.879 7.61716C161.55 7.61716 161.244 7.72241 160.958 7.93291C160.673 8.13615 160.413 8.38658 160.177 8.68418C159.942 8.98179 159.735 9.30116 159.557 9.64232C159.379 9.98348 159.239 10.2847 159.14 10.546L158.722 11.6784C158.594 12.0703 158.469 12.4804 158.348 12.9087C158.227 13.3297 158.127 13.7362 158.048 14.1282C158.034 14.2225 158.009 14.3641 157.973 14.5528C157.938 14.7415 157.902 14.9375 157.866 15.1407C157.831 15.344 157.799 15.5327 157.77 15.7069C157.742 15.8884 157.727 16.019 157.727 16.0989C157.784 16.1352 157.874 16.1606 157.995 16.1751C158.116 16.1969 158.227 16.2078 158.326 16.2078ZM157.727 13.9322C157.727 13.9249 157.727 13.9213 157.727 13.9213C157.734 13.9213 157.738 13.9177 157.738 13.9104L157.866 13.3878C157.952 13.0031 158.07 12.5675 158.22 12.0812C158.369 11.5949 158.54 11.1086 158.733 10.6222C158.926 10.1286 159.14 9.66773 159.375 9.23947C159.617 8.80395 159.874 8.44828 160.145 8.17245C160.402 7.91114 160.662 7.68975 160.926 7.50828C161.19 7.32682 161.515 7.23608 161.9 7.23608C162.192 7.23608 162.456 7.3123 162.692 7.46473C162.927 7.6099 163.127 7.81315 163.291 8.07446C163.483 8.38658 163.608 8.73136 163.665 9.10881C163.729 9.48626 163.747 9.87097 163.719 10.2629C163.69 10.6549 163.626 11.0396 163.526 11.4171C163.433 11.7945 163.33 12.1357 163.216 12.4405C162.973 13.1083 162.617 13.7471 162.146 14.3568C161.682 14.9593 161.162 15.4601 160.584 15.8593C160.456 15.9392 160.306 16.0227 160.135 16.1098C159.963 16.2041 159.778 16.2876 159.578 16.3602C159.386 16.44 159.186 16.5017 158.979 16.5453C158.772 16.5961 158.565 16.6215 158.359 16.6215C158.187 16.6215 158.048 16.6033 157.941 16.5671C157.841 16.538 157.742 16.5199 157.642 16.5126L157.492 18.2874C157.485 18.3527 157.474 18.4507 157.46 18.5813C157.453 18.7192 157.446 18.8644 157.438 19.0168C157.438 19.1693 157.435 19.3144 157.428 19.4524C157.421 19.5903 157.414 19.6992 157.406 19.779C157.392 19.9097 157.381 20.0367 157.374 20.1601C157.374 20.2907 157.367 20.4032 157.353 20.4976C157.346 20.5992 157.324 20.6791 157.289 20.7371C157.26 20.7952 157.214 20.8242 157.15 20.8242C157.093 20.8242 157.036 20.8097 156.978 20.7807C156.95 20.6718 156.932 20.4831 156.925 20.2145C156.925 19.9459 156.929 19.6592 156.936 19.3544C156.943 19.0495 156.95 18.7555 156.957 18.4724C156.971 18.1966 156.978 17.9897 156.978 17.8518C156.978 17.6921 156.982 17.5506 156.989 17.4272C157.003 17.3111 157.011 17.1804 157.011 17.0352C157.011 16.8683 157.014 16.7304 157.021 16.6215C157.028 16.5126 157.032 16.3856 157.032 16.2404C156.996 16.2041 156.953 16.1715 156.904 16.1424C156.861 16.1206 156.818 16.0916 156.775 16.0553C156.647 15.961 156.586 15.8666 156.593 15.7722C156.6 15.6779 156.643 15.6307 156.722 15.6307C156.772 15.6307 156.814 15.6452 156.85 15.6742C156.9 15.7033 156.939 15.7287 156.968 15.7505C156.996 15.7722 157.018 15.7831 157.032 15.7831C157.06 15.7831 157.071 15.7432 157.064 15.6634C157.064 15.5908 157.068 15.4492 157.075 15.2387C157.075 15.1444 157.078 15.079 157.085 15.0427C157.1 15.0064 157.107 14.9448 157.107 14.8576C157.114 14.7851 157.114 14.7125 157.107 14.6399C157.1 14.56 157.103 14.4838 157.118 14.4112C157.125 14.3314 157.132 14.2697 157.139 14.2261C157.146 14.1753 157.15 14.0991 157.15 13.9975C157.15 13.8306 157.153 13.6382 157.16 13.4204C157.167 13.2027 157.178 12.9813 157.192 12.7563C157.207 12.524 157.217 12.299 157.225 12.0812C157.239 11.8562 157.246 11.6566 157.246 11.4824C157.246 11.3372 157.249 11.1412 157.257 10.8944C157.271 10.6476 157.278 10.3936 157.278 10.1323C157.278 9.86371 157.271 9.60966 157.257 9.37012C157.242 9.13059 157.207 8.95275 157.15 8.83661C157.093 8.87291 157.036 8.9346 156.978 9.02171C156.921 9.10881 156.868 9.20317 156.818 9.30479C156.768 9.40641 156.722 9.51166 156.679 9.62054C156.643 9.72217 156.608 9.8129 156.572 9.89274C156.508 10.0742 156.451 10.292 156.401 10.546C156.351 10.7928 156.308 11.0106 156.272 11.1993C156.237 11.4461 156.226 11.7001 156.24 11.9615C156.254 12.2155 156.279 12.4514 156.315 12.6692C156.351 12.8506 156.39 12.9922 156.433 13.0938C156.476 13.1882 156.515 13.2607 156.55 13.3116C156.593 13.3624 156.629 13.3987 156.657 13.4204C156.693 13.435 156.718 13.4567 156.732 13.4858C156.768 13.5438 156.772 13.5946 156.743 13.6382C156.715 13.6745 156.672 13.6926 156.615 13.6926C156.55 13.6926 156.472 13.66 156.379 13.5946C156.294 13.5221 156.212 13.3914 156.133 13.2027C156.055 12.9849 156.005 12.7962 155.983 12.6365C155.962 12.4696 155.937 12.2736 155.909 12.0486C155.894 11.976 155.894 11.9179 155.909 11.8743C155.923 11.8235 155.93 11.751 155.93 11.6566C155.93 11.2574 155.969 10.869 156.048 10.4916C156.133 10.1141 156.244 9.7512 156.379 9.40279C156.408 9.32294 156.447 9.22858 156.497 9.1197C156.554 9.00356 156.615 8.89105 156.679 8.78217C156.75 8.67329 156.825 8.58256 156.904 8.50997C156.982 8.43013 157.064 8.39021 157.15 8.39021C157.299 8.39021 157.417 8.45553 157.503 8.58619C157.588 8.71684 157.652 8.88016 157.695 9.07615C157.738 9.27213 157.763 9.48263 157.77 9.70765C157.777 9.93267 157.781 10.1359 157.781 10.3174C157.781 10.9489 157.77 11.5622 157.749 12.1574C157.734 12.7526 157.727 13.3442 157.727 13.9322Z" fill="#5F646E"/>
<path d="M164.193 13.1591C164.257 13.1228 164.328 13.0793 164.407 13.0285C164.492 12.9777 164.571 12.9232 164.642 12.8652C164.713 12.7998 164.774 12.7309 164.824 12.6583C164.874 12.5784 164.902 12.495 164.909 12.4079C164.838 12.4224 164.763 12.4587 164.685 12.5167C164.606 12.5675 164.535 12.6292 164.471 12.7018C164.407 12.7744 164.35 12.8543 164.3 12.9414C164.25 13.0212 164.214 13.0938 164.193 13.1591ZM163.711 13.4204C163.711 13.2825 163.747 13.1374 163.818 12.9849C163.89 12.8252 163.979 12.6801 164.086 12.5494C164.193 12.4115 164.314 12.299 164.449 12.2119C164.585 12.1175 164.717 12.0703 164.845 12.0703C165.081 12.0703 165.202 12.1611 165.209 12.3425C165.223 12.524 165.148 12.72 164.984 12.9305C164.899 13.0321 164.77 13.1446 164.599 13.268C164.428 13.3841 164.26 13.4495 164.096 13.464C164.096 13.5801 164.1 13.6854 164.107 13.7797C164.114 13.8668 164.164 13.9576 164.257 14.0519C164.35 14.1463 164.467 14.1935 164.61 14.1935C164.703 14.1935 164.799 14.1753 164.899 14.139C164.999 14.1027 165.095 14.0628 165.188 14.0193C165.28 13.9685 165.366 13.9177 165.444 13.8668C165.53 13.8088 165.598 13.758 165.648 13.7144C165.691 13.6781 165.723 13.6491 165.744 13.6273C165.773 13.6055 165.805 13.5801 165.84 13.5511C165.947 13.464 166.022 13.395 166.065 13.3442C166.115 13.2934 166.151 13.2535 166.172 13.2245C166.2 13.1954 166.229 13.1773 166.258 13.17C166.293 13.1628 166.35 13.1591 166.429 13.1591C166.443 13.239 166.447 13.2934 166.439 13.3224C166.439 13.3515 166.414 13.395 166.365 13.4531C166.265 13.5547 166.147 13.6672 166.011 13.7906C165.876 13.914 165.726 14.0302 165.562 14.139C165.405 14.2479 165.241 14.3387 165.07 14.4112C164.906 14.4838 164.742 14.5201 164.578 14.5201C164.335 14.5201 164.128 14.433 163.957 14.2588C163.829 14.1282 163.754 13.9939 163.733 13.856C163.718 13.718 163.711 13.5729 163.711 13.4204Z" fill="#5F646E"/>
<path d="M162.948 10.2738C162.948 10.194 163.013 10.1105 163.141 10.0234C163.262 9.93629 163.419 9.84919 163.612 9.76209C163.804 9.67498 164.018 9.59151 164.254 9.51166C164.489 9.43182 164.721 9.35923 164.949 9.29391C165.177 9.22132 165.388 9.15962 165.58 9.10881C165.773 9.058 165.919 9.01808 166.019 8.98904C166.133 8.96001 166.219 8.94186 166.276 8.9346C166.333 8.92009 166.376 8.90557 166.404 8.89105C166.433 8.86928 166.451 8.84024 166.458 8.80395C166.472 8.7604 166.49 8.69144 166.511 8.59708C166.568 8.29947 166.632 8.09623 166.704 7.98735C166.782 7.87121 166.857 7.81314 166.928 7.81314C166.986 7.81314 167.032 7.84581 167.068 7.91114C167.11 7.96921 167.132 8.04179 167.132 8.1289C167.132 8.19422 167.128 8.22326 167.121 8.216C167.114 8.20148 167.114 8.22326 167.121 8.28133C167.121 8.29584 167.121 8.31399 167.121 8.33577C167.128 8.35754 167.132 8.38658 167.132 8.42287C167.132 8.49546 167.121 8.53901 167.1 8.55353C167.078 8.56078 167.053 8.56804 167.025 8.5753C166.996 8.5753 166.971 8.58619 166.95 8.60797C166.928 8.62974 166.918 8.68418 166.918 8.77128C167.003 8.77128 167.096 8.7604 167.196 8.73862C167.303 8.71684 167.396 8.6987 167.474 8.68418C167.788 8.62611 168.102 8.5753 168.416 8.53175C168.729 8.48094 169.05 8.45553 169.378 8.45553C169.507 8.45553 169.607 8.47731 169.678 8.52086C169.756 8.56441 169.806 8.61522 169.828 8.67329C169.849 8.7241 169.842 8.77491 169.806 8.82572C169.771 8.86928 169.703 8.89105 169.603 8.89105C169.589 8.83298 169.578 8.80758 169.571 8.81484C169.571 8.81484 169.539 8.80758 169.475 8.79306C169.446 8.7858 169.389 8.78217 169.304 8.78217C169.154 8.78217 168.954 8.80032 168.704 8.83661C168.455 8.86565 168.202 8.90194 167.945 8.94549C167.688 8.98904 167.453 9.0326 167.239 9.07615C167.032 9.11244 166.896 9.13785 166.832 9.15236L166.618 11.3844C166.611 11.4352 166.607 11.4896 166.607 11.5477C166.615 11.6058 166.618 11.6638 166.618 11.7219C166.618 11.7945 166.611 11.8417 166.597 11.8635C166.59 11.8852 166.586 11.936 166.586 12.0159C166.586 12.1756 166.59 12.3607 166.597 12.5712C166.604 12.7744 166.6 12.9341 166.586 13.0502C166.579 13.1301 166.572 13.3079 166.565 13.5838C166.558 13.8596 166.554 14.1608 166.554 14.4875C166.554 14.8068 166.554 15.1153 166.554 15.4129C166.554 15.7105 166.558 15.9174 166.565 16.0335C166.565 16.0989 166.572 16.186 166.586 16.2949C166.6 16.411 166.607 16.5235 166.607 16.6324C166.615 16.7413 166.607 16.8356 166.586 16.9155C166.565 16.9953 166.518 17.0352 166.447 17.0352C166.376 17.0352 166.319 17.0135 166.276 16.9699C166.24 16.9264 166.212 16.8719 166.19 16.8066C166.176 16.7413 166.165 16.6687 166.158 16.5888C166.158 16.5162 166.158 16.4473 166.158 16.382C166.144 16.186 166.133 15.961 166.126 15.7069C166.119 15.4601 166.115 15.2061 166.115 14.9448C166.115 14.6834 166.115 14.4294 166.115 14.1826C166.122 13.9285 166.126 13.7035 166.126 13.5075L166.158 12.9958C166.158 12.8942 166.158 12.7381 166.158 12.5276C166.158 12.3099 166.162 12.0885 166.169 11.8635C166.176 11.6312 166.183 11.4171 166.19 11.2211C166.197 11.0178 166.208 10.8763 166.222 10.7964C166.237 10.7239 166.244 10.6368 166.244 10.5351C166.251 10.4335 166.258 10.3464 166.265 10.2738L166.361 9.26124C166.326 9.27576 166.262 9.29391 166.169 9.31568C166.076 9.3302 166.001 9.34472 165.944 9.35923C165.588 9.44634 165.252 9.5407 164.938 9.64232C164.625 9.73668 164.3 9.84919 163.965 9.97985C163.901 10.0089 163.844 10.0415 163.794 10.0778C163.737 10.1069 163.676 10.1359 163.612 10.1649C163.548 10.194 163.501 10.2158 163.473 10.2303C163.444 10.2375 163.426 10.2484 163.419 10.2629C163.412 10.2775 163.405 10.2992 163.398 10.3283C163.391 10.35 163.376 10.3863 163.355 10.4371C163.284 10.4517 163.223 10.4589 163.173 10.4589C163.116 10.4589 163.066 10.448 163.023 10.4263C162.973 10.4045 162.948 10.3537 162.948 10.2738Z" fill="#5F646E"/>
<path d="M167.283 15.0863C167.233 15.0863 167.197 15.0573 167.176 14.9992C167.154 14.9411 167.14 14.8794 167.133 14.8141C167.133 14.7415 167.137 14.6726 167.144 14.6072C167.151 14.5419 167.154 14.4983 167.154 14.4766C167.147 14.3459 167.144 14.2153 167.144 14.0846C167.151 13.9467 167.151 13.8088 167.144 13.6709C167.144 13.62 167.144 13.5221 167.144 13.3769C167.151 13.2317 167.162 13.0829 167.176 12.9305C167.197 12.778 167.226 12.6438 167.261 12.5276C167.297 12.4042 167.343 12.3425 167.4 12.3425C167.543 12.3425 167.614 12.3897 167.614 12.4841C167.622 12.5784 167.618 12.7018 167.604 12.8543C167.597 12.9123 167.593 12.9704 167.593 13.0285C167.593 13.0865 167.593 13.1446 167.593 13.2027C167.593 13.2825 167.59 13.3333 167.582 13.3551C167.575 13.3696 167.572 13.4132 167.572 13.4858C167.65 13.4277 167.721 13.3624 167.786 13.2898C167.85 13.2099 167.964 13.17 168.128 13.17C168.178 13.17 168.242 13.17 168.321 13.17C168.406 13.1628 168.495 13.1591 168.588 13.1591C168.745 13.1591 168.891 13.17 169.027 13.1918C169.162 13.2063 169.23 13.2499 169.23 13.3224C169.23 13.4023 169.191 13.4531 169.112 13.4749C169.041 13.4894 168.952 13.4967 168.845 13.4967C168.774 13.4967 168.699 13.4967 168.62 13.4967C168.549 13.4894 168.485 13.4858 168.428 13.4858C168.328 13.4858 168.246 13.4894 168.182 13.4967C168.117 13.4967 168.064 13.5075 168.021 13.5293C167.978 13.5438 167.939 13.5692 167.903 13.6055C167.875 13.6418 167.839 13.6963 167.796 13.7689C167.739 13.8632 167.689 13.9648 167.647 14.0737C167.604 14.1826 167.572 14.3024 167.55 14.433C167.536 14.5056 167.529 14.5818 167.529 14.6617C167.529 14.7342 167.525 14.8032 167.518 14.8685C167.511 14.9339 167.49 14.9883 167.454 15.0319C167.425 15.0681 167.368 15.0863 167.283 15.0863Z" fill="#5F646E"/>
<path d="M168.813 14.0302C168.813 13.8777 168.848 13.689 168.92 13.464C168.998 13.2317 169.098 13.0103 169.219 12.7998C169.348 12.5821 169.494 12.4006 169.658 12.2554C169.829 12.103 170.007 12.0268 170.193 12.0268C170.321 12.0268 170.432 12.0594 170.525 12.1248C170.617 12.1901 170.689 12.2627 170.738 12.3425C170.788 12.4151 170.81 12.4841 170.803 12.5494C170.803 12.6147 170.767 12.6474 170.696 12.6474C170.617 12.6474 170.542 12.6075 170.471 12.5276C170.4 12.4405 170.314 12.397 170.214 12.397C170.136 12.397 170.039 12.4442 169.925 12.5385C169.818 12.6329 169.686 12.818 169.53 13.0938C169.458 13.2099 169.39 13.3624 169.326 13.5511C169.269 13.7326 169.241 13.914 169.241 14.0955C169.255 14.081 169.258 14.0773 169.251 14.0846C169.251 14.0919 169.266 14.0773 169.294 14.0411L169.38 13.9104C169.437 13.8233 169.501 13.7108 169.572 13.5729C169.651 13.4277 169.726 13.2898 169.797 13.1591C169.875 13.0212 169.947 12.9014 170.011 12.7998C170.082 12.6982 170.136 12.6474 170.171 12.6474C170.264 12.6474 170.325 12.6764 170.353 12.7345C170.389 12.7853 170.41 12.8543 170.418 12.9414C170.425 13.0285 170.428 13.1265 170.428 13.2353C170.428 13.3442 170.439 13.4495 170.46 13.5511C170.503 13.7471 170.567 13.8922 170.653 13.9866C170.746 14.0737 170.849 14.1173 170.963 14.1173C171.163 14.1173 171.384 13.9939 171.626 13.7471C171.726 13.6527 171.794 13.5765 171.83 13.5184C171.873 13.4531 171.933 13.3805 172.012 13.3007C172.062 13.2281 172.126 13.1918 172.204 13.1918C172.247 13.1918 172.279 13.2099 172.301 13.2462C172.322 13.2753 172.325 13.3261 172.311 13.3987C172.297 13.464 172.254 13.5475 172.183 13.6491C172.119 13.7507 172.019 13.8668 171.883 13.9975L171.562 14.2588C171.355 14.404 171.156 14.4766 170.963 14.4766C170.828 14.4766 170.706 14.4439 170.599 14.3786C170.492 14.3132 170.4 14.2334 170.321 14.139C170.25 14.0374 170.193 13.9249 170.15 13.8015C170.107 13.6781 170.086 13.5584 170.086 13.4422C170.036 13.4785 169.979 13.562 169.915 13.6926C169.85 13.816 169.779 13.9467 169.701 14.0846C169.629 14.2153 169.554 14.335 169.476 14.4439C169.398 14.5528 169.319 14.6072 169.241 14.6072C169.041 14.6072 168.92 14.56 168.877 14.4657C168.834 14.3713 168.813 14.2261 168.813 14.0302Z" fill="#5F646E"/>
<path d="M0.241333 13.4632V12.6077L43.3519 12.6089V13.4632H0.241333Z" fill="#5F646E"/>
<path d="M34.9536 13.6458C35.0733 17.2796 33.8565 20.4262 31.5625 23.187C30.3656 24.6487 28.8695 25.8058 27.174 26.6178C25.4784 27.4095 23.6432 27.8358 21.788 27.8358C19.9329 27.8358 18.0777 27.4298 16.4021 26.6178C14.7065 25.8261 13.2105 24.6487 12.0136 23.187C9.71958 20.4059 8.50275 17.2796 8.62244 13.6458C8.62244 10.0932 10.0188 6.68273 12.4724 4.16547C14.9459 1.64821 18.2972 0.227173 21.788 0.227173C25.2789 0.227173 28.6302 1.64821 31.1037 4.14517C33.5772 6.68273 34.9536 10.0932 34.9536 13.6458ZM34.4948 13.6458C34.4749 11.0879 33.7169 8.59097 32.3205 6.45942C30.9242 4.32787 28.9294 2.66323 26.6154 1.68881C24.3015 0.714384 21.7282 0.430178 19.2746 0.91739C16.8011 1.4046 14.527 2.62263 12.7317 4.40907C11.5548 5.6271 10.6172 7.06844 9.99884 8.65187C9.38046 10.2353 9.0613 11.9406 9.08124 13.6458C9.16104 15.3307 9.59989 16.9751 10.3579 18.4773C11.1159 19.9795 12.1532 21.2991 13.4498 22.3547C15.8635 24.3847 18.8956 25.481 22.0075 25.4404C25.1193 25.481 28.1315 24.3847 30.5252 22.3547C31.742 21.2585 32.7195 19.9186 33.4176 18.4164C34.0759 16.9345 34.4549 15.2901 34.4948 13.6458Z" fill="#5F646E"/>
<path d="M4.41678 11.9938C5.1349 11.9938 5.73334 11.3847 5.73334 10.6539C5.73334 9.9231 5.1349 9.31409 4.41678 9.31409C3.69866 9.31409 3.10022 9.9231 3.10022 10.6539C3.10022 11.3847 3.67871 11.9938 4.41678 11.9938Z" fill="#5F646E"/>
<path d="M39.104 16.7593C39.8222 16.7593 40.4206 16.1502 40.4206 15.4194C40.4206 14.6886 39.8222 14.0796 39.104 14.0796C38.3859 14.0796 37.7875 14.6886 37.7875 15.4194C37.7875 16.1705 38.3859 16.7593 39.104 16.7593Z" fill="#5F646E"/>
</svg>
