<svg width="24" height="24" viewBox="0 0 24 24" fill="none" xmlns="http://www.w3.org/2000/svg">
<g clip-path="url(#clip0_1_1577)">
<path d="M16 3.04004C17.3261 3.04004 18.5979 3.56682 19.5355 4.50451C20.4732 5.44219 21 6.71396 21 8.04004V16.04C21 17.3661 20.4732 18.6379 19.5355 19.5756C18.5979 20.5133 17.3261 21.04 16 21.04H8C6.67392 21.04 5.40215 20.5133 4.46447 19.5756C3.52678 18.6379 3 17.3661 3 16.04V8.04004C3 6.71396 3.52678 5.44219 4.46447 4.50451C5.40215 3.56682 6.67392 3.04004 8 3.04004H16ZM12 8.04004C10.9738 8.04004 9.98677 8.43447 9.24319 9.14176C8.4996 9.84905 8.05631 10.8151 8.005 11.84L8 12.04C8 12.8312 8.2346 13.6045 8.67412 14.2623C9.11365 14.9201 9.73836 15.4328 10.4693 15.7356C11.2002 16.0383 12.0044 16.1175 12.7804 15.9632C13.5563 15.8088 14.269 15.4279 14.8284 14.8685C15.3878 14.3091 15.7688 13.5963 15.9231 12.8204C16.0775 12.0445 15.9983 11.2402 15.6955 10.5093C15.3928 9.7784 14.8801 9.15369 14.2223 8.71416C13.5645 8.27464 12.7911 8.04004 12 8.04004ZM16.5 6.54004C16.2551 6.54007 16.0187 6.63 15.8356 6.79275C15.6526 6.95551 15.5357 7.17979 15.507 7.42304L15.5 7.55004C15.5003 7.80492 15.5979 8.05007 15.7728 8.23541C15.9478 8.42074 16.187 8.53227 16.4414 8.54721C16.6958 8.56215 16.9464 8.47936 17.1418 8.31577C17.3373 8.15218 17.4629 7.92013 17.493 7.66704L17.5 7.54004C17.5 7.27482 17.3946 7.02047 17.2071 6.83293C17.0196 6.6454 16.7652 6.54004 16.5 6.54004Z" fill="#151515"/>
</g>
<defs>
<clipPath id="clip0_1_1577">
<rect width="24" height="24" fill="white"/>
</clipPath>
</defs>
</svg>
