<svg width="734" height="264" viewBox="0 0 734 264" fill="none" xmlns="http://www.w3.org/2000/svg">
<path d="M32.54 32.9404V134.62H44.84C48.6667 134.62 51.81 132.844 54.27 129.29C57.0033 125.464 58.37 120.407 58.37 114.12V53.4404C58.37 46.8804 57.0033 41.8237 54.27 38.2704C51.81 34.717 48.6667 32.9404 44.84 32.9404H32.54ZM46.89 3.01039C76.1367 3.01039 90.76 22.4171 90.76 61.2304C90.76 91.8437 90.76 107.287 90.76 107.56C90.4867 145.554 75.8633 164.55 46.89 164.55H32.54V260.9H0.97V3.01039H46.89ZM142.535 32.9404H130.235V134.62H142.535C144.995 134.62 147.182 133.937 149.095 132.57C151.282 130.93 152.922 128.607 154.015 125.6C155.382 122.32 156.065 118.494 156.065 114.12V53.4404C156.065 46.8804 154.699 41.8237 151.965 38.2704C149.505 34.717 146.362 32.9404 142.535 32.9404ZM176.155 148.15L192.965 260.9H160.575L147.865 164.55H130.235V260.9H98.6653V3.01039H144.585C158.799 3.01039 169.459 7.11038 176.565 15.3104C183.945 23.5104 187.635 36.6304 187.635 54.6704C187.635 85.2837 187.635 100.864 187.635 101.41C187.635 110.157 186.815 117.4 185.175 123.14C183.535 128.88 180.939 133.39 177.385 136.67C174.105 139.95 169.869 142.41 164.675 144.05V148.15H176.155ZM258.136 212.93V50.9804C258.136 38.1337 253.763 31.7104 245.016 31.7104C236.543 31.7104 232.306 38.1337 232.306 50.9804V212.93C232.306 225.777 236.543 232.2 245.016 232.2C253.763 232.2 258.136 225.777 258.136 212.93ZM200.736 50.5704C200.736 16.9504 215.496 0.140375 245.016 0.140375C274.809 0.140375 289.706 16.9504 289.706 50.5704V213.34C289.706 246.96 274.809 263.77 245.016 263.77C215.496 263.77 200.736 246.96 200.736 213.34V50.5704ZM352.074 3.01039H383.644V213.34C383.644 246.96 368.747 263.77 338.954 263.77C309.434 263.77 294.674 246.96 294.674 213.34V155.94H326.244V212.93C326.244 225.777 330.481 232.2 338.954 232.2C347.701 232.2 352.074 225.777 352.074 212.93V3.01039ZM463.367 32.9404H428.927V116.99H463.367V146.92H428.927V230.97H463.367V260.9H397.357V3.01039H463.367V32.9404ZM527.999 155.94H559.569V213.34C559.569 246.96 544.673 263.77 514.879 263.77C485.359 263.77 470.599 246.96 470.599 213.34V50.5704C470.599 16.9504 485.359 0.140375 514.879 0.140375C544.673 0.140375 559.569 16.9504 559.569 50.5704V107.97H527.999V50.9804C527.999 38.1337 523.626 31.7104 514.879 31.7104C506.406 31.7104 502.169 38.1337 502.169 50.9804V212.93C502.169 225.777 506.406 232.2 514.879 232.2C523.626 232.2 527.999 225.777 527.999 212.93V155.94ZM642.056 3.01039V32.9404H617.866V260.9H586.296V32.9404H562.106V3.01039H642.056ZM715.27 141.59C721.557 148.424 726.067 155.804 728.8 163.73C731.807 171.384 733.31 181.634 733.31 194.48C733.31 205.414 733.31 211.154 733.31 211.7C733.037 229.194 729.347 242.314 722.24 251.06C715.133 259.534 703.927 263.77 688.62 263.77C658.827 263.77 643.93 246.96 643.93 213.34V166.6H675.5V212.93C675.5 225.777 679.737 232.2 688.21 232.2C696.957 232.2 701.33 225.777 701.33 212.93V193.25C701.33 186.417 700.783 181.087 699.69 177.26C698.597 173.16 696.547 168.787 693.54 164.14L660.74 121.5C654.727 114.394 650.353 107.014 647.62 99.3604C645.16 91.4337 643.93 81.4571 643.93 69.4304C643.93 58.497 643.93 52.6204 643.93 51.8004C644.203 34.5804 647.893 21.7337 655 13.2604C662.107 4.51371 673.177 0.140375 688.21 0.140375C718.003 0.140375 732.9 16.9504 732.9 50.5704V97.3104H701.33V50.9804C701.33 38.1337 696.957 31.7104 688.21 31.7104C679.737 31.7104 675.5 38.1337 675.5 50.9804V70.6604C675.5 77.767 675.91 83.097 676.73 86.6504C677.55 90.2037 679.463 94.3037 682.47 98.9504L715.27 141.59Z" fill="#151515"/>
</svg>
