<svg width="105" height="29" viewBox="0 0 105 29" fill="none" xmlns="http://www.w3.org/2000/svg">
<path d="M0 19.6825V13.3105H2.78544C3.47724 13.3105 4.0841 13.4441 4.60598 13.7111C5.12785 13.9781 5.53446 14.3483 5.82575 14.8216C6.11703 15.2949 6.26268 15.8532 6.26268 16.4965C6.26268 17.1337 6.11703 17.692 5.82575 18.1714C5.53446 18.6447 5.12785 19.0149 4.60598 19.2819C4.0841 19.5489 3.47724 19.6825 2.78544 19.6825H0ZM1.18336 18.6812H2.73082C3.21024 18.6812 3.62288 18.5901 3.96879 18.4081C4.32077 18.226 4.59079 17.9711 4.77893 17.6434C4.97311 17.3157 5.07022 16.9334 5.07022 16.4965C5.07022 16.0535 4.97311 15.6712 4.77893 15.3496C4.59079 15.0219 4.32077 14.767 3.96879 14.5849C3.62288 14.4029 3.21024 14.3118 2.73082 14.3118H1.18336V18.6812ZM8.61275 15.9594H11.7805V16.9334H8.61275V15.9594ZM8.70378 18.6903H12.2994V19.6825H7.52043V13.3105H12.1719V14.3027H8.70378V18.6903ZM15.4139 19.6825L12.6285 13.3105H13.9119L16.397 19.0726H15.6597L18.172 13.3105H19.3554L16.5791 19.6825H15.4139ZM20.0278 19.6825V13.3105H21.2111V19.6825H20.0278ZM22.9346 19.6825V13.3105H25.5562C26.1206 13.3105 26.603 13.4016 27.0036 13.5836C27.4101 13.7657 27.7227 14.0266 27.9411 14.3665C28.1596 14.7063 28.2688 15.1099 28.2688 15.5771C28.2688 16.0444 28.1596 16.448 27.9411 16.7878C27.7227 17.1216 27.4101 17.3795 27.0036 17.5615C26.603 17.7375 26.1206 17.8255 25.5562 17.8255H23.59L24.118 17.2884V19.6825H22.9346ZM27.1037 19.6825L25.4925 17.3704H26.7578L28.3781 19.6825H27.1037ZM24.118 17.4159L23.59 16.8515H25.5016C26.0235 16.8515 26.4149 16.7393 26.6759 16.5147C26.9429 16.2902 27.0764 15.9776 27.0764 15.5771C27.0764 15.1705 26.9429 14.858 26.6759 14.6395C26.4149 14.4211 26.0235 14.3118 25.5016 14.3118H23.59L24.118 13.7293V17.4159ZM28.6916 19.6825L31.559 13.3105H32.7241L35.6006 19.6825H34.3626L31.8958 13.9386H32.3691L29.9114 19.6825H28.6916ZM30.0115 18.2078L30.3301 17.2793H33.7709L34.0895 18.2078H30.0115Z" fill="#5F646E"/>
<path d="M67.157 19.6825V13.3105H69.6419C70.2004 13.3105 70.6764 13.3986 71.0712 13.5745C71.4655 13.7505 71.7688 14.0054 71.9814 14.3392C72.1937 14.6729 72.3 15.0704 72.3 15.5316C72.3 15.9928 72.1937 16.3903 71.9814 16.7241C71.7688 17.0518 71.4655 17.3036 71.0712 17.4796C70.6764 17.6556 70.2004 17.7436 69.6419 17.7436H67.6576L68.0673 17.3249V19.6825H67.157ZM71.417 19.6825L69.7968 17.3704H70.7709L72.4093 19.6825H71.417ZM68.0673 17.4159L67.6576 16.9698H69.6147C70.197 16.9698 70.6373 16.8454 70.9346 16.5966C71.2379 16.3418 71.3898 15.9867 71.3898 15.5316C71.3898 15.0765 71.2379 14.7245 70.9346 14.4757C70.6373 14.2269 70.197 14.1025 69.6147 14.1025H67.6576L68.0673 13.6473V17.4159ZM74.5991 16.0596H77.8761V16.8333H74.5991V16.0596ZM74.6808 18.8905H78.3946V19.6825H73.7705V13.3105H78.2674V14.1025H74.6808V18.8905ZM78.9038 19.6825L81.7894 13.3105H82.6908L85.5853 19.6825H84.6296L82.0536 13.8203H82.4177L79.8413 19.6825H78.9038ZM80.1326 18.0895L80.3785 17.3613H83.9651L84.2289 18.0895H80.1326ZM86.5356 19.6825V13.3105H87.4459V18.8905H90.896V19.6825H86.5356ZM91.9407 19.6825V13.3105H92.8509V19.6825H91.9407ZM96.0237 19.6825V14.1025H93.8391V13.3105H99.1097V14.1025H96.9251V19.6825H96.0237ZM101.568 19.6825V17.2429L101.778 17.8073L99.0378 13.3105H100.011L102.315 17.1064H101.787L104.099 13.3105H105L102.269 17.8073L102.469 17.2429V19.6825H101.568Z" fill="#5F646E"/>
<path d="M63.6508 18.3225V28.3434H58.4027V16.3492L63.6508 18.3225Z" fill="#5F646E"/>
<path d="M50.4429 0.243164V28.3331H57.0462V14.4767L59.1262 15.3915V4.84498L50.4429 0.243164Z" fill="#5F646E"/>
<rect x="47.8032" y="3.30176" width="1.1405" height="25.0142" fill="#5F646E"/>
<rect x="41.6348" y="9.26172" width="1.1444" height="3.95129" fill="#5F646E"/>
<path d="M48.9353 2.21132L48.9353 3.78686L42.6629 9.84768L41.6334 9.25079L48.9353 2.21132Z" fill="#5F646E"/>
<rect x="43.0552" y="14.6035" width="1.1405" height="13.7132" fill="#5F646E"/>
<rect x="39.0562" y="18.543" width="1.1405" height="4.79441" fill="#5F646E"/>
<path d="M44.1973 13.5107L44.1973 15.1617L39.8445 19.364L39.0478 18.548L44.1973 13.5107Z" fill="#5F646E"/>
<rect x="36.0447" y="24.9346" width="1.1405" height="3.3831" fill="#5F646E"/>
<rect x="41.8738" y="24.9346" width="1.1405" height="4.68892" transform="rotate(90 41.8738 24.9346)" fill="#5F646E"/>
</svg>
