<svg width="157" height="32" viewBox="0 0 157 32" fill="none" xmlns="http://www.w3.org/2000/svg">
<g clip-path="url(#clip0_707_25)">
<path d="M13.4038 0.197266L15.0597 1.96306C15.9797 2.93337 17.732 2.93337 18.6519 1.96306L20.3079 0.197266L16.9259 6.40379H16.7769L13.4038 0.197266ZM32.8806 6.96322C31.9693 6.02788 30.5062 5.41597 29.4023 5.09253C26.2919 4.18341 23.2692 4.89148 20.5093 6.43874C19.8785 6.79714 19.3003 7.16426 18.7396 7.54017C18.7133 7.55767 18.6957 7.56639 18.6782 7.5839C18.7834 7.6538 18.871 7.71497 18.941 7.75871C18.9761 7.73248 19.0024 7.72376 19.0374 7.70625C20.9825 6.7534 23.1203 5.78311 25.3106 5.68696C26.9403 5.60828 29.3585 6.06284 30.2434 7.61885C30.2434 7.61885 30.4537 7.97725 30.4449 8.39682C30.4449 9.50704 29.2095 10.1189 28.2896 10.3811C25.9853 11.028 23.5409 10.6085 21.368 9.7343C19.1601 8.84263 17.3377 7.33913 15.2437 6.2639C12.3699 4.77783 9.25088 3.86871 5.99159 4.46314C4.21301 4.78658 2.10149 5.56457 1.03259 7.1118C0.68213 7.61885 0.471855 8.23946 0.550708 8.86013C0.612038 9.38462 0.883644 9.85665 1.20782 10.2675C3.09153 12.5841 6.82396 13.0998 9.59258 12.5928C11.7654 12.1906 13.7981 11.1766 15.5328 9.81298C15.4277 9.74302 15.3138 9.68184 15.3138 9.68184C15.3138 9.68184 15.1298 9.77797 15.0685 9.8042C13.211 10.6871 11.301 11.5788 9.22455 11.7448C7.75266 11.8673 6.21938 11.5963 4.99278 10.7833C3.91511 10.0752 3.31058 8.73778 4.48461 7.77621C4.84383 7.47899 5.27314 7.2954 5.71998 7.15554C8.06803 6.38628 10.644 6.78842 12.8869 7.70625C15.0772 8.59786 16.9259 10.1102 19.0287 11.1941C21.5344 12.4879 24.3644 13.3445 27.2031 13.1173C29.0168 12.9687 31.0056 12.418 32.4425 11.2553C33.0033 10.8008 33.4676 10.2063 33.6428 9.50704C33.8969 8.48423 33.5377 7.6538 32.8893 6.98073M16.0497 10.2151L15.2613 10.8532L16.8208 31.7979L18.319 11.6225L16.0497 10.2151Z" fill="#5F646E"/>
<path d="M45.8551 7.22627V11.7718H52.286V15.2423H45.8551V24.2461H41.8511V3.75586H52.7241V7.22627H45.8551ZM61.0475 21.1166H65.481V24.2461H57.3502V10.041H61.0475V21.1166ZM65.9365 10.041H70.352L73.042 13.9135L75.6266 10.041H80.1038L74.768 17.4276V24.2461H71.0795V17.4276L65.9365 10.041ZM91.1081 17.515L96.6542 3.75586H101L90.924 26.3353L81.2688 3.75586H85.6412L91.1168 17.515H91.1081ZM107.001 24.2461H103.304V10.041H107.001V24.2461ZM119.627 13.73C118.794 13.0656 118.05 12.7684 117.191 12.7684C116.333 12.7684 115.614 13.3016 115.614 13.9835C115.614 14.4293 115.93 14.7877 116.569 15.0849C116.762 15.1723 116.91 15.216 118.172 15.6007C120.652 16.3262 121.677 17.4888 121.677 19.5431C121.677 22.7337 119.627 24.6132 116.122 24.6132C114.396 24.6132 112.662 24.0625 111.172 23.0135L112.749 20.0326C113.879 21.0117 114.931 21.475 116.017 21.475C117.103 21.475 117.805 20.9243 117.805 20.0938C117.805 19.3245 117.314 18.9661 115.588 18.4592C113.967 17.9958 113.345 17.7161 112.819 17.2703C112.118 16.6496 111.75 15.7317 111.75 14.4992C111.75 11.6495 113.712 9.70884 116.595 9.70884C118.094 9.70884 119.67 10.111 121.099 10.854L119.627 13.73ZM131.174 24.2461H127.486V13.1705H124.472V10.041H134.25V13.1705H131.174V24.2461ZM140.321 21.7722L139.34 24.2461H135.433L140.891 10.041H144.93L150.283 24.2461H146.331L145.412 21.7722H140.312H140.321ZM142.897 14.4293L141.338 18.9661H144.413L142.897 14.4293Z" fill="#5F646E"/>
</g>
<defs>
<clipPath id="clip0_707_25">
<rect width="156" height="32" fill="white" transform="translate(0.524414)"/>
</clipPath>
</defs>
</svg>
