<svg width="106" height="13" viewBox="0 0 106 13" fill="none" xmlns="http://www.w3.org/2000/svg">
<path d="M4.66892 12.1549C3.73392 12.1549 2.87042 12.0394 2.07842 11.8084C1.29743 11.5664 0.626428 11.2364 0.0654297 10.8184L0.725428 9.15186C1.09943 9.41586 1.48993 9.64136 1.89692 9.82836C2.30392 10.0044 2.73842 10.1419 3.20042 10.2409C3.66242 10.3289 4.15192 10.3729 4.66892 10.3729C5.53792 10.3729 6.16491 10.2299 6.54991 9.94386C6.93491 9.65786 7.12741 9.28386 7.12741 8.82186C7.12741 8.41486 6.99541 8.10686 6.73141 7.89786C6.46741 7.67786 5.99441 7.49636 5.31242 7.35336L3.44792 6.97387C2.38092 6.75387 1.58343 6.38537 1.05543 5.86837C0.527429 5.35137 0.263429 4.65837 0.263429 3.78937C0.263429 3.06338 0.455929 2.43088 0.840928 1.89188C1.22593 1.35288 1.76493 0.934881 2.45792 0.637882C3.15092 0.340882 3.95942 0.192383 4.88342 0.192383C5.70842 0.192383 6.47291 0.313383 7.17691 0.555382C7.88091 0.786381 8.46941 1.12188 8.94241 1.56188L8.28241 3.14588C7.80941 2.74988 7.29241 2.45838 6.73141 2.27138C6.17041 2.07338 5.54342 1.97438 4.85042 1.97438C4.06942 1.97438 3.45892 2.12838 3.01892 2.43638C2.58992 2.73338 2.37542 3.14588 2.37542 3.67387C2.37542 4.08087 2.50742 4.40537 2.77142 4.64737C3.04642 4.88937 3.50842 5.07637 4.15742 5.20837L6.00541 5.57137C7.10541 5.79137 7.91941 6.15437 8.44741 6.66037C8.97541 7.15536 9.23941 7.82636 9.23941 8.67336C9.23941 9.36636 9.05241 9.97686 8.67841 10.5049C8.30441 11.0219 7.77641 11.4289 7.09441 11.7259C6.41241 12.0119 5.60392 12.1549 4.66892 12.1549Z" fill="#5F646E"/>
<path d="M13.742 11.9899V2.10638H9.89747V0.357382H19.7149V2.10638H15.8705V11.9899H13.742Z" fill="#5F646E"/>
<path d="M18.6427 11.9899L23.9062 0.357382H25.6882L31.0177 11.9899H28.8562L27.4372 8.72286L28.2952 9.30036H21.3157L22.2067 8.72286L20.7877 11.9899H18.6427ZM24.7807 2.63438L22.4542 8.14536L22.0252 7.63386H27.5692L27.2227 8.14536L24.8467 2.63438H24.7807Z" fill="#5F646E"/>
<path d="M35.0838 11.9899L29.9028 0.357382H32.1963L36.3708 10.1254H35.6778L39.8522 0.357382H42.0632L36.8822 11.9899H35.0838Z" fill="#5F646E"/>
<path d="M43.2133 11.9899V0.357382H48.3118C49.5768 0.357382 50.5503 0.626882 51.2323 1.16588C51.9143 1.69388 52.2553 2.43088 52.2553 3.37687C52.2553 4.08087 52.0463 4.67487 51.6283 5.15887C51.2103 5.64287 50.6328 5.96737 49.8958 6.13237V5.88487C50.7428 6.00587 51.3973 6.31387 51.8593 6.80887C52.3323 7.29287 52.5688 7.93636 52.5688 8.73936C52.5688 9.77336 52.2113 10.5764 51.4963 11.1484C50.7813 11.7094 49.7858 11.9899 48.5098 11.9899H43.2133ZM45.2593 10.3729H48.2623C48.9773 10.3729 49.5328 10.2409 49.9288 9.97686C50.3248 9.70186 50.5228 9.25636 50.5228 8.64036C50.5228 8.01336 50.3248 7.56786 49.9288 7.30386C49.5328 7.02887 48.9773 6.89137 48.2623 6.89137H45.2593V10.3729ZM45.2593 5.29087H47.9488C48.7078 5.29087 49.2688 5.15337 49.6318 4.87837C50.0058 4.59237 50.1928 4.17437 50.1928 3.62437C50.1928 3.07438 50.0058 2.66188 49.6318 2.38688C49.2688 2.10088 48.7078 1.95788 47.9488 1.95788H45.2593V5.29087Z" fill="#5F646E"/>
<path d="M57.2339 11.9899V6.49537L57.6794 7.76586L52.6799 0.357382H55.1384L58.5704 5.63737H58.1084L61.5404 0.357382H63.9164L58.9334 7.76586L59.3624 6.49537V11.9899H57.2339Z" fill="#5F646E"/>
<path d="M83.8789 11.9899V0.357422H86.0074V5.50541H86.0404L91.1059 0.357422H93.6799L87.6079 6.41291L87.6244 5.48891L94.0759 11.9899H91.4194L86.0404 6.61091H86.0074V11.9899H83.8789Z" fill="#5F646E"/>
<path d="M94.8681 11.9899V0.357422H96.9966V5.50541H97.0296L102.095 0.357422H104.669L98.5971 6.41291L98.6136 5.48891L105.065 11.9899H102.409L97.0296 6.61091H96.9966V11.9899H94.8681Z" fill="#5F646E"/>
<path d="M72.3689 8.86502V4.16553L78.9737 6.73416V11.9904H67.1392V8.86502H72.3689Z" fill="#5F646E"/>
<path d="M78.9752 0.249023H72.3716V3.2993L78.9752 5.85894V0.249023Z" fill="#5F646E"/>
<path d="M67.1392 0.249023H71.5651V8.05856H67.1392V0.249023Z" fill="#5F646E"/>
</svg>
