<svg width="105" height="22" viewBox="0 0 105 22" fill="none" xmlns="http://www.w3.org/2000/svg">
<path d="M9.8421 21.6141C9.04481 21.6141 8.32368 21.1405 8.00683 20.4089L3.41553 9.80762C7.12543 9.80774 10.4853 11.9986 11.9817 15.3933L14.7239 21.6141H9.8421Z" fill="#5F646E"/>
<path d="M17.0425 21.6142C16.2513 21.6142 15.5344 21.1478 15.2139 20.4244L10.46 9.69531C14.1753 9.69543 17.5456 11.8732 19.0723 15.2604L21.9362 21.6142H17.0425Z" fill="#5F646E"/>
<path d="M24.1684 21.5493C23.3734 21.5493 22.6538 21.0784 22.3356 20.3498L18.4165 11.377C22.1291 11.3771 25.4942 13.5614 27.0056 16.9524L29.0546 21.5493H24.1684Z" fill="#5F646E"/>
<path d="M1.4998 4.41533L0 0.97168H22.7567C27.1927 0.97168 30.7888 4.56775 30.7888 9.00373C30.7888 13.4607 27.1598 17.0654 22.7029 17.0356L20.8781 17.0234L18.4009 11.3725H23.0815C24.3889 11.3725 25.4487 10.3127 25.4487 9.00528C25.4487 7.69789 24.3889 6.63804 23.0815 6.63804L4.8922 6.63802C3.4199 6.63802 2.08769 5.76516 1.4998 4.41533Z" fill="#5F646E"/>
<path d="M39.1692 16.032L36.252 7.11478H38.3921L40.9271 15.0129H39.8571L42.5068 7.11478H44.4176L46.9654 15.0129H45.9335L48.5323 7.11478H50.5068L47.5896 16.032H45.373L43.1182 9.10205H43.7042L41.3857 16.032H39.1692Z" fill="#5F646E"/>
<path d="M53.557 10.7072H57.85V12.3123H53.557V10.7072ZM53.7099 14.376H58.5634V16.032H51.6589V7.11478H58.3978V8.77084H53.7099V14.376Z" fill="#5F646E"/>
<path d="M64.5112 16.1849C63.8063 16.1849 63.1566 16.0745 62.5621 15.8537C61.9761 15.6244 61.4623 15.3017 61.0207 14.8855C60.5876 14.4694 60.2479 13.9811 60.0016 13.4206C59.7638 12.86 59.6449 12.2443 59.6449 11.5734C59.6449 10.9025 59.7638 10.2868 60.0016 9.72626C60.2479 9.16575 60.5918 8.67742 61.0335 8.26128C61.4751 7.84515 61.9931 7.52667 62.5876 7.30586C63.1821 7.07656 63.836 6.96191 64.5494 6.96191C65.3392 6.96191 66.0483 7.09355 66.6768 7.35682C67.3137 7.62009 67.8488 8.00226 68.2819 8.50332L66.9571 9.72626C66.6343 9.38656 66.2819 9.13602 65.8997 8.97466C65.5176 8.80481 65.1014 8.71989 64.6513 8.71989C64.2182 8.71989 63.8233 8.78783 63.4666 8.92371C63.1099 9.05959 62.7999 9.25492 62.5366 9.5097C62.2819 9.76448 62.0823 10.066 61.9379 10.4142C61.802 10.7624 61.7341 11.1488 61.7341 11.5734C61.7341 11.9895 61.802 12.3717 61.9379 12.7199C62.0823 13.0681 62.2819 13.3738 62.5366 13.6371C62.7999 13.8919 63.1057 14.0872 63.4538 14.2231C63.8105 14.359 64.2012 14.4269 64.6258 14.4269C65.0335 14.4269 65.4284 14.3632 65.8105 14.2358C66.2012 14.1 66.5791 13.8749 66.9443 13.5607L68.1163 15.0511C67.6322 15.4163 67.0675 15.6966 66.422 15.8919C65.7851 16.0872 65.1481 16.1849 64.5112 16.1849ZM66.2309 14.7836V11.4333H68.1163V15.0511L66.2309 14.7836Z" fill="#5F646E"/>
<path d="M70.0333 16.032V7.11478H73.8932C74.6915 7.11478 75.3794 7.24642 75.9569 7.50969C76.5344 7.76447 76.9803 8.1339 77.2945 8.61797C77.6087 9.10205 77.7658 9.67955 77.7658 10.3505C77.7658 11.0129 77.6087 11.5861 77.2945 12.0702C76.9803 12.5458 76.5344 12.911 75.9569 13.1658C75.3794 13.4206 74.6915 13.5479 73.8932 13.5479H71.1798L72.097 12.6435V16.032H70.0333ZM75.7021 16.032L73.4728 12.7963H75.6767L77.9314 16.032H75.7021ZM72.097 12.8728L71.1798 11.9046H73.7786C74.4155 11.9046 74.8911 11.7687 75.2053 11.497C75.5195 11.2167 75.6767 10.8345 75.6767 10.3505C75.6767 9.8579 75.5195 9.47573 75.2053 9.20397C74.8911 8.9322 74.4155 8.79632 73.7786 8.79632H71.1798L72.097 7.81542V12.8728Z" fill="#5F646E"/>
<path d="M81.299 10.7072H85.592V12.3123H81.299V10.7072ZM81.4519 14.376H86.3054V16.032H79.4009V7.11478H86.1398V8.77084H81.4519V14.376Z" fill="#5F646E"/>
<path d="M87.9474 16.032V7.11478H89.6544L94.9156 13.5352H94.0876V7.11478H96.1258V16.032H94.4315L89.1576 9.61161H89.9857V16.032H87.9474Z" fill="#5F646E"/>
<path d="M100.083 16.032V8.79632H97.2292V7.11478H105V8.79632H102.146V16.032H100.083Z" fill="#5F646E"/>
</svg>
