<svg width="105" height="16" viewBox="0 0 105 16" fill="none" xmlns="http://www.w3.org/2000/svg">
<mask id="mask0_1_90" style="mask-type:luminance" maskUnits="userSpaceOnUse" x="0" y="0" width="105" height="16">
<path d="M105 0.989258H0V15.5976H105V0.989258Z" fill="white"/>
</mask>
<g mask="url(#mask0_1_90)">
<path d="M61.5229 2.33931L60.4002 3.36039C60.3939 3.36602 60.3856 3.36905 60.3768 3.36886C60.3685 3.36867 60.3602 3.36527 60.3545 3.35936C59.6888 2.70974 58.9109 2.43243 58.0208 2.52743C56.6156 2.67711 55.6991 3.711 55.7764 5.12934C55.8902 7.20125 57.9803 7.96242 59.7121 7.15768C59.7183 7.15455 59.7241 7.14968 59.7282 7.14358C59.7318 7.13754 59.7339 7.13051 59.7339 7.12334V4.89201C59.7339 4.88521 59.7365 4.87869 59.7412 4.87389C59.7464 4.86908 59.7531 4.86638 59.7599 4.86638H61.3567C61.3827 4.86638 61.3956 4.87919 61.3956 4.90482V7.98036C61.3956 8.00532 61.3853 8.0248 61.365 8.03879C60.1218 8.90305 58.3968 9.22341 56.9293 8.83846C53.0471 7.8189 52.8933 2.41158 56.7304 1.21571C58.3885 0.699018 60.3046 1.0076 61.5249 2.29266C61.5307 2.29903 61.5338 2.30751 61.5338 2.31626C61.5333 2.325 61.5291 2.33329 61.5229 2.33931Z" fill="#5F646E"/>
<path d="M100.52 2.96217C100.116 3.73208 101.046 4.02221 101.589 4.14984C102.093 4.26842 102.596 4.39366 103.097 4.52557C104.023 4.76957 104.856 5.29856 104.979 6.30632C105.146 7.69135 104.057 8.68677 102.758 8.90359C101.335 9.14045 99.7421 8.94152 98.5197 8.14139C98.5052 8.13201 98.4948 8.11802 98.4901 8.10187C98.4855 8.08572 98.4865 8.0685 98.4938 8.05323L99.0769 6.77891C99.0785 6.77548 99.0806 6.7724 99.0837 6.76994C99.0863 6.76748 99.0899 6.76564 99.0936 6.76461C99.0972 6.76359 99.1008 6.76338 99.105 6.764C99.1086 6.76461 99.1122 6.76605 99.1154 6.76815C100.044 7.38703 101.072 7.64178 102.199 7.53245C102.652 7.48837 103.213 7.24382 103.191 6.69895C103.138 5.33136 98.809 6.19509 98.6355 3.5537C98.5431 2.15074 99.6533 1.26755 100.953 1.06302C102.191 0.868238 103.509 1.02663 104.615 1.63507C104.648 1.65353 104.658 1.68052 104.644 1.71606L104.112 3.00881C104.11 3.0123 104.108 3.01543 104.106 3.01802C104.103 3.0206 104.099 3.02257 104.096 3.02378C104.092 3.025 104.089 3.02543 104.084 3.02506C104.081 3.02469 104.077 3.02352 104.074 3.02163C103.312 2.58149 102.488 2.38653 101.603 2.43677C101.217 2.45829 100.709 2.60028 100.52 2.96217Z" fill="#5F646E"/>
<path d="M42.3123 6.5688C42.3132 6.57126 42.3149 6.57341 42.3171 6.57495C42.3192 6.57644 42.3218 6.57726 42.3245 6.57726C42.3272 6.57726 42.3298 6.57644 42.332 6.57495C42.3341 6.57341 42.3358 6.57126 42.3367 6.5688L44.1407 1.15278C44.1473 1.1333 44.1609 1.12356 44.1817 1.12356H45.8575C45.8786 1.12356 45.8859 1.13364 45.8793 1.1538L43.3348 8.83192C43.3318 8.84109 43.3259 8.84914 43.3178 8.85483C43.3098 8.86057 43.3001 8.86365 43.2901 8.8637H41.404C41.3944 8.8637 41.385 8.86062 41.3773 8.85503C41.3696 8.8494 41.3639 8.84145 41.3609 8.83243L39.654 3.64602C39.6531 3.64342 39.6514 3.64118 39.6491 3.63959C39.6468 3.638 39.6441 3.63715 39.6413 3.63715C39.6385 3.63715 39.6358 3.638 39.6335 3.63959C39.6313 3.64118 39.6295 3.64342 39.6286 3.64602L37.877 8.82525C37.8733 8.83643 37.866 8.84612 37.8563 8.85304C37.8466 8.8599 37.835 8.86365 37.823 8.8637H35.9385C35.9192 8.8637 35.9066 8.85462 35.9006 8.83653L33.3515 1.14765C33.3506 1.14483 33.3504 1.14183 33.3508 1.13891C33.3513 1.136 33.3525 1.13323 33.3543 1.13084C33.356 1.12845 33.3584 1.1265 33.361 1.12514C33.3637 1.12379 33.3666 1.12307 33.3696 1.12305L35.2001 1.12407C35.2188 1.12407 35.2311 1.13279 35.237 1.15021L36.988 6.53241C36.9896 6.53676 36.9925 6.5405 36.9965 6.54307C37.0004 6.54558 37.0051 6.54676 37.0097 6.54645C37.0144 6.54609 37.0189 6.5442 37.0224 6.54112C37.0258 6.53804 37.0282 6.53389 37.029 6.52933C37.0337 6.50165 37.0254 6.47551 37.0353 6.44681C37.6363 4.6835 38.2364 2.91728 38.8356 1.14816C38.8412 1.13142 38.853 1.12305 38.871 1.12305L40.5109 1.12407C40.5268 1.12407 40.5374 1.13159 40.5426 1.14663L42.3123 6.5688Z" fill="#5F646E"/>
<path d="M48.7325 7.42854H52.9622C52.9674 7.42854 52.9731 7.43069 52.9768 7.43453C52.9809 7.43838 52.983 7.44361 52.983 7.44904V8.8433C52.983 8.84873 52.9809 8.85391 52.9768 8.85775C52.9731 8.86159 52.9674 8.8638 52.9622 8.8638H46.928C46.9225 8.8638 46.9172 8.86159 46.9133 8.85775C46.9094 8.85391 46.9072 8.84873 46.9072 8.8433V1.14519C46.9072 1.13975 46.9094 1.13453 46.9133 1.13069C46.9172 1.12684 46.9225 1.12468 46.928 1.12468L52.8194 1.12109C52.8246 1.12109 52.8303 1.12325 52.834 1.1271C52.8381 1.13094 52.8402 1.13616 52.8402 1.1416V2.52662C52.8402 2.53206 52.8381 2.53727 52.834 2.54112C52.8303 2.54496 52.8246 2.54712 52.8194 2.54712L48.7325 2.54558C48.727 2.54558 48.7217 2.54774 48.7178 2.55159C48.7139 2.55543 48.7118 2.56065 48.7118 2.56608V4.21714C48.7118 4.22258 48.7139 4.2278 48.7178 4.23164C48.7217 4.23548 48.727 4.23765 48.7325 4.23765H52.3261C52.3313 4.23765 52.337 4.2398 52.3406 4.24365C52.3448 4.24749 52.3469 4.25271 52.3469 4.25815V5.61395C52.3469 5.61939 52.3448 5.6246 52.3406 5.62845C52.337 5.6323 52.3313 5.63445 52.3261 5.63445H48.7325C48.727 5.63445 48.7217 5.63662 48.7178 5.64046C48.7139 5.64431 48.7118 5.64952 48.7118 5.65496V7.40803C48.7118 7.41347 48.7139 7.4187 48.7178 7.42254C48.7217 7.42638 48.727 7.42854 48.7325 7.42854Z" fill="#5F646E"/>
<path d="M67.8546 2.56799L65.4088 2.58285C65.4041 2.58293 65.3999 2.58211 65.3958 2.58046C65.3916 2.57881 65.388 2.57636 65.3849 2.57325C65.3812 2.57014 65.3792 2.56644 65.3771 2.56237C65.3755 2.5583 65.375 2.55393 65.375 2.54954L65.3792 1.15683C65.3792 1.14813 65.3828 1.13978 65.389 1.13363C65.3953 1.12748 65.4036 1.12402 65.4124 1.12402H72.1917C72.2005 1.12402 72.2088 1.12748 72.2151 1.13363C72.2213 1.13978 72.2249 1.14813 72.2249 1.15683L72.2213 2.54031C72.2213 2.54901 72.2177 2.55736 72.2114 2.56351C72.2052 2.56966 72.1969 2.57311 72.1881 2.57311L69.7386 2.58593C69.7297 2.58593 69.7214 2.58939 69.7152 2.59554C69.709 2.60169 69.7053 2.61004 69.7053 2.61874V8.83132C69.7053 8.84003 69.7017 8.84839 69.6955 8.85454C69.6892 8.86069 69.6809 8.86412 69.6721 8.86412H67.9211C67.9164 8.86412 67.9122 8.8633 67.9081 8.86166C67.9045 8.85997 67.9008 8.85756 67.8977 8.85454C67.8946 8.85146 67.892 8.84787 67.8904 8.84388C67.8884 8.83993 67.8878 8.83562 67.8878 8.83132V2.6008C67.8878 2.59649 67.8868 2.59222 67.8852 2.58824C67.8837 2.58426 67.8811 2.58064 67.878 2.5776C67.8749 2.57456 67.8712 2.57214 67.8671 2.57049C67.8634 2.56884 67.8588 2.56799 67.8546 2.56799Z" fill="#5F646E"/>
<path d="M91.8112 8.8637H90.0519C90.0472 8.8637 90.0425 8.8618 90.0389 8.85842C90.0358 8.85504 90.0337 8.85047 90.0337 8.84576L90.0384 1.1415C90.0384 1.13674 90.0404 1.13218 90.0436 1.12881C90.0472 1.12545 90.0519 1.12356 90.0565 1.12356H91.5339C91.5365 1.1235 91.5391 1.12407 91.5417 1.12522C91.5443 1.12638 91.5464 1.12809 91.5484 1.13022L95.4062 5.77788C95.4083 5.78073 95.412 5.78278 95.4151 5.78376C95.4187 5.78474 95.4229 5.78461 95.4265 5.78338C95.4296 5.78215 95.4327 5.77988 95.4348 5.77687C95.4369 5.77387 95.4384 5.77029 95.4384 5.7666L95.4374 1.14099C95.4374 1.13623 95.4395 1.13167 95.4426 1.1283C95.4462 1.12494 95.4509 1.12305 95.4556 1.12305L97.2206 1.12407C97.2253 1.12407 97.23 1.12596 97.2336 1.12933C97.2367 1.13269 97.2388 1.13725 97.2388 1.14201L97.2435 8.84576C97.2435 8.85047 97.2414 8.85504 97.2383 8.85842C97.2347 8.8618 97.23 8.8637 97.2253 8.8637H95.75C95.7469 8.86375 95.7443 8.86319 95.7417 8.86201C95.7391 8.86088 95.737 8.85914 95.7355 8.85704L91.8605 4.20116C91.8579 4.19831 91.8548 4.19626 91.8512 4.19528C91.8476 4.1943 91.8439 4.19443 91.8403 4.19566C91.8367 4.19689 91.8335 4.19916 91.8315 4.20217C91.8294 4.20516 91.8283 4.20875 91.8283 4.21243L91.8294 8.84576C91.8294 8.85047 91.8273 8.85504 91.8242 8.85842C91.8206 8.8618 91.8159 8.8637 91.8112 8.8637Z" fill="#5F646E"/>
<path d="M75.0157 6.73557V8.83872C75.0157 8.84554 75.0132 8.85205 75.008 8.85686C75.0033 8.86168 74.9965 8.86435 74.9898 8.86435H73.2242C73.2175 8.86435 73.2107 8.86168 73.2055 8.85686C73.2008 8.85205 73.1982 8.84554 73.1982 8.83872V1.15091C73.1982 1.13485 73.206 1.12682 73.2227 1.12682C75.1414 1.12066 76.3534 1.12049 76.8582 1.1263C78.8964 1.14937 80.3909 2.55079 79.922 4.6478C79.7387 5.46948 79.1758 5.99335 78.4223 6.37318C78.4062 6.38103 78.4031 6.3923 78.4135 6.40701L80.1313 8.83872C80.1328 8.84118 80.1339 8.84405 80.1339 8.84702C80.1344 8.84994 80.1333 8.85292 80.1323 8.85553C80.1307 8.85815 80.1287 8.8604 80.1261 8.86194C80.1235 8.86348 80.1209 8.86435 80.1178 8.86435H78.212C78.2037 8.86435 78.1959 8.86245 78.1891 8.85876C78.1818 8.85512 78.1756 8.84984 78.1715 8.84333L76.6899 6.72071C76.6837 6.71184 76.6754 6.70738 76.665 6.70738L75.0563 6.69611C75.0454 6.69611 75.035 6.70026 75.0277 6.70769C75.0199 6.71507 75.0157 6.72512 75.0157 6.73557ZM75.0178 2.59897L75.0126 5.25317C75.0126 5.25779 75.0142 5.26222 75.0178 5.26549C75.0209 5.26876 75.0256 5.2706 75.0303 5.2706L76.7777 5.27367C76.9589 5.27403 77.1381 5.24227 77.3058 5.18019C77.473 5.11812 77.6252 5.02695 77.7534 4.91189C77.8817 4.79684 77.9835 4.66015 78.0531 4.50965C78.1226 4.35914 78.1585 4.19777 78.159 4.03474V3.82766C78.1595 3.49864 78.0146 3.18288 77.7566 2.94979C77.4985 2.7167 77.1485 2.58535 76.7829 2.58462L75.0355 2.58155C75.0329 2.58155 75.0308 2.582 75.0287 2.58287C75.0267 2.58375 75.0246 2.58504 75.023 2.58665C75.0215 2.58827 75.0199 2.59019 75.0189 2.5923C75.0183 2.59442 75.0178 2.59669 75.0178 2.59897Z" fill="#5F646E"/>
<path d="M86.6003 7.20897L82.9845 7.21102C82.9803 7.21112 82.9762 7.21235 82.973 7.21466C82.9694 7.21691 82.9668 7.22009 82.9653 7.22383L82.2798 8.85131C82.2782 8.85515 82.2751 8.85838 82.272 8.86069C82.2684 8.86294 82.2642 8.86417 82.2601 8.86412H80.4446C80.441 8.86412 80.4374 8.8632 80.4342 8.86151C80.4311 8.85982 80.4285 8.85741 80.427 8.85443C80.4249 8.85146 80.4239 8.84808 80.4233 8.84459C80.4233 8.84111 80.4239 8.83762 80.4254 8.83439L83.9015 1.13633C83.9031 1.1326 83.9057 1.12946 83.9093 1.12727C83.913 1.12509 83.9171 1.12396 83.9213 1.12403H85.6962C85.7003 1.12396 85.7045 1.12509 85.7076 1.12727C85.7112 1.12946 85.7144 1.1326 85.7159 1.13633L89.2024 8.83439C89.204 8.83762 89.2045 8.84111 89.204 8.84459C89.204 8.84808 89.2029 8.85146 89.2009 8.85443C89.1988 8.85741 89.1962 8.85982 89.1931 8.86151C89.19 8.8632 89.1868 8.86412 89.1832 8.86412H87.3231C87.319 8.86407 87.3148 8.86284 87.3117 8.86053C87.3081 8.85828 87.3055 8.85505 87.3039 8.85131L86.6195 7.22178C86.6179 7.21804 86.6153 7.21486 86.6117 7.21261C86.6081 7.2103 86.6044 7.20907 86.6003 7.20897ZM84.7822 2.90938L83.5624 5.80552C83.5609 5.8093 83.5604 5.8134 83.5609 5.81744C83.5614 5.82149 83.5624 5.82537 83.565 5.82875C83.5671 5.83213 83.5702 5.8349 83.5739 5.83684C83.5775 5.83878 83.5817 5.83981 83.5858 5.83986H86.0119C86.015 5.83984 86.0181 5.83906 86.0207 5.83758C86.0233 5.83611 86.0259 5.834 86.0275 5.83141C86.0296 5.82884 86.0306 5.82587 86.0306 5.82279C86.0311 5.8197 86.0306 5.81659 86.0296 5.81372C85.6308 4.86406 85.2309 3.91166 84.83 2.95654C84.8352 2.92168 84.8217 2.90442 84.789 2.90477C84.7874 2.90478 84.7859 2.90523 84.7848 2.90604C84.7838 2.90686 84.7828 2.90802 84.7822 2.90938Z" fill="#5F646E"/>
<path d="M6.40563 15.5151L0.0175781 1.12402H6.19002C6.32093 1.12402 6.43928 1.19997 6.49142 1.31733L12.6608 15.2157C12.7235 15.3571 12.6175 15.5151 12.4598 15.5151H6.40563Z" fill="#5F646E"/>
<path d="M12.9004 15.3221L19.1235 1.34869C19.1708 1.24263 19.0913 1.12402 18.9729 1.12402H12.8144L6.40527 15.5151H12.5992C12.7298 15.5151 12.8482 15.4393 12.9004 15.3221Z" fill="#5F646E"/>
<path d="M22.3989 1.12402L25.6141 8.31956L28.6284 1.57371C28.7231 1.36155 28.5641 1.12402 28.3273 1.12402H22.3989Z" fill="#5F646E"/>
<path d="M19.2021 15.5151L12.793 1.12402H18.9868C19.1176 1.12402 19.2359 1.1998 19.2881 1.31698L25.6113 15.5151H19.2021Z" fill="#5F646E"/>
<mask id="mask1_1_90" style="mask-type:luminance" maskUnits="userSpaceOnUse" x="33" y="13" width="73" height="3">
<path d="M105.002 13.3008H33.3408V15.5049H105.002V13.3008Z" fill="white"/>
</mask>
<g mask="url(#mask1_1_90)">
<path d="M52.4946 15.504H52.4463C51.9513 15.4873 51.5287 15.1813 51.4098 14.6849C51.3629 14.4894 51.367 14.2952 51.4221 14.1024C51.7399 12.9917 53.4367 13.0996 53.5634 14.2934C53.6356 14.9735 53.1469 15.4959 52.4946 15.504ZM52.3897 13.6055C52.0703 13.6349 51.7887 13.8576 51.7062 14.1796C51.5594 14.7518 51.9508 15.2691 52.5294 15.2313C53.593 15.162 53.4876 13.5038 52.3897 13.6055Z" fill="#5F646E"/>
<path d="M72.1178 15.5043H72.0529C71.7953 15.4949 71.5164 15.4196 71.3149 15.2477C71.3113 15.2447 71.3092 15.2404 71.3081 15.2357C71.3071 15.2309 71.3076 15.2259 71.3097 15.2215L71.4063 15.0123C71.4068 15.011 71.4079 15.0099 71.4089 15.0089C71.4099 15.0081 71.4115 15.0074 71.4125 15.007C71.4141 15.0067 71.4151 15.0067 71.4167 15.0069C71.4182 15.0072 71.4193 15.0078 71.4203 15.0087C71.639 15.1804 71.8862 15.2579 72.1635 15.2414C72.3115 15.2326 72.4679 15.2033 72.5546 15.077C72.6242 14.976 72.6211 14.8295 72.5286 14.7399C72.4372 14.6509 72.2954 14.6101 72.1755 14.5803C71.9568 14.5255 71.7091 14.4766 71.5289 14.338C71.3139 14.1723 71.3071 13.8306 71.4478 13.621C71.7174 13.2199 72.4424 13.2817 72.7946 13.5101C72.7977 13.5122 72.8003 13.5155 72.8013 13.5193C72.8024 13.5232 72.8024 13.5273 72.8008 13.531L72.712 13.7525C72.7115 13.7535 72.7109 13.7543 72.7104 13.755C72.7094 13.7557 72.7089 13.7562 72.7078 13.7565C72.7068 13.7568 72.7058 13.7569 72.7047 13.7568C72.7037 13.7567 72.7026 13.7563 72.7021 13.7558C72.4876 13.6196 72.2539 13.5669 72.001 13.5979C71.8524 13.6161 71.6997 13.6852 71.6535 13.8389C71.5803 14.0838 71.8026 14.1936 71.9921 14.2444C72.2887 14.3237 72.8112 14.3871 72.8813 14.7884C72.9685 15.2846 72.5198 15.5014 72.1178 15.5043Z" fill="#5F646E"/>
<path d="M76.8463 15.5042H76.7856C76.6209 15.4991 76.4667 15.463 76.3223 15.396C75.5947 15.0577 75.5033 14.0077 76.1577 13.536C76.7684 13.0956 77.7168 13.378 77.8846 14.1658C78.0357 14.8795 77.5454 15.485 76.8463 15.5042ZM76.0517 14.6855C76.2439 15.2948 77.052 15.4198 77.4369 14.9433C77.7796 14.5185 77.6109 13.8034 77.0743 13.64C76.5815 13.4899 76.0668 13.7818 76.0174 14.3286C76.006 14.457 76.0174 14.576 76.0517 14.6855Z" fill="#5F646E"/>
<path d="M87.7418 15.5034H87.6806C87.4063 15.4902 87.1602 15.4226 86.9374 15.2516C86.9264 15.2432 86.9238 15.2327 86.9301 15.2201L87.0272 15.011C87.0303 15.0043 87.035 15.0031 87.0407 15.0076C87.3196 15.2221 87.6281 15.2912 87.9667 15.2148C88.0919 15.1867 88.201 15.0893 88.2202 14.9554C88.2498 14.7445 88.0566 14.6529 87.8769 14.6038C87.612 14.5313 87.2079 14.4701 87.0506 14.2261C86.9514 14.0726 86.9519 13.8536 87.0288 13.6909C87.2562 13.2114 88.0592 13.2674 88.4191 13.5133C88.4233 13.5164 88.4248 13.5206 88.4227 13.526L88.3329 13.7495C88.3324 13.7507 88.3318 13.7517 88.3308 13.7526C88.3303 13.7535 88.3287 13.7542 88.3277 13.7546C88.3267 13.755 88.3256 13.7551 88.3241 13.755C88.323 13.7549 88.3215 13.7545 88.3204 13.7538C88.0763 13.6 87.812 13.5534 87.5279 13.6141C87.3222 13.6582 87.1586 13.9166 87.33 14.1041C87.3783 14.1571 87.4806 14.2017 87.5601 14.2256C87.7413 14.2801 87.9283 14.3201 88.108 14.3797C88.4196 14.4836 88.5988 14.7658 88.4747 15.0981C88.3609 15.4033 88.0296 15.498 87.7418 15.5034Z" fill="#5F646E"/>
<path d="M101.48 15.504H101.424C101.155 15.4943 100.924 15.408 100.732 15.2449C100.289 14.8691 100.235 14.1662 100.607 13.7179C100.979 13.2682 101.664 13.2087 102.125 13.539C102.7 13.9512 102.695 14.89 102.116 15.3C101.93 15.4317 101.718 15.4996 101.48 15.504ZM100.669 14.5778C100.778 15.2143 101.563 15.442 102.005 15.0237C102.349 14.6983 102.341 14.106 101.989 13.795C101.776 13.6071 101.463 13.5522 101.197 13.6393C100.804 13.7677 100.599 14.1667 100.669 14.5778Z" fill="#5F646E"/>
<path d="M85.3774 15.5037H85.3634L85.1047 15.2382C85.1001 15.2333 85.0949 15.2331 85.0902 15.2377C84.9038 15.4077 84.6851 15.4963 84.4348 15.5037H84.3735C84.0374 15.4939 83.6458 15.2995 83.6905 14.8837C83.7201 14.6093 83.9564 14.4297 84.1798 14.303C84.1808 14.3024 84.1818 14.3015 84.1823 14.3005C84.1829 14.2994 84.1834 14.2981 84.1839 14.2969C84.1839 14.2956 84.1839 14.2943 84.1834 14.293C84.1829 14.2917 84.1823 14.2906 84.1818 14.2896C84.0421 14.1371 83.9144 13.9767 83.945 13.7498C84.0167 13.2116 84.9469 13.184 85.0055 13.7217C85.0383 14.0184 84.8051 14.2022 84.5823 14.3238C84.5802 14.3247 84.5791 14.326 84.5781 14.3276C84.5771 14.3291 84.576 14.3309 84.576 14.3328C84.5755 14.3347 84.5755 14.3366 84.5766 14.3385C84.5771 14.3403 84.5781 14.3419 84.5791 14.3433L85.072 14.8458C85.0772 14.8508 85.0814 14.8501 85.0845 14.8436C85.1406 14.7288 85.1806 14.6083 85.2039 14.4819C85.2039 14.4805 85.2045 14.4793 85.2055 14.4782C85.206 14.4771 85.2071 14.4761 85.2081 14.4754C85.2091 14.4747 85.2107 14.4742 85.2123 14.4741C85.2133 14.4739 85.2148 14.4741 85.2159 14.4745L85.4252 14.5435C85.4273 14.5442 85.4293 14.5457 85.4304 14.5476C85.4314 14.5496 85.4319 14.5518 85.4314 14.554C85.4008 14.7212 85.3431 14.8777 85.259 15.0236C85.2574 15.0262 85.2564 15.0292 85.2569 15.0323C85.2574 15.0352 85.2585 15.0381 85.2605 15.0402L85.5228 15.3112C85.5265 15.3152 85.527 15.3193 85.5234 15.3236L85.3774 15.5037ZM84.4072 14.1659C84.4083 14.1671 84.4093 14.1673 84.4109 14.1666C84.5677 14.0887 84.8336 13.9194 84.7594 13.7024C84.6685 13.4364 84.1102 13.5111 84.2145 13.8968C84.241 13.9937 84.3366 14.096 84.4072 14.1659ZM84.9204 15.0489L84.3558 14.4656C84.3506 14.4607 84.3454 14.4598 84.3392 14.4631C84.2421 14.5149 84.1538 14.5797 84.0748 14.6577C83.8645 14.8651 83.9632 15.1701 84.2426 15.2355C84.5007 15.2959 84.7261 15.2419 84.9193 15.0735C84.9282 15.0656 84.9287 15.0574 84.9204 15.0489Z" fill="#5F646E"/>
<path d="M33.6402 13.354L33.3589 13.3535C33.3552 13.3535 33.3522 13.3566 33.3522 13.3604L33.3486 15.4701C33.3486 15.4739 33.3516 15.477 33.3553 15.477L33.6366 15.4775C33.6403 15.4775 33.6433 15.4744 33.6433 15.4706L33.6469 13.3609C33.6469 13.3571 33.6439 13.354 33.6402 13.354Z" fill="#5F646E"/>
<path d="M35.9574 14.9168L35.9571 13.3595C35.9571 13.3579 35.9577 13.3564 35.9588 13.3553C35.9599 13.3541 35.9614 13.3535 35.9629 13.3535H36.2497C36.2505 13.3535 36.2512 13.3537 36.2519 13.354C36.2526 13.3543 36.2533 13.3547 36.2538 13.3553C36.2543 13.3558 36.2548 13.3565 36.255 13.3572C36.2554 13.3579 36.2555 13.3587 36.2555 13.3595V15.4708C36.2555 15.4724 36.2549 15.4739 36.2538 15.4751C36.2527 15.4761 36.2513 15.4768 36.2497 15.4768L36.0157 15.4777C36.0148 15.4777 36.014 15.4775 36.0132 15.4772C36.0124 15.4768 36.0117 15.4762 36.0112 15.4755L34.7838 13.9052C34.7831 13.9042 34.782 13.9034 34.7809 13.9031C34.7797 13.9028 34.7784 13.9028 34.7773 13.9032C34.7762 13.9036 34.7752 13.9044 34.7745 13.9054C34.7738 13.9065 34.7735 13.9077 34.7735 13.909L34.7733 15.4712C34.7733 15.4728 34.7727 15.4743 34.7716 15.4754C34.7705 15.4765 34.769 15.4772 34.7675 15.4772L34.4854 15.4768C34.4839 15.4768 34.4825 15.4761 34.4814 15.4751C34.4803 15.4739 34.4796 15.4724 34.4796 15.4708L34.4795 13.3595C34.4795 13.3587 34.4796 13.3579 34.4799 13.3572C34.4802 13.3565 34.4806 13.3558 34.4812 13.3553C34.4817 13.3547 34.4823 13.3543 34.483 13.354C34.4838 13.3537 34.4845 13.3535 34.4853 13.3535H34.7194C34.7203 13.3535 34.7212 13.3537 34.7219 13.3541C34.7228 13.3544 34.7234 13.355 34.724 13.3557L35.9471 14.9206C35.9479 14.9216 35.9489 14.9223 35.9501 14.9227C35.9512 14.923 35.9525 14.923 35.9536 14.9226C35.9547 14.9222 35.9558 14.9214 35.9565 14.9203C35.9571 14.9193 35.9575 14.9181 35.9574 14.9168Z" fill="#5F646E"/>
<path d="M36.7904 13.3759C36.789 13.3723 36.7885 13.3686 36.7888 13.3649C36.7893 13.3573 36.7932 13.3535 36.8006 13.3535H38.488C38.4951 13.3535 38.4985 13.3571 38.4984 13.3643L38.494 13.6019C38.4938 13.611 38.4893 13.6155 38.4805 13.6155H37.8151C37.7976 13.6155 37.7889 13.6246 37.7889 13.6426L37.789 15.4677C37.789 15.4733 37.7863 15.476 37.781 15.476L37.5087 15.4777C37.5025 15.4777 37.4994 15.4745 37.4994 15.4681V13.6272C37.4994 13.6199 37.4959 13.6162 37.4889 13.6162L36.7971 13.6155C36.7954 13.6155 36.7938 13.6149 36.7926 13.6137C36.7914 13.6126 36.7907 13.611 36.7906 13.6093C36.7864 13.5338 36.7866 13.4579 36.7913 13.3817C36.7914 13.3797 36.7911 13.3777 36.7904 13.3759Z" fill="#5F646E"/>
<path d="M39.3384 14.2705H40.3603C40.3618 14.2705 40.3633 14.2711 40.3643 14.2722C40.3654 14.2733 40.366 14.2747 40.366 14.2763L40.3653 14.5222C40.3653 14.5237 40.3647 14.5252 40.3636 14.5263C40.3626 14.5274 40.3612 14.5279 40.3597 14.5279H39.337C39.3355 14.5279 39.3341 14.5286 39.333 14.5296C39.332 14.5308 39.3314 14.5322 39.3314 14.5337L39.3303 15.2088C39.3303 15.2103 39.331 15.2118 39.332 15.2129C39.333 15.214 39.3345 15.2146 39.336 15.2146H40.5274C40.5288 15.2146 40.5303 15.2152 40.5313 15.2163C40.5323 15.2174 40.533 15.2188 40.533 15.2204V15.4708C40.533 15.4724 40.5323 15.4738 40.5313 15.4749C40.5303 15.476 40.5288 15.4766 40.5274 15.4766L39.0392 15.4768C39.0377 15.4768 39.0363 15.4761 39.0352 15.4751C39.0341 15.474 39.0336 15.4725 39.0336 15.471L39.0332 13.3593C39.0332 13.3577 39.0338 13.3563 39.0349 13.3552C39.0359 13.3541 39.0374 13.3535 39.0388 13.3535H40.4844C40.4859 13.3535 40.4873 13.3541 40.4884 13.3552C40.4894 13.3563 40.49 13.3577 40.49 13.3593L40.4893 13.6097C40.4893 13.6112 40.4887 13.6127 40.4876 13.6138C40.4866 13.6149 40.4851 13.6155 40.4837 13.6155H39.333C39.3315 13.6155 39.3301 13.6161 39.329 13.6172C39.3279 13.6182 39.3274 13.6197 39.3274 13.6213L39.3328 14.2647C39.3328 14.2662 39.3334 14.2677 39.3344 14.2688C39.3355 14.2699 39.3369 14.2705 39.3384 14.2705Z" fill="#5F646E"/>
<path d="M42.4483 14.7618C42.4469 14.7623 42.4457 14.7631 42.4448 14.7643C42.4438 14.7654 42.443 14.7666 42.4426 14.7681C42.4422 14.7695 42.4421 14.7709 42.4423 14.7724C42.4425 14.7739 42.4431 14.7752 42.4439 14.7764L42.9219 15.4717C42.9223 15.4723 42.9225 15.473 42.9226 15.4736C42.9226 15.4743 42.9225 15.475 42.9222 15.4756C42.9218 15.4762 42.9214 15.4768 42.9208 15.4771C42.9202 15.4775 42.9196 15.4777 42.9189 15.4777L42.613 15.4773C42.6107 15.4773 42.6084 15.4767 42.6063 15.4756C42.6042 15.4745 42.6024 15.4728 42.6011 15.4708L42.1704 14.8395C42.1669 14.8343 42.1621 14.8317 42.156 14.8317L41.5393 14.8313C41.5345 14.8313 41.5299 14.8333 41.5266 14.8368C41.5231 14.8403 41.5213 14.845 41.5213 14.8499L41.5232 15.4647C41.5232 15.472 41.5197 15.4757 41.5127 15.4759L41.2411 15.479C41.239 15.479 41.2369 15.4786 41.2349 15.4777C41.2329 15.4769 41.2311 15.4757 41.2296 15.4741C41.2281 15.4726 41.2269 15.4708 41.2261 15.4687C41.2252 15.4667 41.2248 15.4645 41.2248 15.4623L41.2246 13.3629C41.2246 13.3605 41.2255 13.3583 41.2272 13.3566C41.2288 13.355 41.2309 13.354 41.2332 13.354C41.5037 13.3532 41.7756 13.3534 42.0489 13.3546C42.5092 13.3566 42.9192 13.6002 42.8905 14.131C42.8736 14.4427 42.7263 14.653 42.4483 14.7618ZM42.5918 14.1772C42.6437 13.8061 42.3803 13.6182 42.0535 13.6198C41.8783 13.6207 41.7041 13.6188 41.5311 13.614C41.5298 13.614 41.5286 13.6142 41.5275 13.6147C41.5263 13.6152 41.5253 13.6159 41.5244 13.6168C41.5235 13.6177 41.5228 13.6188 41.5223 13.6199C41.5218 13.6211 41.5216 13.6223 41.5216 13.6236L41.5225 14.569C41.5225 14.5701 41.5229 14.5712 41.5237 14.5719C41.5244 14.5727 41.5254 14.5732 41.5265 14.5732C41.7147 14.5743 41.9031 14.573 42.0917 14.569C42.3358 14.5639 42.5546 14.4441 42.5918 14.1772Z" fill="#5F646E"/>
<path d="M45.0679 14.9217V13.3593C45.0679 13.3577 45.0685 13.3563 45.0695 13.3552C45.0706 13.3541 45.072 13.3535 45.0735 13.3535H45.356C45.3576 13.3535 45.359 13.3541 45.36 13.3552C45.3611 13.3563 45.3617 13.3577 45.3617 13.3593V15.4712C45.3617 15.4727 45.3611 15.4741 45.36 15.4753C45.359 15.4764 45.3576 15.477 45.356 15.477L45.1222 15.4778C45.1214 15.4778 45.1206 15.4776 45.1198 15.4773C45.1191 15.4769 45.1184 15.4764 45.1179 15.4757L43.8895 13.9043C43.8887 13.9033 43.8878 13.9026 43.8866 13.9023C43.8855 13.9019 43.8843 13.902 43.8832 13.9024C43.8821 13.9028 43.8812 13.9035 43.8805 13.9045C43.8798 13.9055 43.8795 13.9067 43.8795 13.9078V15.471C43.8795 15.4717 43.8793 15.4725 43.879 15.4732C43.8788 15.4739 43.8783 15.4746 43.8778 15.4751C43.8773 15.4756 43.8767 15.476 43.876 15.4763C43.8753 15.4766 43.8746 15.4768 43.8738 15.4768L43.5958 15.4773C43.5951 15.4773 43.5944 15.4772 43.5937 15.4769C43.593 15.4766 43.5924 15.4761 43.5919 15.4756C43.5913 15.4751 43.5909 15.4745 43.5906 15.4737C43.5904 15.473 43.5902 15.4723 43.5902 15.4715L43.5874 13.3593C43.5874 13.3577 43.588 13.3563 43.5891 13.3552C43.5901 13.3541 43.5916 13.3535 43.593 13.3535H43.8262C43.827 13.3535 43.8278 13.3537 43.8286 13.3541C43.8293 13.3544 43.83 13.355 43.8305 13.3557L45.0579 14.9253C45.0586 14.9262 45.0596 14.9269 45.0607 14.9273C45.0618 14.9276 45.063 14.9276 45.0641 14.9271C45.0652 14.9267 45.0661 14.926 45.0668 14.925C45.0675 14.9241 45.0679 14.9229 45.0679 14.9217Z" fill="#5F646E"/>
<path d="M46.8219 13.3535H47.1036C47.105 13.3535 47.1064 13.3539 47.1077 13.3547C47.1089 13.3555 47.1099 13.3566 47.1104 13.358L48.0401 15.4659C48.0407 15.4671 48.0409 15.4684 48.0408 15.4697C48.0407 15.471 48.0403 15.4723 48.0396 15.4734C48.0389 15.4745 48.038 15.4754 48.0369 15.476C48.0358 15.4766 48.0345 15.477 48.0333 15.477L47.7403 15.4771C47.7389 15.4771 47.7375 15.4767 47.7362 15.4758C47.735 15.475 47.7341 15.4738 47.7335 15.4724L47.5123 14.9528C47.5117 14.9514 47.5108 14.9502 47.5096 14.9494C47.5084 14.9485 47.5069 14.9481 47.5055 14.9481H46.4176C46.4161 14.9481 46.4147 14.9485 46.4135 14.9494C46.4122 14.9502 46.4113 14.9514 46.4107 14.9528L46.1876 15.475C46.187 15.4764 46.1861 15.4775 46.1849 15.4784C46.1837 15.4792 46.1822 15.4796 46.1808 15.4796L45.8932 15.4808C45.892 15.4808 45.8908 15.4804 45.8897 15.4798C45.8885 15.4792 45.8876 15.4782 45.8869 15.4772C45.8862 15.476 45.8858 15.4748 45.8858 15.4735C45.8857 15.4722 45.8859 15.4709 45.8864 15.4697L46.8151 13.358C46.8156 13.3566 46.8166 13.3555 46.8178 13.3547C46.8191 13.3539 46.8205 13.3535 46.8219 13.3535ZM46.5202 14.6955C46.5198 14.6964 46.5196 14.6974 46.5197 14.6985C46.5198 14.6995 46.5201 14.7005 46.5206 14.7013C46.5212 14.7022 46.5219 14.7029 46.5228 14.7034C46.5236 14.7039 46.5246 14.7041 46.5256 14.7041H47.3971C47.3981 14.7041 47.399 14.7039 47.3999 14.7034C47.4008 14.7029 47.4015 14.7022 47.4021 14.7013C47.4026 14.7005 47.4029 14.6995 47.403 14.6985C47.4031 14.6974 47.4029 14.6964 47.4025 14.6955L46.9668 13.6751C46.9663 13.674 46.9655 13.6731 46.9646 13.6725C46.9636 13.6718 46.9625 13.6715 46.9613 13.6715C46.9602 13.6715 46.9591 13.6718 46.9581 13.6725C46.9571 13.6731 46.9564 13.674 46.9559 13.6751L46.5202 14.6955Z" fill="#5F646E"/>
<path d="M48.8712 13.6171L48.1757 13.6148C48.1743 13.6148 48.173 13.6142 48.172 13.6132C48.171 13.6121 48.1704 13.6108 48.1704 13.6093V13.3589C48.1704 13.3575 48.171 13.3561 48.172 13.3551C48.173 13.3541 48.1743 13.3535 48.1757 13.3535H49.871C49.8724 13.3535 49.8737 13.3541 49.8747 13.3551C49.8757 13.3561 49.8763 13.3575 49.8763 13.3589V13.6105C49.8763 13.6119 49.8757 13.6133 49.8747 13.6142C49.8737 13.6153 49.8724 13.6158 49.871 13.6158L49.1753 13.6153C49.1739 13.6153 49.1726 13.6159 49.1716 13.6169C49.1707 13.6179 49.1701 13.6193 49.1701 13.6207L49.1688 15.4701C49.1688 15.4715 49.1683 15.4729 49.1673 15.4739C49.1663 15.4749 49.165 15.4755 49.1636 15.4755L48.8817 15.4788C48.881 15.4788 48.8803 15.4786 48.8797 15.4784C48.879 15.478 48.8785 15.4777 48.878 15.4772C48.8775 15.4767 48.8771 15.476 48.8769 15.4754C48.8766 15.4748 48.8764 15.474 48.8764 15.4733V13.6226C48.8764 13.6211 48.8759 13.6197 48.8749 13.6187C48.8739 13.6177 48.8726 13.6171 48.8712 13.6171Z" fill="#5F646E"/>
<path d="M50.7027 13.3535H50.4238C50.4198 13.3535 50.4165 13.3569 50.4165 13.3611V15.4723C50.4165 15.4765 50.4198 15.4798 50.4238 15.4798H50.7027C50.7068 15.4798 50.7101 15.4765 50.7101 15.4723V13.3611C50.7101 13.3569 50.7068 13.3535 50.7027 13.3535Z" fill="#5F646E"/>
<path d="M54.5285 15.4762L54.2459 15.4775C54.2444 15.4775 54.2428 15.4769 54.2418 15.4758C54.2408 15.4747 54.2402 15.4732 54.2402 15.4717V13.3593C54.2402 13.3577 54.2408 13.3563 54.2418 13.3552C54.2428 13.3541 54.2444 13.3535 54.2459 13.3535H54.4781C54.4791 13.3535 54.4797 13.3537 54.4807 13.3541C54.4812 13.3544 54.4817 13.355 54.4828 13.3557L55.708 14.9235C55.7085 14.9244 55.7095 14.9251 55.7106 14.9255C55.7121 14.9258 55.7132 14.9258 55.7142 14.9254C55.7152 14.9249 55.7163 14.9242 55.7168 14.9233C55.7178 14.9222 55.7178 14.9211 55.7178 14.9199V13.3593C55.7178 13.3577 55.7183 13.3563 55.7194 13.3552C55.7204 13.3541 55.722 13.3535 55.7235 13.3535H56.0061C56.0076 13.3535 56.0092 13.3541 56.0102 13.3552C56.0113 13.3563 56.0118 13.3577 56.0118 13.3593V15.4703C56.0118 15.4718 56.0113 15.4733 56.0102 15.4744C56.0092 15.4754 56.0076 15.476 56.0061 15.476L55.7739 15.4778C55.7729 15.4778 55.7724 15.4776 55.7713 15.4773C55.7708 15.4769 55.7703 15.4764 55.7692 15.4757L54.5441 13.9078C54.543 13.9069 54.542 13.9063 54.5409 13.9059C54.5399 13.9056 54.5389 13.9056 54.5378 13.906C54.5368 13.9064 54.5358 13.9071 54.5347 13.9081C54.5342 13.9091 54.5337 13.9103 54.5337 13.9115V15.4705C54.5337 15.472 54.5332 15.4734 54.5321 15.4745C54.5311 15.4756 54.53 15.4762 54.5285 15.4762Z" fill="#5F646E"/>
<path d="M56.5369 15.4735L57.4676 13.357C57.4676 13.3559 57.4686 13.3551 57.4696 13.3544C57.4702 13.3538 57.4717 13.3535 57.4727 13.3535H57.7568C57.7579 13.3535 57.7589 13.3538 57.76 13.3544C57.761 13.3551 57.7615 13.3559 57.762 13.357L58.6933 15.4688C58.6938 15.4697 58.6938 15.4707 58.6938 15.4717C58.6938 15.4727 58.6938 15.4737 58.6933 15.4746C58.6927 15.4754 58.6917 15.4761 58.6912 15.4766C58.6901 15.4771 58.6891 15.4773 58.6881 15.4773H58.3915C58.3905 15.4773 58.3894 15.477 58.3884 15.4764C58.3874 15.4757 58.3868 15.4748 58.3863 15.4737L58.1635 14.9517C58.163 14.9506 58.1625 14.9497 58.1614 14.949C58.1604 14.9484 58.1594 14.9481 58.1583 14.9481H57.0687C57.0676 14.9481 57.0661 14.9484 57.0656 14.949C57.0645 14.9497 57.0635 14.9506 57.063 14.9517L56.8396 15.475C56.8396 15.476 56.8386 15.4769 56.8376 15.4775C56.8365 15.4781 56.8355 15.4784 56.8344 15.4784L56.5426 15.4818C56.5415 15.4818 56.5405 15.4816 56.54 15.4812C56.5389 15.4807 56.5384 15.48 56.5374 15.4792C56.5369 15.4784 56.5369 15.4774 56.5369 15.4764C56.5363 15.4754 56.5369 15.4745 56.5369 15.4735ZM57.172 14.6962C57.1715 14.697 57.1715 14.698 57.1715 14.6989C57.1715 14.6998 57.1715 14.7008 57.172 14.7015C57.1726 14.7024 57.1736 14.703 57.1741 14.7034C57.1752 14.7039 57.1757 14.7041 57.1767 14.7041H58.0498C58.0508 14.7041 58.0513 14.7039 58.0524 14.7034C58.0529 14.703 58.0539 14.7024 58.0544 14.7015C58.055 14.7008 58.055 14.6998 58.055 14.6989C58.055 14.698 58.055 14.697 58.0544 14.6962L57.6182 13.6735C57.6177 13.6725 57.6171 13.6717 57.6161 13.6712C57.6151 13.6706 57.614 13.6703 57.6135 13.6703C57.6125 13.6703 57.6114 13.6706 57.6104 13.6712C57.6093 13.6717 57.6088 13.6725 57.6083 13.6735L57.172 14.6962Z" fill="#5F646E"/>
<path d="M59.5268 15.2146H60.6263C60.6279 15.2146 60.63 15.2154 60.631 15.2167C60.6325 15.218 60.6336 15.2199 60.6336 15.2218L60.6372 15.4688C60.6372 15.4698 60.6372 15.4708 60.6367 15.4717C60.6362 15.4726 60.6357 15.4735 60.6351 15.4741C60.6346 15.4749 60.6336 15.4754 60.6331 15.4758C60.632 15.4762 60.631 15.4764 60.63 15.4764L59.2329 15.4771C59.2308 15.4771 59.2292 15.4764 59.2277 15.475C59.2261 15.4736 59.2256 15.4717 59.2256 15.4697V13.3609C59.2256 13.3589 59.2261 13.3571 59.2277 13.3557C59.2292 13.3543 59.2308 13.3535 59.2329 13.3535H59.5123C59.5144 13.3535 59.5159 13.3543 59.5175 13.3557C59.5185 13.3571 59.5195 13.3589 59.5195 13.3609V15.2072C59.5195 15.2081 59.5195 15.2091 59.5201 15.21C59.5201 15.2109 59.5206 15.2117 59.5216 15.2124C59.5221 15.2131 59.5232 15.2137 59.5237 15.214C59.5247 15.2144 59.5258 15.2146 59.5268 15.2146Z" fill="#5F646E"/>
<path d="M62.6038 13.6164L61.9115 13.6151C61.9095 13.6151 61.9079 13.6144 61.9069 13.6131C61.9053 13.6118 61.9048 13.6101 61.9048 13.6083V13.3604C61.9048 13.3585 61.9053 13.3568 61.9069 13.3555C61.9079 13.3542 61.9095 13.3535 61.9115 13.3535H63.6041C63.6047 13.3535 63.6057 13.3537 63.6067 13.354C63.6073 13.3544 63.6078 13.3548 63.6088 13.3555C63.6093 13.3561 63.6099 13.3569 63.6099 13.3577C63.6104 13.3586 63.6104 13.3595 63.6104 13.3604V13.609C63.6104 13.6099 63.6104 13.6108 63.6099 13.6116C63.6099 13.6125 63.6093 13.6132 63.6088 13.6138C63.6078 13.6145 63.6073 13.615 63.6067 13.6153C63.6057 13.6157 63.6047 13.6158 63.6041 13.6158L62.9066 13.6153C62.9056 13.6153 62.9051 13.6155 62.904 13.6158C62.9035 13.6162 62.9025 13.6167 62.902 13.6173C62.9014 13.6179 62.9009 13.6187 62.9004 13.6195C62.9004 13.6204 62.8999 13.6213 62.8999 13.6222L62.9009 15.4695C62.9009 15.4714 62.8999 15.4731 62.8988 15.4744C62.8973 15.4757 62.8957 15.4764 62.8942 15.4764L62.6174 15.4771C62.6158 15.4771 62.6137 15.4764 62.6127 15.4751C62.6116 15.4738 62.6106 15.4721 62.6106 15.4703V13.6233C62.6106 13.6224 62.6106 13.6215 62.6101 13.6207C62.6101 13.6198 62.6096 13.6191 62.609 13.6184C62.608 13.6178 62.6075 13.6173 62.6064 13.6169C62.6059 13.6166 62.6049 13.6164 62.6038 13.6164Z" fill="#5F646E"/>
<path d="M64.4429 14.845V15.4708C64.4429 15.4725 64.4418 15.4741 64.4408 15.4752C64.4398 15.4764 64.4382 15.4771 64.4366 15.4771L64.1588 15.4778C64.152 15.4779 64.1489 15.4746 64.1489 15.4677V13.3629C64.1489 13.3605 64.15 13.3582 64.1515 13.3565C64.1531 13.3548 64.1552 13.3538 64.1578 13.3538C64.4252 13.3535 64.6943 13.3534 64.9643 13.3537C65.3429 13.3538 65.7159 13.5098 65.7974 13.9311C65.8343 14.1243 65.8073 14.346 65.6977 14.5073C65.6094 14.6373 65.5055 14.6951 65.3715 14.7657C65.3648 14.7691 65.3637 14.7739 65.3679 14.7802L65.8426 15.4703C65.8431 15.4711 65.8436 15.4722 65.8436 15.4732C65.8436 15.4743 65.8436 15.4754 65.8431 15.4764C65.8426 15.4773 65.8421 15.4782 65.841 15.4787C65.84 15.4792 65.8389 15.4795 65.8379 15.4794L65.5335 15.4766C65.5315 15.4766 65.5289 15.4759 65.5268 15.4748C65.5247 15.4737 65.5226 15.4721 65.5216 15.4701L65.0911 14.8376C65.0879 14.8331 65.0838 14.8308 65.0786 14.8308L64.4507 14.8366C64.4455 14.8366 64.4429 14.8394 64.4429 14.845ZM64.4434 13.6245L64.4418 14.5662C64.4418 14.5676 64.4424 14.5689 64.4434 14.5698C64.4444 14.5708 64.4455 14.5713 64.4465 14.5713L65.0339 14.5724C65.0973 14.5725 65.1601 14.5612 65.2188 14.5389C65.2775 14.5167 65.3305 14.4841 65.3757 14.4429C65.4203 14.4017 65.4562 14.3527 65.4801 14.2988C65.5045 14.245 65.5175 14.1872 65.5175 14.1288V14.0655C65.5175 13.9478 65.4666 13.8347 65.3767 13.7513C65.2863 13.6678 65.1638 13.6208 65.036 13.6205L64.4486 13.6194C64.447 13.6194 64.446 13.62 64.445 13.6209C64.4439 13.6219 64.4434 13.6232 64.4434 13.6245Z" fill="#5F646E"/>
<path d="M67.1312 13.3535H67.4148C67.4158 13.3535 67.4174 13.3538 67.4184 13.3545C67.4195 13.3552 67.42 13.3561 67.4205 13.3573L68.3522 15.4694C68.3522 15.4704 68.3528 15.4714 68.3528 15.4726C68.3528 15.4736 68.3522 15.4747 68.3517 15.4756C68.3512 15.4765 68.3502 15.4773 68.3491 15.4778C68.3486 15.4783 68.3476 15.4786 68.346 15.4786L68.05 15.4773C68.0489 15.4773 68.0479 15.4769 68.0469 15.4763C68.0458 15.4756 68.0448 15.4746 68.0443 15.4735L67.822 14.9521C67.8214 14.9509 67.8204 14.9499 67.8199 14.9491C67.8188 14.9485 67.8173 14.9481 67.8163 14.9481H66.7271C66.7261 14.9481 66.7245 14.9485 66.7235 14.9491C66.7225 14.9498 66.7219 14.9507 66.7214 14.9519L66.4971 15.4763C66.4965 15.4773 66.496 15.4783 66.495 15.479C66.4939 15.4796 66.4929 15.48 66.4919 15.48L66.2015 15.4816C66.2005 15.4816 66.1995 15.4814 66.1984 15.4809C66.1974 15.4804 66.1969 15.4796 66.1964 15.4787C66.1958 15.4777 66.1953 15.4767 66.1953 15.4756C66.1953 15.4745 66.1953 15.4734 66.1958 15.4724L67.1255 13.3573C67.126 13.3561 67.1265 13.3552 67.1276 13.3545C67.1286 13.3538 67.1302 13.3535 67.1312 13.3535ZM66.83 14.6966C66.8295 14.6974 66.8295 14.6983 66.8295 14.6992C66.8295 14.7001 66.83 14.701 66.8305 14.7017C66.831 14.7025 66.8315 14.7031 66.8326 14.7035C66.8331 14.7039 66.8341 14.7042 66.8352 14.7042H67.7082C67.7087 14.7042 67.7098 14.7039 67.7108 14.7035C67.7113 14.7031 67.7119 14.7025 67.7124 14.7017C67.7129 14.701 67.7134 14.7001 67.7134 14.6992C67.7134 14.6983 67.7134 14.6974 67.7129 14.6966L67.2761 13.673C67.2756 13.672 67.2751 13.6713 67.2746 13.6707C67.2735 13.6702 67.2725 13.6699 67.2714 13.6699C67.2704 13.6699 67.2694 13.6702 67.2688 13.6707C67.2678 13.6713 67.2673 13.672 67.2668 13.673L66.83 14.6966Z" fill="#5F646E"/>
<path d="M69.179 13.9088V15.4675C69.179 15.4711 69.1775 15.4746 69.1749 15.4771C69.1723 15.4797 69.1691 15.4811 69.1655 15.4811H68.898C68.8934 15.4811 68.8892 15.4792 68.8856 15.4758C68.8824 15.4724 68.8804 15.4678 68.8804 15.463L68.8809 13.367C68.8809 13.358 68.885 13.3535 68.8939 13.3535H69.1167C69.1193 13.3535 69.1219 13.3541 69.1245 13.3553C69.1271 13.3565 69.1291 13.3582 69.1307 13.3604L70.3538 14.9255C70.3548 14.9263 70.3554 14.9268 70.3564 14.9271C70.3574 14.9274 70.3585 14.9274 70.3595 14.927C70.3606 14.9267 70.3616 14.926 70.3621 14.9251C70.3626 14.9243 70.3632 14.9233 70.3632 14.9222L70.3626 13.3625C70.3626 13.3601 70.3637 13.3578 70.3652 13.3561C70.3668 13.3544 70.3694 13.3535 70.3715 13.3535H70.6457C70.6488 13.3535 70.6514 13.3547 70.6535 13.3568C70.6556 13.3589 70.6566 13.3619 70.6566 13.3649V15.4699C70.6566 15.476 70.6535 15.4792 70.6478 15.4793L70.4442 15.4818C70.4364 15.4819 70.4286 15.4802 70.4218 15.4769C70.4146 15.4735 70.4083 15.4685 70.4037 15.4623L69.1873 13.9057C69.1816 13.8988 69.179 13.8998 69.179 13.9088Z" fill="#5F646E"/>
<path d="M73.8328 15.477L73.5534 15.4776C73.5456 15.4776 73.542 15.4737 73.542 15.4659V13.3628C73.542 13.3604 73.543 13.3581 73.5446 13.3565C73.5461 13.3548 73.5482 13.3538 73.5508 13.3538C73.8167 13.3534 74.0842 13.3534 74.3532 13.3538C74.8279 13.3545 75.2195 13.5852 75.2055 14.1392C75.1936 14.6059 74.8103 14.8211 74.4047 14.83C74.2177 14.8341 74.0307 14.836 73.8443 14.8356C73.8422 14.8356 73.8401 14.8366 73.8385 14.8383C73.8365 14.84 73.836 14.8423 73.836 14.8446V15.4742C73.836 15.4749 73.8354 15.4756 73.8349 15.4762C73.8344 15.4767 73.8334 15.477 73.8328 15.477ZM73.836 13.6245V14.5637C73.836 14.5651 73.8365 14.5665 73.8375 14.5675C73.838 14.5685 73.8396 14.5691 73.8411 14.5691H74.4244C74.5537 14.5691 74.6773 14.5226 74.7682 14.4398C74.8596 14.3571 74.9105 14.2449 74.9105 14.1278V14.0603C74.9105 13.9432 74.8596 13.831 74.7682 13.7483C74.6773 13.6655 74.5537 13.619 74.4244 13.619H73.8411C73.8396 13.619 73.838 13.6196 73.8375 13.6206C73.8365 13.6216 73.836 13.623 73.836 13.6245Z" fill="#5F646E"/>
<path d="M78.8709 14.846V15.4728C78.8709 15.474 78.8704 15.4753 78.8699 15.4762C78.8688 15.4771 78.8678 15.4776 78.8662 15.4777L78.5998 15.4828C78.5816 15.4831 78.5723 15.4739 78.5723 15.4551L78.5738 13.3643C78.5738 13.3571 78.5775 13.3535 78.5842 13.3535C78.7 13.3541 78.9711 13.3547 79.3965 13.3553C79.8042 13.3559 80.1979 13.5436 80.2368 14.01C80.2675 14.3753 80.1215 14.6267 79.7985 14.7643C79.7912 14.7674 79.7897 14.772 79.7943 14.7784L80.2654 15.4632C80.2721 15.4737 80.2695 15.479 80.2571 15.4791L79.9865 15.4815C79.9771 15.4815 79.9683 15.4793 79.9605 15.475C79.9522 15.4708 79.9455 15.4646 79.9403 15.4569L79.5191 14.8381C79.516 14.8335 79.5118 14.8312 79.5066 14.8314L78.8797 14.837C78.874 14.8371 78.8709 14.8401 78.8709 14.846ZM78.8725 13.6319L78.8678 14.5531C78.8678 14.5578 78.8693 14.5622 78.8725 14.5656C78.8756 14.5689 78.8802 14.5708 78.8844 14.5708L79.4422 14.5739C79.5082 14.5742 79.5731 14.5633 79.6344 14.5416C79.6951 14.5198 79.7502 14.4879 79.7969 14.4474C79.8437 14.407 79.8811 14.3588 79.9065 14.3058C79.932 14.2528 79.9449 14.1958 79.9455 14.1382V14.0584C79.9465 13.9421 79.894 13.8303 79.8006 13.7476C79.7071 13.6649 79.5798 13.618 79.4474 13.6173L78.8896 13.6142C78.8875 13.6142 78.8849 13.6147 78.8828 13.6155C78.8808 13.6164 78.8787 13.6177 78.8771 13.6194C78.8756 13.621 78.8745 13.623 78.8735 13.6251C78.8725 13.6273 78.8725 13.6296 78.8725 13.6319Z" fill="#5F646E"/>
<path d="M81.3152 15.4694V13.6281C81.3152 13.6248 81.3142 13.6215 81.3116 13.6191C81.3095 13.6167 81.3064 13.6153 81.3032 13.6153L80.6218 13.6173C80.6182 13.6173 80.6151 13.6159 80.613 13.6135C80.6104 13.6111 80.6094 13.6079 80.6094 13.6045V13.3663C80.6094 13.3629 80.6104 13.3597 80.613 13.3573C80.6151 13.3548 80.6182 13.3535 80.6218 13.3535H82.3072C82.3103 13.3535 82.3134 13.3548 82.316 13.3573C82.3181 13.3597 82.3196 13.3629 82.3196 13.3663V13.6043C82.3196 13.6077 82.3181 13.611 82.316 13.6134C82.3134 13.6158 82.3103 13.6171 82.3072 13.6171L81.6216 13.6153C81.618 13.6153 81.6149 13.6167 81.6128 13.6191C81.6102 13.6215 81.6092 13.6248 81.6092 13.6281V15.4652C81.6092 15.4686 81.6076 15.4718 81.6055 15.4742C81.6034 15.4766 81.6003 15.478 81.5967 15.478L81.3277 15.4822C81.3261 15.4822 81.3245 15.4819 81.323 15.4813C81.3214 15.4806 81.3199 15.4797 81.3188 15.4785C81.3178 15.4773 81.3167 15.4759 81.3162 15.4743C81.3152 15.4728 81.3152 15.4711 81.3152 15.4694Z" fill="#5F646E"/>
<path d="M89.4636 14.8353C89.4584 14.8353 89.4552 14.8381 89.4552 14.8438L89.4573 15.4693C89.4573 15.4725 89.4558 15.4756 89.4537 15.4779C89.4516 15.4801 89.4485 15.4814 89.4454 15.4814L89.1686 15.48C89.1618 15.48 89.1587 15.4765 89.1587 15.4695V13.363C89.1587 13.3607 89.1592 13.3584 89.1608 13.3568C89.1623 13.3551 89.1649 13.3542 89.167 13.3542C89.4392 13.3531 89.7123 13.3534 89.9871 13.3549C90.4935 13.3578 90.8892 13.651 90.8155 14.2168C90.7609 14.6353 90.4005 14.8265 90.0234 14.8324C89.8354 14.8354 89.649 14.8363 89.4636 14.8353ZM89.4537 13.6243V14.5657C89.4537 14.5666 89.4542 14.5676 89.4547 14.5682C89.4558 14.5689 89.4563 14.5693 89.4573 14.5693H90.0484C90.1751 14.5693 90.2971 14.523 90.387 14.4406C90.4768 14.3582 90.5272 14.2464 90.5272 14.1299V14.0601C90.5272 14.0024 90.5148 13.9453 90.4909 13.892C90.467 13.8387 90.4317 13.7902 90.387 13.7494C90.3423 13.7086 90.2899 13.6762 90.2317 13.6542C90.1735 13.6321 90.1112 13.6207 90.0484 13.6207H89.4573C89.4563 13.6207 89.4558 13.6211 89.4547 13.6218C89.4542 13.6224 89.4537 13.6234 89.4537 13.6243Z" fill="#5F646E"/>
<path d="M91.7795 14.2705H92.8016C92.8031 14.2705 92.8047 14.2711 92.8057 14.2722C92.8068 14.2733 92.8073 14.2748 92.8073 14.2763L92.8063 14.5222C92.8063 14.5237 92.8057 14.5252 92.8047 14.5263C92.8037 14.5274 92.8026 14.5279 92.8011 14.5279H91.7779C91.7764 14.5279 91.7748 14.5286 91.7738 14.5296C91.7727 14.5308 91.7722 14.5322 91.7722 14.5337V15.2088C91.7722 15.2103 91.7732 15.2118 91.7743 15.2129C91.7753 15.214 91.7764 15.2146 91.7779 15.2146H92.9657C92.9673 15.2146 92.9683 15.2152 92.9693 15.2163C92.9704 15.2174 92.9714 15.2188 92.9714 15.2204L92.9704 15.4708C92.9704 15.4724 92.9693 15.4738 92.9683 15.4749C92.9673 15.476 92.9662 15.4766 92.9647 15.4766L91.4798 15.477C91.4788 15.477 91.4772 15.4764 91.4762 15.4753C91.4751 15.4741 91.4746 15.4727 91.4746 15.4712V13.3593C91.4746 13.3577 91.4751 13.3563 91.4762 13.3552C91.4772 13.3541 91.4788 13.3535 91.4803 13.3535H92.9257C92.9273 13.3535 92.9283 13.3541 92.9294 13.3552C92.9304 13.3563 92.9314 13.3577 92.9314 13.3593L92.9304 13.6097C92.9304 13.6112 92.9299 13.6127 92.9288 13.6138C92.9278 13.6149 92.9262 13.6155 92.9247 13.6155H91.7738C91.7722 13.6155 91.7707 13.6161 91.7696 13.6172C91.7686 13.6182 91.7681 13.6197 91.7681 13.6213L91.7743 14.2647C91.7743 14.2662 91.7748 14.2677 91.7758 14.2688C91.7769 14.2699 91.7779 14.2705 91.7795 14.2705Z" fill="#5F646E"/>
<path d="M93.6641 13.3606C93.6641 13.3595 93.6646 13.3583 93.6651 13.3575C93.6661 13.3566 93.6672 13.3561 93.6682 13.3561L94.6062 13.3545C94.882 13.354 95.1468 13.4611 95.3426 13.6523C95.5379 13.8435 95.648 14.1031 95.6486 14.374V14.4527C95.6491 14.7236 95.54 14.9836 95.3452 15.1755C95.15 15.3674 94.8856 15.4755 94.6093 15.4759L93.6719 15.4778C93.6708 15.4778 93.6698 15.4773 93.6687 15.4765C93.6682 15.4756 93.6677 15.4745 93.6677 15.4733L93.6641 13.3606ZM95.3343 14.2149C95.2595 13.8493 94.9313 13.6283 94.5818 13.6214C94.4867 13.6196 94.2826 13.6191 93.9689 13.6199C93.9637 13.62 93.9606 13.623 93.9606 13.6288L93.9617 15.2031C93.9617 15.2096 93.9648 15.213 93.971 15.2131C94.1559 15.2158 94.3408 15.2172 94.5252 15.2172C95.0773 15.2171 95.4528 14.7929 95.3343 14.2149Z" fill="#5F646E"/>
<path d="M96.604 13.3535H96.3251C96.321 13.3535 96.3179 13.357 96.3179 13.3613V15.4692C96.3179 15.4735 96.321 15.477 96.3251 15.477H96.604C96.6082 15.477 96.6118 15.4735 96.6118 15.4692V13.3613C96.6118 13.357 96.6082 13.3535 96.604 13.3535Z" fill="#5F646E"/>
<path d="M97.8509 13.6153L97.1596 13.6158C97.1576 13.6158 97.1555 13.615 97.1539 13.6135C97.1529 13.612 97.1519 13.61 97.1519 13.6079V13.3615C97.1519 13.3594 97.1529 13.3573 97.1539 13.3558C97.1555 13.3543 97.1576 13.3535 97.1596 13.3535H98.8502C98.8523 13.3535 98.8538 13.3543 98.8554 13.3558C98.8569 13.3573 98.8575 13.3594 98.8575 13.3615V13.6077C98.8575 13.6098 98.8569 13.6118 98.8554 13.6133C98.8538 13.6148 98.8523 13.6157 98.8502 13.6157L98.1594 13.6198C98.1573 13.6198 98.1553 13.6207 98.1537 13.6221C98.1527 13.6236 98.1516 13.6257 98.1516 13.6278V15.4724C98.1516 15.4746 98.1511 15.4766 98.1496 15.478C98.148 15.4795 98.1459 15.4804 98.1438 15.4804L97.8655 15.4806C97.8634 15.4806 97.8613 15.4797 97.8603 15.4782C97.8587 15.4768 97.8577 15.4747 97.8577 15.4726L97.8587 13.6233C97.8587 13.6212 97.8577 13.6191 97.8566 13.6176C97.8551 13.6161 97.853 13.6153 97.8509 13.6153Z" fill="#5F646E"/>
<path d="M99.6822 13.3535H99.4033C99.3991 13.3535 99.3955 13.3569 99.3955 13.3611V15.473C99.3955 15.4772 99.3991 15.4806 99.4033 15.4806H99.6822C99.6858 15.4806 99.6895 15.4772 99.6895 15.473V13.3611C99.6895 13.3569 99.6858 13.3535 99.6822 13.3535Z" fill="#5F646E"/>
<path d="M103.513 13.9098V15.4708C103.513 15.4715 103.513 15.4722 103.513 15.4729C103.512 15.4735 103.512 15.4741 103.511 15.4747C103.511 15.4751 103.51 15.4755 103.51 15.4758C103.509 15.4761 103.509 15.4762 103.507 15.4762L103.224 15.48C103.223 15.48 103.222 15.4794 103.221 15.4785C103.22 15.4774 103.219 15.476 103.219 15.4746V13.3589C103.219 13.3575 103.22 13.3561 103.221 13.3551C103.222 13.3541 103.223 13.3535 103.224 13.3535H103.458C103.459 13.3535 103.459 13.3537 103.46 13.354C103.461 13.3544 103.461 13.3548 103.462 13.3555L104.688 14.9239C104.689 14.9247 104.69 14.9253 104.691 14.9256C104.692 14.9259 104.693 14.9259 104.694 14.9255C104.695 14.9251 104.695 14.9244 104.696 14.9235C104.697 14.9226 104.697 14.9215 104.697 14.9204L104.697 13.3589C104.697 13.3575 104.697 13.3561 104.698 13.3551C104.699 13.3541 104.701 13.3535 104.702 13.3535H104.99C104.991 13.3535 104.992 13.3541 104.993 13.3551C104.994 13.3561 104.995 13.3575 104.995 13.3589V15.4703C104.995 15.4717 104.994 15.4731 104.993 15.4741C104.992 15.4751 104.991 15.4757 104.99 15.4757L104.753 15.4784C104.753 15.4784 104.752 15.4782 104.751 15.4779C104.75 15.4775 104.75 15.4771 104.749 15.4764L103.522 13.9064C103.522 13.9055 103.52 13.9049 103.519 13.9047C103.518 13.9044 103.517 13.9044 103.516 13.9048C103.515 13.9052 103.515 13.9058 103.514 13.9068C103.513 13.9076 103.513 13.9087 103.513 13.9098Z" fill="#5F646E"/>
</g>
<path d="M31.2449 1.22478C31.2449 1.09471 31.1397 0.989258 31.0099 0.989258C30.8801 0.989258 30.7749 1.09471 30.7749 1.22478V15.3621C30.7749 15.4922 30.8801 15.5976 31.0099 15.5976C31.1397 15.5976 31.2449 15.4922 31.2449 15.3621V1.22478Z" fill="#5F646E"/>
</g>
</svg>
