<svg width="105" height="20" viewBox="0 0 105 20" fill="none" xmlns="http://www.w3.org/2000/svg">
<path d="M28.1093 15.1593V19.6316H27.5981V15.1593H28.1093Z" fill="#5F646E"/>
<path d="M29.3831 15.1593H29.8445L31.8393 18.0486C31.9292 18.1811 32.0168 18.3136 32.102 18.4461C32.1919 18.5786 32.2771 18.7111 32.3575 18.8436H32.3717C32.3623 18.6685 32.3552 18.4958 32.3504 18.3254C32.3504 18.1503 32.3504 17.9752 32.3504 17.8001V15.1593H32.8474V19.6316H32.3859L30.4337 16.8276C30.3344 16.6856 30.235 16.5341 30.1356 16.3732C30.0409 16.2076 29.951 16.0443 29.8658 15.8834H29.8516C29.8611 16.0964 29.8682 16.307 29.8729 16.5152C29.8777 16.7187 29.88 16.9269 29.88 17.1399V19.6316H29.3831V15.1593Z" fill="#5F646E"/>
<path d="M34.1213 15.1593L35.0868 17.7788C35.1625 17.9776 35.2406 18.1858 35.321 18.4035C35.4015 18.6165 35.4748 18.8223 35.5411 19.0211H35.5553C35.6263 18.8081 35.6996 18.5975 35.7753 18.3893C35.8511 18.1811 35.9268 17.9776 36.0025 17.7788L36.9822 15.1593H37.5217L35.7824 19.6316H35.2855L33.5747 15.1593H34.1213Z" fill="#5F646E"/>
<path d="M38.2425 15.1593H40.8691V15.5782H38.7536V17.1115H40.6845V17.5303H38.7536V19.2128H40.8904V19.6316H38.2425V15.1593Z" fill="#5F646E"/>
<path d="M43.1062 15.1025C43.3192 15.1025 43.5227 15.1215 43.7167 15.1593C43.9155 15.1972 44.1119 15.2611 44.3059 15.351L44.1782 15.7698C43.9747 15.6752 43.7901 15.6089 43.6245 15.5711C43.4635 15.5332 43.2979 15.5143 43.1275 15.5143C42.8388 15.5143 42.607 15.5805 42.4318 15.713C42.2567 15.8408 42.1692 16.023 42.1692 16.2597C42.1692 16.4679 42.2354 16.6335 42.368 16.7566C42.5005 16.8749 42.7063 16.979 42.9856 17.0689L43.4612 17.2251C43.8256 17.3481 44.0906 17.5161 44.2562 17.7291C44.4266 17.9373 44.5118 18.1763 44.5118 18.4461C44.5118 18.6401 44.4739 18.8152 44.3982 18.9714C44.3272 19.1229 44.2255 19.253 44.093 19.3618C43.9605 19.466 43.8019 19.5488 43.6174 19.6103C43.4328 19.6671 43.2293 19.6955 43.0069 19.6955C42.7797 19.6955 42.5525 19.6742 42.3254 19.6316C42.1029 19.589 41.8781 19.5157 41.651 19.4115L41.7859 18.9927C41.9846 19.0921 42.1787 19.1654 42.368 19.2128C42.562 19.2554 42.7655 19.2767 42.9785 19.2767C43.2671 19.2767 43.5061 19.2128 43.6954 19.085C43.8895 18.9572 43.9865 18.7608 43.9865 18.4958C43.9865 18.4011 43.9723 18.3136 43.9439 18.2331C43.9202 18.1479 43.8753 18.0699 43.809 17.9989C43.7428 17.9279 43.6528 17.8616 43.5393 17.8001C43.4257 17.7338 43.2813 17.6723 43.1062 17.6155L42.6448 17.4665C42.3467 17.3718 42.1053 17.2346 41.9207 17.0547C41.7362 16.8702 41.6439 16.6264 41.6439 16.3235C41.6439 15.9497 41.7693 15.6539 42.0201 15.4362C42.2709 15.2138 42.633 15.1025 43.1062 15.1025Z" fill="#5F646E"/>
<path d="M48.3629 15.1593V15.5853H46.8934V19.6316H46.3823V15.5853H44.9412V15.1593H48.3629Z" fill="#5F646E"/>
<path d="M49.4417 15.1593H50.109L51.1455 18.2331C51.1833 18.342 51.2235 18.465 51.2661 18.6023C51.3135 18.7395 51.3561 18.872 51.3939 18.9998H51.4081C51.446 18.8768 51.4862 18.749 51.5288 18.6165C51.5714 18.4792 51.6116 18.3514 51.6495 18.2331L52.6646 15.1593H53.339L53.7649 19.6316H53.2538L53.0337 17.1683C53.0101 16.9175 52.9888 16.6714 52.9699 16.43C52.9557 16.1839 52.9438 15.9355 52.9344 15.6846H52.9202C52.8539 15.9118 52.7806 16.1555 52.7001 16.4158C52.6244 16.6714 52.5463 16.9222 52.4658 17.1683L51.6211 19.6316H51.1597L50.3149 17.1612C50.2297 16.9104 50.1493 16.6667 50.0735 16.43C49.9978 16.1887 49.9268 15.9402 49.8606 15.6846H49.8464C49.8322 15.9118 49.8156 16.1532 49.7967 16.4087C49.7777 16.6643 49.7564 16.9175 49.7328 17.1683L49.5198 19.6316H49.0229L49.4417 15.1593Z" fill="#5F646E"/>
<path d="M54.9284 15.1593H57.555V15.5782H55.4395V17.1115H57.3704V17.5303H55.4395V19.2128H57.5763V19.6316H54.9284V15.1593Z" fill="#5F646E"/>
<path d="M58.5782 15.1593H59.0396L61.0344 18.0486C61.1243 18.1811 61.2119 18.3136 61.2971 18.4461C61.387 18.5786 61.4722 18.7111 61.5526 18.8436H61.5668C61.5574 18.6685 61.5503 18.4958 61.5455 18.3254C61.5455 18.1503 61.5455 17.9752 61.5455 17.8001V15.1593H62.0425V19.6316H61.581L59.6289 16.8276C59.5295 16.6856 59.4301 16.5341 59.3307 16.3732C59.236 16.2076 59.1461 16.0443 59.0609 15.8834H59.0467C59.0562 16.0964 59.0633 16.307 59.068 16.5152C59.0728 16.7187 59.0751 16.9269 59.0751 17.1399V19.6316H58.5782V15.1593Z" fill="#5F646E"/>
<path d="M66.2411 15.1593V15.5853H64.7717V19.6316H64.2606V15.5853H62.8195V15.1593H66.2411Z" fill="#5F646E"/>
<path d="M26.7896 0.991373L28.1515 6.33792C28.1851 6.48364 28.2299 6.68539 28.286 6.94319C28.342 7.20099 28.3981 7.47561 28.4541 7.76703C28.5102 8.04725 28.5606 8.33307 28.6054 8.6245C28.6615 8.90472 28.7007 9.1457 28.7231 9.34746H28.7567C28.7904 9.1345 28.8296 8.8879 28.8744 8.60769C28.9305 8.32747 28.9865 8.04725 29.0426 7.76703C29.1098 7.47561 29.1715 7.2066 29.2275 6.96001C29.2836 6.70221 29.3284 6.49485 29.362 6.33792L30.8079 0.991373H32.8759L34.3219 6.32111C34.3555 6.46682 34.4003 6.66858 34.4564 6.92638C34.5236 7.18418 34.5853 7.45879 34.6413 7.75022C34.6974 8.04165 34.7534 8.33307 34.8094 8.6245C34.8655 8.90472 34.9103 9.1457 34.944 9.34746H34.9776C35.0112 9.1457 35.056 8.90472 35.1121 8.6245C35.1681 8.34428 35.2242 8.06406 35.2802 7.78385C35.3363 7.49242 35.3923 7.21781 35.4483 6.96001C35.5044 6.70221 35.5492 6.48924 35.5828 6.32111L36.8943 0.991373H38.9623L36.1209 11.5836H33.9352L32.4724 6.01848C32.3491 5.55892 32.237 5.11618 32.1362 4.69024C32.0353 4.25311 31.9288 3.78794 31.8167 3.29476H31.7831C31.6822 3.79915 31.5869 4.25871 31.4973 4.67343C31.4076 5.08815 31.3011 5.5309 31.1778 6.00166L29.7655 11.5836H27.5966L24.688 0.991373H26.7896Z" fill="#5F646E"/>
<path d="M42.0109 0.991373V11.5836H39.9598V0.991373H42.0109Z" fill="#5F646E"/>
<path d="M44.1059 0.991373H46.1571V9.93592H50.5117V11.5836H44.1059V0.991373Z" fill="#5F646E"/>
<path d="M51.5686 0.991373H53.6198V9.93592H57.9744V11.5836H51.5686V0.991373Z" fill="#5F646E"/>
<path d="M64.0585 10.1377C64.5853 10.1377 65.0281 10.0928 65.3867 10.0032C65.7454 9.9135 66.0705 9.7902 66.3619 9.63328L66.799 11.1801C66.4852 11.337 66.0873 11.4715 65.6053 11.5836C65.1233 11.6957 64.5349 11.7517 63.8399 11.7517C63.0777 11.7517 62.366 11.6284 61.7047 11.3818C61.0546 11.1352 60.4885 10.7822 60.0066 10.3226C59.5358 9.85185 59.1659 9.28021 58.8969 8.60769C58.6279 7.92396 58.4934 7.15056 58.4934 6.28748C58.4934 5.44683 58.6223 4.69024 58.8801 4.01772C59.1379 3.33399 59.5022 2.75674 59.9729 2.28598C60.4549 1.81521 61.0266 1.45653 61.6879 1.20994C62.3492 0.952142 63.0834 0.823242 63.8904 0.823242C64.6077 0.823242 65.1962 0.88489 65.6558 1.00819C66.1153 1.13148 66.5076 1.27719 66.8327 1.44533L66.3619 2.99213C66.0256 2.824 65.6838 2.68949 65.3363 2.58861C64.9888 2.48773 64.5853 2.4373 64.1258 2.4373C63.655 2.4373 63.2066 2.51015 62.7807 2.65587C62.366 2.79037 62.0017 3.01454 61.6879 3.32839C61.3852 3.63102 61.1386 4.02893 60.9481 4.52211C60.7688 5.00409 60.6791 5.59255 60.6791 6.28748C60.6791 6.96001 60.7688 7.54286 60.9481 8.03604C61.1274 8.51802 61.3684 8.91593 61.6711 9.22977C61.9737 9.54361 62.3268 9.77339 62.7303 9.9191C63.145 10.0648 63.5877 10.1377 64.0585 10.1377Z" fill="#5F646E"/>
<path d="M68.2182 11.5836V0.991373H70.2694V5.2787H74.6239V0.991373H76.6751V11.5836H74.6239V6.92638H70.2694V11.5836H68.2182Z" fill="#5F646E"/>
<path d="M78.7841 0.991373H85.5093V2.60543H80.8353V5.2787H85.0722V6.87594H80.8353V9.96954H85.5598V11.5836H78.7841V0.991373Z" fill="#5F646E"/>
<path d="M91.9964 10.1377C92.5232 10.1377 92.966 10.0928 93.3246 10.0032C93.6833 9.9135 94.0084 9.7902 94.2998 9.63328L94.7369 11.1801C94.4231 11.337 94.0252 11.4715 93.5432 11.5836C93.0612 11.6957 92.4728 11.7517 91.7778 11.7517C91.0156 11.7517 90.3039 11.6284 89.6426 11.3818C88.9925 11.1352 88.4264 10.7822 87.9445 10.3226C87.4737 9.85185 87.1038 9.28021 86.8348 8.60769C86.5658 7.92396 86.4313 7.15056 86.4313 6.28748C86.4313 5.44683 86.5602 4.69024 86.818 4.01772C87.0758 3.33399 87.4401 2.75674 87.9108 2.28598C88.3928 1.81521 88.9645 1.45653 89.6258 1.20994C90.2871 0.952142 91.0213 0.823242 91.8283 0.823242C92.5456 0.823242 93.1341 0.88489 93.5937 1.00819C94.0532 1.13148 94.4455 1.27719 94.7706 1.44533L94.2998 2.99213C93.9635 2.824 93.6217 2.68949 93.2742 2.58861C92.9267 2.48773 92.5232 2.4373 92.0637 2.4373C91.5929 2.4373 91.1446 2.51015 90.7186 2.65587C90.3039 2.79037 89.9396 3.01454 89.6258 3.32839C89.3231 3.63102 89.0765 4.02893 88.886 4.52211C88.7067 5.00409 88.617 5.59255 88.617 6.28748C88.617 6.96001 88.7067 7.54286 88.886 8.03604C89.0653 8.51802 89.3063 8.91593 89.609 9.22977C89.9116 9.54361 90.2647 9.77339 90.6682 9.9191C91.0829 10.0648 91.5257 10.1377 91.9964 10.1377Z" fill="#5F646E"/>
<path d="M96.1561 11.5836V0.991373H98.2073V5.56452L102.108 0.991373H104.663L100.561 5.63178L105 11.5836H102.461L99.0815 6.96001L98.2073 7.90154V11.5836H96.1561Z" fill="#5F646E"/>
<path fill-rule="evenodd" clip-rule="evenodd" d="M21.4645 0.984375H0.000488281V19.6307H21.4645V0.984375ZM17.5409 9.32031L17.5408 9.32033H17.5414L17.5414 16.9513L12.898 16.9513L12.898 11.2442L8.60218 6.94846L11.8856 3.66504L17.5409 9.32031ZM3.92627 11.5946L6.31897 13.9873L6.31897 16.9515L10.9625 16.9515L10.9625 12.0641L7.20969 8.3112L3.92627 11.5946Z" fill="#5F646E"/>
</svg>
