<svg width="25" height="25" viewBox="0 0 25 25" fill="none" xmlns="http://www.w3.org/2000/svg">
<path d="M12.5957 6.44702V12.447H17.0957M21.5957 12.447C21.5957 13.6289 21.3629 14.7992 20.9106 15.8912C20.4583 16.9831 19.7954 17.9753 18.9597 18.811C18.1239 19.6467 17.1318 20.3096 16.0399 20.7619C14.9479 21.2142 13.7776 21.447 12.5957 21.447C11.4138 21.447 10.2435 21.2142 9.15155 20.7619C8.05962 20.3096 7.06747 19.6467 6.23174 18.811C5.39601 17.9753 4.73308 16.9831 4.28079 15.8912C3.82849 14.7992 3.5957 13.6289 3.5957 12.447C3.5957 10.0601 4.54391 7.77089 6.23174 6.08306C7.91957 4.39523 10.2088 3.44702 12.5957 3.44702C14.9827 3.44702 17.2718 4.39523 18.9597 6.08306C20.6475 7.77089 21.5957 10.0601 21.5957 12.447Z" stroke="#4D3EE2" stroke-width="2" stroke-linecap="round" stroke-linejoin="round"/>
</svg>
