<svg width="35" height="35" viewBox="0 0 35 35" fill="none" xmlns="http://www.w3.org/2000/svg">
<rect x="0.5" y="0.5" width="34" height="34" rx="4.5" fill="#151515"/>
<rect x="0.5" y="0.5" width="34" height="34" rx="4.5" stroke="#F9FAFB"/>
<path d="M11.5971 21.76V14.66C11.5971 14.5 11.5504 14.38 11.4571 14.3C11.3771 14.22 11.2838 14.18 11.1771 14.18C11.1104 14.18 11.0438 14.2 10.9771 14.24C10.9238 14.2667 10.8704 14.32 10.8171 14.4C10.7771 14.4667 10.7571 14.5533 10.7571 14.66V21.76C10.7571 21.92 10.7971 22.04 10.8771 22.12C10.9704 22.2 11.0704 22.24 11.1771 22.24C11.2438 22.24 11.3038 22.2267 11.3571 22.2C11.4238 22.16 11.4771 22.1067 11.5171 22.04C11.5704 21.96 11.5971 21.8667 11.5971 21.76ZM8.29711 14.64C8.29711 12.6933 9.25711 11.72 11.1771 11.72C13.0971 11.72 14.0571 12.6933 14.0571 14.64V21.78C14.0571 23.7267 13.0971 24.7 11.1771 24.7C9.25711 24.7 8.29711 23.7267 8.29711 21.78V14.64ZM17.9457 11.92H20.4057V21.78C20.4057 23.7267 19.4457 24.7 17.5257 24.7C15.6057 24.7 14.6457 23.7267 14.6457 21.78V11.92H17.1057V21.76C17.1057 21.92 17.1457 22.04 17.2257 22.12C17.319 22.2 17.419 22.24 17.5257 22.24C17.5924 22.24 17.6524 22.2267 17.7057 22.2C17.7724 22.16 17.8257 22.1067 17.8657 22.04C17.919 21.96 17.9457 21.8667 17.9457 21.76V11.92ZM26.0124 18.08V18.4L26.8724 24.5H24.3724L23.9124 19.36H23.5324V24.5H21.0724V11.92H23.5324V17.06H23.9124L24.3724 11.92H26.8724L26.0124 18.08Z" fill="white"/>
</svg>
