<svg width="96" height="96" viewBox="0 0 96 96" fill="none" xmlns="http://www.w3.org/2000/svg">
<g filter="url(#filter0_d_1_78)">
<rect x="21" y="5.74219" width="54" height="54" rx="4.5" fill="#151515"/>
<rect x="21" y="5.74219" width="54" height="54" rx="4.5" stroke="#F9FAFB"/>
<path d="M39.1457 38.6322V27.9822C39.1457 27.7422 39.0757 27.5622 38.9357 27.4422C38.8157 27.3222 38.6757 27.2622 38.5157 27.2622C38.4157 27.2622 38.3157 27.2922 38.2157 27.3522C38.1357 27.3922 38.0557 27.4722 37.9757 27.5922C37.9157 27.6922 37.8857 27.8222 37.8857 27.9822V38.6322C37.8857 38.8722 37.9457 39.0522 38.0657 39.1722C38.2057 39.2922 38.3557 39.3522 38.5157 39.3522C38.6157 39.3522 38.7057 39.3322 38.7857 39.2922C38.8857 39.2322 38.9657 39.1522 39.0257 39.0522C39.1057 38.9322 39.1457 38.7922 39.1457 38.6322ZM34.1957 27.9522C34.1957 25.0322 35.6357 23.5722 38.5157 23.5722C41.3957 23.5722 42.8357 25.0322 42.8357 27.9522V38.6622C42.8357 41.5822 41.3957 43.0422 38.5157 43.0422C35.6357 43.0422 34.1957 41.5822 34.1957 38.6622V27.9522ZM48.6686 23.8722H52.3586V38.6622C52.3586 41.5822 50.9186 43.0422 48.0386 43.0422C45.1586 43.0422 43.7186 41.5822 43.7186 38.6622V23.8722H47.4086V38.6322C47.4086 38.8722 47.4686 39.0522 47.5886 39.1722C47.7286 39.2922 47.8786 39.3522 48.0386 39.3522C48.1386 39.3522 48.2286 39.3322 48.3086 39.2922C48.4086 39.2322 48.4886 39.1522 48.5486 39.0522C48.6286 38.9322 48.6686 38.7922 48.6686 38.6322V23.8722ZM60.7686 33.1122V33.5922L62.0586 42.7422H58.3086L57.6186 35.0322H57.0486V42.7422H53.3586V23.8722H57.0486V31.5822H57.6186L58.3086 23.8722H62.0586L60.7686 33.1122Z" fill="white"/>
</g>
<defs>
<filter id="filter0_d_1_78" x="0.5" y="0.242188" width="95" height="95" filterUnits="userSpaceOnUse" color-interpolation-filters="sRGB">
<feFlood flood-opacity="0" result="BackgroundImageFix"/>
<feColorMatrix in="SourceAlpha" type="matrix" values="0 0 0 0 0 0 0 0 0 0 0 0 0 0 0 0 0 0 127 0" result="hardAlpha"/>
<feOffset dy="15"/>
<feGaussianBlur stdDeviation="10"/>
<feComposite in2="hardAlpha" operator="out"/>
<feColorMatrix type="matrix" values="0 0 0 0 0 0 0 0 0 0 0 0 0 0 0 0 0 0 0.2 0"/>
<feBlend mode="normal" in2="BackgroundImageFix" result="effect1_dropShadow_1_78"/>
<feBlend mode="normal" in="SourceGraphic" in2="effect1_dropShadow_1_78" result="shape"/>
</filter>
</defs>
</svg>
