<svg width="25" height="25" viewBox="0 0 25 25" fill="none" xmlns="http://www.w3.org/2000/svg">
<path d="M7.3457 3.44727V5.69727M17.8457 3.44727V5.69727M3.5957 19.1973V7.94727C3.5957 7.35053 3.83276 6.77823 4.25471 6.35628C4.67667 5.93432 5.24897 5.69727 5.8457 5.69727H19.3457C19.9424 5.69727 20.5147 5.93432 20.9367 6.35628C21.3587 6.77823 21.5957 7.35053 21.5957 7.94727V19.1973M3.5957 19.1973C3.5957 19.794 3.83276 20.3663 4.25471 20.7883C4.67667 21.2102 5.24897 21.4473 5.8457 21.4473H19.3457C19.9424 21.4473 20.5147 21.2102 20.9367 20.7883C21.3587 20.3663 21.5957 19.794 21.5957 19.1973M3.5957 19.1973V11.6973C3.5957 11.1005 3.83276 10.5282 4.25471 10.1063C4.67667 9.68432 5.24897 9.44727 5.8457 9.44727H19.3457C19.9424 9.44727 20.5147 9.68432 20.9367 10.1063C21.3587 10.5282 21.5957 11.1005 21.5957 11.6973V19.1973" stroke="#4D3EE2" stroke-width="2" stroke-linecap="round" stroke-linejoin="round"/>
</svg>
