<svg width="25" height="25" viewBox="0 0 25 25" fill="none" xmlns="http://www.w3.org/2000/svg">
<path d="M20.0957 14.6973V12.0723C20.0957 11.1772 19.7401 10.3187 19.1072 9.68578C18.4743 9.05285 17.6158 8.69727 16.7207 8.69727H15.2207C14.9223 8.69727 14.6362 8.57874 14.4252 8.36776C14.2142 8.15678 14.0957 7.87063 14.0957 7.57227V6.07227C14.0957 5.17716 13.7401 4.31872 13.1072 3.68578C12.4743 3.05285 11.6158 2.69727 10.7207 2.69727H8.8457M8.8457 15.4473H16.3457M8.8457 18.4473H12.5957M11.0957 2.69727H6.2207C5.5997 2.69727 5.0957 3.20127 5.0957 3.82227V21.0723C5.0957 21.6933 5.5997 22.1973 6.2207 22.1973H18.9707C19.5917 22.1973 20.0957 21.6933 20.0957 21.0723V11.6973C20.0957 9.31032 19.1475 7.02113 17.4597 5.3333C15.7718 3.64548 13.4827 2.69727 11.0957 2.69727Z" stroke="#4D3EE2" stroke-width="1.5" stroke-linecap="round" stroke-linejoin="round"/>
</svg>
