<svg width="682" height="264" viewBox="0 0 682 264" fill="none" xmlns="http://www.w3.org/2000/svg">
<path d="M71.44 141.669C77.7267 148.503 82.2367 155.883 84.97 163.809C87.9767 171.463 89.48 181.713 89.48 194.559C89.48 205.493 89.48 211.233 89.48 211.779C89.2067 229.273 85.5167 242.393 78.41 251.139C71.3033 259.613 60.0967 263.849 44.79 263.849C14.9967 263.849 0.1 247.039 0.1 213.419V166.679H31.67V213.009C31.67 225.856 35.9067 232.279 44.38 232.279C53.1267 232.279 57.5 225.856 57.5 213.009V193.329C57.5 186.496 56.9533 181.166 55.86 177.339C54.7667 173.239 52.7167 168.866 49.71 164.219L16.91 121.579C10.8967 114.473 6.52333 107.093 3.79 99.4395C1.33 91.5128 0.1 81.5362 0.1 69.5095C0.1 58.5761 0.1 52.6995 0.1 51.8795C0.373334 34.6595 4.06333 21.8128 11.17 13.3395C18.2767 4.59281 29.3467 0.219477 44.38 0.219477C74.1733 0.219477 89.07 17.0295 89.07 50.6495V97.3895H57.5V51.0595C57.5 38.2128 53.1267 31.7895 44.38 31.7895C35.9067 31.7895 31.67 38.2128 31.67 51.0595V70.7395C31.67 77.8462 32.08 83.1762 32.9 86.7295C33.72 90.2828 35.6333 94.3828 38.64 99.0295L71.44 141.669ZM166.675 33.0195H132.235V117.069H166.675V146.999H132.235V231.049H166.675V260.979H100.665V3.08949H166.675V33.0195ZM219.008 33.0195H206.708V134.699H219.008C221.468 134.699 223.655 134.016 225.568 132.649C227.755 131.009 229.395 128.686 230.488 125.679C231.855 122.399 232.538 118.573 232.538 114.199V53.5195C232.538 46.9595 231.171 41.9028 228.438 38.3495C225.978 34.7961 222.835 33.0195 219.008 33.0195ZM252.628 148.229L269.438 260.979H237.048L224.338 164.629H206.708V260.979H175.138V3.08949H221.058C235.271 3.08949 245.931 7.18948 253.038 15.3895C260.418 23.5895 264.108 36.7095 264.108 54.7495C264.108 85.3628 264.108 100.943 264.108 101.489C264.108 110.236 263.288 117.479 261.648 123.219C260.008 128.959 257.411 133.469 253.858 136.749C250.578 140.029 246.341 142.489 241.148 144.129V148.229H252.628ZM334.199 3.08949H366.179L348.139 260.979H290.739L273.109 3.08949H304.679L317.799 231.049H321.079L334.199 3.08949ZM406.503 260.979H374.933V3.08949H406.503V260.979ZM477.148 156.019H508.718V213.419C508.718 247.039 493.821 263.849 464.028 263.849C434.508 263.849 419.748 247.039 419.748 213.419V50.6495C419.748 17.0295 434.508 0.219477 464.028 0.219477C493.821 0.219477 508.718 17.0295 508.718 50.6495V108.049H477.148V51.0595C477.148 38.2128 472.774 31.7895 464.028 31.7895C455.554 31.7895 451.318 38.2128 451.318 51.0595V213.009C451.318 225.856 455.554 232.279 464.028 232.279C472.774 232.279 477.148 225.856 477.148 213.009V156.019ZM586.285 33.0195H551.845V117.069H586.285V146.999H551.845V231.049H586.285V260.979H520.275V3.08949H586.285V33.0195ZM663.217 141.669C669.504 148.503 674.014 155.883 676.747 163.809C679.754 171.463 681.257 181.713 681.257 194.559C681.257 205.493 681.257 211.233 681.257 211.779C680.984 229.273 677.294 242.393 670.187 251.139C663.081 259.613 651.874 263.849 636.567 263.849C606.774 263.849 591.877 247.039 591.877 213.419V166.679H623.447V213.009C623.447 225.856 627.684 232.279 636.157 232.279C644.904 232.279 649.277 225.856 649.277 213.009V193.329C649.277 186.496 648.731 181.166 647.637 177.339C646.544 173.239 644.494 168.866 641.487 164.219L608.687 121.579C602.674 114.473 598.301 107.093 595.567 99.4395C593.107 91.5128 591.877 81.5362 591.877 69.5095C591.877 58.5761 591.877 52.6995 591.877 51.8795C592.151 34.6595 595.841 21.8128 602.947 13.3395C610.054 4.59281 621.124 0.219477 636.157 0.219477C665.951 0.219477 680.847 17.0295 680.847 50.6495V97.3895H649.277V51.0595C649.277 38.2128 644.904 31.7895 636.157 31.7895C627.684 31.7895 623.447 38.2128 623.447 51.0595V70.7395C623.447 77.8462 623.857 83.1762 624.677 86.7295C625.497 90.2828 627.411 94.3828 630.417 99.0295L663.217 141.669Z" fill="#151515"/>
</svg>
