<svg width="32" height="32" viewBox="0 0 32 32" fill="none" xmlns="http://www.w3.org/2000/svg">
<rect width="32" height="32" rx="1" fill="#151515"/>
<path d="M13.2058 19.5498V12.4498C13.2058 12.2898 13.1591 12.1698 13.0658 12.0898C12.9858 12.0098 12.8924 11.9698 12.7858 11.9698C12.7191 11.9698 12.6524 11.9898 12.5858 12.0298C12.5324 12.0564 12.4791 12.1098 12.4258 12.1898C12.3858 12.2564 12.3658 12.3431 12.3658 12.4498V19.5498C12.3658 19.7098 12.4058 19.8298 12.4858 19.9098C12.5791 19.9898 12.6791 20.0298 12.7858 20.0298C12.8524 20.0298 12.9124 20.0164 12.9658 19.9898C13.0324 19.9498 13.0858 19.8964 13.1258 19.8298C13.1791 19.7498 13.2058 19.6564 13.2058 19.5498ZM9.90576 12.4298C9.90576 10.4831 10.8658 9.50977 12.7858 9.50977C14.7058 9.50977 15.6658 10.4831 15.6658 12.4298V19.5698C15.6658 21.5164 14.7058 22.4898 12.7858 22.4898C10.8658 22.4898 9.90576 21.5164 9.90576 19.5698V12.4298Z" fill="white"/>
<path d="M21.2344 15.8698V16.1898L22.0944 22.2898H19.5944L19.1344 17.1498H18.7544V22.2898H16.2944V9.70977H18.7544V14.8498H19.1344L19.5944 9.70977H22.0944L21.2344 15.8698Z" fill="white"/>
</svg>
